<?xml version="1.0" encoding="utf-8" standalone="no"?>
<!DOCTYPE svg PUBLIC "-//W3C//DTD SVG 1.1//EN"
  "http://www.w3.org/Graphics/SVG/1.1/DTD/svg11.dtd">
<svg xmlns:xlink="http://www.w3.org/1999/xlink" width="391.095389pt" height="392.514375pt" viewBox="0 0 391.095389 392.514375" xmlns="http://www.w3.org/2000/svg" version="1.1">
 <metadata>
  <rdf:RDF xmlns:dc="http://purl.org/dc/elements/1.1/" xmlns:cc="http://creativecommons.org/ns#" xmlns:rdf="http://www.w3.org/1999/02/22-rdf-syntax-ns#">
   <cc:Work>
    <dc:type rdf:resource="http://purl.org/dc/dcmitype/StillImage"/>
    <dc:date>2023-12-12T20:59:27.051279</dc:date>
    <dc:format>image/svg+xml</dc:format>
    <dc:creator>
     <cc:Agent>
      <dc:title>Matplotlib v3.8.0, https://matplotlib.org/</dc:title>
     </cc:Agent>
    </dc:creator>
   </cc:Work>
  </rdf:RDF>
 </metadata>
 <defs>
  <style type="text/css">*{stroke-linejoin: round; stroke-linecap: butt}</style>
 </defs>
 <g id="figure_1">
  <g id="patch_1">
   <path d="M 0 392.514375 
L 391.095389 392.514375 
L 391.095389 0 
L 0 0 
z
" style="fill: #ffffff"/>
  </g>
  <g id="axes_1">
   <g id="patch_2">
    <path d="M 46.965625 354.958125 
L 381.765625 354.958125 
L 381.765625 22.318125 
L 46.965625 22.318125 
z
" style="fill: #ffffff"/>
   </g>
   <g id="PathCollection_1">
    <defs>
     <path id="mb624e70759" d="M 0 3 
C 0.795609 3 1.55874 2.683901 2.12132 2.12132 
C 2.683901 1.55874 3 0.795609 3 0 
C 3 -0.795609 2.683901 -1.55874 2.12132 -2.12132 
C 1.55874 -2.683901 0.795609 -3 0 -3 
C -0.795609 -3 -1.55874 -2.683901 -2.12132 -2.12132 
C -2.683901 -1.55874 -3 -0.795609 -3 0 
C -3 0.795609 -2.683901 1.55874 -2.12132 2.12132 
C -1.55874 2.683901 -0.795609 3 0 3 
z
" style="stroke: #1f77b4; stroke-opacity: 0.5"/>
    </defs>
    <g clip-path="url(#p1fb8d258c2)">
     <use xlink:href="#mb624e70759" x="223.47052" y="152.05767" style="fill: #1f77b4; fill-opacity: 0.5; stroke: #1f77b4; stroke-opacity: 0.5"/>
     <use xlink:href="#mb624e70759" x="111.090101" y="279.295281" style="fill: #1f77b4; fill-opacity: 0.5; stroke: #1f77b4; stroke-opacity: 0.5"/>
     <use xlink:href="#mb624e70759" x="279.764786" y="117.857619" style="fill: #1f77b4; fill-opacity: 0.5; stroke: #1f77b4; stroke-opacity: 0.5"/>
     <use xlink:href="#mb624e70759" x="259.890101" y="128.564091" style="fill: #1f77b4; fill-opacity: 0.5; stroke: #1f77b4; stroke-opacity: 0.5"/>
     <use xlink:href="#mb624e70759" x="140.225765" y="258.958495" style="fill: #1f77b4; fill-opacity: 0.5; stroke: #1f77b4; stroke-opacity: 0.5"/>
     <use xlink:href="#mb624e70759" x="113.171219" y="276.888794" style="fill: #1f77b4; fill-opacity: 0.5; stroke: #1f77b4; stroke-opacity: 0.5"/>
     <use xlink:href="#mb624e70759" x="146.469122" y="230.243005" style="fill: #1f77b4; fill-opacity: 0.5; stroke: #1f77b4; stroke-opacity: 0.5"/>
     <use xlink:href="#mb624e70759" x="233.876115" y="183.28977" style="fill: #1f77b4; fill-opacity: 0.5; stroke: #1f77b4; stroke-opacity: 0.5"/>
     <use xlink:href="#mb624e70759" x="302.032758" y="101.668207" style="fill: #1f77b4; fill-opacity: 0.5; stroke: #1f77b4; stroke-opacity: 0.5"/>
     <use xlink:href="#mb624e70759" x="132.941849" y="264.522125" style="fill: #1f77b4; fill-opacity: 0.5; stroke: #1f77b4; stroke-opacity: 0.5"/>
     <use xlink:href="#mb624e70759" x="124.617373" y="292.902982" style="fill: #1f77b4; fill-opacity: 0.5; stroke: #1f77b4; stroke-opacity: 0.5"/>
     <use xlink:href="#mb624e70759" x="124.617373" y="273.495068" style="fill: #1f77b4; fill-opacity: 0.5; stroke: #1f77b4; stroke-opacity: 0.5"/>
     <use xlink:href="#mb624e70759" x="338.972618" y="90.569134" style="fill: #1f77b4; fill-opacity: 0.5; stroke: #1f77b4; stroke-opacity: 0.5"/>
     <use xlink:href="#mb624e70759" x="101.725066" y="301.087906" style="fill: #1f77b4; fill-opacity: 0.5; stroke: #1f77b4; stroke-opacity: 0.5"/>
     <use xlink:href="#mb624e70759" x="150.631359" y="252.980565" style="fill: #1f77b4; fill-opacity: 0.5; stroke: #1f77b4; stroke-opacity: 0.5"/>
     <use xlink:href="#mb624e70759" x="93.40059" y="309.744514" style="fill: #1f77b4; fill-opacity: 0.5; stroke: #1f77b4; stroke-opacity: 0.5"/>
     <use xlink:href="#mb624e70759" x="275.498492" y="116.506215" style="fill: #1f77b4; fill-opacity: 0.5; stroke: #1f77b4; stroke-opacity: 0.5"/>
     <use xlink:href="#mb624e70759" x="125.137653" y="295.613896" style="fill: #1f77b4; fill-opacity: 0.5; stroke: #1f77b4; stroke-opacity: 0.5"/>
     <use xlink:href="#mb624e70759" x="99.643947" y="297.930749" style="fill: #1f77b4; fill-opacity: 0.5; stroke: #1f77b4; stroke-opacity: 0.5"/>
     <use xlink:href="#mb624e70759" x="135.022968" y="295.221221" style="fill: #1f77b4; fill-opacity: 0.5; stroke: #1f77b4; stroke-opacity: 0.5"/>
     <use xlink:href="#mb624e70759" x="254.687303" y="150.320849" style="fill: #1f77b4; fill-opacity: 0.5; stroke: #1f77b4; stroke-opacity: 0.5"/>
     <use xlink:href="#mb624e70759" x="108.436674" y="308.919385" style="fill: #1f77b4; fill-opacity: 0.5; stroke: #1f77b4; stroke-opacity: 0.5"/>
     <use xlink:href="#mb624e70759" x="139.705485" y="263.357792" style="fill: #1f77b4; fill-opacity: 0.5; stroke: #1f77b4; stroke-opacity: 0.5"/>
     <use xlink:href="#mb624e70759" x="296.309681" y="116.812014" style="fill: #1f77b4; fill-opacity: 0.5; stroke: #1f77b4; stroke-opacity: 0.5"/>
     <use xlink:href="#mb624e70759" x="103.806184" y="297.886859" style="fill: #1f77b4; fill-opacity: 0.5; stroke: #1f77b4; stroke-opacity: 0.5"/>
     <use xlink:href="#mb624e70759" x="93.40059" y="311.258895" style="fill: #1f77b4; fill-opacity: 0.5; stroke: #1f77b4; stroke-opacity: 0.5"/>
     <use xlink:href="#mb624e70759" x="124.617373" y="270.812215" style="fill: #1f77b4; fill-opacity: 0.5; stroke: #1f77b4; stroke-opacity: 0.5"/>
     <use xlink:href="#mb624e70759" x="77.792198" y="311.128504" style="fill: #1f77b4; fill-opacity: 0.5; stroke: #1f77b4; stroke-opacity: 0.5"/>
     <use xlink:href="#mb624e70759" x="126.698492" y="263.959414" style="fill: #1f77b4; fill-opacity: 0.5; stroke: #1f77b4; stroke-opacity: 0.5"/>
     <use xlink:href="#mb624e70759" x="176.645345" y="235.390363" style="fill: #1f77b4; fill-opacity: 0.5; stroke: #1f77b4; stroke-opacity: 0.5"/>
     <use xlink:href="#mb624e70759" x="114.211779" y="281.123592" style="fill: #1f77b4; fill-opacity: 0.5; stroke: #1f77b4; stroke-opacity: 0.5"/>
     <use xlink:href="#mb624e70759" x="120.012898" y="282.470008" style="fill: #1f77b4; fill-opacity: 0.5; stroke: #1f77b4; stroke-opacity: 0.5"/>
     <use xlink:href="#mb624e70759" x="103.754156" y="312.002502" style="fill: #1f77b4; fill-opacity: 0.5; stroke: #1f77b4; stroke-opacity: 0.5"/>
     <use xlink:href="#mb624e70759" x="228.673317" y="184.495209" style="fill: #1f77b4; fill-opacity: 0.5; stroke: #1f77b4; stroke-opacity: 0.5"/>
     <use xlink:href="#mb624e70759" x="187.05094" y="218.3501" style="fill: #1f77b4; fill-opacity: 0.5; stroke: #1f77b4; stroke-opacity: 0.5"/>
     <use xlink:href="#mb624e70759" x="97.562828" y="311.851318" style="fill: #1f77b4; fill-opacity: 0.5; stroke: #1f77b4; stroke-opacity: 0.5"/>
     <use xlink:href="#mb624e70759" x="84.295695" y="309.525776" style="fill: #1f77b4; fill-opacity: 0.5; stroke: #1f77b4; stroke-opacity: 0.5"/>
     <use xlink:href="#mb624e70759" x="98.603387" y="310.833999" style="fill: #1f77b4; fill-opacity: 0.5; stroke: #1f77b4; stroke-opacity: 0.5"/>
     <use xlink:href="#mb624e70759" x="218.267723" y="175.434516" style="fill: #1f77b4; fill-opacity: 0.5; stroke: #1f77b4; stroke-opacity: 0.5"/>
     <use xlink:href="#mb624e70759" x="332.729261" y="83.442461" style="fill: #1f77b4; fill-opacity: 0.5; stroke: #1f77b4; stroke-opacity: 0.5"/>
     <use xlink:href="#mb624e70759" x="129.82017" y="268.323416" style="fill: #1f77b4; fill-opacity: 0.5; stroke: #1f77b4; stroke-opacity: 0.5"/>
     <use xlink:href="#mb624e70759" x="119.414576" y="295.209418" style="fill: #1f77b4; fill-opacity: 0.5; stroke: #1f77b4; stroke-opacity: 0.5"/>
     <use xlink:href="#mb624e70759" x="119.414576" y="301.443641" style="fill: #1f77b4; fill-opacity: 0.5; stroke: #1f77b4; stroke-opacity: 0.5"/>
     <use xlink:href="#mb624e70759" x="62.183807" y="326.084561" style="fill: #1f77b4; fill-opacity: 0.5; stroke: #1f77b4; stroke-opacity: 0.5"/>
     <use xlink:href="#mb624e70759" x="280.701289" y="117.14575" style="fill: #1f77b4; fill-opacity: 0.5; stroke: #1f77b4; stroke-opacity: 0.5"/>
     <use xlink:href="#mb624e70759" x="122.536254" y="280.784369" style="fill: #1f77b4; fill-opacity: 0.5; stroke: #1f77b4; stroke-opacity: 0.5"/>
     <use xlink:href="#mb624e70759" x="82.994996" y="302.11175" style="fill: #1f77b4; fill-opacity: 0.5; stroke: #1f77b4; stroke-opacity: 0.5"/>
     <use xlink:href="#mb624e70759" x="166.239751" y="230.52431" style="fill: #1f77b4; fill-opacity: 0.5; stroke: #1f77b4; stroke-opacity: 0.5"/>
     <use xlink:href="#mb624e70759" x="103.806184" y="294.236976" style="fill: #1f77b4; fill-opacity: 0.5; stroke: #1f77b4; stroke-opacity: 0.5"/>
     <use xlink:href="#mb624e70759" x="301.512478" y="99.76806" style="fill: #1f77b4; fill-opacity: 0.5; stroke: #1f77b4; stroke-opacity: 0.5"/>
     <use xlink:href="#mb624e70759" x="328.827163" y="64.484591" style="fill: #1f77b4; fill-opacity: 0.5; stroke: #1f77b4; stroke-opacity: 0.5"/>
     <use xlink:href="#mb624e70759" x="69.467723" y="322.237923" style="fill: #1f77b4; fill-opacity: 0.5; stroke: #1f77b4; stroke-opacity: 0.5"/>
     <use xlink:href="#mb624e70759" x="259.890101" y="152.897396" style="fill: #1f77b4; fill-opacity: 0.5; stroke: #1f77b4; stroke-opacity: 0.5"/>
     <use xlink:href="#mb624e70759" x="119.414576" y="282.115819" style="fill: #1f77b4; fill-opacity: 0.5; stroke: #1f77b4; stroke-opacity: 0.5"/>
     <use xlink:href="#mb624e70759" x="251.565625" y="183.26343" style="fill: #1f77b4; fill-opacity: 0.5; stroke: #1f77b4; stroke-opacity: 0.5"/>
     <use xlink:href="#mb624e70759" x="291.106884" y="110.243562" style="fill: #1f77b4; fill-opacity: 0.5; stroke: #1f77b4; stroke-opacity: 0.5"/>
     <use xlink:href="#mb624e70759" x="99.643947" y="322.675451" style="fill: #1f77b4; fill-opacity: 0.5; stroke: #1f77b4; stroke-opacity: 0.5"/>
     <use xlink:href="#mb624e70759" x="296.309681" y="115.019122" style="fill: #1f77b4; fill-opacity: 0.5; stroke: #1f77b4; stroke-opacity: 0.5"/>
     <use xlink:href="#mb624e70759" x="109.008982" y="289.525469" style="fill: #1f77b4; fill-opacity: 0.5; stroke: #1f77b4; stroke-opacity: 0.5"/>
     <use xlink:href="#mb624e70759" x="116.553038" y="293.449355" style="fill: #1f77b4; fill-opacity: 0.5; stroke: #1f77b4; stroke-opacity: 0.5"/>
     <use xlink:href="#mb624e70759" x="113.119191" y="283.044192" style="fill: #1f77b4; fill-opacity: 0.5; stroke: #1f77b4; stroke-opacity: 0.5"/>
     <use xlink:href="#mb624e70759" x="87.625485" y="307.667273" style="fill: #1f77b4; fill-opacity: 0.5; stroke: #1f77b4; stroke-opacity: 0.5"/>
     <use xlink:href="#mb624e70759" x="119.414576" y="305.247716" style="fill: #1f77b4; fill-opacity: 0.5; stroke: #1f77b4; stroke-opacity: 0.5"/>
     <use xlink:href="#mb624e70759" x="233.876115" y="181.545316" style="fill: #1f77b4; fill-opacity: 0.5; stroke: #1f77b4; stroke-opacity: 0.5"/>
     <use xlink:href="#mb624e70759" x="113.690979" y="285.25393" style="fill: #1f77b4; fill-opacity: 0.5; stroke: #1f77b4; stroke-opacity: 0.5"/>
     <use xlink:href="#mb624e70759" x="109.008982" y="296.29781" style="fill: #1f77b4; fill-opacity: 0.5; stroke: #1f77b4; stroke-opacity: 0.5"/>
     <use xlink:href="#mb624e70759" x="150.631359" y="254.366016" style="fill: #1f77b4; fill-opacity: 0.5; stroke: #1f77b4; stroke-opacity: 0.5"/>
     <use xlink:href="#mb624e70759" x="165.199191" y="246.82367" style="fill: #1f77b4; fill-opacity: 0.5; stroke: #1f77b4; stroke-opacity: 0.5"/>
     <use xlink:href="#mb624e70759" x="166.239751" y="236.993989" style="fill: #1f77b4; fill-opacity: 0.5; stroke: #1f77b4; stroke-opacity: 0.5"/>
     <use xlink:href="#mb624e70759" x="348.337653" y="91.329492" style="fill: #1f77b4; fill-opacity: 0.5; stroke: #1f77b4; stroke-opacity: 0.5"/>
     <use xlink:href="#mb624e70759" x="140.225765" y="253.152322" style="fill: #1f77b4; fill-opacity: 0.5; stroke: #1f77b4; stroke-opacity: 0.5"/>
     <use xlink:href="#mb624e70759" x="124.617373" y="266.649252" style="fill: #1f77b4; fill-opacity: 0.5; stroke: #1f77b4; stroke-opacity: 0.5"/>
     <use xlink:href="#mb624e70759" x="103.806184" y="296.688929" style="fill: #1f77b4; fill-opacity: 0.5; stroke: #1f77b4; stroke-opacity: 0.5"/>
     <use xlink:href="#mb624e70759" x="88.197793" y="313.778653" style="fill: #1f77b4; fill-opacity: 0.5; stroke: #1f77b4; stroke-opacity: 0.5"/>
     <use xlink:href="#mb624e70759" x="103.806184" y="296.925856" style="fill: #1f77b4; fill-opacity: 0.5; stroke: #1f77b4; stroke-opacity: 0.5"/>
     <use xlink:href="#mb624e70759" x="129.82017" y="277.391642" style="fill: #1f77b4; fill-opacity: 0.5; stroke: #1f77b4; stroke-opacity: 0.5"/>
     <use xlink:href="#mb624e70759" x="77.792198" y="318.058997" style="fill: #1f77b4; fill-opacity: 0.5; stroke: #1f77b4; stroke-opacity: 0.5"/>
     <use xlink:href="#mb624e70759" x="202.659331" y="194.149142" style="fill: #1f77b4; fill-opacity: 0.5; stroke: #1f77b4; stroke-opacity: 0.5"/>
     <use xlink:href="#mb624e70759" x="366.547443" y="66.001416" style="fill: #1f77b4; fill-opacity: 0.5; stroke: #1f77b4; stroke-opacity: 0.5"/>
     <use xlink:href="#mb624e70759" x="249.484506" y="128.914389" style="fill: #1f77b4; fill-opacity: 0.5; stroke: #1f77b4; stroke-opacity: 0.5"/>
     <use xlink:href="#mb624e70759" x="291.515303" y="116.006859" style="fill: #1f77b4; fill-opacity: 0.5; stroke: #1f77b4; stroke-opacity: 0.5"/>
     <use xlink:href="#mb624e70759" x="98.603387" y="297.166889" style="fill: #1f77b4; fill-opacity: 0.5; stroke: #1f77b4; stroke-opacity: 0.5"/>
     <use xlink:href="#mb624e70759" x="114.211779" y="265.072863" style="fill: #1f77b4; fill-opacity: 0.5; stroke: #1f77b4; stroke-opacity: 0.5"/>
     <use xlink:href="#mb624e70759" x="135.022968" y="254.81601" style="fill: #1f77b4; fill-opacity: 0.5; stroke: #1f77b4; stroke-opacity: 0.5"/>
     <use xlink:href="#mb624e70759" x="239.078912" y="159.424992" style="fill: #1f77b4; fill-opacity: 0.5; stroke: #1f77b4; stroke-opacity: 0.5"/>
     <use xlink:href="#mb624e70759" x="102.765625" y="300.361405" style="fill: #1f77b4; fill-opacity: 0.5; stroke: #1f77b4; stroke-opacity: 0.5"/>
     <use xlink:href="#mb624e70759" x="332.729261" y="78.027965" style="fill: #1f77b4; fill-opacity: 0.5; stroke: #1f77b4; stroke-opacity: 0.5"/>
     <use xlink:href="#mb624e70759" x="195.375415" y="184.012564" style="fill: #1f77b4; fill-opacity: 0.5; stroke: #1f77b4; stroke-opacity: 0.5"/>
     <use xlink:href="#mb624e70759" x="109.008982" y="299.917432" style="fill: #1f77b4; fill-opacity: 0.5; stroke: #1f77b4; stroke-opacity: 0.5"/>
     <use xlink:href="#mb624e70759" x="186.01038" y="225.965803" style="fill: #1f77b4; fill-opacity: 0.5; stroke: #1f77b4; stroke-opacity: 0.5"/>
     <use xlink:href="#mb624e70759" x="135.022968" y="275.644145" style="fill: #1f77b4; fill-opacity: 0.5; stroke: #1f77b4; stroke-opacity: 0.5"/>
     <use xlink:href="#mb624e70759" x="97.562828" y="309.955521" style="fill: #1f77b4; fill-opacity: 0.5; stroke: #1f77b4; stroke-opacity: 0.5"/>
     <use xlink:href="#mb624e70759" x="93.40059" y="310.526074" style="fill: #1f77b4; fill-opacity: 0.5; stroke: #1f77b4; stroke-opacity: 0.5"/>
     <use xlink:href="#mb624e70759" x="291.106884" y="122.089424" style="fill: #1f77b4; fill-opacity: 0.5; stroke: #1f77b4; stroke-opacity: 0.5"/>
     <use xlink:href="#mb624e70759" x="152.244226" y="238.125098" style="fill: #1f77b4; fill-opacity: 0.5; stroke: #1f77b4; stroke-opacity: 0.5"/>
     <use xlink:href="#mb624e70759" x="322.323667" y="70.44364" style="fill: #1f77b4; fill-opacity: 0.5; stroke: #1f77b4; stroke-opacity: 0.5"/>
     <use xlink:href="#mb624e70759" x="311.918073" y="95.937336" style="fill: #1f77b4; fill-opacity: 0.5; stroke: #1f77b4; stroke-opacity: 0.5"/>
     <use xlink:href="#mb624e70759" x="345.215975" y="67.940374" style="fill: #1f77b4; fill-opacity: 0.5; stroke: #1f77b4; stroke-opacity: 0.5"/>
     <use xlink:href="#mb624e70759" x="166.239751" y="232.459377" style="fill: #1f77b4; fill-opacity: 0.5; stroke: #1f77b4; stroke-opacity: 0.5"/>
     <use xlink:href="#mb624e70759" x="145.428562" y="240.74759" style="fill: #1f77b4; fill-opacity: 0.5; stroke: #1f77b4; stroke-opacity: 0.5"/>
     <use xlink:href="#mb624e70759" x="326.485905" y="75.687327" style="fill: #1f77b4; fill-opacity: 0.5; stroke: #1f77b4; stroke-opacity: 0.5"/>
     <use xlink:href="#mb624e70759" x="145.428562" y="255.675392" style="fill: #1f77b4; fill-opacity: 0.5; stroke: #1f77b4; stroke-opacity: 0.5"/>
     <use xlink:href="#mb624e70759" x="112.65094" y="282.784288" style="fill: #1f77b4; fill-opacity: 0.5; stroke: #1f77b4; stroke-opacity: 0.5"/>
     <use xlink:href="#mb624e70759" x="88.197793" y="310.684481" style="fill: #1f77b4; fill-opacity: 0.5; stroke: #1f77b4; stroke-opacity: 0.5"/>
     <use xlink:href="#mb624e70759" x="213.064926" y="194.047625" style="fill: #1f77b4; fill-opacity: 0.5; stroke: #1f77b4; stroke-opacity: 0.5"/>
    </g>
   </g>
   <g id="PolyCollection_1">
    <path d="M 62.183807 332.943232 
L 62.183807 339.838125 
L 65.258187 336.857708 
L 68.332567 333.874247 
L 71.406947 330.836556 
L 74.481327 327.797528 
L 77.555708 324.744075 
L 80.630088 321.722361 
L 83.704468 318.721334 
L 86.778848 315.7084 
L 89.853228 312.702116 
L 92.927608 309.696003 
L 96.001989 306.678937 
L 99.076369 303.683167 
L 102.150749 300.677143 
L 105.225129 297.692293 
L 108.299509 294.664856 
L 111.373889 291.633839 
L 114.44827 288.645854 
L 117.52265 285.628601 
L 120.59703 282.634525 
L 123.67141 279.655183 
L 126.74579 276.637334 
L 129.82017 273.6737 
L 132.894551 270.732864 
L 135.968931 267.737768 
L 139.043311 264.76502 
L 142.117691 261.804098 
L 145.192071 258.917697 
L 148.266451 255.917699 
L 151.340832 252.928342 
L 154.415212 250.015159 
L 157.489592 247.101977 
L 160.563972 244.172737 
L 163.638352 241.241014 
L 166.712732 238.299135 
L 169.787113 235.410111 
L 172.861493 232.498746 
L 175.935873 229.583075 
L 179.010253 226.68794 
L 182.084633 223.762393 
L 185.159013 220.833529 
L 188.233394 217.910578 
L 191.307774 215.006496 
L 194.382154 212.105226 
L 197.456534 209.167916 
L 200.530914 206.251826 
L 203.605294 203.334584 
L 206.679675 200.417939 
L 209.754055 197.512021 
L 212.828435 194.619765 
L 215.902815 191.715946 
L 218.977195 188.824046 
L 222.051575 185.885851 
L 225.125956 182.990129 
L 228.200336 180.09225 
L 231.274716 177.168112 
L 234.349096 174.243974 
L 237.423476 171.342263 
L 240.497856 168.448942 
L 243.572237 165.578781 
L 246.646617 162.742658 
L 249.720997 159.859028 
L 252.795377 156.966693 
L 255.869757 154.106447 
L 258.944137 151.217231 
L 262.018518 148.317716 
L 265.092898 145.4264 
L 268.167278 142.555141 
L 271.241658 139.664276 
L 274.316038 136.773164 
L 277.390418 133.88141 
L 280.464799 130.989656 
L 283.539179 128.097901 
L 286.613559 125.206147 
L 289.687939 122.340728 
L 292.762319 119.477722 
L 295.836699 116.614715 
L 298.91108 113.73667 
L 301.98546 110.833185 
L 305.05984 107.95715 
L 308.13422 105.067972 
L 311.2086 102.191391 
L 314.28298 99.333916 
L 317.357361 96.48299 
L 320.431741 93.613511 
L 323.506121 90.744033 
L 326.580501 87.874097 
L 329.654881 85.003218 
L 332.729261 82.120327 
L 335.803642 79.256483 
L 338.878022 76.392638 
L 341.952402 73.523365 
L 345.026782 70.653552 
L 348.101162 67.783739 
L 351.175542 64.913925 
L 354.249923 62.044112 
L 357.324303 59.174298 
L 360.398683 56.304166 
L 363.473063 53.433736 
L 366.547443 50.557553 
L 366.547443 37.438125 
L 366.547443 37.438125 
L 363.473063 40.434676 
L 360.398683 43.431227 
L 357.324303 46.427778 
L 354.249923 49.429309 
L 351.175542 52.497906 
L 348.101162 55.56676 
L 345.026782 58.635754 
L 341.952402 61.704748 
L 338.878022 64.774035 
L 335.803642 67.801917 
L 332.729261 70.823267 
L 329.654881 73.844618 
L 326.580501 76.865969 
L 323.506121 79.903626 
L 320.431741 82.958117 
L 317.357361 86.012609 
L 314.28298 89.067283 
L 311.2086 92.119771 
L 308.13422 95.132213 
L 305.05984 98.144769 
L 301.98546 101.216428 
L 298.91108 104.266394 
L 295.836699 107.278276 
L 292.762319 110.275208 
L 289.687939 113.29515 
L 286.613559 116.312447 
L 283.539179 119.325536 
L 280.464799 122.368574 
L 277.390418 125.378667 
L 274.316038 128.420597 
L 271.241658 131.410412 
L 268.167278 134.444448 
L 265.092898 137.457793 
L 262.018518 140.511392 
L 258.944137 143.566087 
L 255.869757 146.559047 
L 252.795377 149.571281 
L 249.720997 152.615 
L 246.646617 155.658699 
L 243.572237 158.667463 
L 240.497856 161.669766 
L 237.423476 164.683138 
L 234.349096 167.682161 
L 231.274716 170.709435 
L 228.200336 173.723255 
L 225.125956 176.7373 
L 222.051575 179.752247 
L 218.977195 182.760115 
L 215.902815 185.782141 
L 212.828435 188.796485 
L 209.754055 191.809425 
L 206.679675 194.822611 
L 203.605294 197.807502 
L 200.530914 200.851152 
L 197.456534 203.865538 
L 194.382154 206.879923 
L 191.307774 209.894309 
L 188.233394 212.871374 
L 185.159013 215.846494 
L 182.084633 218.863187 
L 179.010253 221.81759 
L 175.935873 224.830788 
L 172.861493 227.813929 
L 169.787113 230.782225 
L 166.712732 233.742025 
L 163.638352 236.679327 
L 160.563972 239.651995 
L 157.489592 242.622335 
L 154.415212 245.596893 
L 151.340832 248.53069 
L 148.266451 251.498474 
L 145.192071 254.425053 
L 142.117691 257.343636 
L 139.043311 260.291657 
L 135.968931 263.262103 
L 132.894551 266.225095 
L 129.82017 269.145318 
L 126.74579 272.083081 
L 123.67141 274.984402 
L 120.59703 277.903219 
L 117.52265 280.851368 
L 114.44827 283.761505 
L 111.373889 286.696779 
L 108.299509 289.581568 
L 105.225129 292.46026 
L 102.150749 295.368135 
L 99.076369 298.273792 
L 96.001989 301.149517 
L 92.927608 304.064391 
L 89.853228 306.999236 
L 86.778848 309.935668 
L 83.704468 312.811672 
L 80.630088 315.71863 
L 77.555708 318.634182 
L 74.481327 321.549078 
L 71.406947 324.436249 
L 68.332567 327.26001 
L 65.258187 330.083808 
L 62.183807 332.943232 
z
" clip-path="url(#p1fb8d258c2)" style="fill: #d62728; fill-opacity: 0.15"/>
   </g>
   <g id="matplotlib.axis_1">
    <g id="xtick_1">
     <g id="line2d_1">
      <defs>
       <path id="m2165fe552b" d="M 0 0 
L 0 3.5 
" style="stroke: #000000; stroke-width: 0.8"/>
      </defs>
      <g>
       <use xlink:href="#m2165fe552b" x="62.183807" y="354.958125" style="stroke: #000000; stroke-width: 0.8"/>
      </g>
     </g>
     <g id="text_1">
      <!-- 250 -->
      <g transform="translate(52.640057 369.556562) scale(0.1 -0.1)">
       <defs>
        <path id="DejaVuSans-32" d="M 1228 531 
L 3431 531 
L 3431 0 
L 469 0 
L 469 531 
Q 828 903 1448 1529 
Q 2069 2156 2228 2338 
Q 2531 2678 2651 2914 
Q 2772 3150 2772 3378 
Q 2772 3750 2511 3984 
Q 2250 4219 1831 4219 
Q 1534 4219 1204 4116 
Q 875 4013 500 3803 
L 500 4441 
Q 881 4594 1212 4672 
Q 1544 4750 1819 4750 
Q 2544 4750 2975 4387 
Q 3406 4025 3406 3419 
Q 3406 3131 3298 2873 
Q 3191 2616 2906 2266 
Q 2828 2175 2409 1742 
Q 1991 1309 1228 531 
z
" transform="scale(0.015625)"/>
        <path id="DejaVuSans-35" d="M 691 4666 
L 3169 4666 
L 3169 4134 
L 1269 4134 
L 1269 2991 
Q 1406 3038 1543 3061 
Q 1681 3084 1819 3084 
Q 2600 3084 3056 2656 
Q 3513 2228 3513 1497 
Q 3513 744 3044 326 
Q 2575 -91 1722 -91 
Q 1428 -91 1123 -41 
Q 819 9 494 109 
L 494 744 
Q 775 591 1075 516 
Q 1375 441 1709 441 
Q 2250 441 2565 725 
Q 2881 1009 2881 1497 
Q 2881 1984 2565 2268 
Q 2250 2553 1709 2553 
Q 1456 2553 1204 2497 
Q 953 2441 691 2322 
L 691 4666 
z
" transform="scale(0.015625)"/>
        <path id="DejaVuSans-30" d="M 2034 4250 
Q 1547 4250 1301 3770 
Q 1056 3291 1056 2328 
Q 1056 1369 1301 889 
Q 1547 409 2034 409 
Q 2525 409 2770 889 
Q 3016 1369 3016 2328 
Q 3016 3291 2770 3770 
Q 2525 4250 2034 4250 
z
M 2034 4750 
Q 2819 4750 3233 4129 
Q 3647 3509 3647 2328 
Q 3647 1150 3233 529 
Q 2819 -91 2034 -91 
Q 1250 -91 836 529 
Q 422 1150 422 2328 
Q 422 3509 836 4129 
Q 1250 4750 2034 4750 
z
" transform="scale(0.015625)"/>
       </defs>
       <use xlink:href="#DejaVuSans-32"/>
       <use xlink:href="#DejaVuSans-35" x="63.623047"/>
       <use xlink:href="#DejaVuSans-30" x="127.246094"/>
      </g>
     </g>
    </g>
    <g id="xtick_2">
     <g id="line2d_2">
      <g>
       <use xlink:href="#m2165fe552b" x="114.211779" y="354.958125" style="stroke: #000000; stroke-width: 0.8"/>
      </g>
     </g>
     <g id="text_2">
      <!-- 300 -->
      <g transform="translate(104.668029 369.556562) scale(0.1 -0.1)">
       <defs>
        <path id="DejaVuSans-33" d="M 2597 2516 
Q 3050 2419 3304 2112 
Q 3559 1806 3559 1356 
Q 3559 666 3084 287 
Q 2609 -91 1734 -91 
Q 1441 -91 1130 -33 
Q 819 25 488 141 
L 488 750 
Q 750 597 1062 519 
Q 1375 441 1716 441 
Q 2309 441 2620 675 
Q 2931 909 2931 1356 
Q 2931 1769 2642 2001 
Q 2353 2234 1838 2234 
L 1294 2234 
L 1294 2753 
L 1863 2753 
Q 2328 2753 2575 2939 
Q 2822 3125 2822 3475 
Q 2822 3834 2567 4026 
Q 2313 4219 1838 4219 
Q 1578 4219 1281 4162 
Q 984 4106 628 3988 
L 628 4550 
Q 988 4650 1302 4700 
Q 1616 4750 1894 4750 
Q 2613 4750 3031 4423 
Q 3450 4097 3450 3541 
Q 3450 3153 3228 2886 
Q 3006 2619 2597 2516 
z
" transform="scale(0.015625)"/>
       </defs>
       <use xlink:href="#DejaVuSans-33"/>
       <use xlink:href="#DejaVuSans-30" x="63.623047"/>
       <use xlink:href="#DejaVuSans-30" x="127.246094"/>
      </g>
     </g>
    </g>
    <g id="xtick_3">
     <g id="line2d_3">
      <g>
       <use xlink:href="#m2165fe552b" x="166.239751" y="354.958125" style="stroke: #000000; stroke-width: 0.8"/>
      </g>
     </g>
     <g id="text_3">
      <!-- 350 -->
      <g transform="translate(156.696001 369.556562) scale(0.1 -0.1)">
       <use xlink:href="#DejaVuSans-33"/>
       <use xlink:href="#DejaVuSans-35" x="63.623047"/>
       <use xlink:href="#DejaVuSans-30" x="127.246094"/>
      </g>
     </g>
    </g>
    <g id="xtick_4">
     <g id="line2d_4">
      <g>
       <use xlink:href="#m2165fe552b" x="218.267723" y="354.958125" style="stroke: #000000; stroke-width: 0.8"/>
      </g>
     </g>
     <g id="text_4">
      <!-- 400 -->
      <g transform="translate(208.723973 369.556562) scale(0.1 -0.1)">
       <defs>
        <path id="DejaVuSans-34" d="M 2419 4116 
L 825 1625 
L 2419 1625 
L 2419 4116 
z
M 2253 4666 
L 3047 4666 
L 3047 1625 
L 3713 1625 
L 3713 1100 
L 3047 1100 
L 3047 0 
L 2419 0 
L 2419 1100 
L 313 1100 
L 313 1709 
L 2253 4666 
z
" transform="scale(0.015625)"/>
       </defs>
       <use xlink:href="#DejaVuSans-34"/>
       <use xlink:href="#DejaVuSans-30" x="63.623047"/>
       <use xlink:href="#DejaVuSans-30" x="127.246094"/>
      </g>
     </g>
    </g>
    <g id="xtick_5">
     <g id="line2d_5">
      <g>
       <use xlink:href="#m2165fe552b" x="270.295695" y="354.958125" style="stroke: #000000; stroke-width: 0.8"/>
      </g>
     </g>
     <g id="text_5">
      <!-- 450 -->
      <g transform="translate(260.751945 369.556562) scale(0.1 -0.1)">
       <use xlink:href="#DejaVuSans-34"/>
       <use xlink:href="#DejaVuSans-35" x="63.623047"/>
       <use xlink:href="#DejaVuSans-30" x="127.246094"/>
      </g>
     </g>
    </g>
    <g id="xtick_6">
     <g id="line2d_6">
      <g>
       <use xlink:href="#m2165fe552b" x="322.323667" y="354.958125" style="stroke: #000000; stroke-width: 0.8"/>
      </g>
     </g>
     <g id="text_6">
      <!-- 500 -->
      <g transform="translate(312.779917 369.556562) scale(0.1 -0.1)">
       <use xlink:href="#DejaVuSans-35"/>
       <use xlink:href="#DejaVuSans-30" x="63.623047"/>
       <use xlink:href="#DejaVuSans-30" x="127.246094"/>
      </g>
     </g>
    </g>
    <g id="xtick_7">
     <g id="line2d_7">
      <g>
       <use xlink:href="#m2165fe552b" x="374.351639" y="354.958125" style="stroke: #000000; stroke-width: 0.8"/>
      </g>
     </g>
     <g id="text_7">
      <!-- 550 -->
      <g transform="translate(364.807889 369.556562) scale(0.1 -0.1)">
       <use xlink:href="#DejaVuSans-35"/>
       <use xlink:href="#DejaVuSans-35" x="63.623047"/>
       <use xlink:href="#DejaVuSans-30" x="127.246094"/>
      </g>
     </g>
    </g>
    <g id="text_8">
     <!-- Actual Median Sale Price ($, thousands) -->
     <g transform="translate(115.022656 383.234687) scale(0.1 -0.1)">
      <defs>
       <path id="DejaVuSans-41" d="M 2188 4044 
L 1331 1722 
L 3047 1722 
L 2188 4044 
z
M 1831 4666 
L 2547 4666 
L 4325 0 
L 3669 0 
L 3244 1197 
L 1141 1197 
L 716 0 
L 50 0 
L 1831 4666 
z
" transform="scale(0.015625)"/>
       <path id="DejaVuSans-63" d="M 3122 3366 
L 3122 2828 
Q 2878 2963 2633 3030 
Q 2388 3097 2138 3097 
Q 1578 3097 1268 2742 
Q 959 2388 959 1747 
Q 959 1106 1268 751 
Q 1578 397 2138 397 
Q 2388 397 2633 464 
Q 2878 531 3122 666 
L 3122 134 
Q 2881 22 2623 -34 
Q 2366 -91 2075 -91 
Q 1284 -91 818 406 
Q 353 903 353 1747 
Q 353 2603 823 3093 
Q 1294 3584 2113 3584 
Q 2378 3584 2631 3529 
Q 2884 3475 3122 3366 
z
" transform="scale(0.015625)"/>
       <path id="DejaVuSans-74" d="M 1172 4494 
L 1172 3500 
L 2356 3500 
L 2356 3053 
L 1172 3053 
L 1172 1153 
Q 1172 725 1289 603 
Q 1406 481 1766 481 
L 2356 481 
L 2356 0 
L 1766 0 
Q 1100 0 847 248 
Q 594 497 594 1153 
L 594 3053 
L 172 3053 
L 172 3500 
L 594 3500 
L 594 4494 
L 1172 4494 
z
" transform="scale(0.015625)"/>
       <path id="DejaVuSans-75" d="M 544 1381 
L 544 3500 
L 1119 3500 
L 1119 1403 
Q 1119 906 1312 657 
Q 1506 409 1894 409 
Q 2359 409 2629 706 
Q 2900 1003 2900 1516 
L 2900 3500 
L 3475 3500 
L 3475 0 
L 2900 0 
L 2900 538 
Q 2691 219 2414 64 
Q 2138 -91 1772 -91 
Q 1169 -91 856 284 
Q 544 659 544 1381 
z
M 1991 3584 
L 1991 3584 
z
" transform="scale(0.015625)"/>
       <path id="DejaVuSans-61" d="M 2194 1759 
Q 1497 1759 1228 1600 
Q 959 1441 959 1056 
Q 959 750 1161 570 
Q 1363 391 1709 391 
Q 2188 391 2477 730 
Q 2766 1069 2766 1631 
L 2766 1759 
L 2194 1759 
z
M 3341 1997 
L 3341 0 
L 2766 0 
L 2766 531 
Q 2569 213 2275 61 
Q 1981 -91 1556 -91 
Q 1019 -91 701 211 
Q 384 513 384 1019 
Q 384 1609 779 1909 
Q 1175 2209 1959 2209 
L 2766 2209 
L 2766 2266 
Q 2766 2663 2505 2880 
Q 2244 3097 1772 3097 
Q 1472 3097 1187 3025 
Q 903 2953 641 2809 
L 641 3341 
Q 956 3463 1253 3523 
Q 1550 3584 1831 3584 
Q 2591 3584 2966 3190 
Q 3341 2797 3341 1997 
z
" transform="scale(0.015625)"/>
       <path id="DejaVuSans-6c" d="M 603 4863 
L 1178 4863 
L 1178 0 
L 603 0 
L 603 4863 
z
" transform="scale(0.015625)"/>
       <path id="DejaVuSans-20" transform="scale(0.015625)"/>
       <path id="DejaVuSans-4d" d="M 628 4666 
L 1569 4666 
L 2759 1491 
L 3956 4666 
L 4897 4666 
L 4897 0 
L 4281 0 
L 4281 4097 
L 3078 897 
L 2444 897 
L 1241 4097 
L 1241 0 
L 628 0 
L 628 4666 
z
" transform="scale(0.015625)"/>
       <path id="DejaVuSans-65" d="M 3597 1894 
L 3597 1613 
L 953 1613 
Q 991 1019 1311 708 
Q 1631 397 2203 397 
Q 2534 397 2845 478 
Q 3156 559 3463 722 
L 3463 178 
Q 3153 47 2828 -22 
Q 2503 -91 2169 -91 
Q 1331 -91 842 396 
Q 353 884 353 1716 
Q 353 2575 817 3079 
Q 1281 3584 2069 3584 
Q 2775 3584 3186 3129 
Q 3597 2675 3597 1894 
z
M 3022 2063 
Q 3016 2534 2758 2815 
Q 2500 3097 2075 3097 
Q 1594 3097 1305 2825 
Q 1016 2553 972 2059 
L 3022 2063 
z
" transform="scale(0.015625)"/>
       <path id="DejaVuSans-64" d="M 2906 2969 
L 2906 4863 
L 3481 4863 
L 3481 0 
L 2906 0 
L 2906 525 
Q 2725 213 2448 61 
Q 2172 -91 1784 -91 
Q 1150 -91 751 415 
Q 353 922 353 1747 
Q 353 2572 751 3078 
Q 1150 3584 1784 3584 
Q 2172 3584 2448 3432 
Q 2725 3281 2906 2969 
z
M 947 1747 
Q 947 1113 1208 752 
Q 1469 391 1925 391 
Q 2381 391 2643 752 
Q 2906 1113 2906 1747 
Q 2906 2381 2643 2742 
Q 2381 3103 1925 3103 
Q 1469 3103 1208 2742 
Q 947 2381 947 1747 
z
" transform="scale(0.015625)"/>
       <path id="DejaVuSans-69" d="M 603 3500 
L 1178 3500 
L 1178 0 
L 603 0 
L 603 3500 
z
M 603 4863 
L 1178 4863 
L 1178 4134 
L 603 4134 
L 603 4863 
z
" transform="scale(0.015625)"/>
       <path id="DejaVuSans-6e" d="M 3513 2113 
L 3513 0 
L 2938 0 
L 2938 2094 
Q 2938 2591 2744 2837 
Q 2550 3084 2163 3084 
Q 1697 3084 1428 2787 
Q 1159 2491 1159 1978 
L 1159 0 
L 581 0 
L 581 3500 
L 1159 3500 
L 1159 2956 
Q 1366 3272 1645 3428 
Q 1925 3584 2291 3584 
Q 2894 3584 3203 3211 
Q 3513 2838 3513 2113 
z
" transform="scale(0.015625)"/>
       <path id="DejaVuSans-53" d="M 3425 4513 
L 3425 3897 
Q 3066 4069 2747 4153 
Q 2428 4238 2131 4238 
Q 1616 4238 1336 4038 
Q 1056 3838 1056 3469 
Q 1056 3159 1242 3001 
Q 1428 2844 1947 2747 
L 2328 2669 
Q 3034 2534 3370 2195 
Q 3706 1856 3706 1288 
Q 3706 609 3251 259 
Q 2797 -91 1919 -91 
Q 1588 -91 1214 -16 
Q 841 59 441 206 
L 441 856 
Q 825 641 1194 531 
Q 1563 422 1919 422 
Q 2459 422 2753 634 
Q 3047 847 3047 1241 
Q 3047 1584 2836 1778 
Q 2625 1972 2144 2069 
L 1759 2144 
Q 1053 2284 737 2584 
Q 422 2884 422 3419 
Q 422 4038 858 4394 
Q 1294 4750 2059 4750 
Q 2388 4750 2728 4690 
Q 3069 4631 3425 4513 
z
" transform="scale(0.015625)"/>
       <path id="DejaVuSans-50" d="M 1259 4147 
L 1259 2394 
L 2053 2394 
Q 2494 2394 2734 2622 
Q 2975 2850 2975 3272 
Q 2975 3691 2734 3919 
Q 2494 4147 2053 4147 
L 1259 4147 
z
M 628 4666 
L 2053 4666 
Q 2838 4666 3239 4311 
Q 3641 3956 3641 3272 
Q 3641 2581 3239 2228 
Q 2838 1875 2053 1875 
L 1259 1875 
L 1259 0 
L 628 0 
L 628 4666 
z
" transform="scale(0.015625)"/>
       <path id="DejaVuSans-72" d="M 2631 2963 
Q 2534 3019 2420 3045 
Q 2306 3072 2169 3072 
Q 1681 3072 1420 2755 
Q 1159 2438 1159 1844 
L 1159 0 
L 581 0 
L 581 3500 
L 1159 3500 
L 1159 2956 
Q 1341 3275 1631 3429 
Q 1922 3584 2338 3584 
Q 2397 3584 2469 3576 
Q 2541 3569 2628 3553 
L 2631 2963 
z
" transform="scale(0.015625)"/>
       <path id="DejaVuSans-28" d="M 1984 4856 
Q 1566 4138 1362 3434 
Q 1159 2731 1159 2009 
Q 1159 1288 1364 580 
Q 1569 -128 1984 -844 
L 1484 -844 
Q 1016 -109 783 600 
Q 550 1309 550 2009 
Q 550 2706 781 3412 
Q 1013 4119 1484 4856 
L 1984 4856 
z
" transform="scale(0.015625)"/>
       <path id="DejaVuSans-24" d="M 2163 -941 
L 1850 -941 
L 1847 0 
Q 1519 6 1191 76 
Q 863 147 531 288 
L 531 850 
Q 850 650 1176 548 
Q 1503 447 1850 444 
L 1850 1869 
Q 1159 1981 845 2250 
Q 531 2519 531 2988 
Q 531 3497 872 3790 
Q 1213 4084 1850 4128 
L 1850 4863 
L 2163 4863 
L 2163 4138 
Q 2453 4125 2725 4076 
Q 2997 4028 3256 3944 
L 3256 3397 
Q 2997 3528 2723 3600 
Q 2450 3672 2163 3684 
L 2163 2350 
Q 2872 2241 3206 1959 
Q 3541 1678 3541 1191 
Q 3541 663 3186 358 
Q 2831 53 2163 6 
L 2163 -941 
z
M 1850 2406 
L 1850 3688 
Q 1488 3647 1297 3481 
Q 1106 3316 1106 3041 
Q 1106 2772 1282 2622 
Q 1459 2472 1850 2406 
z
M 2163 1806 
L 2163 453 
Q 2559 506 2761 678 
Q 2963 850 2963 1131 
Q 2963 1406 2770 1568 
Q 2578 1731 2163 1806 
z
" transform="scale(0.015625)"/>
       <path id="DejaVuSans-2c" d="M 750 794 
L 1409 794 
L 1409 256 
L 897 -744 
L 494 -744 
L 750 256 
L 750 794 
z
" transform="scale(0.015625)"/>
       <path id="DejaVuSans-68" d="M 3513 2113 
L 3513 0 
L 2938 0 
L 2938 2094 
Q 2938 2591 2744 2837 
Q 2550 3084 2163 3084 
Q 1697 3084 1428 2787 
Q 1159 2491 1159 1978 
L 1159 0 
L 581 0 
L 581 4863 
L 1159 4863 
L 1159 2956 
Q 1366 3272 1645 3428 
Q 1925 3584 2291 3584 
Q 2894 3584 3203 3211 
Q 3513 2838 3513 2113 
z
" transform="scale(0.015625)"/>
       <path id="DejaVuSans-6f" d="M 1959 3097 
Q 1497 3097 1228 2736 
Q 959 2375 959 1747 
Q 959 1119 1226 758 
Q 1494 397 1959 397 
Q 2419 397 2687 759 
Q 2956 1122 2956 1747 
Q 2956 2369 2687 2733 
Q 2419 3097 1959 3097 
z
M 1959 3584 
Q 2709 3584 3137 3096 
Q 3566 2609 3566 1747 
Q 3566 888 3137 398 
Q 2709 -91 1959 -91 
Q 1206 -91 779 398 
Q 353 888 353 1747 
Q 353 2609 779 3096 
Q 1206 3584 1959 3584 
z
" transform="scale(0.015625)"/>
       <path id="DejaVuSans-73" d="M 2834 3397 
L 2834 2853 
Q 2591 2978 2328 3040 
Q 2066 3103 1784 3103 
Q 1356 3103 1142 2972 
Q 928 2841 928 2578 
Q 928 2378 1081 2264 
Q 1234 2150 1697 2047 
L 1894 2003 
Q 2506 1872 2764 1633 
Q 3022 1394 3022 966 
Q 3022 478 2636 193 
Q 2250 -91 1575 -91 
Q 1294 -91 989 -36 
Q 684 19 347 128 
L 347 722 
Q 666 556 975 473 
Q 1284 391 1588 391 
Q 1994 391 2212 530 
Q 2431 669 2431 922 
Q 2431 1156 2273 1281 
Q 2116 1406 1581 1522 
L 1381 1569 
Q 847 1681 609 1914 
Q 372 2147 372 2553 
Q 372 3047 722 3315 
Q 1072 3584 1716 3584 
Q 2034 3584 2315 3537 
Q 2597 3491 2834 3397 
z
" transform="scale(0.015625)"/>
       <path id="DejaVuSans-29" d="M 513 4856 
L 1013 4856 
Q 1481 4119 1714 3412 
Q 1947 2706 1947 2009 
Q 1947 1309 1714 600 
Q 1481 -109 1013 -844 
L 513 -844 
Q 928 -128 1133 580 
Q 1338 1288 1338 2009 
Q 1338 2731 1133 3434 
Q 928 4138 513 4856 
z
" transform="scale(0.015625)"/>
      </defs>
      <use xlink:href="#DejaVuSans-41"/>
      <use xlink:href="#DejaVuSans-63" x="66.658203"/>
      <use xlink:href="#DejaVuSans-74" x="121.638672"/>
      <use xlink:href="#DejaVuSans-75" x="160.847656"/>
      <use xlink:href="#DejaVuSans-61" x="224.226562"/>
      <use xlink:href="#DejaVuSans-6c" x="285.505859"/>
      <use xlink:href="#DejaVuSans-20" x="313.289062"/>
      <use xlink:href="#DejaVuSans-4d" x="345.076172"/>
      <use xlink:href="#DejaVuSans-65" x="431.355469"/>
      <use xlink:href="#DejaVuSans-64" x="492.878906"/>
      <use xlink:href="#DejaVuSans-69" x="556.355469"/>
      <use xlink:href="#DejaVuSans-61" x="584.138672"/>
      <use xlink:href="#DejaVuSans-6e" x="645.417969"/>
      <use xlink:href="#DejaVuSans-20" x="708.796875"/>
      <use xlink:href="#DejaVuSans-53" x="740.583984"/>
      <use xlink:href="#DejaVuSans-61" x="804.060547"/>
      <use xlink:href="#DejaVuSans-6c" x="865.339844"/>
      <use xlink:href="#DejaVuSans-65" x="893.123047"/>
      <use xlink:href="#DejaVuSans-20" x="954.646484"/>
      <use xlink:href="#DejaVuSans-50" x="986.433594"/>
      <use xlink:href="#DejaVuSans-72" x="1044.986328"/>
      <use xlink:href="#DejaVuSans-69" x="1086.099609"/>
      <use xlink:href="#DejaVuSans-63" x="1113.882812"/>
      <use xlink:href="#DejaVuSans-65" x="1168.863281"/>
      <use xlink:href="#DejaVuSans-20" x="1230.386719"/>
      <use xlink:href="#DejaVuSans-28" x="1262.173828"/>
      <use xlink:href="#DejaVuSans-24" x="1301.1875"/>
      <use xlink:href="#DejaVuSans-2c" x="1364.810547"/>
      <use xlink:href="#DejaVuSans-20" x="1396.597656"/>
      <use xlink:href="#DejaVuSans-74" x="1428.384766"/>
      <use xlink:href="#DejaVuSans-68" x="1467.59375"/>
      <use xlink:href="#DejaVuSans-6f" x="1530.972656"/>
      <use xlink:href="#DejaVuSans-75" x="1592.154297"/>
      <use xlink:href="#DejaVuSans-73" x="1655.533203"/>
      <use xlink:href="#DejaVuSans-61" x="1707.632812"/>
      <use xlink:href="#DejaVuSans-6e" x="1768.912109"/>
      <use xlink:href="#DejaVuSans-64" x="1832.291016"/>
      <use xlink:href="#DejaVuSans-73" x="1895.767578"/>
      <use xlink:href="#DejaVuSans-29" x="1947.867188"/>
     </g>
    </g>
   </g>
   <g id="matplotlib.axis_2">
    <g id="ytick_1">
     <g id="line2d_8">
      <defs>
       <path id="m6c2b91c257" d="M 0 0 
L -3.5 0 
" style="stroke: #000000; stroke-width: 0.8"/>
      </defs>
      <g>
       <use xlink:href="#m6c2b91c257" x="46.965625" y="337.548329" style="stroke: #000000; stroke-width: 0.8"/>
      </g>
     </g>
     <g id="text_9">
      <!-- 250 -->
      <g transform="translate(20.878125 341.347547) scale(0.1 -0.1)">
       <use xlink:href="#DejaVuSans-32"/>
       <use xlink:href="#DejaVuSans-35" x="63.623047"/>
       <use xlink:href="#DejaVuSans-30" x="127.246094"/>
      </g>
     </g>
    </g>
    <g id="ytick_2">
     <g id="line2d_9">
      <g>
       <use xlink:href="#m6c2b91c257" x="46.965625" y="287.662612" style="stroke: #000000; stroke-width: 0.8"/>
      </g>
     </g>
     <g id="text_10">
      <!-- 300 -->
      <g transform="translate(20.878125 291.461831) scale(0.1 -0.1)">
       <use xlink:href="#DejaVuSans-33"/>
       <use xlink:href="#DejaVuSans-30" x="63.623047"/>
       <use xlink:href="#DejaVuSans-30" x="127.246094"/>
      </g>
     </g>
    </g>
    <g id="ytick_3">
     <g id="line2d_10">
      <g>
       <use xlink:href="#m6c2b91c257" x="46.965625" y="237.776895" style="stroke: #000000; stroke-width: 0.8"/>
      </g>
     </g>
     <g id="text_11">
      <!-- 350 -->
      <g transform="translate(20.878125 241.576114) scale(0.1 -0.1)">
       <use xlink:href="#DejaVuSans-33"/>
       <use xlink:href="#DejaVuSans-35" x="63.623047"/>
       <use xlink:href="#DejaVuSans-30" x="127.246094"/>
      </g>
     </g>
    </g>
    <g id="ytick_4">
     <g id="line2d_11">
      <g>
       <use xlink:href="#m6c2b91c257" x="46.965625" y="187.891179" style="stroke: #000000; stroke-width: 0.8"/>
      </g>
     </g>
     <g id="text_12">
      <!-- 400 -->
      <g transform="translate(20.878125 191.690397) scale(0.1 -0.1)">
       <use xlink:href="#DejaVuSans-34"/>
       <use xlink:href="#DejaVuSans-30" x="63.623047"/>
       <use xlink:href="#DejaVuSans-30" x="127.246094"/>
      </g>
     </g>
    </g>
    <g id="ytick_5">
     <g id="line2d_12">
      <g>
       <use xlink:href="#m6c2b91c257" x="46.965625" y="138.005462" style="stroke: #000000; stroke-width: 0.8"/>
      </g>
     </g>
     <g id="text_13">
      <!-- 450 -->
      <g transform="translate(20.878125 141.804681) scale(0.1 -0.1)">
       <use xlink:href="#DejaVuSans-34"/>
       <use xlink:href="#DejaVuSans-35" x="63.623047"/>
       <use xlink:href="#DejaVuSans-30" x="127.246094"/>
      </g>
     </g>
    </g>
    <g id="ytick_6">
     <g id="line2d_13">
      <g>
       <use xlink:href="#m6c2b91c257" x="46.965625" y="88.119745" style="stroke: #000000; stroke-width: 0.8"/>
      </g>
     </g>
     <g id="text_14">
      <!-- 500 -->
      <g transform="translate(20.878125 91.918964) scale(0.1 -0.1)">
       <use xlink:href="#DejaVuSans-35"/>
       <use xlink:href="#DejaVuSans-30" x="63.623047"/>
       <use xlink:href="#DejaVuSans-30" x="127.246094"/>
      </g>
     </g>
    </g>
    <g id="ytick_7">
     <g id="line2d_14">
      <g>
       <use xlink:href="#m6c2b91c257" x="46.965625" y="38.234029" style="stroke: #000000; stroke-width: 0.8"/>
      </g>
     </g>
     <g id="text_15">
      <!-- 550 -->
      <g transform="translate(20.878125 42.033248) scale(0.1 -0.1)">
       <use xlink:href="#DejaVuSans-35"/>
       <use xlink:href="#DejaVuSans-35" x="63.623047"/>
       <use xlink:href="#DejaVuSans-30" x="127.246094"/>
      </g>
     </g>
    </g>
    <g id="text_16">
     <!-- Predicted Median Sale Price ($, thousands) -->
     <g transform="translate(14.798438 295.787344) rotate(-90) scale(0.1 -0.1)">
      <use xlink:href="#DejaVuSans-50"/>
      <use xlink:href="#DejaVuSans-72" x="58.552734"/>
      <use xlink:href="#DejaVuSans-65" x="97.416016"/>
      <use xlink:href="#DejaVuSans-64" x="158.939453"/>
      <use xlink:href="#DejaVuSans-69" x="222.416016"/>
      <use xlink:href="#DejaVuSans-63" x="250.199219"/>
      <use xlink:href="#DejaVuSans-74" x="305.179688"/>
      <use xlink:href="#DejaVuSans-65" x="344.388672"/>
      <use xlink:href="#DejaVuSans-64" x="405.912109"/>
      <use xlink:href="#DejaVuSans-20" x="469.388672"/>
      <use xlink:href="#DejaVuSans-4d" x="501.175781"/>
      <use xlink:href="#DejaVuSans-65" x="587.455078"/>
      <use xlink:href="#DejaVuSans-64" x="648.978516"/>
      <use xlink:href="#DejaVuSans-69" x="712.455078"/>
      <use xlink:href="#DejaVuSans-61" x="740.238281"/>
      <use xlink:href="#DejaVuSans-6e" x="801.517578"/>
      <use xlink:href="#DejaVuSans-20" x="864.896484"/>
      <use xlink:href="#DejaVuSans-53" x="896.683594"/>
      <use xlink:href="#DejaVuSans-61" x="960.160156"/>
      <use xlink:href="#DejaVuSans-6c" x="1021.439453"/>
      <use xlink:href="#DejaVuSans-65" x="1049.222656"/>
      <use xlink:href="#DejaVuSans-20" x="1110.746094"/>
      <use xlink:href="#DejaVuSans-50" x="1142.533203"/>
      <use xlink:href="#DejaVuSans-72" x="1201.085938"/>
      <use xlink:href="#DejaVuSans-69" x="1242.199219"/>
      <use xlink:href="#DejaVuSans-63" x="1269.982422"/>
      <use xlink:href="#DejaVuSans-65" x="1324.962891"/>
      <use xlink:href="#DejaVuSans-20" x="1386.486328"/>
      <use xlink:href="#DejaVuSans-28" x="1418.273438"/>
      <use xlink:href="#DejaVuSans-24" x="1457.287109"/>
      <use xlink:href="#DejaVuSans-2c" x="1520.910156"/>
      <use xlink:href="#DejaVuSans-20" x="1552.697266"/>
      <use xlink:href="#DejaVuSans-74" x="1584.484375"/>
      <use xlink:href="#DejaVuSans-68" x="1623.693359"/>
      <use xlink:href="#DejaVuSans-6f" x="1687.072266"/>
      <use xlink:href="#DejaVuSans-75" x="1748.253906"/>
      <use xlink:href="#DejaVuSans-73" x="1811.632812"/>
      <use xlink:href="#DejaVuSans-61" x="1863.732422"/>
      <use xlink:href="#DejaVuSans-6e" x="1925.011719"/>
      <use xlink:href="#DejaVuSans-64" x="1988.390625"/>
      <use xlink:href="#DejaVuSans-73" x="2051.867188"/>
      <use xlink:href="#DejaVuSans-29" x="2103.966797"/>
     </g>
    </g>
   </g>
   <g id="line2d_15">
    <path d="M 62.183807 336.408507 
L 65.258187 333.456752 
L 68.332567 330.504998 
L 71.406947 327.553244 
L 74.481327 324.60149 
L 77.555708 321.649736 
L 80.630088 318.697982 
L 83.704468 315.746228 
L 86.778848 312.794474 
L 89.853228 309.84272 
L 92.927608 306.890966 
L 96.001989 303.939212 
L 99.076369 300.987458 
L 102.150749 298.035704 
L 105.225129 295.08395 
L 108.299509 292.132195 
L 111.373889 289.180441 
L 114.44827 286.228687 
L 117.52265 283.276933 
L 120.59703 280.325179 
L 123.67141 277.373425 
L 126.74579 274.421671 
L 129.82017 271.469917 
L 132.894551 268.518163 
L 135.968931 265.566409 
L 139.043311 262.614655 
L 142.117691 259.662901 
L 145.192071 256.711147 
L 148.266451 253.759392 
L 151.340832 250.807638 
L 154.415212 247.855884 
L 157.489592 244.90413 
L 160.563972 241.952376 
L 163.638352 239.000622 
L 166.712732 236.048868 
L 169.787113 233.097114 
L 172.861493 230.14536 
L 175.935873 227.193606 
L 179.010253 224.241852 
L 182.084633 221.290098 
L 185.159013 218.338344 
L 188.233394 215.386589 
L 191.307774 212.434835 
L 194.382154 209.483081 
L 197.456534 206.531327 
L 200.530914 203.579573 
L 203.605294 200.627819 
L 206.679675 197.676065 
L 209.754055 194.724311 
L 212.828435 191.772557 
L 215.902815 188.820803 
L 218.977195 185.869049 
L 222.051575 182.917295 
L 225.125956 179.965541 
L 228.200336 177.013786 
L 231.274716 174.062032 
L 234.349096 171.110278 
L 237.423476 168.158524 
L 240.497856 165.20677 
L 243.572237 162.255016 
L 246.646617 159.303262 
L 249.720997 156.351508 
L 252.795377 153.399754 
L 255.869757 150.448 
L 258.944137 147.496246 
L 262.018518 144.544492 
L 265.092898 141.592738 
L 268.167278 138.640984 
L 271.241658 135.689229 
L 274.316038 132.737475 
L 277.390418 129.785721 
L 280.464799 126.833967 
L 283.539179 123.882213 
L 286.613559 120.930459 
L 289.687939 117.978705 
L 292.762319 115.026951 
L 295.836699 112.075197 
L 298.91108 109.123443 
L 301.98546 106.171689 
L 305.05984 103.219935 
L 308.13422 100.268181 
L 311.2086 97.316426 
L 314.28298 94.364672 
L 317.357361 91.412918 
L 320.431741 88.461164 
L 323.506121 85.50941 
L 326.580501 82.557656 
L 329.654881 79.605902 
L 332.729261 76.654148 
L 335.803642 73.702394 
L 338.878022 70.75064 
L 341.952402 67.798886 
L 345.026782 64.847132 
L 348.101162 61.895378 
L 351.175542 58.943623 
L 354.249923 55.991869 
L 357.324303 53.040115 
L 360.398683 50.088361 
L 363.473063 47.136607 
L 366.547443 44.184853 
" clip-path="url(#p1fb8d258c2)" style="fill: none; stroke: #d62728; stroke-width: 2.25; stroke-linecap: square"/>
   </g>
   <g id="patch_3">
    <path d="M 46.965625 354.958125 
L 46.965625 22.318125 
" style="fill: none; stroke: #000000; stroke-width: 0.8; stroke-linejoin: miter; stroke-linecap: square"/>
   </g>
   <g id="patch_4">
    <path d="M 381.765625 354.958125 
L 381.765625 22.318125 
" style="fill: none; stroke: #000000; stroke-width: 0.8; stroke-linejoin: miter; stroke-linecap: square"/>
   </g>
   <g id="patch_5">
    <path d="M 46.965625 354.958125 
L 381.765625 354.958125 
" style="fill: none; stroke: #000000; stroke-width: 0.8; stroke-linejoin: miter; stroke-linecap: square"/>
   </g>
   <g id="patch_6">
    <path d="M 46.965625 22.318125 
L 381.765625 22.318125 
" style="fill: none; stroke: #000000; stroke-width: 0.8; stroke-linejoin: miter; stroke-linecap: square"/>
   </g>
   <g id="text_17">
    <!-- Random Forest: Prediction of Median Sale Price -->
    <g transform="translate(72.765625 16.318125) scale(0.12 -0.12)">
     <defs>
      <path id="DejaVuSans-52" d="M 2841 2188 
Q 3044 2119 3236 1894 
Q 3428 1669 3622 1275 
L 4263 0 
L 3584 0 
L 2988 1197 
Q 2756 1666 2539 1819 
Q 2322 1972 1947 1972 
L 1259 1972 
L 1259 0 
L 628 0 
L 628 4666 
L 2053 4666 
Q 2853 4666 3247 4331 
Q 3641 3997 3641 3322 
Q 3641 2881 3436 2590 
Q 3231 2300 2841 2188 
z
M 1259 4147 
L 1259 2491 
L 2053 2491 
Q 2509 2491 2742 2702 
Q 2975 2913 2975 3322 
Q 2975 3731 2742 3939 
Q 2509 4147 2053 4147 
L 1259 4147 
z
" transform="scale(0.015625)"/>
      <path id="DejaVuSans-6d" d="M 3328 2828 
Q 3544 3216 3844 3400 
Q 4144 3584 4550 3584 
Q 5097 3584 5394 3201 
Q 5691 2819 5691 2113 
L 5691 0 
L 5113 0 
L 5113 2094 
Q 5113 2597 4934 2840 
Q 4756 3084 4391 3084 
Q 3944 3084 3684 2787 
Q 3425 2491 3425 1978 
L 3425 0 
L 2847 0 
L 2847 2094 
Q 2847 2600 2669 2842 
Q 2491 3084 2119 3084 
Q 1678 3084 1418 2786 
Q 1159 2488 1159 1978 
L 1159 0 
L 581 0 
L 581 3500 
L 1159 3500 
L 1159 2956 
Q 1356 3278 1631 3431 
Q 1906 3584 2284 3584 
Q 2666 3584 2933 3390 
Q 3200 3197 3328 2828 
z
" transform="scale(0.015625)"/>
      <path id="DejaVuSans-46" d="M 628 4666 
L 3309 4666 
L 3309 4134 
L 1259 4134 
L 1259 2759 
L 3109 2759 
L 3109 2228 
L 1259 2228 
L 1259 0 
L 628 0 
L 628 4666 
z
" transform="scale(0.015625)"/>
      <path id="DejaVuSans-3a" d="M 750 794 
L 1409 794 
L 1409 0 
L 750 0 
L 750 794 
z
M 750 3309 
L 1409 3309 
L 1409 2516 
L 750 2516 
L 750 3309 
z
" transform="scale(0.015625)"/>
      <path id="DejaVuSans-66" d="M 2375 4863 
L 2375 4384 
L 1825 4384 
Q 1516 4384 1395 4259 
Q 1275 4134 1275 3809 
L 1275 3500 
L 2222 3500 
L 2222 3053 
L 1275 3053 
L 1275 0 
L 697 0 
L 697 3053 
L 147 3053 
L 147 3500 
L 697 3500 
L 697 3744 
Q 697 4328 969 4595 
Q 1241 4863 1831 4863 
L 2375 4863 
z
" transform="scale(0.015625)"/>
     </defs>
     <use xlink:href="#DejaVuSans-52"/>
     <use xlink:href="#DejaVuSans-61" x="67.232422"/>
     <use xlink:href="#DejaVuSans-6e" x="128.511719"/>
     <use xlink:href="#DejaVuSans-64" x="191.890625"/>
     <use xlink:href="#DejaVuSans-6f" x="255.367188"/>
     <use xlink:href="#DejaVuSans-6d" x="316.548828"/>
     <use xlink:href="#DejaVuSans-20" x="413.960938"/>
     <use xlink:href="#DejaVuSans-46" x="445.748047"/>
     <use xlink:href="#DejaVuSans-6f" x="499.642578"/>
     <use xlink:href="#DejaVuSans-72" x="560.824219"/>
     <use xlink:href="#DejaVuSans-65" x="599.6875"/>
     <use xlink:href="#DejaVuSans-73" x="661.210938"/>
     <use xlink:href="#DejaVuSans-74" x="713.310547"/>
     <use xlink:href="#DejaVuSans-3a" x="752.519531"/>
     <use xlink:href="#DejaVuSans-20" x="786.210938"/>
     <use xlink:href="#DejaVuSans-50" x="817.998047"/>
     <use xlink:href="#DejaVuSans-72" x="876.550781"/>
     <use xlink:href="#DejaVuSans-65" x="915.414062"/>
     <use xlink:href="#DejaVuSans-64" x="976.9375"/>
     <use xlink:href="#DejaVuSans-69" x="1040.414062"/>
     <use xlink:href="#DejaVuSans-63" x="1068.197266"/>
     <use xlink:href="#DejaVuSans-74" x="1123.177734"/>
     <use xlink:href="#DejaVuSans-69" x="1162.386719"/>
     <use xlink:href="#DejaVuSans-6f" x="1190.169922"/>
     <use xlink:href="#DejaVuSans-6e" x="1251.351562"/>
     <use xlink:href="#DejaVuSans-20" x="1314.730469"/>
     <use xlink:href="#DejaVuSans-6f" x="1346.517578"/>
     <use xlink:href="#DejaVuSans-66" x="1407.699219"/>
     <use xlink:href="#DejaVuSans-20" x="1442.904297"/>
     <use xlink:href="#DejaVuSans-4d" x="1474.691406"/>
     <use xlink:href="#DejaVuSans-65" x="1560.970703"/>
     <use xlink:href="#DejaVuSans-64" x="1622.494141"/>
     <use xlink:href="#DejaVuSans-69" x="1685.970703"/>
     <use xlink:href="#DejaVuSans-61" x="1713.753906"/>
     <use xlink:href="#DejaVuSans-6e" x="1775.033203"/>
     <use xlink:href="#DejaVuSans-20" x="1838.412109"/>
     <use xlink:href="#DejaVuSans-53" x="1870.199219"/>
     <use xlink:href="#DejaVuSans-61" x="1933.675781"/>
     <use xlink:href="#DejaVuSans-6c" x="1994.955078"/>
     <use xlink:href="#DejaVuSans-65" x="2022.738281"/>
     <use xlink:href="#DejaVuSans-20" x="2084.261719"/>
     <use xlink:href="#DejaVuSans-50" x="2116.048828"/>
     <use xlink:href="#DejaVuSans-72" x="2174.601562"/>
     <use xlink:href="#DejaVuSans-69" x="2215.714844"/>
     <use xlink:href="#DejaVuSans-63" x="2243.498047"/>
     <use xlink:href="#DejaVuSans-65" x="2298.478516"/>
    </g>
   </g>
  </g>
 </g>
 <defs>
  <clipPath id="p1fb8d258c2">
   <rect x="46.965625" y="22.318125" width="334.8" height="332.64"/>
  </clipPath>
 </defs>
</svg>
