<?xml version="1.0" encoding="utf-8" standalone="no"?>
<!DOCTYPE svg PUBLIC "-//W3C//DTD SVG 1.1//EN"
  "http://www.w3.org/Graphics/SVG/1.1/DTD/svg11.dtd">
<svg xmlns:xlink="http://www.w3.org/1999/xlink" width="391.095389pt" height="392.514375pt" viewBox="0 0 391.095389 392.514375" xmlns="http://www.w3.org/2000/svg" version="1.1">
 <metadata>
  <rdf:RDF xmlns:dc="http://purl.org/dc/elements/1.1/" xmlns:cc="http://creativecommons.org/ns#" xmlns:rdf="http://www.w3.org/1999/02/22-rdf-syntax-ns#">
   <cc:Work>
    <dc:type rdf:resource="http://purl.org/dc/dcmitype/StillImage"/>
    <dc:date>2023-12-12T19:52:52.746142</dc:date>
    <dc:format>image/svg+xml</dc:format>
    <dc:creator>
     <cc:Agent>
      <dc:title>Matplotlib v3.8.0, https://matplotlib.org/</dc:title>
     </cc:Agent>
    </dc:creator>
   </cc:Work>
  </rdf:RDF>
 </metadata>
 <defs>
  <style type="text/css">*{stroke-linejoin: round; stroke-linecap: butt}</style>
 </defs>
 <g id="figure_1">
  <g id="patch_1">
   <path d="M -0 392.514375 
L 391.095389 392.514375 
L 391.095389 0 
L -0 0 
z
" style="fill: #ffffff"/>
  </g>
  <g id="axes_1">
   <g id="patch_2">
    <path d="M 46.965625 354.958125 
L 381.765625 354.958125 
L 381.765625 22.318125 
L 46.965625 22.318125 
z
" style="fill: #ffffff"/>
   </g>
   <g id="PathCollection_1">
    <defs>
     <path id="m30f4a4eee0" d="M 0 3 
C 0.795609 3 1.55874 2.683901 2.12132 2.12132 
C 2.683901 1.55874 3 0.795609 3 0 
C 3 -0.795609 2.683901 -1.55874 2.12132 -2.12132 
C 1.55874 -2.683901 0.795609 -3 0 -3 
C -0.795609 -3 -1.55874 -2.683901 -2.12132 -2.12132 
C -2.683901 -1.55874 -3 -0.795609 -3 0 
C -3 0.795609 -2.683901 1.55874 -2.12132 2.12132 
C -1.55874 2.683901 -0.795609 3 0 3 
z
" style="stroke: #1f77b4; stroke-opacity: 0.5"/>
    </defs>
    <g clip-path="url(#padd1055e78)">
     <use xlink:href="#m30f4a4eee0" x="223.47052" y="152.083949" style="fill: #1f77b4; fill-opacity: 0.5; stroke: #1f77b4; stroke-opacity: 0.5"/>
     <use xlink:href="#m30f4a4eee0" x="111.090101" y="279.31558" style="fill: #1f77b4; fill-opacity: 0.5; stroke: #1f77b4; stroke-opacity: 0.5"/>
     <use xlink:href="#m30f4a4eee0" x="279.764786" y="117.885505" style="fill: #1f77b4; fill-opacity: 0.5; stroke: #1f77b4; stroke-opacity: 0.5"/>
     <use xlink:href="#m30f4a4eee0" x="259.890101" y="128.591474" style="fill: #1f77b4; fill-opacity: 0.5; stroke: #1f77b4; stroke-opacity: 0.5"/>
     <use xlink:href="#m30f4a4eee0" x="140.225765" y="258.97975" style="fill: #1f77b4; fill-opacity: 0.5; stroke: #1f77b4; stroke-opacity: 0.5"/>
     <use xlink:href="#m30f4a4eee0" x="113.171219" y="276.909206" style="fill: #1f77b4; fill-opacity: 0.5; stroke: #1f77b4; stroke-opacity: 0.5"/>
     <use xlink:href="#m30f4a4eee0" x="146.469122" y="230.265609" style="fill: #1f77b4; fill-opacity: 0.5; stroke: #1f77b4; stroke-opacity: 0.5"/>
     <use xlink:href="#m30f4a4eee0" x="233.876115" y="183.314581" style="fill: #1f77b4; fill-opacity: 0.5; stroke: #1f77b4; stroke-opacity: 0.5"/>
     <use xlink:href="#m30f4a4eee0" x="302.032758" y="101.696854" style="fill: #1f77b4; fill-opacity: 0.5; stroke: #1f77b4; stroke-opacity: 0.5"/>
     <use xlink:href="#m30f4a4eee0" x="132.941849" y="264.543118" style="fill: #1f77b4; fill-opacity: 0.5; stroke: #1f77b4; stroke-opacity: 0.5"/>
     <use xlink:href="#m30f4a4eee0" x="124.617373" y="292.922641" style="fill: #1f77b4; fill-opacity: 0.5; stroke: #1f77b4; stroke-opacity: 0.5"/>
     <use xlink:href="#m30f4a4eee0" x="124.617373" y="273.51564" style="fill: #1f77b4; fill-opacity: 0.5; stroke: #1f77b4; stroke-opacity: 0.5"/>
     <use xlink:href="#m30f4a4eee0" x="338.972618" y="90.598303" style="fill: #1f77b4; fill-opacity: 0.5; stroke: #1f77b4; stroke-opacity: 0.5"/>
     <use xlink:href="#m30f4a4eee0" x="101.725066" y="301.107181" style="fill: #1f77b4; fill-opacity: 0.5; stroke: #1f77b4; stroke-opacity: 0.5"/>
     <use xlink:href="#m30f4a4eee0" x="150.631359" y="253.002101" style="fill: #1f77b4; fill-opacity: 0.5; stroke: #1f77b4; stroke-opacity: 0.5"/>
     <use xlink:href="#m30f4a4eee0" x="93.40059" y="309.763383" style="fill: #1f77b4; fill-opacity: 0.5; stroke: #1f77b4; stroke-opacity: 0.5"/>
     <use xlink:href="#m30f4a4eee0" x="275.498492" y="116.534164" style="fill: #1f77b4; fill-opacity: 0.5; stroke: #1f77b4; stroke-opacity: 0.5"/>
     <use xlink:href="#m30f4a4eee0" x="125.137653" y="295.633429" style="fill: #1f77b4; fill-opacity: 0.5; stroke: #1f77b4; stroke-opacity: 0.5"/>
     <use xlink:href="#m30f4a4eee0" x="99.643947" y="297.950172" style="fill: #1f77b4; fill-opacity: 0.5; stroke: #1f77b4; stroke-opacity: 0.5"/>
     <use xlink:href="#m30f4a4eee0" x="135.022968" y="295.240772" style="fill: #1f77b4; fill-opacity: 0.5; stroke: #1f77b4; stroke-opacity: 0.5"/>
     <use xlink:href="#m30f4a4eee0" x="254.687303" y="150.347209" style="fill: #1f77b4; fill-opacity: 0.5; stroke: #1f77b4; stroke-opacity: 0.5"/>
     <use xlink:href="#m30f4a4eee0" x="108.436674" y="308.938292" style="fill: #1f77b4; fill-opacity: 0.5; stroke: #1f77b4; stroke-opacity: 0.5"/>
     <use xlink:href="#m30f4a4eee0" x="139.705485" y="263.37884" style="fill: #1f77b4; fill-opacity: 0.5; stroke: #1f77b4; stroke-opacity: 0.5"/>
     <use xlink:href="#m30f4a4eee0" x="296.309681" y="116.839949" style="fill: #1f77b4; fill-opacity: 0.5; stroke: #1f77b4; stroke-opacity: 0.5"/>
     <use xlink:href="#m30f4a4eee0" x="103.806184" y="297.906285" style="fill: #1f77b4; fill-opacity: 0.5; stroke: #1f77b4; stroke-opacity: 0.5"/>
     <use xlink:href="#m30f4a4eee0" x="93.40059" y="311.277692" style="fill: #1f77b4; fill-opacity: 0.5; stroke: #1f77b4; stroke-opacity: 0.5"/>
     <use xlink:href="#m30f4a4eee0" x="124.617373" y="270.832912" style="fill: #1f77b4; fill-opacity: 0.5; stroke: #1f77b4; stroke-opacity: 0.5"/>
     <use xlink:href="#m30f4a4eee0" x="77.792198" y="311.147307" style="fill: #1f77b4; fill-opacity: 0.5; stroke: #1f77b4; stroke-opacity: 0.5"/>
     <use xlink:href="#m30f4a4eee0" x="126.698492" y="263.980434" style="fill: #1f77b4; fill-opacity: 0.5; stroke: #1f77b4; stroke-opacity: 0.5"/>
     <use xlink:href="#m30f4a4eee0" x="176.645345" y="235.412725" style="fill: #1f77b4; fill-opacity: 0.5; stroke: #1f77b4; stroke-opacity: 0.5"/>
     <use xlink:href="#m30f4a4eee0" x="114.211779" y="281.143805" style="fill: #1f77b4; fill-opacity: 0.5; stroke: #1f77b4; stroke-opacity: 0.5"/>
     <use xlink:href="#m30f4a4eee0" x="120.012898" y="282.490158" style="fill: #1f77b4; fill-opacity: 0.5; stroke: #1f77b4; stroke-opacity: 0.5"/>
     <use xlink:href="#m30f4a4eee0" x="103.754156" y="312.021264" style="fill: #1f77b4; fill-opacity: 0.5; stroke: #1f77b4; stroke-opacity: 0.5"/>
     <use xlink:href="#m30f4a4eee0" x="228.673317" y="184.519963" style="fill: #1f77b4; fill-opacity: 0.5; stroke: #1f77b4; stroke-opacity: 0.5"/>
     <use xlink:href="#m30f4a4eee0" x="187.05094" y="218.373264" style="fill: #1f77b4; fill-opacity: 0.5; stroke: #1f77b4; stroke-opacity: 0.5"/>
     <use xlink:href="#m30f4a4eee0" x="97.562828" y="311.870087" style="fill: #1f77b4; fill-opacity: 0.5; stroke: #1f77b4; stroke-opacity: 0.5"/>
     <use xlink:href="#m30f4a4eee0" x="84.295695" y="309.544654" style="fill: #1f77b4; fill-opacity: 0.5; stroke: #1f77b4; stroke-opacity: 0.5"/>
     <use xlink:href="#m30f4a4eee0" x="98.603387" y="310.852816" style="fill: #1f77b4; fill-opacity: 0.5; stroke: #1f77b4; stroke-opacity: 0.5"/>
     <use xlink:href="#m30f4a4eee0" x="218.267723" y="175.459696" style="fill: #1f77b4; fill-opacity: 0.5; stroke: #1f77b4; stroke-opacity: 0.5"/>
     <use xlink:href="#m30f4a4eee0" x="332.729261" y="83.471964" style="fill: #1f77b4; fill-opacity: 0.5; stroke: #1f77b4; stroke-opacity: 0.5"/>
     <use xlink:href="#m30f4a4eee0" x="129.82017" y="268.344231" style="fill: #1f77b4; fill-opacity: 0.5; stroke: #1f77b4; stroke-opacity: 0.5"/>
     <use xlink:href="#m30f4a4eee0" x="119.414576" y="295.228969" style="fill: #1f77b4; fill-opacity: 0.5; stroke: #1f77b4; stroke-opacity: 0.5"/>
     <use xlink:href="#m30f4a4eee0" x="119.414576" y="301.462899" style="fill: #1f77b4; fill-opacity: 0.5; stroke: #1f77b4; stroke-opacity: 0.5"/>
     <use xlink:href="#m30f4a4eee0" x="62.183807" y="326.102661" style="fill: #1f77b4; fill-opacity: 0.5; stroke: #1f77b4; stroke-opacity: 0.5"/>
     <use xlink:href="#m30f4a4eee0" x="280.701289" y="117.173669" style="fill: #1f77b4; fill-opacity: 0.5; stroke: #1f77b4; stroke-opacity: 0.5"/>
     <use xlink:href="#m30f4a4eee0" x="122.536254" y="280.804599" style="fill: #1f77b4; fill-opacity: 0.5; stroke: #1f77b4; stroke-opacity: 0.5"/>
     <use xlink:href="#m30f4a4eee0" x="82.994996" y="302.130977" style="fill: #1f77b4; fill-opacity: 0.5; stroke: #1f77b4; stroke-opacity: 0.5"/>
     <use xlink:href="#m30f4a4eee0" x="166.239751" y="230.546901" style="fill: #1f77b4; fill-opacity: 0.5; stroke: #1f77b4; stroke-opacity: 0.5"/>
     <use xlink:href="#m30f4a4eee0" x="103.806184" y="294.256573" style="fill: #1f77b4; fill-opacity: 0.5; stroke: #1f77b4; stroke-opacity: 0.5"/>
     <use xlink:href="#m30f4a4eee0" x="301.512478" y="99.796796" style="fill: #1f77b4; fill-opacity: 0.5; stroke: #1f77b4; stroke-opacity: 0.5"/>
     <use xlink:href="#m30f4a4eee0" x="328.827163" y="64.514986" style="fill: #1f77b4; fill-opacity: 0.5; stroke: #1f77b4; stroke-opacity: 0.5"/>
     <use xlink:href="#m30f4a4eee0" x="69.467723" y="322.256204" style="fill: #1f77b4; fill-opacity: 0.5; stroke: #1f77b4; stroke-opacity: 0.5"/>
     <use xlink:href="#m30f4a4eee0" x="259.890101" y="152.923635" style="fill: #1f77b4; fill-opacity: 0.5; stroke: #1f77b4; stroke-opacity: 0.5"/>
     <use xlink:href="#m30f4a4eee0" x="119.414576" y="282.135986" style="fill: #1f77b4; fill-opacity: 0.5; stroke: #1f77b4; stroke-opacity: 0.5"/>
     <use xlink:href="#m30f4a4eee0" x="251.565625" y="183.288243" style="fill: #1f77b4; fill-opacity: 0.5; stroke: #1f77b4; stroke-opacity: 0.5"/>
     <use xlink:href="#m30f4a4eee0" x="291.106884" y="110.271806" style="fill: #1f77b4; fill-opacity: 0.5; stroke: #1f77b4; stroke-opacity: 0.5"/>
     <use xlink:href="#m30f4a4eee0" x="99.643947" y="322.693711" style="fill: #1f77b4; fill-opacity: 0.5; stroke: #1f77b4; stroke-opacity: 0.5"/>
     <use xlink:href="#m30f4a4eee0" x="296.309681" y="115.047141" style="fill: #1f77b4; fill-opacity: 0.5; stroke: #1f77b4; stroke-opacity: 0.5"/>
     <use xlink:href="#m30f4a4eee0" x="109.008982" y="289.545288" style="fill: #1f77b4; fill-opacity: 0.5; stroke: #1f77b4; stroke-opacity: 0.5"/>
     <use xlink:href="#m30f4a4eee0" x="116.553038" y="293.468989" style="fill: #1f77b4; fill-opacity: 0.5; stroke: #1f77b4; stroke-opacity: 0.5"/>
     <use xlink:href="#m30f4a4eee0" x="113.119191" y="283.064315" style="fill: #1f77b4; fill-opacity: 0.5; stroke: #1f77b4; stroke-opacity: 0.5"/>
     <use xlink:href="#m30f4a4eee0" x="87.625485" y="307.686239" style="fill: #1f77b4; fill-opacity: 0.5; stroke: #1f77b4; stroke-opacity: 0.5"/>
     <use xlink:href="#m30f4a4eee0" x="119.414576" y="305.266796" style="fill: #1f77b4; fill-opacity: 0.5; stroke: #1f77b4; stroke-opacity: 0.5"/>
     <use xlink:href="#m30f4a4eee0" x="233.876115" y="181.570209" style="fill: #1f77b4; fill-opacity: 0.5; stroke: #1f77b4; stroke-opacity: 0.5"/>
     <use xlink:href="#m30f4a4eee0" x="113.690979" y="285.273949" style="fill: #1f77b4; fill-opacity: 0.5; stroke: #1f77b4; stroke-opacity: 0.5"/>
     <use xlink:href="#m30f4a4eee0" x="109.008982" y="296.31731" style="fill: #1f77b4; fill-opacity: 0.5; stroke: #1f77b4; stroke-opacity: 0.5"/>
     <use xlink:href="#m30f4a4eee0" x="150.631359" y="254.387487" style="fill: #1f77b4; fill-opacity: 0.5; stroke: #1f77b4; stroke-opacity: 0.5"/>
     <use xlink:href="#m30f4a4eee0" x="165.199191" y="246.845495" style="fill: #1f77b4; fill-opacity: 0.5; stroke: #1f77b4; stroke-opacity: 0.5"/>
     <use xlink:href="#m30f4a4eee0" x="166.239751" y="237.016276" style="fill: #1f77b4; fill-opacity: 0.5; stroke: #1f77b4; stroke-opacity: 0.5"/>
     <use xlink:href="#m30f4a4eee0" x="348.337653" y="91.358625" style="fill: #1f77b4; fill-opacity: 0.5; stroke: #1f77b4; stroke-opacity: 0.5"/>
     <use xlink:href="#m30f4a4eee0" x="140.225765" y="253.173849" style="fill: #1f77b4; fill-opacity: 0.5; stroke: #1f77b4; stroke-opacity: 0.5"/>
     <use xlink:href="#m30f4a4eee0" x="124.617373" y="266.670145" style="fill: #1f77b4; fill-opacity: 0.5; stroke: #1f77b4; stroke-opacity: 0.5"/>
     <use xlink:href="#m30f4a4eee0" x="103.806184" y="296.70841" style="fill: #1f77b4; fill-opacity: 0.5; stroke: #1f77b4; stroke-opacity: 0.5"/>
     <use xlink:href="#m30f4a4eee0" x="88.197793" y="313.797331" style="fill: #1f77b4; fill-opacity: 0.5; stroke: #1f77b4; stroke-opacity: 0.5"/>
     <use xlink:href="#m30f4a4eee0" x="103.806184" y="296.945326" style="fill: #1f77b4; fill-opacity: 0.5; stroke: #1f77b4; stroke-opacity: 0.5"/>
     <use xlink:href="#m30f4a4eee0" x="129.82017" y="277.41203" style="fill: #1f77b4; fill-opacity: 0.5; stroke: #1f77b4; stroke-opacity: 0.5"/>
     <use xlink:href="#m30f4a4eee0" x="77.792198" y="318.077474" style="fill: #1f77b4; fill-opacity: 0.5; stroke: #1f77b4; stroke-opacity: 0.5"/>
     <use xlink:href="#m30f4a4eee0" x="202.659331" y="194.173443" style="fill: #1f77b4; fill-opacity: 0.5; stroke: #1f77b4; stroke-opacity: 0.5"/>
     <use xlink:href="#m30f4a4eee0" x="366.547443" y="66.031739" style="fill: #1f77b4; fill-opacity: 0.5; stroke: #1f77b4; stroke-opacity: 0.5"/>
     <use xlink:href="#m30f4a4eee0" x="249.484506" y="128.941755" style="fill: #1f77b4; fill-opacity: 0.5; stroke: #1f77b4; stroke-opacity: 0.5"/>
     <use xlink:href="#m30f4a4eee0" x="291.515303" y="116.034832" style="fill: #1f77b4; fill-opacity: 0.5; stroke: #1f77b4; stroke-opacity: 0.5"/>
     <use xlink:href="#m30f4a4eee0" x="98.603387" y="297.186348" style="fill: #1f77b4; fill-opacity: 0.5; stroke: #1f77b4; stroke-opacity: 0.5"/>
     <use xlink:href="#m30f4a4eee0" x="114.211779" y="265.09383" style="fill: #1f77b4; fill-opacity: 0.5; stroke: #1f77b4; stroke-opacity: 0.5"/>
     <use xlink:href="#m30f4a4eee0" x="135.022968" y="254.83746" style="fill: #1f77b4; fill-opacity: 0.5; stroke: #1f77b4; stroke-opacity: 0.5"/>
     <use xlink:href="#m30f4a4eee0" x="239.078912" y="159.450924" style="fill: #1f77b4; fill-opacity: 0.5; stroke: #1f77b4; stroke-opacity: 0.5"/>
     <use xlink:href="#m30f4a4eee0" x="102.765625" y="300.380714" style="fill: #1f77b4; fill-opacity: 0.5; stroke: #1f77b4; stroke-opacity: 0.5"/>
     <use xlink:href="#m30f4a4eee0" x="332.729261" y="78.057722" style="fill: #1f77b4; fill-opacity: 0.5; stroke: #1f77b4; stroke-opacity: 0.5"/>
     <use xlink:href="#m30f4a4eee0" x="195.375415" y="184.037341" style="fill: #1f77b4; fill-opacity: 0.5; stroke: #1f77b4; stroke-opacity: 0.5"/>
     <use xlink:href="#m30f4a4eee0" x="109.008982" y="299.936762" style="fill: #1f77b4; fill-opacity: 0.5; stroke: #1f77b4; stroke-opacity: 0.5"/>
     <use xlink:href="#m30f4a4eee0" x="186.01038" y="225.988609" style="fill: #1f77b4; fill-opacity: 0.5; stroke: #1f77b4; stroke-opacity: 0.5"/>
     <use xlink:href="#m30f4a4eee0" x="135.022968" y="275.664616" style="fill: #1f77b4; fill-opacity: 0.5; stroke: #1f77b4; stroke-opacity: 0.5"/>
     <use xlink:href="#m30f4a4eee0" x="97.562828" y="309.974379" style="fill: #1f77b4; fill-opacity: 0.5; stroke: #1f77b4; stroke-opacity: 0.5"/>
     <use xlink:href="#m30f4a4eee0" x="93.40059" y="310.544905" style="fill: #1f77b4; fill-opacity: 0.5; stroke: #1f77b4; stroke-opacity: 0.5"/>
     <use xlink:href="#m30f4a4eee0" x="291.106884" y="122.117111" style="fill: #1f77b4; fill-opacity: 0.5; stroke: #1f77b4; stroke-opacity: 0.5"/>
     <use xlink:href="#m30f4a4eee0" x="152.244226" y="238.147332" style="fill: #1f77b4; fill-opacity: 0.5; stroke: #1f77b4; stroke-opacity: 0.5"/>
     <use xlink:href="#m30f4a4eee0" x="322.323667" y="70.473754" style="fill: #1f77b4; fill-opacity: 0.5; stroke: #1f77b4; stroke-opacity: 0.5"/>
     <use xlink:href="#m30f4a4eee0" x="311.918073" y="95.966252" style="fill: #1f77b4; fill-opacity: 0.5; stroke: #1f77b4; stroke-opacity: 0.5"/>
     <use xlink:href="#m30f4a4eee0" x="345.215975" y="67.970606" style="fill: #1f77b4; fill-opacity: 0.5; stroke: #1f77b4; stroke-opacity: 0.5"/>
     <use xlink:href="#m30f4a4eee0" x="166.239751" y="232.481877" style="fill: #1f77b4; fill-opacity: 0.5; stroke: #1f77b4; stroke-opacity: 0.5"/>
     <use xlink:href="#m30f4a4eee0" x="145.428562" y="240.7697" style="fill: #1f77b4; fill-opacity: 0.5; stroke: #1f77b4; stroke-opacity: 0.5"/>
     <use xlink:href="#m30f4a4eee0" x="326.485905" y="75.717195" style="fill: #1f77b4; fill-opacity: 0.5; stroke: #1f77b4; stroke-opacity: 0.5"/>
     <use xlink:href="#m30f4a4eee0" x="145.428562" y="255.696801" style="fill: #1f77b4; fill-opacity: 0.5; stroke: #1f77b4; stroke-opacity: 0.5"/>
     <use xlink:href="#m30f4a4eee0" x="112.65094" y="282.804423" style="fill: #1f77b4; fill-opacity: 0.5; stroke: #1f77b4; stroke-opacity: 0.5"/>
     <use xlink:href="#m30f4a4eee0" x="88.197793" y="310.703305" style="fill: #1f77b4; fill-opacity: 0.5; stroke: #1f77b4; stroke-opacity: 0.5"/>
     <use xlink:href="#m30f4a4eee0" x="213.064926" y="194.07193" style="fill: #1f77b4; fill-opacity: 0.5; stroke: #1f77b4; stroke-opacity: 0.5"/>
    </g>
   </g>
   <g id="PolyCollection_1">
    <path d="M 62.183807 333.202559 
L 62.183807 339.838125 
L 65.258187 336.875338 
L 68.332567 333.844743 
L 71.406947 330.766384 
L 74.481327 327.754662 
L 77.555708 324.745148 
L 80.630088 321.730614 
L 83.704468 318.687921 
L 86.778848 315.674418 
L 89.853228 312.650929 
L 92.927608 309.64768 
L 96.001989 306.651787 
L 99.076369 303.658688 
L 102.150749 300.659596 
L 105.225129 297.656733 
L 108.299509 294.650525 
L 111.373889 291.62795 
L 114.44827 288.640199 
L 117.52265 285.645007 
L 120.59703 282.671029 
L 123.67141 279.670587 
L 126.74579 276.666941 
L 129.82017 273.665004 
L 132.894551 270.671267 
L 135.968931 267.715276 
L 139.043311 264.776565 
L 142.117691 261.816633 
L 145.192071 258.850332 
L 148.266451 255.883325 
L 151.340832 252.916159 
L 154.415212 249.97311 
L 157.489592 247.069378 
L 160.563972 244.12211 
L 163.638352 241.206951 
L 166.712732 238.313989 
L 169.787113 235.345929 
L 172.861493 232.409881 
L 175.935873 229.460286 
L 179.010253 226.538302 
L 182.084633 223.634628 
L 185.159013 220.747576 
L 188.233394 217.841024 
L 191.307774 214.888983 
L 194.382154 211.974251 
L 197.456534 209.059518 
L 200.530914 206.142933 
L 203.605294 203.228123 
L 206.679675 200.312718 
L 209.754055 197.397304 
L 212.828435 194.482805 
L 215.902815 191.611783 
L 218.977195 188.754143 
L 222.051575 185.867566 
L 225.125956 182.973565 
L 228.200336 180.100911 
L 231.274716 177.207585 
L 234.349096 174.322674 
L 237.423476 171.383787 
L 240.497856 168.498125 
L 243.572237 165.598886 
L 246.646617 162.69217 
L 249.720997 159.794964 
L 252.795377 156.897759 
L 255.869757 154.000553 
L 258.944137 151.103347 
L 262.018518 148.217135 
L 265.092898 145.315584 
L 268.167278 142.45169 
L 271.241658 139.569427 
L 274.316038 136.727198 
L 277.390418 133.862721 
L 280.464799 130.96021 
L 283.539179 128.078124 
L 286.613559 125.190946 
L 289.687939 122.297617 
L 292.762319 119.403376 
L 295.836699 116.527298 
L 298.91108 113.647495 
L 301.98546 110.74695 
L 305.05984 107.845726 
L 308.13422 104.947499 
L 311.2086 102.077792 
L 314.28298 99.221136 
L 317.357361 96.345482 
L 320.431741 93.439559 
L 323.506121 90.581557 
L 326.580501 87.733317 
L 329.654881 84.883842 
L 332.729261 82.015426 
L 335.803642 79.138568 
L 338.878022 76.25435 
L 341.952402 73.370132 
L 345.026782 70.524813 
L 348.101162 67.672443 
L 351.175542 64.788423 
L 354.249923 61.921223 
L 357.324303 59.048312 
L 360.398683 56.160473 
L 363.473063 53.272283 
L 366.547443 50.396584 
L 366.547443 37.438125 
L 366.547443 37.438125 
L 363.473063 40.482344 
L 360.398683 43.526934 
L 357.324303 46.594868 
L 354.249923 49.625276 
L 351.175542 52.654327 
L 348.101162 55.683065 
L 345.026782 58.711802 
L 341.952402 61.740827 
L 338.878022 64.770144 
L 335.803642 67.799461 
L 332.729261 70.833206 
L 329.654881 73.874094 
L 326.580501 76.914982 
L 323.506121 79.95587 
L 320.431741 82.996987 
L 317.357361 86.038163 
L 314.28298 89.079338 
L 311.2086 92.120513 
L 308.13422 95.152487 
L 305.05984 98.156034 
L 301.98546 101.195213 
L 298.91108 104.235565 
L 295.836699 107.276137 
L 292.762319 110.30041 
L 289.687939 113.301908 
L 286.613559 116.313614 
L 283.539179 119.319371 
L 280.464799 122.367249 
L 277.390418 125.42825 
L 274.316038 128.489341 
L 271.241658 131.54764 
L 268.167278 134.571605 
L 265.092898 137.592517 
L 262.018518 140.589197 
L 258.944137 143.572179 
L 255.869757 146.55516 
L 252.795377 149.58185 
L 249.720997 152.611753 
L 246.646617 155.679948 
L 243.572237 158.7389 
L 240.497856 161.760235 
L 237.423476 164.778852 
L 234.349096 167.76354 
L 231.274716 170.767958 
L 228.200336 173.75203 
L 225.125956 176.76769 
L 222.051575 179.776761 
L 218.977195 182.755215 
L 215.902815 185.729232 
L 212.828435 188.765141 
L 209.754055 191.795684 
L 206.679675 194.791781 
L 203.605294 197.802555 
L 200.530914 200.881063 
L 197.456534 203.834163 
L 194.382154 206.785602 
L 191.307774 209.776946 
L 188.233394 212.835623 
L 185.159013 215.840034 
L 182.084633 218.824849 
L 179.010253 221.810443 
L 175.935873 224.796037 
L 172.861493 227.762148 
L 169.787113 230.742023 
L 166.712732 233.723421 
L 163.638352 236.71487 
L 160.563972 239.625963 
L 157.489592 242.58123 
L 154.415212 245.531806 
L 151.340832 248.478864 
L 148.266451 251.429432 
L 145.192071 254.37303 
L 142.117691 257.322398 
L 139.043311 260.280286 
L 135.968931 263.210744 
L 132.894551 266.13177 
L 129.82017 269.063851 
L 126.74579 271.980112 
L 123.67141 274.925606 
L 120.59703 277.858158 
L 117.52265 280.792988 
L 114.44827 283.724109 
L 111.373889 286.668283 
L 108.299509 289.605931 
L 105.225129 292.543579 
L 102.150749 295.499194 
L 99.076369 298.418874 
L 96.001989 301.31617 
L 92.927608 304.227215 
L 89.853228 307.127831 
L 86.778848 310.027912 
L 83.704468 312.927002 
L 80.630088 315.828541 
L 77.555708 318.728954 
L 74.481327 321.618798 
L 71.406947 324.529779 
L 68.332567 327.40369 
L 65.258187 330.30294 
L 62.183807 333.202559 
z
" clip-path="url(#padd1055e78)" style="fill: #d62728; fill-opacity: 0.15"/>
   </g>
   <g id="matplotlib.axis_1">
    <g id="xtick_1">
     <g id="line2d_1">
      <defs>
       <path id="m63fcb1a66b" d="M 0 0 
L 0 3.5 
" style="stroke: #000000; stroke-width: 0.8"/>
      </defs>
      <g>
       <use xlink:href="#m63fcb1a66b" x="62.183807" y="354.958125" style="stroke: #000000; stroke-width: 0.8"/>
      </g>
     </g>
     <g id="text_1">
      <!-- 250 -->
      <g transform="translate(52.640057 369.556562) scale(0.1 -0.1)">
       <defs>
        <path id="DejaVuSans-32" d="M 1228 531 
L 3431 531 
L 3431 0 
L 469 0 
L 469 531 
Q 828 903 1448 1529 
Q 2069 2156 2228 2338 
Q 2531 2678 2651 2914 
Q 2772 3150 2772 3378 
Q 2772 3750 2511 3984 
Q 2250 4219 1831 4219 
Q 1534 4219 1204 4116 
Q 875 4013 500 3803 
L 500 4441 
Q 881 4594 1212 4672 
Q 1544 4750 1819 4750 
Q 2544 4750 2975 4387 
Q 3406 4025 3406 3419 
Q 3406 3131 3298 2873 
Q 3191 2616 2906 2266 
Q 2828 2175 2409 1742 
Q 1991 1309 1228 531 
z
" transform="scale(0.015625)"/>
        <path id="DejaVuSans-35" d="M 691 4666 
L 3169 4666 
L 3169 4134 
L 1269 4134 
L 1269 2991 
Q 1406 3038 1543 3061 
Q 1681 3084 1819 3084 
Q 2600 3084 3056 2656 
Q 3513 2228 3513 1497 
Q 3513 744 3044 326 
Q 2575 -91 1722 -91 
Q 1428 -91 1123 -41 
Q 819 9 494 109 
L 494 744 
Q 775 591 1075 516 
Q 1375 441 1709 441 
Q 2250 441 2565 725 
Q 2881 1009 2881 1497 
Q 2881 1984 2565 2268 
Q 2250 2553 1709 2553 
Q 1456 2553 1204 2497 
Q 953 2441 691 2322 
L 691 4666 
z
" transform="scale(0.015625)"/>
        <path id="DejaVuSans-30" d="M 2034 4250 
Q 1547 4250 1301 3770 
Q 1056 3291 1056 2328 
Q 1056 1369 1301 889 
Q 1547 409 2034 409 
Q 2525 409 2770 889 
Q 3016 1369 3016 2328 
Q 3016 3291 2770 3770 
Q 2525 4250 2034 4250 
z
M 2034 4750 
Q 2819 4750 3233 4129 
Q 3647 3509 3647 2328 
Q 3647 1150 3233 529 
Q 2819 -91 2034 -91 
Q 1250 -91 836 529 
Q 422 1150 422 2328 
Q 422 3509 836 4129 
Q 1250 4750 2034 4750 
z
" transform="scale(0.015625)"/>
       </defs>
       <use xlink:href="#DejaVuSans-32"/>
       <use xlink:href="#DejaVuSans-35" x="63.623047"/>
       <use xlink:href="#DejaVuSans-30" x="127.246094"/>
      </g>
     </g>
    </g>
    <g id="xtick_2">
     <g id="line2d_2">
      <g>
       <use xlink:href="#m63fcb1a66b" x="114.211779" y="354.958125" style="stroke: #000000; stroke-width: 0.8"/>
      </g>
     </g>
     <g id="text_2">
      <!-- 300 -->
      <g transform="translate(104.668029 369.556562) scale(0.1 -0.1)">
       <defs>
        <path id="DejaVuSans-33" d="M 2597 2516 
Q 3050 2419 3304 2112 
Q 3559 1806 3559 1356 
Q 3559 666 3084 287 
Q 2609 -91 1734 -91 
Q 1441 -91 1130 -33 
Q 819 25 488 141 
L 488 750 
Q 750 597 1062 519 
Q 1375 441 1716 441 
Q 2309 441 2620 675 
Q 2931 909 2931 1356 
Q 2931 1769 2642 2001 
Q 2353 2234 1838 2234 
L 1294 2234 
L 1294 2753 
L 1863 2753 
Q 2328 2753 2575 2939 
Q 2822 3125 2822 3475 
Q 2822 3834 2567 4026 
Q 2313 4219 1838 4219 
Q 1578 4219 1281 4162 
Q 984 4106 628 3988 
L 628 4550 
Q 988 4650 1302 4700 
Q 1616 4750 1894 4750 
Q 2613 4750 3031 4423 
Q 3450 4097 3450 3541 
Q 3450 3153 3228 2886 
Q 3006 2619 2597 2516 
z
" transform="scale(0.015625)"/>
       </defs>
       <use xlink:href="#DejaVuSans-33"/>
       <use xlink:href="#DejaVuSans-30" x="63.623047"/>
       <use xlink:href="#DejaVuSans-30" x="127.246094"/>
      </g>
     </g>
    </g>
    <g id="xtick_3">
     <g id="line2d_3">
      <g>
       <use xlink:href="#m63fcb1a66b" x="166.239751" y="354.958125" style="stroke: #000000; stroke-width: 0.8"/>
      </g>
     </g>
     <g id="text_3">
      <!-- 350 -->
      <g transform="translate(156.696001 369.556562) scale(0.1 -0.1)">
       <use xlink:href="#DejaVuSans-33"/>
       <use xlink:href="#DejaVuSans-35" x="63.623047"/>
       <use xlink:href="#DejaVuSans-30" x="127.246094"/>
      </g>
     </g>
    </g>
    <g id="xtick_4">
     <g id="line2d_4">
      <g>
       <use xlink:href="#m63fcb1a66b" x="218.267723" y="354.958125" style="stroke: #000000; stroke-width: 0.8"/>
      </g>
     </g>
     <g id="text_4">
      <!-- 400 -->
      <g transform="translate(208.723973 369.556562) scale(0.1 -0.1)">
       <defs>
        <path id="DejaVuSans-34" d="M 2419 4116 
L 825 1625 
L 2419 1625 
L 2419 4116 
z
M 2253 4666 
L 3047 4666 
L 3047 1625 
L 3713 1625 
L 3713 1100 
L 3047 1100 
L 3047 0 
L 2419 0 
L 2419 1100 
L 313 1100 
L 313 1709 
L 2253 4666 
z
" transform="scale(0.015625)"/>
       </defs>
       <use xlink:href="#DejaVuSans-34"/>
       <use xlink:href="#DejaVuSans-30" x="63.623047"/>
       <use xlink:href="#DejaVuSans-30" x="127.246094"/>
      </g>
     </g>
    </g>
    <g id="xtick_5">
     <g id="line2d_5">
      <g>
       <use xlink:href="#m63fcb1a66b" x="270.295695" y="354.958125" style="stroke: #000000; stroke-width: 0.8"/>
      </g>
     </g>
     <g id="text_5">
      <!-- 450 -->
      <g transform="translate(260.751945 369.556562) scale(0.1 -0.1)">
       <use xlink:href="#DejaVuSans-34"/>
       <use xlink:href="#DejaVuSans-35" x="63.623047"/>
       <use xlink:href="#DejaVuSans-30" x="127.246094"/>
      </g>
     </g>
    </g>
    <g id="xtick_6">
     <g id="line2d_6">
      <g>
       <use xlink:href="#m63fcb1a66b" x="322.323667" y="354.958125" style="stroke: #000000; stroke-width: 0.8"/>
      </g>
     </g>
     <g id="text_6">
      <!-- 500 -->
      <g transform="translate(312.779917 369.556562) scale(0.1 -0.1)">
       <use xlink:href="#DejaVuSans-35"/>
       <use xlink:href="#DejaVuSans-30" x="63.623047"/>
       <use xlink:href="#DejaVuSans-30" x="127.246094"/>
      </g>
     </g>
    </g>
    <g id="xtick_7">
     <g id="line2d_7">
      <g>
       <use xlink:href="#m63fcb1a66b" x="374.351639" y="354.958125" style="stroke: #000000; stroke-width: 0.8"/>
      </g>
     </g>
     <g id="text_7">
      <!-- 550 -->
      <g transform="translate(364.807889 369.556562) scale(0.1 -0.1)">
       <use xlink:href="#DejaVuSans-35"/>
       <use xlink:href="#DejaVuSans-35" x="63.623047"/>
       <use xlink:href="#DejaVuSans-30" x="127.246094"/>
      </g>
     </g>
    </g>
    <g id="text_8">
     <!-- Actual Data ($, thousands) -->
     <g transform="translate(147.350781 383.234687) scale(0.1 -0.1)">
      <defs>
       <path id="DejaVuSans-41" d="M 2188 4044 
L 1331 1722 
L 3047 1722 
L 2188 4044 
z
M 1831 4666 
L 2547 4666 
L 4325 0 
L 3669 0 
L 3244 1197 
L 1141 1197 
L 716 0 
L 50 0 
L 1831 4666 
z
" transform="scale(0.015625)"/>
       <path id="DejaVuSans-63" d="M 3122 3366 
L 3122 2828 
Q 2878 2963 2633 3030 
Q 2388 3097 2138 3097 
Q 1578 3097 1268 2742 
Q 959 2388 959 1747 
Q 959 1106 1268 751 
Q 1578 397 2138 397 
Q 2388 397 2633 464 
Q 2878 531 3122 666 
L 3122 134 
Q 2881 22 2623 -34 
Q 2366 -91 2075 -91 
Q 1284 -91 818 406 
Q 353 903 353 1747 
Q 353 2603 823 3093 
Q 1294 3584 2113 3584 
Q 2378 3584 2631 3529 
Q 2884 3475 3122 3366 
z
" transform="scale(0.015625)"/>
       <path id="DejaVuSans-74" d="M 1172 4494 
L 1172 3500 
L 2356 3500 
L 2356 3053 
L 1172 3053 
L 1172 1153 
Q 1172 725 1289 603 
Q 1406 481 1766 481 
L 2356 481 
L 2356 0 
L 1766 0 
Q 1100 0 847 248 
Q 594 497 594 1153 
L 594 3053 
L 172 3053 
L 172 3500 
L 594 3500 
L 594 4494 
L 1172 4494 
z
" transform="scale(0.015625)"/>
       <path id="DejaVuSans-75" d="M 544 1381 
L 544 3500 
L 1119 3500 
L 1119 1403 
Q 1119 906 1312 657 
Q 1506 409 1894 409 
Q 2359 409 2629 706 
Q 2900 1003 2900 1516 
L 2900 3500 
L 3475 3500 
L 3475 0 
L 2900 0 
L 2900 538 
Q 2691 219 2414 64 
Q 2138 -91 1772 -91 
Q 1169 -91 856 284 
Q 544 659 544 1381 
z
M 1991 3584 
L 1991 3584 
z
" transform="scale(0.015625)"/>
       <path id="DejaVuSans-61" d="M 2194 1759 
Q 1497 1759 1228 1600 
Q 959 1441 959 1056 
Q 959 750 1161 570 
Q 1363 391 1709 391 
Q 2188 391 2477 730 
Q 2766 1069 2766 1631 
L 2766 1759 
L 2194 1759 
z
M 3341 1997 
L 3341 0 
L 2766 0 
L 2766 531 
Q 2569 213 2275 61 
Q 1981 -91 1556 -91 
Q 1019 -91 701 211 
Q 384 513 384 1019 
Q 384 1609 779 1909 
Q 1175 2209 1959 2209 
L 2766 2209 
L 2766 2266 
Q 2766 2663 2505 2880 
Q 2244 3097 1772 3097 
Q 1472 3097 1187 3025 
Q 903 2953 641 2809 
L 641 3341 
Q 956 3463 1253 3523 
Q 1550 3584 1831 3584 
Q 2591 3584 2966 3190 
Q 3341 2797 3341 1997 
z
" transform="scale(0.015625)"/>
       <path id="DejaVuSans-6c" d="M 603 4863 
L 1178 4863 
L 1178 0 
L 603 0 
L 603 4863 
z
" transform="scale(0.015625)"/>
       <path id="DejaVuSans-20" transform="scale(0.015625)"/>
       <path id="DejaVuSans-44" d="M 1259 4147 
L 1259 519 
L 2022 519 
Q 2988 519 3436 956 
Q 3884 1394 3884 2338 
Q 3884 3275 3436 3711 
Q 2988 4147 2022 4147 
L 1259 4147 
z
M 628 4666 
L 1925 4666 
Q 3281 4666 3915 4102 
Q 4550 3538 4550 2338 
Q 4550 1131 3912 565 
Q 3275 0 1925 0 
L 628 0 
L 628 4666 
z
" transform="scale(0.015625)"/>
       <path id="DejaVuSans-28" d="M 1984 4856 
Q 1566 4138 1362 3434 
Q 1159 2731 1159 2009 
Q 1159 1288 1364 580 
Q 1569 -128 1984 -844 
L 1484 -844 
Q 1016 -109 783 600 
Q 550 1309 550 2009 
Q 550 2706 781 3412 
Q 1013 4119 1484 4856 
L 1984 4856 
z
" transform="scale(0.015625)"/>
       <path id="DejaVuSans-24" d="M 2163 -941 
L 1850 -941 
L 1847 0 
Q 1519 6 1191 76 
Q 863 147 531 288 
L 531 850 
Q 850 650 1176 548 
Q 1503 447 1850 444 
L 1850 1869 
Q 1159 1981 845 2250 
Q 531 2519 531 2988 
Q 531 3497 872 3790 
Q 1213 4084 1850 4128 
L 1850 4863 
L 2163 4863 
L 2163 4138 
Q 2453 4125 2725 4076 
Q 2997 4028 3256 3944 
L 3256 3397 
Q 2997 3528 2723 3600 
Q 2450 3672 2163 3684 
L 2163 2350 
Q 2872 2241 3206 1959 
Q 3541 1678 3541 1191 
Q 3541 663 3186 358 
Q 2831 53 2163 6 
L 2163 -941 
z
M 1850 2406 
L 1850 3688 
Q 1488 3647 1297 3481 
Q 1106 3316 1106 3041 
Q 1106 2772 1282 2622 
Q 1459 2472 1850 2406 
z
M 2163 1806 
L 2163 453 
Q 2559 506 2761 678 
Q 2963 850 2963 1131 
Q 2963 1406 2770 1568 
Q 2578 1731 2163 1806 
z
" transform="scale(0.015625)"/>
       <path id="DejaVuSans-2c" d="M 750 794 
L 1409 794 
L 1409 256 
L 897 -744 
L 494 -744 
L 750 256 
L 750 794 
z
" transform="scale(0.015625)"/>
       <path id="DejaVuSans-68" d="M 3513 2113 
L 3513 0 
L 2938 0 
L 2938 2094 
Q 2938 2591 2744 2837 
Q 2550 3084 2163 3084 
Q 1697 3084 1428 2787 
Q 1159 2491 1159 1978 
L 1159 0 
L 581 0 
L 581 4863 
L 1159 4863 
L 1159 2956 
Q 1366 3272 1645 3428 
Q 1925 3584 2291 3584 
Q 2894 3584 3203 3211 
Q 3513 2838 3513 2113 
z
" transform="scale(0.015625)"/>
       <path id="DejaVuSans-6f" d="M 1959 3097 
Q 1497 3097 1228 2736 
Q 959 2375 959 1747 
Q 959 1119 1226 758 
Q 1494 397 1959 397 
Q 2419 397 2687 759 
Q 2956 1122 2956 1747 
Q 2956 2369 2687 2733 
Q 2419 3097 1959 3097 
z
M 1959 3584 
Q 2709 3584 3137 3096 
Q 3566 2609 3566 1747 
Q 3566 888 3137 398 
Q 2709 -91 1959 -91 
Q 1206 -91 779 398 
Q 353 888 353 1747 
Q 353 2609 779 3096 
Q 1206 3584 1959 3584 
z
" transform="scale(0.015625)"/>
       <path id="DejaVuSans-73" d="M 2834 3397 
L 2834 2853 
Q 2591 2978 2328 3040 
Q 2066 3103 1784 3103 
Q 1356 3103 1142 2972 
Q 928 2841 928 2578 
Q 928 2378 1081 2264 
Q 1234 2150 1697 2047 
L 1894 2003 
Q 2506 1872 2764 1633 
Q 3022 1394 3022 966 
Q 3022 478 2636 193 
Q 2250 -91 1575 -91 
Q 1294 -91 989 -36 
Q 684 19 347 128 
L 347 722 
Q 666 556 975 473 
Q 1284 391 1588 391 
Q 1994 391 2212 530 
Q 2431 669 2431 922 
Q 2431 1156 2273 1281 
Q 2116 1406 1581 1522 
L 1381 1569 
Q 847 1681 609 1914 
Q 372 2147 372 2553 
Q 372 3047 722 3315 
Q 1072 3584 1716 3584 
Q 2034 3584 2315 3537 
Q 2597 3491 2834 3397 
z
" transform="scale(0.015625)"/>
       <path id="DejaVuSans-6e" d="M 3513 2113 
L 3513 0 
L 2938 0 
L 2938 2094 
Q 2938 2591 2744 2837 
Q 2550 3084 2163 3084 
Q 1697 3084 1428 2787 
Q 1159 2491 1159 1978 
L 1159 0 
L 581 0 
L 581 3500 
L 1159 3500 
L 1159 2956 
Q 1366 3272 1645 3428 
Q 1925 3584 2291 3584 
Q 2894 3584 3203 3211 
Q 3513 2838 3513 2113 
z
" transform="scale(0.015625)"/>
       <path id="DejaVuSans-64" d="M 2906 2969 
L 2906 4863 
L 3481 4863 
L 3481 0 
L 2906 0 
L 2906 525 
Q 2725 213 2448 61 
Q 2172 -91 1784 -91 
Q 1150 -91 751 415 
Q 353 922 353 1747 
Q 353 2572 751 3078 
Q 1150 3584 1784 3584 
Q 2172 3584 2448 3432 
Q 2725 3281 2906 2969 
z
M 947 1747 
Q 947 1113 1208 752 
Q 1469 391 1925 391 
Q 2381 391 2643 752 
Q 2906 1113 2906 1747 
Q 2906 2381 2643 2742 
Q 2381 3103 1925 3103 
Q 1469 3103 1208 2742 
Q 947 2381 947 1747 
z
" transform="scale(0.015625)"/>
       <path id="DejaVuSans-29" d="M 513 4856 
L 1013 4856 
Q 1481 4119 1714 3412 
Q 1947 2706 1947 2009 
Q 1947 1309 1714 600 
Q 1481 -109 1013 -844 
L 513 -844 
Q 928 -128 1133 580 
Q 1338 1288 1338 2009 
Q 1338 2731 1133 3434 
Q 928 4138 513 4856 
z
" transform="scale(0.015625)"/>
      </defs>
      <use xlink:href="#DejaVuSans-41"/>
      <use xlink:href="#DejaVuSans-63" x="66.658203"/>
      <use xlink:href="#DejaVuSans-74" x="121.638672"/>
      <use xlink:href="#DejaVuSans-75" x="160.847656"/>
      <use xlink:href="#DejaVuSans-61" x="224.226562"/>
      <use xlink:href="#DejaVuSans-6c" x="285.505859"/>
      <use xlink:href="#DejaVuSans-20" x="313.289062"/>
      <use xlink:href="#DejaVuSans-44" x="345.076172"/>
      <use xlink:href="#DejaVuSans-61" x="422.078125"/>
      <use xlink:href="#DejaVuSans-74" x="483.357422"/>
      <use xlink:href="#DejaVuSans-61" x="522.566406"/>
      <use xlink:href="#DejaVuSans-20" x="583.845703"/>
      <use xlink:href="#DejaVuSans-28" x="615.632812"/>
      <use xlink:href="#DejaVuSans-24" x="654.646484"/>
      <use xlink:href="#DejaVuSans-2c" x="718.269531"/>
      <use xlink:href="#DejaVuSans-20" x="750.056641"/>
      <use xlink:href="#DejaVuSans-74" x="781.84375"/>
      <use xlink:href="#DejaVuSans-68" x="821.052734"/>
      <use xlink:href="#DejaVuSans-6f" x="884.431641"/>
      <use xlink:href="#DejaVuSans-75" x="945.613281"/>
      <use xlink:href="#DejaVuSans-73" x="1008.992188"/>
      <use xlink:href="#DejaVuSans-61" x="1061.091797"/>
      <use xlink:href="#DejaVuSans-6e" x="1122.371094"/>
      <use xlink:href="#DejaVuSans-64" x="1185.75"/>
      <use xlink:href="#DejaVuSans-73" x="1249.226562"/>
      <use xlink:href="#DejaVuSans-29" x="1301.326172"/>
     </g>
    </g>
   </g>
   <g id="matplotlib.axis_2">
    <g id="ytick_1">
     <g id="line2d_8">
      <defs>
       <path id="m27fffdb304" d="M 0 0 
L -3.5 0 
" style="stroke: #000000; stroke-width: 0.8"/>
      </defs>
      <g>
       <use xlink:href="#m27fffdb304" x="46.965625" y="337.56589" style="stroke: #000000; stroke-width: 0.8"/>
      </g>
     </g>
     <g id="text_9">
      <!-- 250 -->
      <g transform="translate(20.878125 341.365109) scale(0.1 -0.1)">
       <use xlink:href="#DejaVuSans-32"/>
       <use xlink:href="#DejaVuSans-35" x="63.623047"/>
       <use xlink:href="#DejaVuSans-30" x="127.246094"/>
      </g>
     </g>
    </g>
    <g id="ytick_2">
     <g id="line2d_9">
      <g>
       <use xlink:href="#m27fffdb304" x="46.965625" y="287.682518" style="stroke: #000000; stroke-width: 0.8"/>
      </g>
     </g>
     <g id="text_10">
      <!-- 300 -->
      <g transform="translate(20.878125 291.481737) scale(0.1 -0.1)">
       <use xlink:href="#DejaVuSans-33"/>
       <use xlink:href="#DejaVuSans-30" x="63.623047"/>
       <use xlink:href="#DejaVuSans-30" x="127.246094"/>
      </g>
     </g>
    </g>
    <g id="ytick_3">
     <g id="line2d_10">
      <g>
       <use xlink:href="#m27fffdb304" x="46.965625" y="237.799146" style="stroke: #000000; stroke-width: 0.8"/>
      </g>
     </g>
     <g id="text_11">
      <!-- 350 -->
      <g transform="translate(20.878125 241.598364) scale(0.1 -0.1)">
       <use xlink:href="#DejaVuSans-33"/>
       <use xlink:href="#DejaVuSans-35" x="63.623047"/>
       <use xlink:href="#DejaVuSans-30" x="127.246094"/>
      </g>
     </g>
    </g>
    <g id="ytick_4">
     <g id="line2d_11">
      <g>
       <use xlink:href="#m27fffdb304" x="46.965625" y="187.915773" style="stroke: #000000; stroke-width: 0.8"/>
      </g>
     </g>
     <g id="text_12">
      <!-- 400 -->
      <g transform="translate(20.878125 191.714992) scale(0.1 -0.1)">
       <use xlink:href="#DejaVuSans-34"/>
       <use xlink:href="#DejaVuSans-30" x="63.623047"/>
       <use xlink:href="#DejaVuSans-30" x="127.246094"/>
      </g>
     </g>
    </g>
    <g id="ytick_5">
     <g id="line2d_12">
      <g>
       <use xlink:href="#m27fffdb304" x="46.965625" y="138.032401" style="stroke: #000000; stroke-width: 0.8"/>
      </g>
     </g>
     <g id="text_13">
      <!-- 450 -->
      <g transform="translate(20.878125 141.83162) scale(0.1 -0.1)">
       <use xlink:href="#DejaVuSans-34"/>
       <use xlink:href="#DejaVuSans-35" x="63.623047"/>
       <use xlink:href="#DejaVuSans-30" x="127.246094"/>
      </g>
     </g>
    </g>
    <g id="ytick_6">
     <g id="line2d_13">
      <g>
       <use xlink:href="#m27fffdb304" x="46.965625" y="88.149029" style="stroke: #000000; stroke-width: 0.8"/>
      </g>
     </g>
     <g id="text_14">
      <!-- 500 -->
      <g transform="translate(20.878125 91.948248) scale(0.1 -0.1)">
       <use xlink:href="#DejaVuSans-35"/>
       <use xlink:href="#DejaVuSans-30" x="63.623047"/>
       <use xlink:href="#DejaVuSans-30" x="127.246094"/>
      </g>
     </g>
    </g>
    <g id="ytick_7">
     <g id="line2d_14">
      <g>
       <use xlink:href="#m27fffdb304" x="46.965625" y="38.265657" style="stroke: #000000; stroke-width: 0.8"/>
      </g>
     </g>
     <g id="text_15">
      <!-- 550 -->
      <g transform="translate(20.878125 42.064875) scale(0.1 -0.1)">
       <use xlink:href="#DejaVuSans-35"/>
       <use xlink:href="#DejaVuSans-35" x="63.623047"/>
       <use xlink:href="#DejaVuSans-30" x="127.246094"/>
      </g>
     </g>
    </g>
    <g id="text_16">
     <!-- Predicted Data ($, thousands) -->
     <g transform="translate(14.798438 263.459219) rotate(-90) scale(0.1 -0.1)">
      <defs>
       <path id="DejaVuSans-50" d="M 1259 4147 
L 1259 2394 
L 2053 2394 
Q 2494 2394 2734 2622 
Q 2975 2850 2975 3272 
Q 2975 3691 2734 3919 
Q 2494 4147 2053 4147 
L 1259 4147 
z
M 628 4666 
L 2053 4666 
Q 2838 4666 3239 4311 
Q 3641 3956 3641 3272 
Q 3641 2581 3239 2228 
Q 2838 1875 2053 1875 
L 1259 1875 
L 1259 0 
L 628 0 
L 628 4666 
z
" transform="scale(0.015625)"/>
       <path id="DejaVuSans-72" d="M 2631 2963 
Q 2534 3019 2420 3045 
Q 2306 3072 2169 3072 
Q 1681 3072 1420 2755 
Q 1159 2438 1159 1844 
L 1159 0 
L 581 0 
L 581 3500 
L 1159 3500 
L 1159 2956 
Q 1341 3275 1631 3429 
Q 1922 3584 2338 3584 
Q 2397 3584 2469 3576 
Q 2541 3569 2628 3553 
L 2631 2963 
z
" transform="scale(0.015625)"/>
       <path id="DejaVuSans-65" d="M 3597 1894 
L 3597 1613 
L 953 1613 
Q 991 1019 1311 708 
Q 1631 397 2203 397 
Q 2534 397 2845 478 
Q 3156 559 3463 722 
L 3463 178 
Q 3153 47 2828 -22 
Q 2503 -91 2169 -91 
Q 1331 -91 842 396 
Q 353 884 353 1716 
Q 353 2575 817 3079 
Q 1281 3584 2069 3584 
Q 2775 3584 3186 3129 
Q 3597 2675 3597 1894 
z
M 3022 2063 
Q 3016 2534 2758 2815 
Q 2500 3097 2075 3097 
Q 1594 3097 1305 2825 
Q 1016 2553 972 2059 
L 3022 2063 
z
" transform="scale(0.015625)"/>
       <path id="DejaVuSans-69" d="M 603 3500 
L 1178 3500 
L 1178 0 
L 603 0 
L 603 3500 
z
M 603 4863 
L 1178 4863 
L 1178 4134 
L 603 4134 
L 603 4863 
z
" transform="scale(0.015625)"/>
      </defs>
      <use xlink:href="#DejaVuSans-50"/>
      <use xlink:href="#DejaVuSans-72" x="58.552734"/>
      <use xlink:href="#DejaVuSans-65" x="97.416016"/>
      <use xlink:href="#DejaVuSans-64" x="158.939453"/>
      <use xlink:href="#DejaVuSans-69" x="222.416016"/>
      <use xlink:href="#DejaVuSans-63" x="250.199219"/>
      <use xlink:href="#DejaVuSans-74" x="305.179688"/>
      <use xlink:href="#DejaVuSans-65" x="344.388672"/>
      <use xlink:href="#DejaVuSans-64" x="405.912109"/>
      <use xlink:href="#DejaVuSans-20" x="469.388672"/>
      <use xlink:href="#DejaVuSans-44" x="501.175781"/>
      <use xlink:href="#DejaVuSans-61" x="578.177734"/>
      <use xlink:href="#DejaVuSans-74" x="639.457031"/>
      <use xlink:href="#DejaVuSans-61" x="678.666016"/>
      <use xlink:href="#DejaVuSans-20" x="739.945312"/>
      <use xlink:href="#DejaVuSans-28" x="771.732422"/>
      <use xlink:href="#DejaVuSans-24" x="810.746094"/>
      <use xlink:href="#DejaVuSans-2c" x="874.369141"/>
      <use xlink:href="#DejaVuSans-20" x="906.15625"/>
      <use xlink:href="#DejaVuSans-74" x="937.943359"/>
      <use xlink:href="#DejaVuSans-68" x="977.152344"/>
      <use xlink:href="#DejaVuSans-6f" x="1040.53125"/>
      <use xlink:href="#DejaVuSans-75" x="1101.712891"/>
      <use xlink:href="#DejaVuSans-73" x="1165.091797"/>
      <use xlink:href="#DejaVuSans-61" x="1217.191406"/>
      <use xlink:href="#DejaVuSans-6e" x="1278.470703"/>
      <use xlink:href="#DejaVuSans-64" x="1341.849609"/>
      <use xlink:href="#DejaVuSans-73" x="1405.326172"/>
      <use xlink:href="#DejaVuSans-29" x="1457.425781"/>
     </g>
    </g>
   </g>
   <g id="line2d_15">
    <path d="M 62.183807 336.426122 
L 65.258187 333.474506 
L 68.332567 330.522891 
L 71.406947 327.571276 
L 74.481327 324.61966 
L 77.555708 321.668045 
L 80.630088 318.716429 
L 83.704468 315.764814 
L 86.778848 312.813199 
L 89.853228 309.861583 
L 92.927608 306.909968 
L 96.001989 303.958353 
L 99.076369 301.006737 
L 102.150749 298.055122 
L 105.225129 295.103507 
L 108.299509 292.151891 
L 111.373889 289.200276 
L 114.44827 286.248661 
L 117.52265 283.297045 
L 120.59703 280.34543 
L 123.67141 277.393814 
L 126.74579 274.442199 
L 129.82017 271.490584 
L 132.894551 268.538968 
L 135.968931 265.587353 
L 139.043311 262.635738 
L 142.117691 259.684122 
L 145.192071 256.732507 
L 148.266451 253.780892 
L 151.340832 250.829276 
L 154.415212 247.877661 
L 157.489592 244.926046 
L 160.563972 241.97443 
L 163.638352 239.022815 
L 166.712732 236.0712 
L 169.787113 233.119584 
L 172.861493 230.167969 
L 175.935873 227.216353 
L 179.010253 224.264738 
L 182.084633 221.313123 
L 185.159013 218.361507 
L 188.233394 215.409892 
L 191.307774 212.458277 
L 194.382154 209.506661 
L 197.456534 206.555046 
L 200.530914 203.603431 
L 203.605294 200.651815 
L 206.679675 197.7002 
L 209.754055 194.748585 
L 212.828435 191.796969 
L 215.902815 188.845354 
L 218.977195 185.893738 
L 222.051575 182.942123 
L 225.125956 179.990508 
L 228.200336 177.038892 
L 231.274716 174.087277 
L 234.349096 171.135662 
L 237.423476 168.184046 
L 240.497856 165.232431 
L 243.572237 162.280816 
L 246.646617 159.3292 
L 249.720997 156.377585 
L 252.795377 153.42597 
L 255.869757 150.474354 
L 258.944137 147.522739 
L 262.018518 144.571123 
L 265.092898 141.619508 
L 268.167278 138.667893 
L 271.241658 135.716277 
L 274.316038 132.764662 
L 277.390418 129.813047 
L 280.464799 126.861431 
L 283.539179 123.909816 
L 286.613559 120.958201 
L 289.687939 118.006585 
L 292.762319 115.05497 
L 295.836699 112.103355 
L 298.91108 109.151739 
L 301.98546 106.200124 
L 305.05984 103.248508 
L 308.13422 100.296893 
L 311.2086 97.345278 
L 314.28298 94.393662 
L 317.357361 91.442047 
L 320.431741 88.490432 
L 323.506121 85.538816 
L 326.580501 82.587201 
L 329.654881 79.635586 
L 332.729261 76.68397 
L 335.803642 73.732355 
L 338.878022 70.78074 
L 341.952402 67.829124 
L 345.026782 64.877509 
L 348.101162 61.925893 
L 351.175542 58.974278 
L 354.249923 56.022663 
L 357.324303 53.071047 
L 360.398683 50.119432 
L 363.473063 47.167817 
L 366.547443 44.216201 
" clip-path="url(#padd1055e78)" style="fill: none; stroke: #d62728; stroke-width: 2.25; stroke-linecap: square"/>
   </g>
   <g id="patch_3">
    <path d="M 46.965625 354.958125 
L 46.965625 22.318125 
" style="fill: none; stroke: #000000; stroke-width: 0.8; stroke-linejoin: miter; stroke-linecap: square"/>
   </g>
   <g id="patch_4">
    <path d="M 381.765625 354.958125 
L 381.765625 22.318125 
" style="fill: none; stroke: #000000; stroke-width: 0.8; stroke-linejoin: miter; stroke-linecap: square"/>
   </g>
   <g id="patch_5">
    <path d="M 46.965625 354.958125 
L 381.765625 354.958125 
" style="fill: none; stroke: #000000; stroke-width: 0.8; stroke-linejoin: miter; stroke-linecap: square"/>
   </g>
   <g id="patch_6">
    <path d="M 46.965625 22.318125 
L 381.765625 22.318125 
" style="fill: none; stroke: #000000; stroke-width: 0.8; stroke-linejoin: miter; stroke-linecap: square"/>
   </g>
   <g id="text_17">
    <!-- Random Forest Regression Performance -->
    <g transform="translate(94.567188 16.318125) scale(0.12 -0.12)">
     <defs>
      <path id="DejaVuSans-52" d="M 2841 2188 
Q 3044 2119 3236 1894 
Q 3428 1669 3622 1275 
L 4263 0 
L 3584 0 
L 2988 1197 
Q 2756 1666 2539 1819 
Q 2322 1972 1947 1972 
L 1259 1972 
L 1259 0 
L 628 0 
L 628 4666 
L 2053 4666 
Q 2853 4666 3247 4331 
Q 3641 3997 3641 3322 
Q 3641 2881 3436 2590 
Q 3231 2300 2841 2188 
z
M 1259 4147 
L 1259 2491 
L 2053 2491 
Q 2509 2491 2742 2702 
Q 2975 2913 2975 3322 
Q 2975 3731 2742 3939 
Q 2509 4147 2053 4147 
L 1259 4147 
z
" transform="scale(0.015625)"/>
      <path id="DejaVuSans-6d" d="M 3328 2828 
Q 3544 3216 3844 3400 
Q 4144 3584 4550 3584 
Q 5097 3584 5394 3201 
Q 5691 2819 5691 2113 
L 5691 0 
L 5113 0 
L 5113 2094 
Q 5113 2597 4934 2840 
Q 4756 3084 4391 3084 
Q 3944 3084 3684 2787 
Q 3425 2491 3425 1978 
L 3425 0 
L 2847 0 
L 2847 2094 
Q 2847 2600 2669 2842 
Q 2491 3084 2119 3084 
Q 1678 3084 1418 2786 
Q 1159 2488 1159 1978 
L 1159 0 
L 581 0 
L 581 3500 
L 1159 3500 
L 1159 2956 
Q 1356 3278 1631 3431 
Q 1906 3584 2284 3584 
Q 2666 3584 2933 3390 
Q 3200 3197 3328 2828 
z
" transform="scale(0.015625)"/>
      <path id="DejaVuSans-46" d="M 628 4666 
L 3309 4666 
L 3309 4134 
L 1259 4134 
L 1259 2759 
L 3109 2759 
L 3109 2228 
L 1259 2228 
L 1259 0 
L 628 0 
L 628 4666 
z
" transform="scale(0.015625)"/>
      <path id="DejaVuSans-67" d="M 2906 1791 
Q 2906 2416 2648 2759 
Q 2391 3103 1925 3103 
Q 1463 3103 1205 2759 
Q 947 2416 947 1791 
Q 947 1169 1205 825 
Q 1463 481 1925 481 
Q 2391 481 2648 825 
Q 2906 1169 2906 1791 
z
M 3481 434 
Q 3481 -459 3084 -895 
Q 2688 -1331 1869 -1331 
Q 1566 -1331 1297 -1286 
Q 1028 -1241 775 -1147 
L 775 -588 
Q 1028 -725 1275 -790 
Q 1522 -856 1778 -856 
Q 2344 -856 2625 -561 
Q 2906 -266 2906 331 
L 2906 616 
Q 2728 306 2450 153 
Q 2172 0 1784 0 
Q 1141 0 747 490 
Q 353 981 353 1791 
Q 353 2603 747 3093 
Q 1141 3584 1784 3584 
Q 2172 3584 2450 3431 
Q 2728 3278 2906 2969 
L 2906 3500 
L 3481 3500 
L 3481 434 
z
" transform="scale(0.015625)"/>
      <path id="DejaVuSans-66" d="M 2375 4863 
L 2375 4384 
L 1825 4384 
Q 1516 4384 1395 4259 
Q 1275 4134 1275 3809 
L 1275 3500 
L 2222 3500 
L 2222 3053 
L 1275 3053 
L 1275 0 
L 697 0 
L 697 3053 
L 147 3053 
L 147 3500 
L 697 3500 
L 697 3744 
Q 697 4328 969 4595 
Q 1241 4863 1831 4863 
L 2375 4863 
z
" transform="scale(0.015625)"/>
     </defs>
     <use xlink:href="#DejaVuSans-52"/>
     <use xlink:href="#DejaVuSans-61" x="67.232422"/>
     <use xlink:href="#DejaVuSans-6e" x="128.511719"/>
     <use xlink:href="#DejaVuSans-64" x="191.890625"/>
     <use xlink:href="#DejaVuSans-6f" x="255.367188"/>
     <use xlink:href="#DejaVuSans-6d" x="316.548828"/>
     <use xlink:href="#DejaVuSans-20" x="413.960938"/>
     <use xlink:href="#DejaVuSans-46" x="445.748047"/>
     <use xlink:href="#DejaVuSans-6f" x="499.642578"/>
     <use xlink:href="#DejaVuSans-72" x="560.824219"/>
     <use xlink:href="#DejaVuSans-65" x="599.6875"/>
     <use xlink:href="#DejaVuSans-73" x="661.210938"/>
     <use xlink:href="#DejaVuSans-74" x="713.310547"/>
     <use xlink:href="#DejaVuSans-20" x="752.519531"/>
     <use xlink:href="#DejaVuSans-52" x="784.306641"/>
     <use xlink:href="#DejaVuSans-65" x="849.289062"/>
     <use xlink:href="#DejaVuSans-67" x="910.8125"/>
     <use xlink:href="#DejaVuSans-72" x="974.289062"/>
     <use xlink:href="#DejaVuSans-65" x="1013.152344"/>
     <use xlink:href="#DejaVuSans-73" x="1074.675781"/>
     <use xlink:href="#DejaVuSans-73" x="1126.775391"/>
     <use xlink:href="#DejaVuSans-69" x="1178.875"/>
     <use xlink:href="#DejaVuSans-6f" x="1206.658203"/>
     <use xlink:href="#DejaVuSans-6e" x="1267.839844"/>
     <use xlink:href="#DejaVuSans-20" x="1331.21875"/>
     <use xlink:href="#DejaVuSans-50" x="1363.005859"/>
     <use xlink:href="#DejaVuSans-65" x="1419.683594"/>
     <use xlink:href="#DejaVuSans-72" x="1481.207031"/>
     <use xlink:href="#DejaVuSans-66" x="1522.320312"/>
     <use xlink:href="#DejaVuSans-6f" x="1557.525391"/>
     <use xlink:href="#DejaVuSans-72" x="1618.707031"/>
     <use xlink:href="#DejaVuSans-6d" x="1658.070312"/>
     <use xlink:href="#DejaVuSans-61" x="1755.482422"/>
     <use xlink:href="#DejaVuSans-6e" x="1816.761719"/>
     <use xlink:href="#DejaVuSans-63" x="1880.140625"/>
     <use xlink:href="#DejaVuSans-65" x="1935.121094"/>
    </g>
   </g>
  </g>
 </g>
 <defs>
  <clipPath id="padd1055e78">
   <rect x="46.965625" y="22.318125" width="334.8" height="332.64"/>
  </clipPath>
 </defs>
</svg>
