<?xml version="1.0" encoding="utf-8" standalone="no"?>
<!DOCTYPE svg PUBLIC "-//W3C//DTD SVG 1.1//EN"
  "http://www.w3.org/Graphics/SVG/1.1/DTD/svg11.dtd">
<svg xmlns:xlink="http://www.w3.org/1999/xlink" width="391.54375pt" height="392.514375pt" viewBox="0 0 391.54375 392.514375" xmlns="http://www.w3.org/2000/svg" version="1.1">
 <metadata>
  <rdf:RDF xmlns:dc="http://purl.org/dc/elements/1.1/" xmlns:cc="http://creativecommons.org/ns#" xmlns:rdf="http://www.w3.org/1999/02/22-rdf-syntax-ns#">
   <cc:Work>
    <dc:type rdf:resource="http://purl.org/dc/dcmitype/StillImage"/>
    <dc:date>2023-12-12T19:52:51.729150</dc:date>
    <dc:format>image/svg+xml</dc:format>
    <dc:creator>
     <cc:Agent>
      <dc:title>Matplotlib v3.8.0, https://matplotlib.org/</dc:title>
     </cc:Agent>
    </dc:creator>
   </cc:Work>
  </rdf:RDF>
 </metadata>
 <defs>
  <style type="text/css">*{stroke-linejoin: round; stroke-linecap: butt}</style>
 </defs>
 <g id="figure_1">
  <g id="patch_1">
   <path d="M -0 392.514375 
L 391.54375 392.514375 
L 391.54375 0 
L -0 0 
z
" style="fill: #ffffff"/>
  </g>
  <g id="axes_1">
   <g id="patch_2">
    <path d="M 46.965625 354.958125 
L 381.765625 354.958125 
L 381.765625 22.318125 
L 46.965625 22.318125 
z
" style="fill: #ffffff"/>
   </g>
   <g id="PathCollection_1">
    <defs>
     <path id="m4cfebf8e6e" d="M 0 3 
C 0.795609 3 1.55874 2.683901 2.12132 2.12132 
C 2.683901 1.55874 3 0.795609 3 0 
C 3 -0.795609 2.683901 -1.55874 2.12132 -2.12132 
C 1.55874 -2.683901 0.795609 -3 0 -3 
C -0.795609 -3 -1.55874 -2.683901 -2.12132 -2.12132 
C -2.683901 -1.55874 -3 -0.795609 -3 0 
C -3 0.795609 -2.683901 1.55874 -2.12132 2.12132 
C -1.55874 2.683901 -0.795609 3 0 3 
z
" style="stroke: #1f77b4; stroke-opacity: 0.5"/>
    </defs>
    <g clip-path="url(#p535022a065)">
     <use xlink:href="#m4cfebf8e6e" x="276.690255" y="127.329292" style="fill: #1f77b4; fill-opacity: 0.5; stroke: #1f77b4; stroke-opacity: 0.5"/>
     <use xlink:href="#m4cfebf8e6e" x="129.878149" y="302.504488" style="fill: #1f77b4; fill-opacity: 0.5; stroke: #1f77b4; stroke-opacity: 0.5"/>
     <use xlink:href="#m4cfebf8e6e" x="203.954094" y="198.853641" style="fill: #1f77b4; fill-opacity: 0.5; stroke: #1f77b4; stroke-opacity: 0.5"/>
     <use xlink:href="#m4cfebf8e6e" x="292.097769" y="92.054056" style="fill: #1f77b4; fill-opacity: 0.5; stroke: #1f77b4; stroke-opacity: 0.5"/>
     <use xlink:href="#m4cfebf8e6e" x="140.490648" y="245.837524" style="fill: #1f77b4; fill-opacity: 0.5; stroke: #1f77b4; stroke-opacity: 0.5"/>
     <use xlink:href="#m4cfebf8e6e" x="165.170877" y="231.424792" style="fill: #1f77b4; fill-opacity: 0.5; stroke: #1f77b4; stroke-opacity: 0.5"/>
     <use xlink:href="#m4cfebf8e6e" x="91.33292" y="302.405994" style="fill: #1f77b4; fill-opacity: 0.5; stroke: #1f77b4; stroke-opacity: 0.5"/>
     <use xlink:href="#m4cfebf8e6e" x="271.648437" y="137.686375" style="fill: #1f77b4; fill-opacity: 0.5; stroke: #1f77b4; stroke-opacity: 0.5"/>
     <use xlink:href="#m4cfebf8e6e" x="112.284672" y="256.178648" style="fill: #1f77b4; fill-opacity: 0.5; stroke: #1f77b4; stroke-opacity: 0.5"/>
     <use xlink:href="#m4cfebf8e6e" x="274.384416" y="149.070092" style="fill: #1f77b4; fill-opacity: 0.5; stroke: #1f77b4; stroke-opacity: 0.5"/>
     <use xlink:href="#m4cfebf8e6e" x="152.478188" y="216.564705" style="fill: #1f77b4; fill-opacity: 0.5; stroke: #1f77b4; stroke-opacity: 0.5"/>
     <use xlink:href="#m4cfebf8e6e" x="179.273865" y="231.201212" style="fill: #1f77b4; fill-opacity: 0.5; stroke: #1f77b4; stroke-opacity: 0.5"/>
     <use xlink:href="#m4cfebf8e6e" x="175.712861" y="281.824993" style="fill: #1f77b4; fill-opacity: 0.5; stroke: #1f77b4; stroke-opacity: 0.5"/>
     <use xlink:href="#m4cfebf8e6e" x="116.515568" y="260.248569" style="fill: #1f77b4; fill-opacity: 0.5; stroke: #1f77b4; stroke-opacity: 0.5"/>
     <use xlink:href="#m4cfebf8e6e" x="337.93248" y="87.441861" style="fill: #1f77b4; fill-opacity: 0.5; stroke: #1f77b4; stroke-opacity: 0.5"/>
     <use xlink:href="#m4cfebf8e6e" x="189.851106" y="229.066026" style="fill: #1f77b4; fill-opacity: 0.5; stroke: #1f77b4; stroke-opacity: 0.5"/>
     <use xlink:href="#m4cfebf8e6e" x="270.943287" y="145.090738" style="fill: #1f77b4; fill-opacity: 0.5; stroke: #1f77b4; stroke-opacity: 0.5"/>
     <use xlink:href="#m4cfebf8e6e" x="250.053236" y="163.576037" style="fill: #1f77b4; fill-opacity: 0.5; stroke: #1f77b4; stroke-opacity: 0.5"/>
     <use xlink:href="#m4cfebf8e6e" x="258.955747" y="108.172446" style="fill: #1f77b4; fill-opacity: 0.5; stroke: #1f77b4; stroke-opacity: 0.5"/>
     <use xlink:href="#m4cfebf8e6e" x="168.696624" y="236.297352" style="fill: #1f77b4; fill-opacity: 0.5; stroke: #1f77b4; stroke-opacity: 0.5"/>
     <use xlink:href="#m4cfebf8e6e" x="168.696624" y="231.465056" style="fill: #1f77b4; fill-opacity: 0.5; stroke: #1f77b4; stroke-opacity: 0.5"/>
     <use xlink:href="#m4cfebf8e6e" x="193.376853" y="199.096312" style="fill: #1f77b4; fill-opacity: 0.5; stroke: #1f77b4; stroke-opacity: 0.5"/>
     <use xlink:href="#m4cfebf8e6e" x="288.572022" y="111.679028" style="fill: #1f77b4; fill-opacity: 0.5; stroke: #1f77b4; stroke-opacity: 0.5"/>
     <use xlink:href="#m4cfebf8e6e" x="273.235023" y="132.505413" style="fill: #1f77b4; fill-opacity: 0.5; stroke: #1f77b4; stroke-opacity: 0.5"/>
     <use xlink:href="#m4cfebf8e6e" x="147.542142" y="253.735718" style="fill: #1f77b4; fill-opacity: 0.5; stroke: #1f77b4; stroke-opacity: 0.5"/>
     <use xlink:href="#m4cfebf8e6e" x="200.428347" y="196.504735" style="fill: #1f77b4; fill-opacity: 0.5; stroke: #1f77b4; stroke-opacity: 0.5"/>
     <use xlink:href="#m4cfebf8e6e" x="124.67591" y="252.33122" style="fill: #1f77b4; fill-opacity: 0.5; stroke: #1f77b4; stroke-opacity: 0.5"/>
     <use xlink:href="#m4cfebf8e6e" x="96.771385" y="277.915418" style="fill: #1f77b4; fill-opacity: 0.5; stroke: #1f77b4; stroke-opacity: 0.5"/>
     <use xlink:href="#m4cfebf8e6e" x="270.943287" y="137.881567" style="fill: #1f77b4; fill-opacity: 0.5; stroke: #1f77b4; stroke-opacity: 0.5"/>
     <use xlink:href="#m4cfebf8e6e" x="116.515568" y="295.441624" style="fill: #1f77b4; fill-opacity: 0.5; stroke: #1f77b4; stroke-opacity: 0.5"/>
     <use xlink:href="#m4cfebf8e6e" x="203.954094" y="183.709832" style="fill: #1f77b4; fill-opacity: 0.5; stroke: #1f77b4; stroke-opacity: 0.5"/>
     <use xlink:href="#m4cfebf8e6e" x="218.050031" y="166.004123" style="fill: #1f77b4; fill-opacity: 0.5; stroke: #1f77b4; stroke-opacity: 0.5"/>
     <use xlink:href="#m4cfebf8e6e" x="144.016395" y="256.233507" style="fill: #1f77b4; fill-opacity: 0.5; stroke: #1f77b4; stroke-opacity: 0.5"/>
     <use xlink:href="#m4cfebf8e6e" x="147.542142" y="264.644011" style="fill: #1f77b4; fill-opacity: 0.5; stroke: #1f77b4; stroke-opacity: 0.5"/>
     <use xlink:href="#m4cfebf8e6e" x="264.165039" y="142.345976" style="fill: #1f77b4; fill-opacity: 0.5; stroke: #1f77b4; stroke-opacity: 0.5"/>
     <use xlink:href="#m4cfebf8e6e" x="200.428347" y="191.413463" style="fill: #1f77b4; fill-opacity: 0.5; stroke: #1f77b4; stroke-opacity: 0.5"/>
     <use xlink:href="#m4cfebf8e6e" x="122.861913" y="262.296565" style="fill: #1f77b4; fill-opacity: 0.5; stroke: #1f77b4; stroke-opacity: 0.5"/>
     <use xlink:href="#m4cfebf8e6e" x="242.948856" y="162.714161" style="fill: #1f77b4; fill-opacity: 0.5; stroke: #1f77b4; stroke-opacity: 0.5"/>
     <use xlink:href="#m4cfebf8e6e" x="292.097769" y="110.457913" style="fill: #1f77b4; fill-opacity: 0.5; stroke: #1f77b4; stroke-opacity: 0.5"/>
     <use xlink:href="#m4cfebf8e6e" x="196.9026" y="211.192079" style="fill: #1f77b4; fill-opacity: 0.5; stroke: #1f77b4; stroke-opacity: 0.5"/>
     <use xlink:href="#m4cfebf8e6e" x="287.866873" y="86.995782" style="fill: #1f77b4; fill-opacity: 0.5; stroke: #1f77b4; stroke-opacity: 0.5"/>
     <use xlink:href="#m4cfebf8e6e" x="147.542142" y="259.134071" style="fill: #1f77b4; fill-opacity: 0.5; stroke: #1f77b4; stroke-opacity: 0.5"/>
     <use xlink:href="#m4cfebf8e6e" x="263.891793" y="126.971789" style="fill: #1f77b4; fill-opacity: 0.5; stroke: #1f77b4; stroke-opacity: 0.5"/>
     <use xlink:href="#m4cfebf8e6e" x="323.829492" y="112.977136" style="fill: #1f77b4; fill-opacity: 0.5; stroke: #1f77b4; stroke-opacity: 0.5"/>
     <use xlink:href="#m4cfebf8e6e" x="269.215671" y="133.328519" style="fill: #1f77b4; fill-opacity: 0.5; stroke: #1f77b4; stroke-opacity: 0.5"/>
     <use xlink:href="#m4cfebf8e6e" x="338.813917" y="91.233881" style="fill: #1f77b4; fill-opacity: 0.5; stroke: #1f77b4; stroke-opacity: 0.5"/>
     <use xlink:href="#m4cfebf8e6e" x="143.99524" y="248.51261" style="fill: #1f77b4; fill-opacity: 0.5; stroke: #1f77b4; stroke-opacity: 0.5"/>
     <use xlink:href="#m4cfebf8e6e" x="145.955556" y="222.221885" style="fill: #1f77b4; fill-opacity: 0.5; stroke: #1f77b4; stroke-opacity: 0.5"/>
     <use xlink:href="#m4cfebf8e6e" x="273.763885" y="159.641728" style="fill: #1f77b4; fill-opacity: 0.5; stroke: #1f77b4; stroke-opacity: 0.5"/>
     <use xlink:href="#m4cfebf8e6e" x="140.45539" y="250.309357" style="fill: #1f77b4; fill-opacity: 0.5; stroke: #1f77b4; stroke-opacity: 0.5"/>
     <use xlink:href="#m4cfebf8e6e" x="172.222371" y="244.210949" style="fill: #1f77b4; fill-opacity: 0.5; stroke: #1f77b4; stroke-opacity: 0.5"/>
     <use xlink:href="#m4cfebf8e6e" x="168.661367" y="272.167297" style="fill: #1f77b4; fill-opacity: 0.5; stroke: #1f77b4; stroke-opacity: 0.5"/>
     <use xlink:href="#m4cfebf8e6e" x="337.914852" y="56.237699" style="fill: #1f77b4; fill-opacity: 0.5; stroke: #1f77b4; stroke-opacity: 0.5"/>
     <use xlink:href="#m4cfebf8e6e" x="272.702635" y="107.947456" style="fill: #1f77b4; fill-opacity: 0.5; stroke: #1f77b4; stroke-opacity: 0.5"/>
     <use xlink:href="#m4cfebf8e6e" x="108.758925" y="300.884957" style="fill: #1f77b4; fill-opacity: 0.5; stroke: #1f77b4; stroke-opacity: 0.5"/>
     <use xlink:href="#m4cfebf8e6e" x="137.458505" y="298.176409" style="fill: #1f77b4; fill-opacity: 0.5; stroke: #1f77b4; stroke-opacity: 0.5"/>
     <use xlink:href="#m4cfebf8e6e" x="323.829492" y="93.4506" style="fill: #1f77b4; fill-opacity: 0.5; stroke: #1f77b4; stroke-opacity: 0.5"/>
     <use xlink:href="#m4cfebf8e6e" x="165.170877" y="252.552708" style="fill: #1f77b4; fill-opacity: 0.5; stroke: #1f77b4; stroke-opacity: 0.5"/>
     <use xlink:href="#m4cfebf8e6e" x="200.428347" y="186.034242" style="fill: #1f77b4; fill-opacity: 0.5; stroke: #1f77b4; stroke-opacity: 0.5"/>
     <use xlink:href="#m4cfebf8e6e" x="147.542142" y="257.700124" style="fill: #1f77b4; fill-opacity: 0.5; stroke: #1f77b4; stroke-opacity: 0.5"/>
     <use xlink:href="#m4cfebf8e6e" x="189.851106" y="195.493152" style="fill: #1f77b4; fill-opacity: 0.5; stroke: #1f77b4; stroke-opacity: 0.5"/>
     <use xlink:href="#m4cfebf8e6e" x="166.389728" y="210.433135" style="fill: #1f77b4; fill-opacity: 0.5; stroke: #1f77b4; stroke-opacity: 0.5"/>
     <use xlink:href="#m4cfebf8e6e" x="253.314552" y="154.622789" style="fill: #1f77b4; fill-opacity: 0.5; stroke: #1f77b4; stroke-opacity: 0.5"/>
     <use xlink:href="#m4cfebf8e6e" x="193.376853" y="189.359141" style="fill: #1f77b4; fill-opacity: 0.5; stroke: #1f77b4; stroke-opacity: 0.5"/>
     <use xlink:href="#m4cfebf8e6e" x="312.194527" y="75.741219" style="fill: #1f77b4; fill-opacity: 0.5; stroke: #1f77b4; stroke-opacity: 0.5"/>
     <use xlink:href="#m4cfebf8e6e" x="111.561894" y="303.672547" style="fill: #1f77b4; fill-opacity: 0.5; stroke: #1f77b4; stroke-opacity: 0.5"/>
     <use xlink:href="#m4cfebf8e6e" x="281.520528" y="143.637009" style="fill: #1f77b4; fill-opacity: 0.5; stroke: #1f77b4; stroke-opacity: 0.5"/>
     <use xlink:href="#m4cfebf8e6e" x="253.314552" y="146.007118" style="fill: #1f77b4; fill-opacity: 0.5; stroke: #1f77b4; stroke-opacity: 0.5"/>
     <use xlink:href="#m4cfebf8e6e" x="165.170877" y="247.595477" style="fill: #1f77b4; fill-opacity: 0.5; stroke: #1f77b4; stroke-opacity: 0.5"/>
     <use xlink:href="#m4cfebf8e6e" x="119.336166" y="285.826166" style="fill: #1f77b4; fill-opacity: 0.5; stroke: #1f77b4; stroke-opacity: 0.5"/>
     <use xlink:href="#m4cfebf8e6e" x="62.183807" y="319.356817" style="fill: #1f77b4; fill-opacity: 0.5; stroke: #1f77b4; stroke-opacity: 0.5"/>
     <use xlink:href="#m4cfebf8e6e" x="309.726504" y="85.448449" style="fill: #1f77b4; fill-opacity: 0.5; stroke: #1f77b4; stroke-opacity: 0.5"/>
     <use xlink:href="#m4cfebf8e6e" x="118.278442" y="289.452675" style="fill: #1f77b4; fill-opacity: 0.5; stroke: #1f77b4; stroke-opacity: 0.5"/>
     <use xlink:href="#m4cfebf8e6e" x="111.914468" y="259.416489" style="fill: #1f77b4; fill-opacity: 0.5; stroke: #1f77b4; stroke-opacity: 0.5"/>
     <use xlink:href="#m4cfebf8e6e" x="112.641477" y="294.329273" style="fill: #1f77b4; fill-opacity: 0.5; stroke: #1f77b4; stroke-opacity: 0.5"/>
     <use xlink:href="#m4cfebf8e6e" x="281.520528" y="108.485697" style="fill: #1f77b4; fill-opacity: 0.5; stroke: #1f77b4; stroke-opacity: 0.5"/>
     <use xlink:href="#m4cfebf8e6e" x="145.76164" y="255.326736" style="fill: #1f77b4; fill-opacity: 0.5; stroke: #1f77b4; stroke-opacity: 0.5"/>
     <use xlink:href="#m4cfebf8e6e" x="136.964901" y="302.841673" style="fill: #1f77b4; fill-opacity: 0.5; stroke: #1f77b4; stroke-opacity: 0.5"/>
     <use xlink:href="#m4cfebf8e6e" x="276.161393" y="155.543654" style="fill: #1f77b4; fill-opacity: 0.5; stroke: #1f77b4; stroke-opacity: 0.5"/>
     <use xlink:href="#m4cfebf8e6e" x="126.38766" y="278.92937" style="fill: #1f77b4; fill-opacity: 0.5; stroke: #1f77b4; stroke-opacity: 0.5"/>
     <use xlink:href="#m4cfebf8e6e" x="215.046094" y="174.837621" style="fill: #1f77b4; fill-opacity: 0.5; stroke: #1f77b4; stroke-opacity: 0.5"/>
     <use xlink:href="#m4cfebf8e6e" x="276.231908" y="137.443705" style="fill: #1f77b4; fill-opacity: 0.5; stroke: #1f77b4; stroke-opacity: 0.5"/>
     <use xlink:href="#m4cfebf8e6e" x="267.399912" y="113.504813" style="fill: #1f77b4; fill-opacity: 0.5; stroke: #1f77b4; stroke-opacity: 0.5"/>
     <use xlink:href="#m4cfebf8e6e" x="323.829492" y="82.446992" style="fill: #1f77b4; fill-opacity: 0.5; stroke: #1f77b4; stroke-opacity: 0.5"/>
     <use xlink:href="#m4cfebf8e6e" x="334.406733" y="53.870486" style="fill: #1f77b4; fill-opacity: 0.5; stroke: #1f77b4; stroke-opacity: 0.5"/>
     <use xlink:href="#m4cfebf8e6e" x="359.086963" y="61.714716" style="fill: #1f77b4; fill-opacity: 0.5; stroke: #1f77b4; stroke-opacity: 0.5"/>
     <use xlink:href="#m4cfebf8e6e" x="277.289632" y="152.662943" style="fill: #1f77b4; fill-opacity: 0.5; stroke: #1f77b4; stroke-opacity: 0.5"/>
     <use xlink:href="#m4cfebf8e6e" x="244.425086" y="127.69313" style="fill: #1f77b4; fill-opacity: 0.5; stroke: #1f77b4; stroke-opacity: 0.5"/>
     <use xlink:href="#m4cfebf8e6e" x="325.15059" y="92.623868" style="fill: #1f77b4; fill-opacity: 0.5; stroke: #1f77b4; stroke-opacity: 0.5"/>
     <use xlink:href="#m4cfebf8e6e" x="279.40508" y="138.307069" style="fill: #1f77b4; fill-opacity: 0.5; stroke: #1f77b4; stroke-opacity: 0.5"/>
     <use xlink:href="#m4cfebf8e6e" x="101.707431" y="276.75679" style="fill: #1f77b4; fill-opacity: 0.5; stroke: #1f77b4; stroke-opacity: 0.5"/>
     <use xlink:href="#m4cfebf8e6e" x="366.547443" y="72.44292" style="fill: #1f77b4; fill-opacity: 0.5; stroke: #1f77b4; stroke-opacity: 0.5"/>
     <use xlink:href="#m4cfebf8e6e" x="133.439154" y="280.799151" style="fill: #1f77b4; fill-opacity: 0.5; stroke: #1f77b4; stroke-opacity: 0.5"/>
     <use xlink:href="#m4cfebf8e6e" x="145.074119" y="258.598964" style="fill: #1f77b4; fill-opacity: 0.5; stroke: #1f77b4; stroke-opacity: 0.5"/>
     <use xlink:href="#m4cfebf8e6e" x="274.821609" y="141.637846" style="fill: #1f77b4; fill-opacity: 0.5; stroke: #1f77b4; stroke-opacity: 0.5"/>
     <use xlink:href="#m4cfebf8e6e" x="253.279295" y="140.518743" style="fill: #1f77b4; fill-opacity: 0.5; stroke: #1f77b4; stroke-opacity: 0.5"/>
     <use xlink:href="#m4cfebf8e6e" x="351.156147" y="75.145549" style="fill: #1f77b4; fill-opacity: 0.5; stroke: #1f77b4; stroke-opacity: 0.5"/>
     <use xlink:href="#m4cfebf8e6e" x="189.314487" y="186.08789" style="fill: #1f77b4; fill-opacity: 0.5; stroke: #1f77b4; stroke-opacity: 0.5"/>
     <use xlink:href="#m4cfebf8e6e" x="147.542142" y="281.239745" style="fill: #1f77b4; fill-opacity: 0.5; stroke: #1f77b4; stroke-opacity: 0.5"/>
     <use xlink:href="#m4cfebf8e6e" x="136.964901" y="253.347522" style="fill: #1f77b4; fill-opacity: 0.5; stroke: #1f77b4; stroke-opacity: 0.5"/>
     <use xlink:href="#m4cfebf8e6e" x="168.696624" y="264.998675" style="fill: #1f77b4; fill-opacity: 0.5; stroke: #1f77b4; stroke-opacity: 0.5"/>
     <use xlink:href="#m4cfebf8e6e" x="181.036739" y="206.031094" style="fill: #1f77b4; fill-opacity: 0.5; stroke: #1f77b4; stroke-opacity: 0.5"/>
     <use xlink:href="#m4cfebf8e6e" x="246.263058" y="130.482427" style="fill: #1f77b4; fill-opacity: 0.5; stroke: #1f77b4; stroke-opacity: 0.5"/>
     <use xlink:href="#m4cfebf8e6e" x="165.170877" y="238.268969" style="fill: #1f77b4; fill-opacity: 0.5; stroke: #1f77b4; stroke-opacity: 0.5"/>
     <use xlink:href="#m4cfebf8e6e" x="122.861913" y="251.869057" style="fill: #1f77b4; fill-opacity: 0.5; stroke: #1f77b4; stroke-opacity: 0.5"/>
    </g>
   </g>
   <g id="PolyCollection_1">
    <path d="M 62.183807 323.559177 
L 62.183807 339.838125 
L 65.258187 336.804807 
L 68.332567 333.771489 
L 71.406947 330.780481 
L 74.481327 327.722913 
L 77.555708 324.737198 
L 80.630088 321.697826 
L 83.704468 318.657117 
L 86.778848 315.652378 
L 89.853228 312.664204 
L 92.927608 309.676758 
L 96.001989 306.684675 
L 99.076369 303.63653 
L 102.150749 300.693275 
L 105.225129 297.723622 
L 108.299509 294.736598 
L 111.373889 291.718968 
L 114.44827 288.589827 
L 117.52265 285.460685 
L 120.59703 282.331544 
L 123.67141 279.315237 
L 126.74579 276.317294 
L 129.82017 273.318811 
L 132.894551 270.320009 
L 135.968931 267.338836 
L 139.043311 264.361885 
L 142.117691 261.384934 
L 145.192071 258.408788 
L 148.266451 255.434215 
L 151.340832 252.459641 
L 154.415212 249.484543 
L 157.489592 246.509798 
L 160.563972 243.478988 
L 163.638352 240.525946 
L 166.712732 237.544004 
L 169.787113 234.568699 
L 172.861493 231.632683 
L 175.935873 228.661663 
L 179.010253 225.699045 
L 182.084633 222.72428 
L 185.159013 219.855649 
L 188.233394 216.890544 
L 191.307774 213.904598 
L 194.382154 210.91478 
L 197.456534 207.996727 
L 200.530914 205.091146 
L 203.605294 202.149672 
L 206.679675 199.230097 
L 209.754055 196.319876 
L 212.828435 193.427529 
L 215.902815 190.476278 
L 218.977195 187.578549 
L 222.051575 184.730731 
L 225.125956 181.837259 
L 228.200336 178.968853 
L 231.274716 176.122111 
L 234.349096 173.252586 
L 237.423476 170.479252 
L 240.497856 167.585179 
L 243.572237 164.730262 
L 246.646617 161.88015 
L 249.720997 159.048097 
L 252.795377 156.213126 
L 255.869757 153.431609 
L 258.944137 150.645605 
L 262.018518 147.857138 
L 265.092898 145.06123 
L 268.167278 142.26855 
L 271.241658 139.431267 
L 274.316038 136.566311 
L 277.390418 133.80432 
L 280.464799 130.981985 
L 283.539179 128.147168 
L 286.613559 125.338656 
L 289.687939 122.569598 
L 292.762319 119.784779 
L 295.836699 116.947465 
L 298.91108 114.161643 
L 301.98546 111.517373 
L 305.05984 108.72036 
L 308.13422 105.923347 
L 311.2086 103.127816 
L 314.28298 100.369393 
L 317.357361 97.606934 
L 320.431741 94.762273 
L 323.506121 91.933112 
L 326.580501 89.133952 
L 329.654881 86.33645 
L 332.729261 83.514464 
L 335.803642 80.669764 
L 338.878022 77.825064 
L 341.952402 75.028468 
L 345.026782 72.294651 
L 348.101162 69.549142 
L 351.175542 66.753007 
L 354.249923 63.956873 
L 357.324303 61.210906 
L 360.398683 58.475526 
L 363.473063 55.740062 
L 366.547443 52.930417 
L 366.547443 37.438125 
L 366.547443 37.438125 
L 363.473063 40.45866 
L 360.398683 43.491163 
L 357.324303 46.498533 
L 354.249923 49.53242 
L 351.175542 52.549835 
L 348.101162 55.559074 
L 345.026782 58.590264 
L 341.952402 61.645004 
L 338.878022 64.624648 
L 335.803642 67.638358 
L 332.729261 70.644534 
L 329.654881 73.67876 
L 326.580501 76.658235 
L 323.506121 79.629481 
L 320.431741 82.611394 
L 317.357361 85.592586 
L 314.28298 88.579254 
L 311.2086 91.60169 
L 308.13422 94.57164 
L 305.05984 97.526377 
L 301.98546 100.504486 
L 298.91108 103.4802 
L 295.836699 106.451021 
L 292.762319 109.504586 
L 289.687939 112.516834 
L 286.613559 115.423594 
L 283.539179 118.384911 
L 280.464799 121.369043 
L 277.390418 124.331501 
L 274.316038 127.33755 
L 271.241658 130.32044 
L 268.167278 133.30333 
L 265.092898 136.28622 
L 262.018518 139.269218 
L 258.944137 142.237644 
L 255.869757 145.193191 
L 252.795377 148.09743 
L 249.720997 151.081864 
L 246.646617 153.988101 
L 243.572237 156.944289 
L 240.497856 159.914588 
L 237.423476 162.836434 
L 234.349096 165.779672 
L 231.274716 168.719598 
L 228.200336 171.60491 
L 225.125956 174.458477 
L 222.051575 177.3667 
L 218.977195 180.313594 
L 215.902815 183.235692 
L 212.828435 186.13463 
L 209.754055 189.034676 
L 206.679675 191.911163 
L 203.605294 194.768961 
L 200.530914 197.628373 
L 197.456534 200.538513 
L 194.382154 203.510189 
L 191.307774 206.355623 
L 188.233394 209.225841 
L 185.159013 212.074923 
L 182.084633 214.876225 
L 179.010253 217.675168 
L 175.935873 220.558262 
L 172.861493 223.425163 
L 169.787113 226.177345 
L 166.712732 228.923304 
L 163.638352 231.658505 
L 160.563972 234.451333 
L 157.489592 237.277652 
L 154.415212 240.041353 
L 151.340832 242.805341 
L 148.266451 245.672542 
L 145.192071 248.473975 
L 142.117691 251.243899 
L 139.043311 254.018092 
L 135.968931 256.798539 
L 132.894551 259.532562 
L 129.82017 262.371187 
L 126.74579 265.209813 
L 123.67141 268.007086 
L 120.59703 270.743065 
L 117.52265 273.508315 
L 114.44827 276.355648 
L 111.373889 279.20422 
L 108.299509 281.988474 
L 105.225129 284.735398 
L 102.150749 287.476883 
L 99.076369 290.29489 
L 96.001989 293.062208 
L 92.927608 295.829525 
L 89.853228 298.596843 
L 86.778848 301.325691 
L 83.704468 304.054409 
L 80.630088 306.850589 
L 77.555708 309.665652 
L 74.481327 312.443497 
L 71.406947 315.264897 
L 68.332567 318.032593 
L 65.258187 320.795885 
L 62.183807 323.559177 
z
" clip-path="url(#p535022a065)" style="fill: #d62728; fill-opacity: 0.15"/>
   </g>
   <g id="matplotlib.axis_1">
    <g id="xtick_1">
     <g id="line2d_1">
      <defs>
       <path id="m2014ae12f1" d="M 0 0 
L 0 3.5 
" style="stroke: #000000; stroke-width: 0.8"/>
      </defs>
      <g>
       <use xlink:href="#m2014ae12f1" x="112.284672" y="354.958125" style="stroke: #000000; stroke-width: 0.8"/>
      </g>
     </g>
     <g id="text_1">
      <!-- 500 -->
      <g transform="translate(102.740922 369.556562) scale(0.1 -0.1)">
       <defs>
        <path id="DejaVuSans-35" d="M 691 4666 
L 3169 4666 
L 3169 4134 
L 1269 4134 
L 1269 2991 
Q 1406 3038 1543 3061 
Q 1681 3084 1819 3084 
Q 2600 3084 3056 2656 
Q 3513 2228 3513 1497 
Q 3513 744 3044 326 
Q 2575 -91 1722 -91 
Q 1428 -91 1123 -41 
Q 819 9 494 109 
L 494 744 
Q 775 591 1075 516 
Q 1375 441 1709 441 
Q 2250 441 2565 725 
Q 2881 1009 2881 1497 
Q 2881 1984 2565 2268 
Q 2250 2553 1709 2553 
Q 1456 2553 1204 2497 
Q 953 2441 691 2322 
L 691 4666 
z
" transform="scale(0.015625)"/>
        <path id="DejaVuSans-30" d="M 2034 4250 
Q 1547 4250 1301 3770 
Q 1056 3291 1056 2328 
Q 1056 1369 1301 889 
Q 1547 409 2034 409 
Q 2525 409 2770 889 
Q 3016 1369 3016 2328 
Q 3016 3291 2770 3770 
Q 2525 4250 2034 4250 
z
M 2034 4750 
Q 2819 4750 3233 4129 
Q 3647 3509 3647 2328 
Q 3647 1150 3233 529 
Q 2819 -91 2034 -91 
Q 1250 -91 836 529 
Q 422 1150 422 2328 
Q 422 3509 836 4129 
Q 1250 4750 2034 4750 
z
" transform="scale(0.015625)"/>
       </defs>
       <use xlink:href="#DejaVuSans-35"/>
       <use xlink:href="#DejaVuSans-30" x="63.623047"/>
       <use xlink:href="#DejaVuSans-30" x="127.246094"/>
      </g>
     </g>
    </g>
    <g id="xtick_2">
     <g id="line2d_2">
      <g>
       <use xlink:href="#m2014ae12f1" x="182.799612" y="354.958125" style="stroke: #000000; stroke-width: 0.8"/>
      </g>
     </g>
     <g id="text_2">
      <!-- 600 -->
      <g transform="translate(173.255862 369.556562) scale(0.1 -0.1)">
       <defs>
        <path id="DejaVuSans-36" d="M 2113 2584 
Q 1688 2584 1439 2293 
Q 1191 2003 1191 1497 
Q 1191 994 1439 701 
Q 1688 409 2113 409 
Q 2538 409 2786 701 
Q 3034 994 3034 1497 
Q 3034 2003 2786 2293 
Q 2538 2584 2113 2584 
z
M 3366 4563 
L 3366 3988 
Q 3128 4100 2886 4159 
Q 2644 4219 2406 4219 
Q 1781 4219 1451 3797 
Q 1122 3375 1075 2522 
Q 1259 2794 1537 2939 
Q 1816 3084 2150 3084 
Q 2853 3084 3261 2657 
Q 3669 2231 3669 1497 
Q 3669 778 3244 343 
Q 2819 -91 2113 -91 
Q 1303 -91 875 529 
Q 447 1150 447 2328 
Q 447 3434 972 4092 
Q 1497 4750 2381 4750 
Q 2619 4750 2861 4703 
Q 3103 4656 3366 4563 
z
" transform="scale(0.015625)"/>
       </defs>
       <use xlink:href="#DejaVuSans-36"/>
       <use xlink:href="#DejaVuSans-30" x="63.623047"/>
       <use xlink:href="#DejaVuSans-30" x="127.246094"/>
      </g>
     </g>
    </g>
    <g id="xtick_3">
     <g id="line2d_3">
      <g>
       <use xlink:href="#m2014ae12f1" x="253.314552" y="354.958125" style="stroke: #000000; stroke-width: 0.8"/>
      </g>
     </g>
     <g id="text_3">
      <!-- 700 -->
      <g transform="translate(243.770802 369.556562) scale(0.1 -0.1)">
       <defs>
        <path id="DejaVuSans-37" d="M 525 4666 
L 3525 4666 
L 3525 4397 
L 1831 0 
L 1172 0 
L 2766 4134 
L 525 4134 
L 525 4666 
z
" transform="scale(0.015625)"/>
       </defs>
       <use xlink:href="#DejaVuSans-37"/>
       <use xlink:href="#DejaVuSans-30" x="63.623047"/>
       <use xlink:href="#DejaVuSans-30" x="127.246094"/>
      </g>
     </g>
    </g>
    <g id="xtick_4">
     <g id="line2d_4">
      <g>
       <use xlink:href="#m2014ae12f1" x="323.829492" y="354.958125" style="stroke: #000000; stroke-width: 0.8"/>
      </g>
     </g>
     <g id="text_4">
      <!-- 800 -->
      <g transform="translate(314.285742 369.556562) scale(0.1 -0.1)">
       <defs>
        <path id="DejaVuSans-38" d="M 2034 2216 
Q 1584 2216 1326 1975 
Q 1069 1734 1069 1313 
Q 1069 891 1326 650 
Q 1584 409 2034 409 
Q 2484 409 2743 651 
Q 3003 894 3003 1313 
Q 3003 1734 2745 1975 
Q 2488 2216 2034 2216 
z
M 1403 2484 
Q 997 2584 770 2862 
Q 544 3141 544 3541 
Q 544 4100 942 4425 
Q 1341 4750 2034 4750 
Q 2731 4750 3128 4425 
Q 3525 4100 3525 3541 
Q 3525 3141 3298 2862 
Q 3072 2584 2669 2484 
Q 3125 2378 3379 2068 
Q 3634 1759 3634 1313 
Q 3634 634 3220 271 
Q 2806 -91 2034 -91 
Q 1263 -91 848 271 
Q 434 634 434 1313 
Q 434 1759 690 2068 
Q 947 2378 1403 2484 
z
M 1172 3481 
Q 1172 3119 1398 2916 
Q 1625 2713 2034 2713 
Q 2441 2713 2670 2916 
Q 2900 3119 2900 3481 
Q 2900 3844 2670 4047 
Q 2441 4250 2034 4250 
Q 1625 4250 1398 4047 
Q 1172 3844 1172 3481 
z
" transform="scale(0.015625)"/>
       </defs>
       <use xlink:href="#DejaVuSans-38"/>
       <use xlink:href="#DejaVuSans-30" x="63.623047"/>
       <use xlink:href="#DejaVuSans-30" x="127.246094"/>
      </g>
     </g>
    </g>
    <g id="text_5">
     <!-- Actual Data ($, thousands) -->
     <g transform="translate(147.350781 383.234687) scale(0.1 -0.1)">
      <defs>
       <path id="DejaVuSans-41" d="M 2188 4044 
L 1331 1722 
L 3047 1722 
L 2188 4044 
z
M 1831 4666 
L 2547 4666 
L 4325 0 
L 3669 0 
L 3244 1197 
L 1141 1197 
L 716 0 
L 50 0 
L 1831 4666 
z
" transform="scale(0.015625)"/>
       <path id="DejaVuSans-63" d="M 3122 3366 
L 3122 2828 
Q 2878 2963 2633 3030 
Q 2388 3097 2138 3097 
Q 1578 3097 1268 2742 
Q 959 2388 959 1747 
Q 959 1106 1268 751 
Q 1578 397 2138 397 
Q 2388 397 2633 464 
Q 2878 531 3122 666 
L 3122 134 
Q 2881 22 2623 -34 
Q 2366 -91 2075 -91 
Q 1284 -91 818 406 
Q 353 903 353 1747 
Q 353 2603 823 3093 
Q 1294 3584 2113 3584 
Q 2378 3584 2631 3529 
Q 2884 3475 3122 3366 
z
" transform="scale(0.015625)"/>
       <path id="DejaVuSans-74" d="M 1172 4494 
L 1172 3500 
L 2356 3500 
L 2356 3053 
L 1172 3053 
L 1172 1153 
Q 1172 725 1289 603 
Q 1406 481 1766 481 
L 2356 481 
L 2356 0 
L 1766 0 
Q 1100 0 847 248 
Q 594 497 594 1153 
L 594 3053 
L 172 3053 
L 172 3500 
L 594 3500 
L 594 4494 
L 1172 4494 
z
" transform="scale(0.015625)"/>
       <path id="DejaVuSans-75" d="M 544 1381 
L 544 3500 
L 1119 3500 
L 1119 1403 
Q 1119 906 1312 657 
Q 1506 409 1894 409 
Q 2359 409 2629 706 
Q 2900 1003 2900 1516 
L 2900 3500 
L 3475 3500 
L 3475 0 
L 2900 0 
L 2900 538 
Q 2691 219 2414 64 
Q 2138 -91 1772 -91 
Q 1169 -91 856 284 
Q 544 659 544 1381 
z
M 1991 3584 
L 1991 3584 
z
" transform="scale(0.015625)"/>
       <path id="DejaVuSans-61" d="M 2194 1759 
Q 1497 1759 1228 1600 
Q 959 1441 959 1056 
Q 959 750 1161 570 
Q 1363 391 1709 391 
Q 2188 391 2477 730 
Q 2766 1069 2766 1631 
L 2766 1759 
L 2194 1759 
z
M 3341 1997 
L 3341 0 
L 2766 0 
L 2766 531 
Q 2569 213 2275 61 
Q 1981 -91 1556 -91 
Q 1019 -91 701 211 
Q 384 513 384 1019 
Q 384 1609 779 1909 
Q 1175 2209 1959 2209 
L 2766 2209 
L 2766 2266 
Q 2766 2663 2505 2880 
Q 2244 3097 1772 3097 
Q 1472 3097 1187 3025 
Q 903 2953 641 2809 
L 641 3341 
Q 956 3463 1253 3523 
Q 1550 3584 1831 3584 
Q 2591 3584 2966 3190 
Q 3341 2797 3341 1997 
z
" transform="scale(0.015625)"/>
       <path id="DejaVuSans-6c" d="M 603 4863 
L 1178 4863 
L 1178 0 
L 603 0 
L 603 4863 
z
" transform="scale(0.015625)"/>
       <path id="DejaVuSans-20" transform="scale(0.015625)"/>
       <path id="DejaVuSans-44" d="M 1259 4147 
L 1259 519 
L 2022 519 
Q 2988 519 3436 956 
Q 3884 1394 3884 2338 
Q 3884 3275 3436 3711 
Q 2988 4147 2022 4147 
L 1259 4147 
z
M 628 4666 
L 1925 4666 
Q 3281 4666 3915 4102 
Q 4550 3538 4550 2338 
Q 4550 1131 3912 565 
Q 3275 0 1925 0 
L 628 0 
L 628 4666 
z
" transform="scale(0.015625)"/>
       <path id="DejaVuSans-28" d="M 1984 4856 
Q 1566 4138 1362 3434 
Q 1159 2731 1159 2009 
Q 1159 1288 1364 580 
Q 1569 -128 1984 -844 
L 1484 -844 
Q 1016 -109 783 600 
Q 550 1309 550 2009 
Q 550 2706 781 3412 
Q 1013 4119 1484 4856 
L 1984 4856 
z
" transform="scale(0.015625)"/>
       <path id="DejaVuSans-24" d="M 2163 -941 
L 1850 -941 
L 1847 0 
Q 1519 6 1191 76 
Q 863 147 531 288 
L 531 850 
Q 850 650 1176 548 
Q 1503 447 1850 444 
L 1850 1869 
Q 1159 1981 845 2250 
Q 531 2519 531 2988 
Q 531 3497 872 3790 
Q 1213 4084 1850 4128 
L 1850 4863 
L 2163 4863 
L 2163 4138 
Q 2453 4125 2725 4076 
Q 2997 4028 3256 3944 
L 3256 3397 
Q 2997 3528 2723 3600 
Q 2450 3672 2163 3684 
L 2163 2350 
Q 2872 2241 3206 1959 
Q 3541 1678 3541 1191 
Q 3541 663 3186 358 
Q 2831 53 2163 6 
L 2163 -941 
z
M 1850 2406 
L 1850 3688 
Q 1488 3647 1297 3481 
Q 1106 3316 1106 3041 
Q 1106 2772 1282 2622 
Q 1459 2472 1850 2406 
z
M 2163 1806 
L 2163 453 
Q 2559 506 2761 678 
Q 2963 850 2963 1131 
Q 2963 1406 2770 1568 
Q 2578 1731 2163 1806 
z
" transform="scale(0.015625)"/>
       <path id="DejaVuSans-2c" d="M 750 794 
L 1409 794 
L 1409 256 
L 897 -744 
L 494 -744 
L 750 256 
L 750 794 
z
" transform="scale(0.015625)"/>
       <path id="DejaVuSans-68" d="M 3513 2113 
L 3513 0 
L 2938 0 
L 2938 2094 
Q 2938 2591 2744 2837 
Q 2550 3084 2163 3084 
Q 1697 3084 1428 2787 
Q 1159 2491 1159 1978 
L 1159 0 
L 581 0 
L 581 4863 
L 1159 4863 
L 1159 2956 
Q 1366 3272 1645 3428 
Q 1925 3584 2291 3584 
Q 2894 3584 3203 3211 
Q 3513 2838 3513 2113 
z
" transform="scale(0.015625)"/>
       <path id="DejaVuSans-6f" d="M 1959 3097 
Q 1497 3097 1228 2736 
Q 959 2375 959 1747 
Q 959 1119 1226 758 
Q 1494 397 1959 397 
Q 2419 397 2687 759 
Q 2956 1122 2956 1747 
Q 2956 2369 2687 2733 
Q 2419 3097 1959 3097 
z
M 1959 3584 
Q 2709 3584 3137 3096 
Q 3566 2609 3566 1747 
Q 3566 888 3137 398 
Q 2709 -91 1959 -91 
Q 1206 -91 779 398 
Q 353 888 353 1747 
Q 353 2609 779 3096 
Q 1206 3584 1959 3584 
z
" transform="scale(0.015625)"/>
       <path id="DejaVuSans-73" d="M 2834 3397 
L 2834 2853 
Q 2591 2978 2328 3040 
Q 2066 3103 1784 3103 
Q 1356 3103 1142 2972 
Q 928 2841 928 2578 
Q 928 2378 1081 2264 
Q 1234 2150 1697 2047 
L 1894 2003 
Q 2506 1872 2764 1633 
Q 3022 1394 3022 966 
Q 3022 478 2636 193 
Q 2250 -91 1575 -91 
Q 1294 -91 989 -36 
Q 684 19 347 128 
L 347 722 
Q 666 556 975 473 
Q 1284 391 1588 391 
Q 1994 391 2212 530 
Q 2431 669 2431 922 
Q 2431 1156 2273 1281 
Q 2116 1406 1581 1522 
L 1381 1569 
Q 847 1681 609 1914 
Q 372 2147 372 2553 
Q 372 3047 722 3315 
Q 1072 3584 1716 3584 
Q 2034 3584 2315 3537 
Q 2597 3491 2834 3397 
z
" transform="scale(0.015625)"/>
       <path id="DejaVuSans-6e" d="M 3513 2113 
L 3513 0 
L 2938 0 
L 2938 2094 
Q 2938 2591 2744 2837 
Q 2550 3084 2163 3084 
Q 1697 3084 1428 2787 
Q 1159 2491 1159 1978 
L 1159 0 
L 581 0 
L 581 3500 
L 1159 3500 
L 1159 2956 
Q 1366 3272 1645 3428 
Q 1925 3584 2291 3584 
Q 2894 3584 3203 3211 
Q 3513 2838 3513 2113 
z
" transform="scale(0.015625)"/>
       <path id="DejaVuSans-64" d="M 2906 2969 
L 2906 4863 
L 3481 4863 
L 3481 0 
L 2906 0 
L 2906 525 
Q 2725 213 2448 61 
Q 2172 -91 1784 -91 
Q 1150 -91 751 415 
Q 353 922 353 1747 
Q 353 2572 751 3078 
Q 1150 3584 1784 3584 
Q 2172 3584 2448 3432 
Q 2725 3281 2906 2969 
z
M 947 1747 
Q 947 1113 1208 752 
Q 1469 391 1925 391 
Q 2381 391 2643 752 
Q 2906 1113 2906 1747 
Q 2906 2381 2643 2742 
Q 2381 3103 1925 3103 
Q 1469 3103 1208 2742 
Q 947 2381 947 1747 
z
" transform="scale(0.015625)"/>
       <path id="DejaVuSans-29" d="M 513 4856 
L 1013 4856 
Q 1481 4119 1714 3412 
Q 1947 2706 1947 2009 
Q 1947 1309 1714 600 
Q 1481 -109 1013 -844 
L 513 -844 
Q 928 -128 1133 580 
Q 1338 1288 1338 2009 
Q 1338 2731 1133 3434 
Q 928 4138 513 4856 
z
" transform="scale(0.015625)"/>
      </defs>
      <use xlink:href="#DejaVuSans-41"/>
      <use xlink:href="#DejaVuSans-63" x="66.658203"/>
      <use xlink:href="#DejaVuSans-74" x="121.638672"/>
      <use xlink:href="#DejaVuSans-75" x="160.847656"/>
      <use xlink:href="#DejaVuSans-61" x="224.226562"/>
      <use xlink:href="#DejaVuSans-6c" x="285.505859"/>
      <use xlink:href="#DejaVuSans-20" x="313.289062"/>
      <use xlink:href="#DejaVuSans-44" x="345.076172"/>
      <use xlink:href="#DejaVuSans-61" x="422.078125"/>
      <use xlink:href="#DejaVuSans-74" x="483.357422"/>
      <use xlink:href="#DejaVuSans-61" x="522.566406"/>
      <use xlink:href="#DejaVuSans-20" x="583.845703"/>
      <use xlink:href="#DejaVuSans-28" x="615.632812"/>
      <use xlink:href="#DejaVuSans-24" x="654.646484"/>
      <use xlink:href="#DejaVuSans-2c" x="718.269531"/>
      <use xlink:href="#DejaVuSans-20" x="750.056641"/>
      <use xlink:href="#DejaVuSans-74" x="781.84375"/>
      <use xlink:href="#DejaVuSans-68" x="821.052734"/>
      <use xlink:href="#DejaVuSans-6f" x="884.431641"/>
      <use xlink:href="#DejaVuSans-75" x="945.613281"/>
      <use xlink:href="#DejaVuSans-73" x="1008.992188"/>
      <use xlink:href="#DejaVuSans-61" x="1061.091797"/>
      <use xlink:href="#DejaVuSans-6e" x="1122.371094"/>
      <use xlink:href="#DejaVuSans-64" x="1185.75"/>
      <use xlink:href="#DejaVuSans-73" x="1249.226562"/>
      <use xlink:href="#DejaVuSans-29" x="1301.326172"/>
     </g>
    </g>
   </g>
   <g id="matplotlib.axis_2">
    <g id="ytick_1">
     <g id="line2d_5">
      <defs>
       <path id="mc629f78e2d" d="M 0 0 
L -3.5 0 
" style="stroke: #000000; stroke-width: 0.8"/>
      </defs>
      <g>
       <use xlink:href="#mc629f78e2d" x="46.965625" y="289.048082" style="stroke: #000000; stroke-width: 0.8"/>
      </g>
     </g>
     <g id="text_6">
      <!-- 500 -->
      <g transform="translate(20.878125 292.847301) scale(0.1 -0.1)">
       <use xlink:href="#DejaVuSans-35"/>
       <use xlink:href="#DejaVuSans-30" x="63.623047"/>
       <use xlink:href="#DejaVuSans-30" x="127.246094"/>
      </g>
     </g>
    </g>
    <g id="ytick_2">
     <g id="line2d_6">
      <g>
       <use xlink:href="#mc629f78e2d" x="46.965625" y="220.030172" style="stroke: #000000; stroke-width: 0.8"/>
      </g>
     </g>
     <g id="text_7">
      <!-- 600 -->
      <g transform="translate(20.878125 223.829391) scale(0.1 -0.1)">
       <use xlink:href="#DejaVuSans-36"/>
       <use xlink:href="#DejaVuSans-30" x="63.623047"/>
       <use xlink:href="#DejaVuSans-30" x="127.246094"/>
      </g>
     </g>
    </g>
    <g id="ytick_3">
     <g id="line2d_7">
      <g>
       <use xlink:href="#mc629f78e2d" x="46.965625" y="151.012261" style="stroke: #000000; stroke-width: 0.8"/>
      </g>
     </g>
     <g id="text_8">
      <!-- 700 -->
      <g transform="translate(20.878125 154.81148) scale(0.1 -0.1)">
       <use xlink:href="#DejaVuSans-37"/>
       <use xlink:href="#DejaVuSans-30" x="63.623047"/>
       <use xlink:href="#DejaVuSans-30" x="127.246094"/>
      </g>
     </g>
    </g>
    <g id="ytick_4">
     <g id="line2d_8">
      <g>
       <use xlink:href="#mc629f78e2d" x="46.965625" y="81.994351" style="stroke: #000000; stroke-width: 0.8"/>
      </g>
     </g>
     <g id="text_9">
      <!-- 800 -->
      <g transform="translate(20.878125 85.793569) scale(0.1 -0.1)">
       <use xlink:href="#DejaVuSans-38"/>
       <use xlink:href="#DejaVuSans-30" x="63.623047"/>
       <use xlink:href="#DejaVuSans-30" x="127.246094"/>
      </g>
     </g>
    </g>
    <g id="text_10">
     <!-- Predicted Data ($, thousands) -->
     <g transform="translate(14.798438 263.459219) rotate(-90) scale(0.1 -0.1)">
      <defs>
       <path id="DejaVuSans-50" d="M 1259 4147 
L 1259 2394 
L 2053 2394 
Q 2494 2394 2734 2622 
Q 2975 2850 2975 3272 
Q 2975 3691 2734 3919 
Q 2494 4147 2053 4147 
L 1259 4147 
z
M 628 4666 
L 2053 4666 
Q 2838 4666 3239 4311 
Q 3641 3956 3641 3272 
Q 3641 2581 3239 2228 
Q 2838 1875 2053 1875 
L 1259 1875 
L 1259 0 
L 628 0 
L 628 4666 
z
" transform="scale(0.015625)"/>
       <path id="DejaVuSans-72" d="M 2631 2963 
Q 2534 3019 2420 3045 
Q 2306 3072 2169 3072 
Q 1681 3072 1420 2755 
Q 1159 2438 1159 1844 
L 1159 0 
L 581 0 
L 581 3500 
L 1159 3500 
L 1159 2956 
Q 1341 3275 1631 3429 
Q 1922 3584 2338 3584 
Q 2397 3584 2469 3576 
Q 2541 3569 2628 3553 
L 2631 2963 
z
" transform="scale(0.015625)"/>
       <path id="DejaVuSans-65" d="M 3597 1894 
L 3597 1613 
L 953 1613 
Q 991 1019 1311 708 
Q 1631 397 2203 397 
Q 2534 397 2845 478 
Q 3156 559 3463 722 
L 3463 178 
Q 3153 47 2828 -22 
Q 2503 -91 2169 -91 
Q 1331 -91 842 396 
Q 353 884 353 1716 
Q 353 2575 817 3079 
Q 1281 3584 2069 3584 
Q 2775 3584 3186 3129 
Q 3597 2675 3597 1894 
z
M 3022 2063 
Q 3016 2534 2758 2815 
Q 2500 3097 2075 3097 
Q 1594 3097 1305 2825 
Q 1016 2553 972 2059 
L 3022 2063 
z
" transform="scale(0.015625)"/>
       <path id="DejaVuSans-69" d="M 603 3500 
L 1178 3500 
L 1178 0 
L 603 0 
L 603 3500 
z
M 603 4863 
L 1178 4863 
L 1178 4134 
L 603 4134 
L 603 4863 
z
" transform="scale(0.015625)"/>
      </defs>
      <use xlink:href="#DejaVuSans-50"/>
      <use xlink:href="#DejaVuSans-72" x="58.552734"/>
      <use xlink:href="#DejaVuSans-65" x="97.416016"/>
      <use xlink:href="#DejaVuSans-64" x="158.939453"/>
      <use xlink:href="#DejaVuSans-69" x="222.416016"/>
      <use xlink:href="#DejaVuSans-63" x="250.199219"/>
      <use xlink:href="#DejaVuSans-74" x="305.179688"/>
      <use xlink:href="#DejaVuSans-65" x="344.388672"/>
      <use xlink:href="#DejaVuSans-64" x="405.912109"/>
      <use xlink:href="#DejaVuSans-20" x="469.388672"/>
      <use xlink:href="#DejaVuSans-44" x="501.175781"/>
      <use xlink:href="#DejaVuSans-61" x="578.177734"/>
      <use xlink:href="#DejaVuSans-74" x="639.457031"/>
      <use xlink:href="#DejaVuSans-61" x="678.666016"/>
      <use xlink:href="#DejaVuSans-20" x="739.945312"/>
      <use xlink:href="#DejaVuSans-28" x="771.732422"/>
      <use xlink:href="#DejaVuSans-24" x="810.746094"/>
      <use xlink:href="#DejaVuSans-2c" x="874.369141"/>
      <use xlink:href="#DejaVuSans-20" x="906.15625"/>
      <use xlink:href="#DejaVuSans-74" x="937.943359"/>
      <use xlink:href="#DejaVuSans-68" x="977.152344"/>
      <use xlink:href="#DejaVuSans-6f" x="1040.53125"/>
      <use xlink:href="#DejaVuSans-75" x="1101.712891"/>
      <use xlink:href="#DejaVuSans-73" x="1165.091797"/>
      <use xlink:href="#DejaVuSans-61" x="1217.191406"/>
      <use xlink:href="#DejaVuSans-6e" x="1278.470703"/>
      <use xlink:href="#DejaVuSans-64" x="1341.849609"/>
      <use xlink:href="#DejaVuSans-73" x="1405.326172"/>
      <use xlink:href="#DejaVuSans-29" x="1457.425781"/>
     </g>
    </g>
   </g>
   <g id="line2d_9">
    <path d="M 62.183807 331.204233 
L 65.258187 328.318782 
L 68.332567 325.43333 
L 71.406947 322.547878 
L 74.481327 319.662427 
L 77.555708 316.776975 
L 80.630088 313.891524 
L 83.704468 311.006072 
L 86.778848 308.120621 
L 89.853228 305.235169 
L 92.927608 302.349718 
L 96.001989 299.464266 
L 99.076369 296.578815 
L 102.150749 293.693363 
L 105.225129 290.807911 
L 108.299509 287.92246 
L 111.373889 285.037008 
L 114.44827 282.151557 
L 117.52265 279.266105 
L 120.59703 276.380654 
L 123.67141 273.495202 
L 126.74579 270.609751 
L 129.82017 267.724299 
L 132.894551 264.838848 
L 135.968931 261.953396 
L 139.043311 259.067945 
L 142.117691 256.182493 
L 145.192071 253.297041 
L 148.266451 250.41159 
L 151.340832 247.526138 
L 154.415212 244.640687 
L 157.489592 241.755235 
L 160.563972 238.869784 
L 163.638352 235.984332 
L 166.712732 233.098881 
L 169.787113 230.213429 
L 172.861493 227.327978 
L 175.935873 224.442526 
L 179.010253 221.557075 
L 182.084633 218.671623 
L 185.159013 215.786171 
L 188.233394 212.90072 
L 191.307774 210.015268 
L 194.382154 207.129817 
L 197.456534 204.244365 
L 200.530914 201.358914 
L 203.605294 198.473462 
L 206.679675 195.588011 
L 209.754055 192.702559 
L 212.828435 189.817108 
L 215.902815 186.931656 
L 218.977195 184.046204 
L 222.051575 181.160753 
L 225.125956 178.275301 
L 228.200336 175.38985 
L 231.274716 172.504398 
L 234.349096 169.618947 
L 237.423476 166.733495 
L 240.497856 163.848044 
L 243.572237 160.962592 
L 246.646617 158.077141 
L 249.720997 155.191689 
L 252.795377 152.306238 
L 255.869757 149.420786 
L 258.944137 146.535334 
L 262.018518 143.649883 
L 265.092898 140.764431 
L 268.167278 137.87898 
L 271.241658 134.993528 
L 274.316038 132.108077 
L 277.390418 129.222625 
L 280.464799 126.337174 
L 283.539179 123.451722 
L 286.613559 120.566271 
L 289.687939 117.680819 
L 292.762319 114.795368 
L 295.836699 111.909916 
L 298.91108 109.024464 
L 301.98546 106.139013 
L 305.05984 103.253561 
L 308.13422 100.36811 
L 311.2086 97.482658 
L 314.28298 94.597207 
L 317.357361 91.711755 
L 320.431741 88.826304 
L 323.506121 85.940852 
L 326.580501 83.055401 
L 329.654881 80.169949 
L 332.729261 77.284497 
L 335.803642 74.399046 
L 338.878022 71.513594 
L 341.952402 68.628143 
L 345.026782 65.742691 
L 348.101162 62.85724 
L 351.175542 59.971788 
L 354.249923 57.086337 
L 357.324303 54.200885 
L 360.398683 51.315434 
L 363.473063 48.429982 
L 366.547443 45.544531 
" clip-path="url(#p535022a065)" style="fill: none; stroke: #d62728; stroke-width: 2.25; stroke-linecap: square"/>
   </g>
   <g id="patch_3">
    <path d="M 46.965625 354.958125 
L 46.965625 22.318125 
" style="fill: none; stroke: #000000; stroke-width: 0.8; stroke-linejoin: miter; stroke-linecap: square"/>
   </g>
   <g id="patch_4">
    <path d="M 381.765625 354.958125 
L 381.765625 22.318125 
" style="fill: none; stroke: #000000; stroke-width: 0.8; stroke-linejoin: miter; stroke-linecap: square"/>
   </g>
   <g id="patch_5">
    <path d="M 46.965625 354.958125 
L 381.765625 354.958125 
" style="fill: none; stroke: #000000; stroke-width: 0.8; stroke-linejoin: miter; stroke-linecap: square"/>
   </g>
   <g id="patch_6">
    <path d="M 46.965625 22.318125 
L 381.765625 22.318125 
" style="fill: none; stroke: #000000; stroke-width: 0.8; stroke-linejoin: miter; stroke-linecap: square"/>
   </g>
   <g id="text_11">
    <!-- Lasso Regression: Predicted vs. Actual Median Sale Price -->
    <g transform="translate(44.3875 16.318125) scale(0.12 -0.12)">
     <defs>
      <path id="DejaVuSans-4c" d="M 628 4666 
L 1259 4666 
L 1259 531 
L 3531 531 
L 3531 0 
L 628 0 
L 628 4666 
z
" transform="scale(0.015625)"/>
      <path id="DejaVuSans-52" d="M 2841 2188 
Q 3044 2119 3236 1894 
Q 3428 1669 3622 1275 
L 4263 0 
L 3584 0 
L 2988 1197 
Q 2756 1666 2539 1819 
Q 2322 1972 1947 1972 
L 1259 1972 
L 1259 0 
L 628 0 
L 628 4666 
L 2053 4666 
Q 2853 4666 3247 4331 
Q 3641 3997 3641 3322 
Q 3641 2881 3436 2590 
Q 3231 2300 2841 2188 
z
M 1259 4147 
L 1259 2491 
L 2053 2491 
Q 2509 2491 2742 2702 
Q 2975 2913 2975 3322 
Q 2975 3731 2742 3939 
Q 2509 4147 2053 4147 
L 1259 4147 
z
" transform="scale(0.015625)"/>
      <path id="DejaVuSans-67" d="M 2906 1791 
Q 2906 2416 2648 2759 
Q 2391 3103 1925 3103 
Q 1463 3103 1205 2759 
Q 947 2416 947 1791 
Q 947 1169 1205 825 
Q 1463 481 1925 481 
Q 2391 481 2648 825 
Q 2906 1169 2906 1791 
z
M 3481 434 
Q 3481 -459 3084 -895 
Q 2688 -1331 1869 -1331 
Q 1566 -1331 1297 -1286 
Q 1028 -1241 775 -1147 
L 775 -588 
Q 1028 -725 1275 -790 
Q 1522 -856 1778 -856 
Q 2344 -856 2625 -561 
Q 2906 -266 2906 331 
L 2906 616 
Q 2728 306 2450 153 
Q 2172 0 1784 0 
Q 1141 0 747 490 
Q 353 981 353 1791 
Q 353 2603 747 3093 
Q 1141 3584 1784 3584 
Q 2172 3584 2450 3431 
Q 2728 3278 2906 2969 
L 2906 3500 
L 3481 3500 
L 3481 434 
z
" transform="scale(0.015625)"/>
      <path id="DejaVuSans-3a" d="M 750 794 
L 1409 794 
L 1409 0 
L 750 0 
L 750 794 
z
M 750 3309 
L 1409 3309 
L 1409 2516 
L 750 2516 
L 750 3309 
z
" transform="scale(0.015625)"/>
      <path id="DejaVuSans-76" d="M 191 3500 
L 800 3500 
L 1894 563 
L 2988 3500 
L 3597 3500 
L 2284 0 
L 1503 0 
L 191 3500 
z
" transform="scale(0.015625)"/>
      <path id="DejaVuSans-2e" d="M 684 794 
L 1344 794 
L 1344 0 
L 684 0 
L 684 794 
z
" transform="scale(0.015625)"/>
      <path id="DejaVuSans-4d" d="M 628 4666 
L 1569 4666 
L 2759 1491 
L 3956 4666 
L 4897 4666 
L 4897 0 
L 4281 0 
L 4281 4097 
L 3078 897 
L 2444 897 
L 1241 4097 
L 1241 0 
L 628 0 
L 628 4666 
z
" transform="scale(0.015625)"/>
      <path id="DejaVuSans-53" d="M 3425 4513 
L 3425 3897 
Q 3066 4069 2747 4153 
Q 2428 4238 2131 4238 
Q 1616 4238 1336 4038 
Q 1056 3838 1056 3469 
Q 1056 3159 1242 3001 
Q 1428 2844 1947 2747 
L 2328 2669 
Q 3034 2534 3370 2195 
Q 3706 1856 3706 1288 
Q 3706 609 3251 259 
Q 2797 -91 1919 -91 
Q 1588 -91 1214 -16 
Q 841 59 441 206 
L 441 856 
Q 825 641 1194 531 
Q 1563 422 1919 422 
Q 2459 422 2753 634 
Q 3047 847 3047 1241 
Q 3047 1584 2836 1778 
Q 2625 1972 2144 2069 
L 1759 2144 
Q 1053 2284 737 2584 
Q 422 2884 422 3419 
Q 422 4038 858 4394 
Q 1294 4750 2059 4750 
Q 2388 4750 2728 4690 
Q 3069 4631 3425 4513 
z
" transform="scale(0.015625)"/>
     </defs>
     <use xlink:href="#DejaVuSans-4c"/>
     <use xlink:href="#DejaVuSans-61" x="55.712891"/>
     <use xlink:href="#DejaVuSans-73" x="116.992188"/>
     <use xlink:href="#DejaVuSans-73" x="169.091797"/>
     <use xlink:href="#DejaVuSans-6f" x="221.191406"/>
     <use xlink:href="#DejaVuSans-20" x="282.373047"/>
     <use xlink:href="#DejaVuSans-52" x="314.160156"/>
     <use xlink:href="#DejaVuSans-65" x="379.142578"/>
     <use xlink:href="#DejaVuSans-67" x="440.666016"/>
     <use xlink:href="#DejaVuSans-72" x="504.142578"/>
     <use xlink:href="#DejaVuSans-65" x="543.005859"/>
     <use xlink:href="#DejaVuSans-73" x="604.529297"/>
     <use xlink:href="#DejaVuSans-73" x="656.628906"/>
     <use xlink:href="#DejaVuSans-69" x="708.728516"/>
     <use xlink:href="#DejaVuSans-6f" x="736.511719"/>
     <use xlink:href="#DejaVuSans-6e" x="797.693359"/>
     <use xlink:href="#DejaVuSans-3a" x="861.072266"/>
     <use xlink:href="#DejaVuSans-20" x="894.763672"/>
     <use xlink:href="#DejaVuSans-50" x="926.550781"/>
     <use xlink:href="#DejaVuSans-72" x="985.103516"/>
     <use xlink:href="#DejaVuSans-65" x="1023.966797"/>
     <use xlink:href="#DejaVuSans-64" x="1085.490234"/>
     <use xlink:href="#DejaVuSans-69" x="1148.966797"/>
     <use xlink:href="#DejaVuSans-63" x="1176.75"/>
     <use xlink:href="#DejaVuSans-74" x="1231.730469"/>
     <use xlink:href="#DejaVuSans-65" x="1270.939453"/>
     <use xlink:href="#DejaVuSans-64" x="1332.462891"/>
     <use xlink:href="#DejaVuSans-20" x="1395.939453"/>
     <use xlink:href="#DejaVuSans-76" x="1427.726562"/>
     <use xlink:href="#DejaVuSans-73" x="1486.90625"/>
     <use xlink:href="#DejaVuSans-2e" x="1539.005859"/>
     <use xlink:href="#DejaVuSans-20" x="1570.792969"/>
     <use xlink:href="#DejaVuSans-41" x="1602.580078"/>
     <use xlink:href="#DejaVuSans-63" x="1669.238281"/>
     <use xlink:href="#DejaVuSans-74" x="1724.21875"/>
     <use xlink:href="#DejaVuSans-75" x="1763.427734"/>
     <use xlink:href="#DejaVuSans-61" x="1826.806641"/>
     <use xlink:href="#DejaVuSans-6c" x="1888.085938"/>
     <use xlink:href="#DejaVuSans-20" x="1915.869141"/>
     <use xlink:href="#DejaVuSans-4d" x="1947.65625"/>
     <use xlink:href="#DejaVuSans-65" x="2033.935547"/>
     <use xlink:href="#DejaVuSans-64" x="2095.458984"/>
     <use xlink:href="#DejaVuSans-69" x="2158.935547"/>
     <use xlink:href="#DejaVuSans-61" x="2186.71875"/>
     <use xlink:href="#DejaVuSans-6e" x="2247.998047"/>
     <use xlink:href="#DejaVuSans-20" x="2311.376953"/>
     <use xlink:href="#DejaVuSans-53" x="2343.164062"/>
     <use xlink:href="#DejaVuSans-61" x="2406.640625"/>
     <use xlink:href="#DejaVuSans-6c" x="2467.919922"/>
     <use xlink:href="#DejaVuSans-65" x="2495.703125"/>
     <use xlink:href="#DejaVuSans-20" x="2557.226562"/>
     <use xlink:href="#DejaVuSans-50" x="2589.013672"/>
     <use xlink:href="#DejaVuSans-72" x="2647.566406"/>
     <use xlink:href="#DejaVuSans-69" x="2688.679688"/>
     <use xlink:href="#DejaVuSans-63" x="2716.462891"/>
     <use xlink:href="#DejaVuSans-65" x="2771.443359"/>
    </g>
   </g>
   <g id="legend_1">
    <g id="patch_7">
     <path d="M 296.020312 44.99625 
L 374.765625 44.99625 
Q 376.765625 44.99625 376.765625 42.99625 
L 376.765625 29.318125 
Q 376.765625 27.318125 374.765625 27.318125 
L 296.020312 27.318125 
Q 294.020312 27.318125 294.020312 29.318125 
L 294.020312 42.99625 
Q 294.020312 44.99625 296.020312 44.99625 
z
" style="fill: #ffffff; opacity: 0.8; stroke: #cccccc; stroke-linejoin: miter"/>
    </g>
    <g id="PathCollection_2">
     <g>
      <use xlink:href="#m4cfebf8e6e" x="308.020312" y="36.291563" style="fill: #1f77b4; fill-opacity: 0.5; stroke: #1f77b4; stroke-opacity: 0.5"/>
     </g>
    </g>
    <g id="text_12">
     <!-- Test Data -->
     <g transform="translate(326.020312 38.916563) scale(0.1 -0.1)">
      <defs>
       <path id="DejaVuSans-54" d="M -19 4666 
L 3928 4666 
L 3928 4134 
L 2272 4134 
L 2272 0 
L 1638 0 
L 1638 4134 
L -19 4134 
L -19 4666 
z
" transform="scale(0.015625)"/>
      </defs>
      <use xlink:href="#DejaVuSans-54"/>
      <use xlink:href="#DejaVuSans-65" x="44.083984"/>
      <use xlink:href="#DejaVuSans-73" x="105.607422"/>
      <use xlink:href="#DejaVuSans-74" x="157.707031"/>
      <use xlink:href="#DejaVuSans-20" x="196.916016"/>
      <use xlink:href="#DejaVuSans-44" x="228.703125"/>
      <use xlink:href="#DejaVuSans-61" x="305.705078"/>
      <use xlink:href="#DejaVuSans-74" x="366.984375"/>
      <use xlink:href="#DejaVuSans-61" x="406.193359"/>
     </g>
    </g>
   </g>
  </g>
 </g>
 <defs>
  <clipPath id="p535022a065">
   <rect x="46.965625" y="22.318125" width="334.8" height="332.64"/>
  </clipPath>
 </defs>
</svg>
