<?xml version="1.0" encoding="utf-8" standalone="no"?>
<!DOCTYPE svg PUBLIC "-//W3C//DTD SVG 1.1//EN"
  "http://www.w3.org/Graphics/SVG/1.1/DTD/svg11.dtd">
<svg xmlns:xlink="http://www.w3.org/1999/xlink" width="467.675pt" height="401.489375pt" viewBox="0 0 467.675 401.489375" xmlns="http://www.w3.org/2000/svg" version="1.1">
 <metadata>
  <rdf:RDF xmlns:dc="http://purl.org/dc/elements/1.1/" xmlns:cc="http://creativecommons.org/ns#" xmlns:rdf="http://www.w3.org/1999/02/22-rdf-syntax-ns#">
   <cc:Work>
    <dc:type rdf:resource="http://purl.org/dc/dcmitype/StillImage"/>
    <dc:date>2023-12-12T21:39:26.501131</dc:date>
    <dc:format>image/svg+xml</dc:format>
    <dc:creator>
     <cc:Agent>
      <dc:title>Matplotlib v3.8.0, https://matplotlib.org/</dc:title>
     </cc:Agent>
    </dc:creator>
   </cc:Work>
  </rdf:RDF>
 </metadata>
 <defs>
  <style type="text/css">*{stroke-linejoin: round; stroke-linecap: butt}</style>
 </defs>
 <g id="figure_1">
  <g id="patch_1">
   <path d="M 0 401.489375 
L 467.675 401.489375 
L 467.675 0 
L 0 0 
z
" style="fill: #ffffff"/>
  </g>
  <g id="axes_1">
   <g id="patch_2">
    <path d="M 66.4375 361.9975 
L 401.2375 361.9975 
L 401.2375 29.3575 
L 66.4375 29.3575 
z
" style="fill: #ffffff"/>
   </g>
   <g id="PathCollection_1">
    <defs>
     <path id="m377783bdf3" d="M 0 3 
C 0.795609 3 1.55874 2.683901 2.12132 2.12132 
C 2.683901 1.55874 3 0.795609 3 0 
C 3 -0.795609 2.683901 -1.55874 2.12132 -2.12132 
C 1.55874 -2.683901 0.795609 -3 0 -3 
C -0.795609 -3 -1.55874 -2.683901 -2.12132 -2.12132 
C -2.683901 -1.55874 -3 -0.795609 -3 0 
C -3 0.795609 -2.683901 1.55874 -2.12132 2.12132 
C -1.55874 2.683901 -0.795609 3 0 3 
z
" style="stroke: #1f77b4; stroke-opacity: 0.5"/>
    </defs>
    <g clip-path="url(#p489e9f1230)">
     <use xlink:href="#m377783bdf3" x="243.018888" y="112.164642" style="fill: #1f77b4; fill-opacity: 0.5; stroke: #1f77b4; stroke-opacity: 0.5"/>
     <use xlink:href="#m377783bdf3" x="282.44943" y="148.037664" style="fill: #1f77b4; fill-opacity: 0.5; stroke: #1f77b4; stroke-opacity: 0.5"/>
     <use xlink:href="#m377783bdf3" x="201.750006" y="244.395523" style="fill: #1f77b4; fill-opacity: 0.5; stroke: #1f77b4; stroke-opacity: 0.5"/>
     <use xlink:href="#m377783bdf3" x="96.701941" y="336.15581" style="fill: #1f77b4; fill-opacity: 0.5; stroke: #1f77b4; stroke-opacity: 0.5"/>
     <use xlink:href="#m377783bdf3" x="190.494856" y="249.992376" style="fill: #1f77b4; fill-opacity: 0.5; stroke: #1f77b4; stroke-opacity: 0.5"/>
     <use xlink:href="#m377783bdf3" x="284.287771" y="147.69865" style="fill: #1f77b4; fill-opacity: 0.5; stroke: #1f77b4; stroke-opacity: 0.5"/>
     <use xlink:href="#m377783bdf3" x="303.046354" y="113.068228" style="fill: #1f77b4; fill-opacity: 0.5; stroke: #1f77b4; stroke-opacity: 0.5"/>
     <use xlink:href="#m377783bdf3" x="151.289418" y="237.810275" style="fill: #1f77b4; fill-opacity: 0.5; stroke: #1f77b4; stroke-opacity: 0.5"/>
     <use xlink:href="#m377783bdf3" x="175.48799" y="253.956922" style="fill: #1f77b4; fill-opacity: 0.5; stroke: #1f77b4; stroke-opacity: 0.5"/>
     <use xlink:href="#m377783bdf3" x="209.253439" y="204.787523" style="fill: #1f77b4; fill-opacity: 0.5; stroke: #1f77b4; stroke-opacity: 0.5"/>
     <use xlink:href="#m377783bdf3" x="273.032621" y="151.95139" style="fill: #1f77b4; fill-opacity: 0.5; stroke: #1f77b4; stroke-opacity: 0.5"/>
     <use xlink:href="#m377783bdf3" x="315.989776" y="99.833571" style="fill: #1f77b4; fill-opacity: 0.5; stroke: #1f77b4; stroke-opacity: 0.5"/>
     <use xlink:href="#m377783bdf3" x="352.193841" y="77.459861" style="fill: #1f77b4; fill-opacity: 0.5; stroke: #1f77b4; stroke-opacity: 0.5"/>
     <use xlink:href="#m377783bdf3" x="265.529188" y="145.342702" style="fill: #1f77b4; fill-opacity: 0.5; stroke: #1f77b4; stroke-opacity: 0.5"/>
     <use xlink:href="#m377783bdf3" x="152.97769" y="281.660681" style="fill: #1f77b4; fill-opacity: 0.5; stroke: #1f77b4; stroke-opacity: 0.5"/>
     <use xlink:href="#m377783bdf3" x="271.531935" y="145.268021" style="fill: #1f77b4; fill-opacity: 0.5; stroke: #1f77b4; stroke-opacity: 0.5"/>
     <use xlink:href="#m377783bdf3" x="127.466017" y="310.119642" style="fill: #1f77b4; fill-opacity: 0.5; stroke: #1f77b4; stroke-opacity: 0.5"/>
     <use xlink:href="#m377783bdf3" x="318.05322" y="130.846043" style="fill: #1f77b4; fill-opacity: 0.5; stroke: #1f77b4; stroke-opacity: 0.5"/>
     <use xlink:href="#m377783bdf3" x="145.43674" y="263.489071" style="fill: #1f77b4; fill-opacity: 0.5; stroke: #1f77b4; stroke-opacity: 0.5"/>
     <use xlink:href="#m377783bdf3" x="89.599942" y="346.8775" style="fill: #1f77b4; fill-opacity: 0.5; stroke: #1f77b4; stroke-opacity: 0.5"/>
     <use xlink:href="#m377783bdf3" x="152.97769" y="250.052899" style="fill: #1f77b4; fill-opacity: 0.5; stroke: #1f77b4; stroke-opacity: 0.5"/>
     <use xlink:href="#m377783bdf3" x="89.198508" y="311.696709" style="fill: #1f77b4; fill-opacity: 0.5; stroke: #1f77b4; stroke-opacity: 0.5"/>
     <use xlink:href="#m377783bdf3" x="175.48799" y="285.366968" style="fill: #1f77b4; fill-opacity: 0.5; stroke: #1f77b4; stroke-opacity: 0.5"/>
     <use xlink:href="#m377783bdf3" x="332.309743" y="68.834938" style="fill: #1f77b4; fill-opacity: 0.5; stroke: #1f77b4; stroke-opacity: 0.5"/>
     <use xlink:href="#m377783bdf3" x="197.998289" y="215.822097" style="fill: #1f77b4; fill-opacity: 0.5; stroke: #1f77b4; stroke-opacity: 0.5"/>
     <use xlink:href="#m377783bdf3" x="126.715674" y="275.169564" style="fill: #1f77b4; fill-opacity: 0.5; stroke: #1f77b4; stroke-opacity: 0.5"/>
     <use xlink:href="#m377783bdf3" x="171.736273" y="252.566729" style="fill: #1f77b4; fill-opacity: 0.5; stroke: #1f77b4; stroke-opacity: 0.5"/>
     <use xlink:href="#m377783bdf3" x="325.556654" y="111.221469" style="fill: #1f77b4; fill-opacity: 0.5; stroke: #1f77b4; stroke-opacity: 0.5"/>
     <use xlink:href="#m377783bdf3" x="303.008837" y="150.214065" style="fill: #1f77b4; fill-opacity: 0.5; stroke: #1f77b4; stroke-opacity: 0.5"/>
     <use xlink:href="#m377783bdf3" x="166.463235" y="220.234893" style="fill: #1f77b4; fill-opacity: 0.5; stroke: #1f77b4; stroke-opacity: 0.5"/>
     <use xlink:href="#m377783bdf3" x="363.073819" y="89.188893" style="fill: #1f77b4; fill-opacity: 0.5; stroke: #1f77b4; stroke-opacity: 0.5"/>
     <use xlink:href="#m377783bdf3" x="201.750006" y="234.346019" style="fill: #1f77b4; fill-opacity: 0.5; stroke: #1f77b4; stroke-opacity: 0.5"/>
     <use xlink:href="#m377783bdf3" x="303.046354" y="141.190464" style="fill: #1f77b4; fill-opacity: 0.5; stroke: #1f77b4; stroke-opacity: 0.5"/>
     <use xlink:href="#m377783bdf3" x="205.501722" y="231.133189" style="fill: #1f77b4; fill-opacity: 0.5; stroke: #1f77b4; stroke-opacity: 0.5"/>
     <use xlink:href="#m377783bdf3" x="152.940173" y="264.925455" style="fill: #1f77b4; fill-opacity: 0.5; stroke: #1f77b4; stroke-opacity: 0.5"/>
     <use xlink:href="#m377783bdf3" x="149.038388" y="278.229182" style="fill: #1f77b4; fill-opacity: 0.5; stroke: #1f77b4; stroke-opacity: 0.5"/>
     <use xlink:href="#m377783bdf3" x="276.784338" y="162.411831" style="fill: #1f77b4; fill-opacity: 0.5; stroke: #1f77b4; stroke-opacity: 0.5"/>
     <use xlink:href="#m377783bdf3" x="115.310456" y="271.07189" style="fill: #1f77b4; fill-opacity: 0.5; stroke: #1f77b4; stroke-opacity: 0.5"/>
     <use xlink:href="#m377783bdf3" x="386.019318" y="78.430997" style="fill: #1f77b4; fill-opacity: 0.5; stroke: #1f77b4; stroke-opacity: 0.5"/>
     <use xlink:href="#m377783bdf3" x="81.655682" y="334.915686" style="fill: #1f77b4; fill-opacity: 0.5; stroke: #1f77b4; stroke-opacity: 0.5"/>
     <use xlink:href="#m377783bdf3" x="287.949446" y="166.6408" style="fill: #1f77b4; fill-opacity: 0.5; stroke: #1f77b4; stroke-opacity: 0.5"/>
     <use xlink:href="#m377783bdf3" x="363.073819" y="47.405417" style="fill: #1f77b4; fill-opacity: 0.5; stroke: #1f77b4; stroke-opacity: 0.5"/>
     <use xlink:href="#m377783bdf3" x="113.209494" y="319.377823" style="fill: #1f77b4; fill-opacity: 0.5; stroke: #1f77b4; stroke-opacity: 0.5"/>
     <use xlink:href="#m377783bdf3" x="265.510429" y="174.95331" style="fill: #1f77b4; fill-opacity: 0.5; stroke: #1f77b4; stroke-opacity: 0.5"/>
     <use xlink:href="#m377783bdf3" x="121.838442" y="310.159938" style="fill: #1f77b4; fill-opacity: 0.5; stroke: #1f77b4; stroke-opacity: 0.5"/>
     <use xlink:href="#m377783bdf3" x="300.026222" y="151.978578" style="fill: #1f77b4; fill-opacity: 0.5; stroke: #1f77b4; stroke-opacity: 0.5"/>
     <use xlink:href="#m377783bdf3" x="262.05885" y="153.055508" style="fill: #1f77b4; fill-opacity: 0.5; stroke: #1f77b4; stroke-opacity: 0.5"/>
     <use xlink:href="#m377783bdf3" x="205.501722" y="217.901922" style="fill: #1f77b4; fill-opacity: 0.5; stroke: #1f77b4; stroke-opacity: 0.5"/>
     <use xlink:href="#m377783bdf3" x="284.287771" y="153.837771" style="fill: #1f77b4; fill-opacity: 0.5; stroke: #1f77b4; stroke-opacity: 0.5"/>
     <use xlink:href="#m377783bdf3" x="303.046354" y="137.91847" style="fill: #1f77b4; fill-opacity: 0.5; stroke: #1f77b4; stroke-opacity: 0.5"/>
     <use xlink:href="#m377783bdf3" x="175.48799" y="250.79562" style="fill: #1f77b4; fill-opacity: 0.5; stroke: #1f77b4; stroke-opacity: 0.5"/>
     <use xlink:href="#m377783bdf3" x="149.225974" y="269.717984" style="fill: #1f77b4; fill-opacity: 0.5; stroke: #1f77b4; stroke-opacity: 0.5"/>
     <use xlink:href="#m377783bdf3" x="271.531935" y="115.952483" style="fill: #1f77b4; fill-opacity: 0.5; stroke: #1f77b4; stroke-opacity: 0.5"/>
     <use xlink:href="#m377783bdf3" x="179.239706" y="242.312451" style="fill: #1f77b4; fill-opacity: 0.5; stroke: #1f77b4; stroke-opacity: 0.5"/>
     <use xlink:href="#m377783bdf3" x="115.460524" y="307.023622" style="fill: #1f77b4; fill-opacity: 0.5; stroke: #1f77b4; stroke-opacity: 0.5"/>
     <use xlink:href="#m377783bdf3" x="205.501722" y="212.496555" style="fill: #1f77b4; fill-opacity: 0.5; stroke: #1f77b4; stroke-opacity: 0.5"/>
     <use xlink:href="#m377783bdf3" x="122.963957" y="308.66891" style="fill: #1f77b4; fill-opacity: 0.5; stroke: #1f77b4; stroke-opacity: 0.5"/>
     <use xlink:href="#m377783bdf3" x="209.253439" y="209.322358" style="fill: #1f77b4; fill-opacity: 0.5; stroke: #1f77b4; stroke-opacity: 0.5"/>
     <use xlink:href="#m377783bdf3" x="182.991423" y="253.18819" style="fill: #1f77b4; fill-opacity: 0.5; stroke: #1f77b4; stroke-opacity: 0.5"/>
     <use xlink:href="#m377783bdf3" x="111.708808" y="321.920568" style="fill: #1f77b4; fill-opacity: 0.5; stroke: #1f77b4; stroke-opacity: 0.5"/>
     <use xlink:href="#m377783bdf3" x="290.403069" y="137.166755" style="fill: #1f77b4; fill-opacity: 0.5; stroke: #1f77b4; stroke-opacity: 0.5"/>
     <use xlink:href="#m377783bdf3" x="303.046354" y="128.920156" style="fill: #1f77b4; fill-opacity: 0.5; stroke: #1f77b4; stroke-opacity: 0.5"/>
     <use xlink:href="#m377783bdf3" x="175.48799" y="244.164359" style="fill: #1f77b4; fill-opacity: 0.5; stroke: #1f77b4; stroke-opacity: 0.5"/>
     <use xlink:href="#m377783bdf3" x="152.97769" y="267.685437" style="fill: #1f77b4; fill-opacity: 0.5; stroke: #1f77b4; stroke-opacity: 0.5"/>
     <use xlink:href="#m377783bdf3" x="165.574454" y="270.465788" style="fill: #1f77b4; fill-opacity: 0.5; stroke: #1f77b4; stroke-opacity: 0.5"/>
     <use xlink:href="#m377783bdf3" x="163.294911" y="264.177566" style="fill: #1f77b4; fill-opacity: 0.5; stroke: #1f77b4; stroke-opacity: 0.5"/>
     <use xlink:href="#m377783bdf3" x="98.952971" y="330.064052" style="fill: #1f77b4; fill-opacity: 0.5; stroke: #1f77b4; stroke-opacity: 0.5"/>
     <use xlink:href="#m377783bdf3" x="176.988676" y="271.236071" style="fill: #1f77b4; fill-opacity: 0.5; stroke: #1f77b4; stroke-opacity: 0.5"/>
     <use xlink:href="#m377783bdf3" x="340.56352" y="123.149755" style="fill: #1f77b4; fill-opacity: 0.5; stroke: #1f77b4; stroke-opacity: 0.5"/>
     <use xlink:href="#m377783bdf3" x="156.729407" y="284.272345" style="fill: #1f77b4; fill-opacity: 0.5; stroke: #1f77b4; stroke-opacity: 0.5"/>
     <use xlink:href="#m377783bdf3" x="286.159878" y="124.21797" style="fill: #1f77b4; fill-opacity: 0.5; stroke: #1f77b4; stroke-opacity: 0.5"/>
     <use xlink:href="#m377783bdf3" x="197.923255" y="250.23226" style="fill: #1f77b4; fill-opacity: 0.5; stroke: #1f77b4; stroke-opacity: 0.5"/>
     <use xlink:href="#m377783bdf3" x="359.322103" y="76.288385" style="fill: #1f77b4; fill-opacity: 0.5; stroke: #1f77b4; stroke-opacity: 0.5"/>
     <use xlink:href="#m377783bdf3" x="152.97769" y="276.927412" style="fill: #1f77b4; fill-opacity: 0.5; stroke: #1f77b4; stroke-opacity: 0.5"/>
     <use xlink:href="#m377783bdf3" x="310.549787" y="141.28653" style="fill: #1f77b4; fill-opacity: 0.5; stroke: #1f77b4; stroke-opacity: 0.5"/>
     <use xlink:href="#m377783bdf3" x="340.56352" y="105.084963" style="fill: #1f77b4; fill-opacity: 0.5; stroke: #1f77b4; stroke-opacity: 0.5"/>
     <use xlink:href="#m377783bdf3" x="126.715674" y="285.879428" style="fill: #1f77b4; fill-opacity: 0.5; stroke: #1f77b4; stroke-opacity: 0.5"/>
     <use xlink:href="#m377783bdf3" x="329.30837" y="110.102581" style="fill: #1f77b4; fill-opacity: 0.5; stroke: #1f77b4; stroke-opacity: 0.5"/>
     <use xlink:href="#m377783bdf3" x="126.696915" y="319.642454" style="fill: #1f77b4; fill-opacity: 0.5; stroke: #1f77b4; stroke-opacity: 0.5"/>
     <use xlink:href="#m377783bdf3" x="152.97769" y="267.956166" style="fill: #1f77b4; fill-opacity: 0.5; stroke: #1f77b4; stroke-opacity: 0.5"/>
     <use xlink:href="#m377783bdf3" x="273.032621" y="147.331857" style="fill: #1f77b4; fill-opacity: 0.5; stroke: #1f77b4; stroke-opacity: 0.5"/>
     <use xlink:href="#m377783bdf3" x="152.97769" y="270.935208" style="fill: #1f77b4; fill-opacity: 0.5; stroke: #1f77b4; stroke-opacity: 0.5"/>
     <use xlink:href="#m377783bdf3" x="172.486616" y="255.591612" style="fill: #1f77b4; fill-opacity: 0.5; stroke: #1f77b4; stroke-opacity: 0.5"/>
     <use xlink:href="#m377783bdf3" x="254.499141" y="179.692156" style="fill: #1f77b4; fill-opacity: 0.5; stroke: #1f77b4; stroke-opacity: 0.5"/>
     <use xlink:href="#m377783bdf3" x="141.72254" y="314.73896" style="fill: #1f77b4; fill-opacity: 0.5; stroke: #1f77b4; stroke-opacity: 0.5"/>
     <use xlink:href="#m377783bdf3" x="171.361101" y="276.052591" style="fill: #1f77b4; fill-opacity: 0.5; stroke: #1f77b4; stroke-opacity: 0.5"/>
     <use xlink:href="#m377783bdf3" x="145.451747" y="320.474367" style="fill: #1f77b4; fill-opacity: 0.5; stroke: #1f77b4; stroke-opacity: 0.5"/>
     <use xlink:href="#m377783bdf3" x="115.066594" y="284.948925" style="fill: #1f77b4; fill-opacity: 0.5; stroke: #1f77b4; stroke-opacity: 0.5"/>
     <use xlink:href="#m377783bdf3" x="137.970824" y="300.207464" style="fill: #1f77b4; fill-opacity: 0.5; stroke: #1f77b4; stroke-opacity: 0.5"/>
     <use xlink:href="#m377783bdf3" x="277.075096" y="158.590087" style="fill: #1f77b4; fill-opacity: 0.5; stroke: #1f77b4; stroke-opacity: 0.5"/>
     <use xlink:href="#m377783bdf3" x="265.454154" y="146.628403" style="fill: #1f77b4; fill-opacity: 0.5; stroke: #1f77b4; stroke-opacity: 0.5"/>
     <use xlink:href="#m377783bdf3" x="145.43674" y="273.173495" style="fill: #1f77b4; fill-opacity: 0.5; stroke: #1f77b4; stroke-opacity: 0.5"/>
     <use xlink:href="#m377783bdf3" x="173.033242" y="227.124789" style="fill: #1f77b4; fill-opacity: 0.5; stroke: #1f77b4; stroke-opacity: 0.5"/>
     <use xlink:href="#m377783bdf3" x="134.219107" y="314.81061" style="fill: #1f77b4; fill-opacity: 0.5; stroke: #1f77b4; stroke-opacity: 0.5"/>
     <use xlink:href="#m377783bdf3" x="205.755714" y="226.660357" style="fill: #1f77b4; fill-opacity: 0.5; stroke: #1f77b4; stroke-opacity: 0.5"/>
     <use xlink:href="#m377783bdf3" x="120.712927" y="281.930789" style="fill: #1f77b4; fill-opacity: 0.5; stroke: #1f77b4; stroke-opacity: 0.5"/>
     <use xlink:href="#m377783bdf3" x="265.529188" y="162.884048" style="fill: #1f77b4; fill-opacity: 0.5; stroke: #1f77b4; stroke-opacity: 0.5"/>
     <use xlink:href="#m377783bdf3" x="284.287771" y="167.924865" style="fill: #1f77b4; fill-opacity: 0.5; stroke: #1f77b4; stroke-opacity: 0.5"/>
     <use xlink:href="#m377783bdf3" x="331.16547" y="134.788511" style="fill: #1f77b4; fill-opacity: 0.5; stroke: #1f77b4; stroke-opacity: 0.5"/>
     <use xlink:href="#m377783bdf3" x="273.032621" y="140.515581" style="fill: #1f77b4; fill-opacity: 0.5; stroke: #1f77b4; stroke-opacity: 0.5"/>
     <use xlink:href="#m377783bdf3" x="134.219107" y="252.097536" style="fill: #1f77b4; fill-opacity: 0.5; stroke: #1f77b4; stroke-opacity: 0.5"/>
     <use xlink:href="#m377783bdf3" x="340.56352" y="101.707036" style="fill: #1f77b4; fill-opacity: 0.5; stroke: #1f77b4; stroke-opacity: 0.5"/>
     <use xlink:href="#m377783bdf3" x="152.97769" y="302.147799" style="fill: #1f77b4; fill-opacity: 0.5; stroke: #1f77b4; stroke-opacity: 0.5"/>
     <use xlink:href="#m377783bdf3" x="295.542921" y="153.403821" style="fill: #1f77b4; fill-opacity: 0.5; stroke: #1f77b4; stroke-opacity: 0.5"/>
     <use xlink:href="#m377783bdf3" x="119.212241" y="302.805689" style="fill: #1f77b4; fill-opacity: 0.5; stroke: #1f77b4; stroke-opacity: 0.5"/>
    </g>
   </g>
   <g id="PolyCollection_1">
    <path d="M 81.655682 331.084241 
L 81.655682 344.780295 
L 84.730062 341.774464 
L 87.804442 338.768632 
L 90.878822 335.762801 
L 93.953202 332.755804 
L 97.027583 329.728967 
L 100.101963 326.70213 
L 103.176343 323.680232 
L 106.250723 320.708425 
L 109.325103 317.730944 
L 112.399483 314.77362 
L 115.473864 311.817167 
L 118.548244 308.863595 
L 121.622624 305.87196 
L 124.697004 302.926349 
L 127.771384 299.971355 
L 130.845764 297.023484 
L 133.920145 294.069575 
L 136.994525 291.10087 
L 140.068905 288.140458 
L 143.143285 285.15188 
L 146.217665 282.183488 
L 149.292045 279.222059 
L 152.366426 276.263759 
L 155.440806 273.362359 
L 158.515186 270.460444 
L 161.589566 267.514931 
L 164.663946 264.611687 
L 167.738326 261.664381 
L 170.812707 258.713896 
L 173.887087 255.752858 
L 176.961467 252.811389 
L 180.035847 249.851052 
L 183.110227 246.895086 
L 186.184607 244.004756 
L 189.258988 241.120782 
L 192.333368 238.204139 
L 195.407748 235.327634 
L 198.482128 232.451129 
L 201.556508 229.601227 
L 204.630888 226.698119 
L 207.705269 223.820527 
L 210.779649 220.94374 
L 213.854029 218.063152 
L 216.928409 215.171757 
L 220.002789 212.314579 
L 223.077169 209.438026 
L 226.15155 206.552283 
L 229.22593 203.68409 
L 232.30031 200.808045 
L 235.37469 197.930856 
L 238.44907 195.054763 
L 241.52345 192.249828 
L 244.597831 189.345071 
L 247.672211 186.507657 
L 250.746591 183.718437 
L 253.820971 180.863904 
L 256.895351 178.053363 
L 259.969731 175.301338 
L 263.044112 172.527949 
L 266.118492 169.730365 
L 269.192872 166.827667 
L 272.267252 164.003398 
L 275.341632 161.179971 
L 278.416012 158.434125 
L 281.490393 155.715611 
L 284.564773 152.967089 
L 287.639153 150.127607 
L 290.713533 147.317288 
L 293.787913 144.590512 
L 296.862293 141.863735 
L 299.936674 139.138388 
L 303.011054 136.41365 
L 306.085434 133.687134 
L 309.159814 130.88462 
L 312.234194 128.074186 
L 315.308574 125.333108 
L 318.382955 122.5919 
L 321.457335 119.783146 
L 324.531715 116.950879 
L 327.606095 114.162557 
L 330.680475 111.391743 
L 333.754855 108.584464 
L 336.829236 105.763068 
L 339.903616 103.012775 
L 342.977996 100.313727 
L 346.052376 97.543018 
L 349.126756 94.77109 
L 352.201136 91.990898 
L 355.275517 89.193406 
L 358.349897 86.457055 
L 361.424277 83.73509 
L 364.498657 81.017026 
L 367.573037 78.280174 
L 370.647417 75.484928 
L 373.721798 72.743571 
L 376.796178 70.021032 
L 379.870558 67.249058 
L 382.944938 64.453092 
L 386.019318 61.657127 
L 386.019318 44.4775 
L 386.019318 44.4775 
L 382.944938 47.422648 
L 379.870558 50.375029 
L 376.796178 53.342586 
L 373.721798 56.323895 
L 370.647417 59.337591 
L 367.573037 62.352067 
L 364.498657 65.368003 
L 361.424277 68.389533 
L 358.349897 71.445267 
L 355.275517 74.490052 
L 352.201136 77.427895 
L 349.126756 80.442791 
L 346.052376 83.467116 
L 342.977996 86.512639 
L 339.903616 89.548608 
L 336.829236 92.544262 
L 333.754855 95.530078 
L 330.680475 98.514844 
L 327.606095 101.539783 
L 324.531715 104.485254 
L 321.457335 107.470003 
L 318.382955 110.459933 
L 315.308574 113.47532 
L 312.234194 116.491853 
L 309.159814 119.569074 
L 306.085434 122.600825 
L 303.011054 125.589629 
L 299.936674 128.610961 
L 296.862293 131.616029 
L 293.787913 134.588882 
L 290.713533 137.548658 
L 287.639153 140.480182 
L 284.564773 143.429829 
L 281.490393 146.382625 
L 278.416012 149.335626 
L 275.341632 152.292771 
L 272.267252 155.267724 
L 269.192872 158.272267 
L 266.118492 161.220735 
L 263.044112 164.185887 
L 259.969731 167.08498 
L 256.895351 170.059502 
L 253.820971 173.129249 
L 250.746591 176.053843 
L 247.672211 178.971708 
L 244.597831 181.834975 
L 241.52345 184.774366 
L 238.44907 187.726905 
L 235.37469 190.597279 
L 232.30031 193.455822 
L 229.22593 196.326309 
L 226.15155 199.184838 
L 223.077169 202.047561 
L 220.002789 204.909011 
L 216.928409 207.794433 
L 213.854029 210.633113 
L 210.779649 213.56979 
L 207.705269 216.533969 
L 204.630888 219.284631 
L 201.556508 222.081465 
L 198.482128 224.904136 
L 195.407748 227.793911 
L 192.333368 230.668659 
L 189.258988 233.571429 
L 186.184607 236.421998 
L 183.110227 239.289913 
L 180.035847 242.113065 
L 176.961467 244.87561 
L 173.887087 247.670948 
L 170.812707 250.517467 
L 167.738326 253.367258 
L 164.663946 256.188548 
L 161.589566 258.9887 
L 158.515186 261.773935 
L 155.440806 264.564852 
L 152.366426 267.340416 
L 149.292045 270.122112 
L 146.217665 272.933116 
L 143.143285 275.749652 
L 140.068905 278.490389 
L 136.994525 281.282359 
L 133.920145 284.034779 
L 130.845764 286.815883 
L 127.771384 289.596987 
L 124.697004 292.379276 
L 121.622624 295.162622 
L 118.548244 297.895786 
L 115.473864 300.689723 
L 112.399483 303.460005 
L 109.325103 306.181075 
L 106.250723 308.923267 
L 103.176343 311.695243 
L 100.101963 314.526986 
L 97.027583 317.250837 
L 93.953202 320.058191 
L 90.878822 322.830081 
L 87.804442 325.590514 
L 84.730062 328.365745 
L 81.655682 331.084241 
z
" clip-path="url(#p489e9f1230)" style="fill: #d62728; fill-opacity: 0.15"/>
   </g>
   <g id="matplotlib.axis_1">
    <g id="xtick_1">
     <g id="line2d_1">
      <defs>
       <path id="m294214808d" d="M 0 0 
L 0 3.5 
" style="stroke: #000000; stroke-width: 0.8"/>
      </defs>
      <g>
       <use xlink:href="#m294214808d" x="77.943358" y="361.9975" style="stroke: #000000; stroke-width: 0.8"/>
      </g>
     </g>
     <g id="text_1">
      <!-- 450 -->
      <g transform="translate(68.399608 376.595937) scale(0.1 -0.1)">
       <defs>
        <path id="DejaVuSans-34" d="M 2419 4116 
L 825 1625 
L 2419 1625 
L 2419 4116 
z
M 2253 4666 
L 3047 4666 
L 3047 1625 
L 3713 1625 
L 3713 1100 
L 3047 1100 
L 3047 0 
L 2419 0 
L 2419 1100 
L 313 1100 
L 313 1709 
L 2253 4666 
z
" transform="scale(0.015625)"/>
        <path id="DejaVuSans-35" d="M 691 4666 
L 3169 4666 
L 3169 4134 
L 1269 4134 
L 1269 2991 
Q 1406 3038 1543 3061 
Q 1681 3084 1819 3084 
Q 2600 3084 3056 2656 
Q 3513 2228 3513 1497 
Q 3513 744 3044 326 
Q 2575 -91 1722 -91 
Q 1428 -91 1123 -41 
Q 819 9 494 109 
L 494 744 
Q 775 591 1075 516 
Q 1375 441 1709 441 
Q 2250 441 2565 725 
Q 2881 1009 2881 1497 
Q 2881 1984 2565 2268 
Q 2250 2553 1709 2553 
Q 1456 2553 1204 2497 
Q 953 2441 691 2322 
L 691 4666 
z
" transform="scale(0.015625)"/>
        <path id="DejaVuSans-30" d="M 2034 4250 
Q 1547 4250 1301 3770 
Q 1056 3291 1056 2328 
Q 1056 1369 1301 889 
Q 1547 409 2034 409 
Q 2525 409 2770 889 
Q 3016 1369 3016 2328 
Q 3016 3291 2770 3770 
Q 2525 4250 2034 4250 
z
M 2034 4750 
Q 2819 4750 3233 4129 
Q 3647 3509 3647 2328 
Q 3647 1150 3233 529 
Q 2819 -91 2034 -91 
Q 1250 -91 836 529 
Q 422 1150 422 2328 
Q 422 3509 836 4129 
Q 1250 4750 2034 4750 
z
" transform="scale(0.015625)"/>
       </defs>
       <use xlink:href="#DejaVuSans-34"/>
       <use xlink:href="#DejaVuSans-35" x="63.623047"/>
       <use xlink:href="#DejaVuSans-30" x="127.246094"/>
      </g>
     </g>
    </g>
    <g id="xtick_2">
     <g id="line2d_2">
      <g>
       <use xlink:href="#m294214808d" x="115.460524" y="361.9975" style="stroke: #000000; stroke-width: 0.8"/>
      </g>
     </g>
     <g id="text_2">
      <!-- 500 -->
      <g transform="translate(105.916774 376.595937) scale(0.1 -0.1)">
       <use xlink:href="#DejaVuSans-35"/>
       <use xlink:href="#DejaVuSans-30" x="63.623047"/>
       <use xlink:href="#DejaVuSans-30" x="127.246094"/>
      </g>
     </g>
    </g>
    <g id="xtick_3">
     <g id="line2d_3">
      <g>
       <use xlink:href="#m294214808d" x="152.97769" y="361.9975" style="stroke: #000000; stroke-width: 0.8"/>
      </g>
     </g>
     <g id="text_3">
      <!-- 550 -->
      <g transform="translate(143.43394 376.595937) scale(0.1 -0.1)">
       <use xlink:href="#DejaVuSans-35"/>
       <use xlink:href="#DejaVuSans-35" x="63.623047"/>
       <use xlink:href="#DejaVuSans-30" x="127.246094"/>
      </g>
     </g>
    </g>
    <g id="xtick_4">
     <g id="line2d_4">
      <g>
       <use xlink:href="#m294214808d" x="190.494856" y="361.9975" style="stroke: #000000; stroke-width: 0.8"/>
      </g>
     </g>
     <g id="text_4">
      <!-- 600 -->
      <g transform="translate(180.951106 376.595937) scale(0.1 -0.1)">
       <defs>
        <path id="DejaVuSans-36" d="M 2113 2584 
Q 1688 2584 1439 2293 
Q 1191 2003 1191 1497 
Q 1191 994 1439 701 
Q 1688 409 2113 409 
Q 2538 409 2786 701 
Q 3034 994 3034 1497 
Q 3034 2003 2786 2293 
Q 2538 2584 2113 2584 
z
M 3366 4563 
L 3366 3988 
Q 3128 4100 2886 4159 
Q 2644 4219 2406 4219 
Q 1781 4219 1451 3797 
Q 1122 3375 1075 2522 
Q 1259 2794 1537 2939 
Q 1816 3084 2150 3084 
Q 2853 3084 3261 2657 
Q 3669 2231 3669 1497 
Q 3669 778 3244 343 
Q 2819 -91 2113 -91 
Q 1303 -91 875 529 
Q 447 1150 447 2328 
Q 447 3434 972 4092 
Q 1497 4750 2381 4750 
Q 2619 4750 2861 4703 
Q 3103 4656 3366 4563 
z
" transform="scale(0.015625)"/>
       </defs>
       <use xlink:href="#DejaVuSans-36"/>
       <use xlink:href="#DejaVuSans-30" x="63.623047"/>
       <use xlink:href="#DejaVuSans-30" x="127.246094"/>
      </g>
     </g>
    </g>
    <g id="xtick_5">
     <g id="line2d_5">
      <g>
       <use xlink:href="#m294214808d" x="228.012022" y="361.9975" style="stroke: #000000; stroke-width: 0.8"/>
      </g>
     </g>
     <g id="text_5">
      <!-- 650 -->
      <g transform="translate(218.468272 376.595937) scale(0.1 -0.1)">
       <use xlink:href="#DejaVuSans-36"/>
       <use xlink:href="#DejaVuSans-35" x="63.623047"/>
       <use xlink:href="#DejaVuSans-30" x="127.246094"/>
      </g>
     </g>
    </g>
    <g id="xtick_6">
     <g id="line2d_6">
      <g>
       <use xlink:href="#m294214808d" x="265.529188" y="361.9975" style="stroke: #000000; stroke-width: 0.8"/>
      </g>
     </g>
     <g id="text_6">
      <!-- 700 -->
      <g transform="translate(255.985438 376.595937) scale(0.1 -0.1)">
       <defs>
        <path id="DejaVuSans-37" d="M 525 4666 
L 3525 4666 
L 3525 4397 
L 1831 0 
L 1172 0 
L 2766 4134 
L 525 4134 
L 525 4666 
z
" transform="scale(0.015625)"/>
       </defs>
       <use xlink:href="#DejaVuSans-37"/>
       <use xlink:href="#DejaVuSans-30" x="63.623047"/>
       <use xlink:href="#DejaVuSans-30" x="127.246094"/>
      </g>
     </g>
    </g>
    <g id="xtick_7">
     <g id="line2d_7">
      <g>
       <use xlink:href="#m294214808d" x="303.046354" y="361.9975" style="stroke: #000000; stroke-width: 0.8"/>
      </g>
     </g>
     <g id="text_7">
      <!-- 750 -->
      <g transform="translate(293.502604 376.595937) scale(0.1 -0.1)">
       <use xlink:href="#DejaVuSans-37"/>
       <use xlink:href="#DejaVuSans-35" x="63.623047"/>
       <use xlink:href="#DejaVuSans-30" x="127.246094"/>
      </g>
     </g>
    </g>
    <g id="xtick_8">
     <g id="line2d_8">
      <g>
       <use xlink:href="#m294214808d" x="340.56352" y="361.9975" style="stroke: #000000; stroke-width: 0.8"/>
      </g>
     </g>
     <g id="text_8">
      <!-- 800 -->
      <g transform="translate(331.01977 376.595937) scale(0.1 -0.1)">
       <defs>
        <path id="DejaVuSans-38" d="M 2034 2216 
Q 1584 2216 1326 1975 
Q 1069 1734 1069 1313 
Q 1069 891 1326 650 
Q 1584 409 2034 409 
Q 2484 409 2743 651 
Q 3003 894 3003 1313 
Q 3003 1734 2745 1975 
Q 2488 2216 2034 2216 
z
M 1403 2484 
Q 997 2584 770 2862 
Q 544 3141 544 3541 
Q 544 4100 942 4425 
Q 1341 4750 2034 4750 
Q 2731 4750 3128 4425 
Q 3525 4100 3525 3541 
Q 3525 3141 3298 2862 
Q 3072 2584 2669 2484 
Q 3125 2378 3379 2068 
Q 3634 1759 3634 1313 
Q 3634 634 3220 271 
Q 2806 -91 2034 -91 
Q 1263 -91 848 271 
Q 434 634 434 1313 
Q 434 1759 690 2068 
Q 947 2378 1403 2484 
z
M 1172 3481 
Q 1172 3119 1398 2916 
Q 1625 2713 2034 2713 
Q 2441 2713 2670 2916 
Q 2900 3119 2900 3481 
Q 2900 3844 2670 4047 
Q 2441 4250 2034 4250 
Q 1625 4250 1398 4047 
Q 1172 3844 1172 3481 
z
" transform="scale(0.015625)"/>
       </defs>
       <use xlink:href="#DejaVuSans-38"/>
       <use xlink:href="#DejaVuSans-30" x="63.623047"/>
       <use xlink:href="#DejaVuSans-30" x="127.246094"/>
      </g>
     </g>
    </g>
    <g id="xtick_9">
     <g id="line2d_9">
      <g>
       <use xlink:href="#m294214808d" x="378.080686" y="361.9975" style="stroke: #000000; stroke-width: 0.8"/>
      </g>
     </g>
     <g id="text_9">
      <!-- 850 -->
      <g transform="translate(368.536936 376.595937) scale(0.1 -0.1)">
       <use xlink:href="#DejaVuSans-38"/>
       <use xlink:href="#DejaVuSans-35" x="63.623047"/>
       <use xlink:href="#DejaVuSans-30" x="127.246094"/>
      </g>
     </g>
    </g>
    <g id="text_10">
     <!-- Actual Median Sale Price ($, thousands) -->
     <g transform="translate(114.625938 391.79375) scale(0.12 -0.12)">
      <defs>
       <path id="DejaVuSans-41" d="M 2188 4044 
L 1331 1722 
L 3047 1722 
L 2188 4044 
z
M 1831 4666 
L 2547 4666 
L 4325 0 
L 3669 0 
L 3244 1197 
L 1141 1197 
L 716 0 
L 50 0 
L 1831 4666 
z
" transform="scale(0.015625)"/>
       <path id="DejaVuSans-63" d="M 3122 3366 
L 3122 2828 
Q 2878 2963 2633 3030 
Q 2388 3097 2138 3097 
Q 1578 3097 1268 2742 
Q 959 2388 959 1747 
Q 959 1106 1268 751 
Q 1578 397 2138 397 
Q 2388 397 2633 464 
Q 2878 531 3122 666 
L 3122 134 
Q 2881 22 2623 -34 
Q 2366 -91 2075 -91 
Q 1284 -91 818 406 
Q 353 903 353 1747 
Q 353 2603 823 3093 
Q 1294 3584 2113 3584 
Q 2378 3584 2631 3529 
Q 2884 3475 3122 3366 
z
" transform="scale(0.015625)"/>
       <path id="DejaVuSans-74" d="M 1172 4494 
L 1172 3500 
L 2356 3500 
L 2356 3053 
L 1172 3053 
L 1172 1153 
Q 1172 725 1289 603 
Q 1406 481 1766 481 
L 2356 481 
L 2356 0 
L 1766 0 
Q 1100 0 847 248 
Q 594 497 594 1153 
L 594 3053 
L 172 3053 
L 172 3500 
L 594 3500 
L 594 4494 
L 1172 4494 
z
" transform="scale(0.015625)"/>
       <path id="DejaVuSans-75" d="M 544 1381 
L 544 3500 
L 1119 3500 
L 1119 1403 
Q 1119 906 1312 657 
Q 1506 409 1894 409 
Q 2359 409 2629 706 
Q 2900 1003 2900 1516 
L 2900 3500 
L 3475 3500 
L 3475 0 
L 2900 0 
L 2900 538 
Q 2691 219 2414 64 
Q 2138 -91 1772 -91 
Q 1169 -91 856 284 
Q 544 659 544 1381 
z
M 1991 3584 
L 1991 3584 
z
" transform="scale(0.015625)"/>
       <path id="DejaVuSans-61" d="M 2194 1759 
Q 1497 1759 1228 1600 
Q 959 1441 959 1056 
Q 959 750 1161 570 
Q 1363 391 1709 391 
Q 2188 391 2477 730 
Q 2766 1069 2766 1631 
L 2766 1759 
L 2194 1759 
z
M 3341 1997 
L 3341 0 
L 2766 0 
L 2766 531 
Q 2569 213 2275 61 
Q 1981 -91 1556 -91 
Q 1019 -91 701 211 
Q 384 513 384 1019 
Q 384 1609 779 1909 
Q 1175 2209 1959 2209 
L 2766 2209 
L 2766 2266 
Q 2766 2663 2505 2880 
Q 2244 3097 1772 3097 
Q 1472 3097 1187 3025 
Q 903 2953 641 2809 
L 641 3341 
Q 956 3463 1253 3523 
Q 1550 3584 1831 3584 
Q 2591 3584 2966 3190 
Q 3341 2797 3341 1997 
z
" transform="scale(0.015625)"/>
       <path id="DejaVuSans-6c" d="M 603 4863 
L 1178 4863 
L 1178 0 
L 603 0 
L 603 4863 
z
" transform="scale(0.015625)"/>
       <path id="DejaVuSans-20" transform="scale(0.015625)"/>
       <path id="DejaVuSans-4d" d="M 628 4666 
L 1569 4666 
L 2759 1491 
L 3956 4666 
L 4897 4666 
L 4897 0 
L 4281 0 
L 4281 4097 
L 3078 897 
L 2444 897 
L 1241 4097 
L 1241 0 
L 628 0 
L 628 4666 
z
" transform="scale(0.015625)"/>
       <path id="DejaVuSans-65" d="M 3597 1894 
L 3597 1613 
L 953 1613 
Q 991 1019 1311 708 
Q 1631 397 2203 397 
Q 2534 397 2845 478 
Q 3156 559 3463 722 
L 3463 178 
Q 3153 47 2828 -22 
Q 2503 -91 2169 -91 
Q 1331 -91 842 396 
Q 353 884 353 1716 
Q 353 2575 817 3079 
Q 1281 3584 2069 3584 
Q 2775 3584 3186 3129 
Q 3597 2675 3597 1894 
z
M 3022 2063 
Q 3016 2534 2758 2815 
Q 2500 3097 2075 3097 
Q 1594 3097 1305 2825 
Q 1016 2553 972 2059 
L 3022 2063 
z
" transform="scale(0.015625)"/>
       <path id="DejaVuSans-64" d="M 2906 2969 
L 2906 4863 
L 3481 4863 
L 3481 0 
L 2906 0 
L 2906 525 
Q 2725 213 2448 61 
Q 2172 -91 1784 -91 
Q 1150 -91 751 415 
Q 353 922 353 1747 
Q 353 2572 751 3078 
Q 1150 3584 1784 3584 
Q 2172 3584 2448 3432 
Q 2725 3281 2906 2969 
z
M 947 1747 
Q 947 1113 1208 752 
Q 1469 391 1925 391 
Q 2381 391 2643 752 
Q 2906 1113 2906 1747 
Q 2906 2381 2643 2742 
Q 2381 3103 1925 3103 
Q 1469 3103 1208 2742 
Q 947 2381 947 1747 
z
" transform="scale(0.015625)"/>
       <path id="DejaVuSans-69" d="M 603 3500 
L 1178 3500 
L 1178 0 
L 603 0 
L 603 3500 
z
M 603 4863 
L 1178 4863 
L 1178 4134 
L 603 4134 
L 603 4863 
z
" transform="scale(0.015625)"/>
       <path id="DejaVuSans-6e" d="M 3513 2113 
L 3513 0 
L 2938 0 
L 2938 2094 
Q 2938 2591 2744 2837 
Q 2550 3084 2163 3084 
Q 1697 3084 1428 2787 
Q 1159 2491 1159 1978 
L 1159 0 
L 581 0 
L 581 3500 
L 1159 3500 
L 1159 2956 
Q 1366 3272 1645 3428 
Q 1925 3584 2291 3584 
Q 2894 3584 3203 3211 
Q 3513 2838 3513 2113 
z
" transform="scale(0.015625)"/>
       <path id="DejaVuSans-53" d="M 3425 4513 
L 3425 3897 
Q 3066 4069 2747 4153 
Q 2428 4238 2131 4238 
Q 1616 4238 1336 4038 
Q 1056 3838 1056 3469 
Q 1056 3159 1242 3001 
Q 1428 2844 1947 2747 
L 2328 2669 
Q 3034 2534 3370 2195 
Q 3706 1856 3706 1288 
Q 3706 609 3251 259 
Q 2797 -91 1919 -91 
Q 1588 -91 1214 -16 
Q 841 59 441 206 
L 441 856 
Q 825 641 1194 531 
Q 1563 422 1919 422 
Q 2459 422 2753 634 
Q 3047 847 3047 1241 
Q 3047 1584 2836 1778 
Q 2625 1972 2144 2069 
L 1759 2144 
Q 1053 2284 737 2584 
Q 422 2884 422 3419 
Q 422 4038 858 4394 
Q 1294 4750 2059 4750 
Q 2388 4750 2728 4690 
Q 3069 4631 3425 4513 
z
" transform="scale(0.015625)"/>
       <path id="DejaVuSans-50" d="M 1259 4147 
L 1259 2394 
L 2053 2394 
Q 2494 2394 2734 2622 
Q 2975 2850 2975 3272 
Q 2975 3691 2734 3919 
Q 2494 4147 2053 4147 
L 1259 4147 
z
M 628 4666 
L 2053 4666 
Q 2838 4666 3239 4311 
Q 3641 3956 3641 3272 
Q 3641 2581 3239 2228 
Q 2838 1875 2053 1875 
L 1259 1875 
L 1259 0 
L 628 0 
L 628 4666 
z
" transform="scale(0.015625)"/>
       <path id="DejaVuSans-72" d="M 2631 2963 
Q 2534 3019 2420 3045 
Q 2306 3072 2169 3072 
Q 1681 3072 1420 2755 
Q 1159 2438 1159 1844 
L 1159 0 
L 581 0 
L 581 3500 
L 1159 3500 
L 1159 2956 
Q 1341 3275 1631 3429 
Q 1922 3584 2338 3584 
Q 2397 3584 2469 3576 
Q 2541 3569 2628 3553 
L 2631 2963 
z
" transform="scale(0.015625)"/>
       <path id="DejaVuSans-28" d="M 1984 4856 
Q 1566 4138 1362 3434 
Q 1159 2731 1159 2009 
Q 1159 1288 1364 580 
Q 1569 -128 1984 -844 
L 1484 -844 
Q 1016 -109 783 600 
Q 550 1309 550 2009 
Q 550 2706 781 3412 
Q 1013 4119 1484 4856 
L 1984 4856 
z
" transform="scale(0.015625)"/>
       <path id="DejaVuSans-24" d="M 2163 -941 
L 1850 -941 
L 1847 0 
Q 1519 6 1191 76 
Q 863 147 531 288 
L 531 850 
Q 850 650 1176 548 
Q 1503 447 1850 444 
L 1850 1869 
Q 1159 1981 845 2250 
Q 531 2519 531 2988 
Q 531 3497 872 3790 
Q 1213 4084 1850 4128 
L 1850 4863 
L 2163 4863 
L 2163 4138 
Q 2453 4125 2725 4076 
Q 2997 4028 3256 3944 
L 3256 3397 
Q 2997 3528 2723 3600 
Q 2450 3672 2163 3684 
L 2163 2350 
Q 2872 2241 3206 1959 
Q 3541 1678 3541 1191 
Q 3541 663 3186 358 
Q 2831 53 2163 6 
L 2163 -941 
z
M 1850 2406 
L 1850 3688 
Q 1488 3647 1297 3481 
Q 1106 3316 1106 3041 
Q 1106 2772 1282 2622 
Q 1459 2472 1850 2406 
z
M 2163 1806 
L 2163 453 
Q 2559 506 2761 678 
Q 2963 850 2963 1131 
Q 2963 1406 2770 1568 
Q 2578 1731 2163 1806 
z
" transform="scale(0.015625)"/>
       <path id="DejaVuSans-2c" d="M 750 794 
L 1409 794 
L 1409 256 
L 897 -744 
L 494 -744 
L 750 256 
L 750 794 
z
" transform="scale(0.015625)"/>
       <path id="DejaVuSans-68" d="M 3513 2113 
L 3513 0 
L 2938 0 
L 2938 2094 
Q 2938 2591 2744 2837 
Q 2550 3084 2163 3084 
Q 1697 3084 1428 2787 
Q 1159 2491 1159 1978 
L 1159 0 
L 581 0 
L 581 4863 
L 1159 4863 
L 1159 2956 
Q 1366 3272 1645 3428 
Q 1925 3584 2291 3584 
Q 2894 3584 3203 3211 
Q 3513 2838 3513 2113 
z
" transform="scale(0.015625)"/>
       <path id="DejaVuSans-6f" d="M 1959 3097 
Q 1497 3097 1228 2736 
Q 959 2375 959 1747 
Q 959 1119 1226 758 
Q 1494 397 1959 397 
Q 2419 397 2687 759 
Q 2956 1122 2956 1747 
Q 2956 2369 2687 2733 
Q 2419 3097 1959 3097 
z
M 1959 3584 
Q 2709 3584 3137 3096 
Q 3566 2609 3566 1747 
Q 3566 888 3137 398 
Q 2709 -91 1959 -91 
Q 1206 -91 779 398 
Q 353 888 353 1747 
Q 353 2609 779 3096 
Q 1206 3584 1959 3584 
z
" transform="scale(0.015625)"/>
       <path id="DejaVuSans-73" d="M 2834 3397 
L 2834 2853 
Q 2591 2978 2328 3040 
Q 2066 3103 1784 3103 
Q 1356 3103 1142 2972 
Q 928 2841 928 2578 
Q 928 2378 1081 2264 
Q 1234 2150 1697 2047 
L 1894 2003 
Q 2506 1872 2764 1633 
Q 3022 1394 3022 966 
Q 3022 478 2636 193 
Q 2250 -91 1575 -91 
Q 1294 -91 989 -36 
Q 684 19 347 128 
L 347 722 
Q 666 556 975 473 
Q 1284 391 1588 391 
Q 1994 391 2212 530 
Q 2431 669 2431 922 
Q 2431 1156 2273 1281 
Q 2116 1406 1581 1522 
L 1381 1569 
Q 847 1681 609 1914 
Q 372 2147 372 2553 
Q 372 3047 722 3315 
Q 1072 3584 1716 3584 
Q 2034 3584 2315 3537 
Q 2597 3491 2834 3397 
z
" transform="scale(0.015625)"/>
       <path id="DejaVuSans-29" d="M 513 4856 
L 1013 4856 
Q 1481 4119 1714 3412 
Q 1947 2706 1947 2009 
Q 1947 1309 1714 600 
Q 1481 -109 1013 -844 
L 513 -844 
Q 928 -128 1133 580 
Q 1338 1288 1338 2009 
Q 1338 2731 1133 3434 
Q 928 4138 513 4856 
z
" transform="scale(0.015625)"/>
      </defs>
      <use xlink:href="#DejaVuSans-41"/>
      <use xlink:href="#DejaVuSans-63" x="66.658203"/>
      <use xlink:href="#DejaVuSans-74" x="121.638672"/>
      <use xlink:href="#DejaVuSans-75" x="160.847656"/>
      <use xlink:href="#DejaVuSans-61" x="224.226562"/>
      <use xlink:href="#DejaVuSans-6c" x="285.505859"/>
      <use xlink:href="#DejaVuSans-20" x="313.289062"/>
      <use xlink:href="#DejaVuSans-4d" x="345.076172"/>
      <use xlink:href="#DejaVuSans-65" x="431.355469"/>
      <use xlink:href="#DejaVuSans-64" x="492.878906"/>
      <use xlink:href="#DejaVuSans-69" x="556.355469"/>
      <use xlink:href="#DejaVuSans-61" x="584.138672"/>
      <use xlink:href="#DejaVuSans-6e" x="645.417969"/>
      <use xlink:href="#DejaVuSans-20" x="708.796875"/>
      <use xlink:href="#DejaVuSans-53" x="740.583984"/>
      <use xlink:href="#DejaVuSans-61" x="804.060547"/>
      <use xlink:href="#DejaVuSans-6c" x="865.339844"/>
      <use xlink:href="#DejaVuSans-65" x="893.123047"/>
      <use xlink:href="#DejaVuSans-20" x="954.646484"/>
      <use xlink:href="#DejaVuSans-50" x="986.433594"/>
      <use xlink:href="#DejaVuSans-72" x="1044.986328"/>
      <use xlink:href="#DejaVuSans-69" x="1086.099609"/>
      <use xlink:href="#DejaVuSans-63" x="1113.882812"/>
      <use xlink:href="#DejaVuSans-65" x="1168.863281"/>
      <use xlink:href="#DejaVuSans-20" x="1230.386719"/>
      <use xlink:href="#DejaVuSans-28" x="1262.173828"/>
      <use xlink:href="#DejaVuSans-24" x="1301.1875"/>
      <use xlink:href="#DejaVuSans-2c" x="1364.810547"/>
      <use xlink:href="#DejaVuSans-20" x="1396.597656"/>
      <use xlink:href="#DejaVuSans-74" x="1428.384766"/>
      <use xlink:href="#DejaVuSans-68" x="1467.59375"/>
      <use xlink:href="#DejaVuSans-6f" x="1530.972656"/>
      <use xlink:href="#DejaVuSans-75" x="1592.154297"/>
      <use xlink:href="#DejaVuSans-73" x="1655.533203"/>
      <use xlink:href="#DejaVuSans-61" x="1707.632812"/>
      <use xlink:href="#DejaVuSans-6e" x="1768.912109"/>
      <use xlink:href="#DejaVuSans-64" x="1832.291016"/>
      <use xlink:href="#DejaVuSans-73" x="1895.767578"/>
      <use xlink:href="#DejaVuSans-29" x="1947.867188"/>
     </g>
    </g>
   </g>
   <g id="matplotlib.axis_2">
    <g id="ytick_1">
     <g id="line2d_10">
      <defs>
       <path id="m60e1e81568" d="M 0 0 
L -3.5 0 
" style="stroke: #000000; stroke-width: 0.8"/>
      </defs>
      <g>
       <use xlink:href="#m60e1e81568" x="66.4375" y="311.297314" style="stroke: #000000; stroke-width: 0.8"/>
      </g>
     </g>
     <g id="text_11">
      <!-- 500 -->
      <g transform="translate(40.35 315.096533) scale(0.1 -0.1)">
       <use xlink:href="#DejaVuSans-35"/>
       <use xlink:href="#DejaVuSans-30" x="63.623047"/>
       <use xlink:href="#DejaVuSans-30" x="127.246094"/>
      </g>
     </g>
    </g>
    <g id="ytick_2">
     <g id="line2d_11">
      <g>
       <use xlink:href="#m60e1e81568" x="66.4375" y="237.613682" style="stroke: #000000; stroke-width: 0.8"/>
      </g>
     </g>
     <g id="text_12">
      <!-- 600 -->
      <g transform="translate(40.35 241.4129) scale(0.1 -0.1)">
       <use xlink:href="#DejaVuSans-36"/>
       <use xlink:href="#DejaVuSans-30" x="63.623047"/>
       <use xlink:href="#DejaVuSans-30" x="127.246094"/>
      </g>
     </g>
    </g>
    <g id="ytick_3">
     <g id="line2d_12">
      <g>
       <use xlink:href="#m60e1e81568" x="66.4375" y="163.930049" style="stroke: #000000; stroke-width: 0.8"/>
      </g>
     </g>
     <g id="text_13">
      <!-- 700 -->
      <g transform="translate(40.35 167.729268) scale(0.1 -0.1)">
       <use xlink:href="#DejaVuSans-37"/>
       <use xlink:href="#DejaVuSans-30" x="63.623047"/>
       <use xlink:href="#DejaVuSans-30" x="127.246094"/>
      </g>
     </g>
    </g>
    <g id="ytick_4">
     <g id="line2d_13">
      <g>
       <use xlink:href="#m60e1e81568" x="66.4375" y="90.246417" style="stroke: #000000; stroke-width: 0.8"/>
      </g>
     </g>
     <g id="text_14">
      <!-- 800 -->
      <g transform="translate(40.35 94.045635) scale(0.1 -0.1)">
       <use xlink:href="#DejaVuSans-38"/>
       <use xlink:href="#DejaVuSans-30" x="63.623047"/>
       <use xlink:href="#DejaVuSans-30" x="127.246094"/>
      </g>
     </g>
    </g>
    <g id="text_15">
     <!-- Predicted Median Sale Price ($, thousands) -->
     <g transform="translate(33.854375 324.256562) rotate(-90) scale(0.12 -0.12)">
      <use xlink:href="#DejaVuSans-50"/>
      <use xlink:href="#DejaVuSans-72" x="58.552734"/>
      <use xlink:href="#DejaVuSans-65" x="97.416016"/>
      <use xlink:href="#DejaVuSans-64" x="158.939453"/>
      <use xlink:href="#DejaVuSans-69" x="222.416016"/>
      <use xlink:href="#DejaVuSans-63" x="250.199219"/>
      <use xlink:href="#DejaVuSans-74" x="305.179688"/>
      <use xlink:href="#DejaVuSans-65" x="344.388672"/>
      <use xlink:href="#DejaVuSans-64" x="405.912109"/>
      <use xlink:href="#DejaVuSans-20" x="469.388672"/>
      <use xlink:href="#DejaVuSans-4d" x="501.175781"/>
      <use xlink:href="#DejaVuSans-65" x="587.455078"/>
      <use xlink:href="#DejaVuSans-64" x="648.978516"/>
      <use xlink:href="#DejaVuSans-69" x="712.455078"/>
      <use xlink:href="#DejaVuSans-61" x="740.238281"/>
      <use xlink:href="#DejaVuSans-6e" x="801.517578"/>
      <use xlink:href="#DejaVuSans-20" x="864.896484"/>
      <use xlink:href="#DejaVuSans-53" x="896.683594"/>
      <use xlink:href="#DejaVuSans-61" x="960.160156"/>
      <use xlink:href="#DejaVuSans-6c" x="1021.439453"/>
      <use xlink:href="#DejaVuSans-65" x="1049.222656"/>
      <use xlink:href="#DejaVuSans-20" x="1110.746094"/>
      <use xlink:href="#DejaVuSans-50" x="1142.533203"/>
      <use xlink:href="#DejaVuSans-72" x="1201.085938"/>
      <use xlink:href="#DejaVuSans-69" x="1242.199219"/>
      <use xlink:href="#DejaVuSans-63" x="1269.982422"/>
      <use xlink:href="#DejaVuSans-65" x="1324.962891"/>
      <use xlink:href="#DejaVuSans-20" x="1386.486328"/>
      <use xlink:href="#DejaVuSans-28" x="1418.273438"/>
      <use xlink:href="#DejaVuSans-24" x="1457.287109"/>
      <use xlink:href="#DejaVuSans-2c" x="1520.910156"/>
      <use xlink:href="#DejaVuSans-20" x="1552.697266"/>
      <use xlink:href="#DejaVuSans-74" x="1584.484375"/>
      <use xlink:href="#DejaVuSans-68" x="1623.693359"/>
      <use xlink:href="#DejaVuSans-6f" x="1687.072266"/>
      <use xlink:href="#DejaVuSans-75" x="1748.253906"/>
      <use xlink:href="#DejaVuSans-73" x="1811.632812"/>
      <use xlink:href="#DejaVuSans-61" x="1863.732422"/>
      <use xlink:href="#DejaVuSans-6e" x="1925.011719"/>
      <use xlink:href="#DejaVuSans-64" x="1988.390625"/>
      <use xlink:href="#DejaVuSans-73" x="2051.867188"/>
      <use xlink:href="#DejaVuSans-29" x="2103.966797"/>
     </g>
    </g>
   </g>
   <g id="line2d_14">
    <path d="M 81.655682 338.272231 
L 84.730062 335.393379 
L 87.804442 332.514526 
L 90.878822 329.635673 
L 93.953202 326.756821 
L 97.027583 323.877968 
L 100.101963 320.999115 
L 103.176343 318.120262 
L 106.250723 315.24141 
L 109.325103 312.362557 
L 112.399483 309.483704 
L 115.473864 306.604852 
L 118.548244 303.725999 
L 121.622624 300.847146 
L 124.697004 297.968294 
L 127.771384 295.089441 
L 130.845764 292.210588 
L 133.920145 289.331735 
L 136.994525 286.452883 
L 140.068905 283.57403 
L 143.143285 280.695177 
L 146.217665 277.816325 
L 149.292045 274.937472 
L 152.366426 272.058619 
L 155.440806 269.179766 
L 158.515186 266.300914 
L 161.589566 263.422061 
L 164.663946 260.543208 
L 167.738326 257.664356 
L 170.812707 254.785503 
L 173.887087 251.90665 
L 176.961467 249.027798 
L 180.035847 246.148945 
L 183.110227 243.270092 
L 186.184607 240.391239 
L 189.258988 237.512387 
L 192.333368 234.633534 
L 195.407748 231.754681 
L 198.482128 228.875829 
L 201.556508 225.996976 
L 204.630888 223.118123 
L 207.705269 220.239271 
L 210.779649 217.360418 
L 213.854029 214.481565 
L 216.928409 211.602712 
L 220.002789 208.72386 
L 223.077169 205.845007 
L 226.15155 202.966154 
L 229.22593 200.087302 
L 232.30031 197.208449 
L 235.37469 194.329596 
L 238.44907 191.450744 
L 241.52345 188.571891 
L 244.597831 185.693038 
L 247.672211 182.814185 
L 250.746591 179.935333 
L 253.820971 177.05648 
L 256.895351 174.177627 
L 259.969731 171.298775 
L 263.044112 168.419922 
L 266.118492 165.541069 
L 269.192872 162.662216 
L 272.267252 159.783364 
L 275.341632 156.904511 
L 278.416012 154.025658 
L 281.490393 151.146806 
L 284.564773 148.267953 
L 287.639153 145.3891 
L 290.713533 142.510248 
L 293.787913 139.631395 
L 296.862293 136.752542 
L 299.936674 133.873689 
L 303.011054 130.994837 
L 306.085434 128.115984 
L 309.159814 125.237131 
L 312.234194 122.358279 
L 315.308574 119.479426 
L 318.382955 116.600573 
L 321.457335 113.721721 
L 324.531715 110.842868 
L 327.606095 107.964015 
L 330.680475 105.085162 
L 333.754855 102.20631 
L 336.829236 99.327457 
L 339.903616 96.448604 
L 342.977996 93.569752 
L 346.052376 90.690899 
L 349.126756 87.812046 
L 352.201136 84.933193 
L 355.275517 82.054341 
L 358.349897 79.175488 
L 361.424277 76.296635 
L 364.498657 73.417783 
L 367.573037 70.53893 
L 370.647417 67.660077 
L 373.721798 64.781225 
L 376.796178 61.902372 
L 379.870558 59.023519 
L 382.944938 56.144666 
L 386.019318 53.265814 
" clip-path="url(#p489e9f1230)" style="fill: none; stroke: #d62728; stroke-width: 2.25; stroke-linecap: square"/>
   </g>
   <g id="patch_3">
    <path d="M 66.4375 361.9975 
L 66.4375 29.3575 
" style="fill: none; stroke: #000000; stroke-width: 0.8; stroke-linejoin: miter; stroke-linecap: square"/>
   </g>
   <g id="patch_4">
    <path d="M 66.4375 361.9975 
L 401.2375 361.9975 
" style="fill: none; stroke: #000000; stroke-width: 0.8; stroke-linejoin: miter; stroke-linecap: square"/>
   </g>
   <g id="text_16">
    <!-- Lasso Regression: Predicted vs. Actual Median Sale Price -->
    <g transform="translate(7.2 19.3575) scale(0.16 -0.16)">
     <defs>
      <path id="DejaVuSans-4c" d="M 628 4666 
L 1259 4666 
L 1259 531 
L 3531 531 
L 3531 0 
L 628 0 
L 628 4666 
z
" transform="scale(0.015625)"/>
      <path id="DejaVuSans-52" d="M 2841 2188 
Q 3044 2119 3236 1894 
Q 3428 1669 3622 1275 
L 4263 0 
L 3584 0 
L 2988 1197 
Q 2756 1666 2539 1819 
Q 2322 1972 1947 1972 
L 1259 1972 
L 1259 0 
L 628 0 
L 628 4666 
L 2053 4666 
Q 2853 4666 3247 4331 
Q 3641 3997 3641 3322 
Q 3641 2881 3436 2590 
Q 3231 2300 2841 2188 
z
M 1259 4147 
L 1259 2491 
L 2053 2491 
Q 2509 2491 2742 2702 
Q 2975 2913 2975 3322 
Q 2975 3731 2742 3939 
Q 2509 4147 2053 4147 
L 1259 4147 
z
" transform="scale(0.015625)"/>
      <path id="DejaVuSans-67" d="M 2906 1791 
Q 2906 2416 2648 2759 
Q 2391 3103 1925 3103 
Q 1463 3103 1205 2759 
Q 947 2416 947 1791 
Q 947 1169 1205 825 
Q 1463 481 1925 481 
Q 2391 481 2648 825 
Q 2906 1169 2906 1791 
z
M 3481 434 
Q 3481 -459 3084 -895 
Q 2688 -1331 1869 -1331 
Q 1566 -1331 1297 -1286 
Q 1028 -1241 775 -1147 
L 775 -588 
Q 1028 -725 1275 -790 
Q 1522 -856 1778 -856 
Q 2344 -856 2625 -561 
Q 2906 -266 2906 331 
L 2906 616 
Q 2728 306 2450 153 
Q 2172 0 1784 0 
Q 1141 0 747 490 
Q 353 981 353 1791 
Q 353 2603 747 3093 
Q 1141 3584 1784 3584 
Q 2172 3584 2450 3431 
Q 2728 3278 2906 2969 
L 2906 3500 
L 3481 3500 
L 3481 434 
z
" transform="scale(0.015625)"/>
      <path id="DejaVuSans-3a" d="M 750 794 
L 1409 794 
L 1409 0 
L 750 0 
L 750 794 
z
M 750 3309 
L 1409 3309 
L 1409 2516 
L 750 2516 
L 750 3309 
z
" transform="scale(0.015625)"/>
      <path id="DejaVuSans-76" d="M 191 3500 
L 800 3500 
L 1894 563 
L 2988 3500 
L 3597 3500 
L 2284 0 
L 1503 0 
L 191 3500 
z
" transform="scale(0.015625)"/>
      <path id="DejaVuSans-2e" d="M 684 794 
L 1344 794 
L 1344 0 
L 684 0 
L 684 794 
z
" transform="scale(0.015625)"/>
     </defs>
     <use xlink:href="#DejaVuSans-4c"/>
     <use xlink:href="#DejaVuSans-61" x="55.712891"/>
     <use xlink:href="#DejaVuSans-73" x="116.992188"/>
     <use xlink:href="#DejaVuSans-73" x="169.091797"/>
     <use xlink:href="#DejaVuSans-6f" x="221.191406"/>
     <use xlink:href="#DejaVuSans-20" x="282.373047"/>
     <use xlink:href="#DejaVuSans-52" x="314.160156"/>
     <use xlink:href="#DejaVuSans-65" x="379.142578"/>
     <use xlink:href="#DejaVuSans-67" x="440.666016"/>
     <use xlink:href="#DejaVuSans-72" x="504.142578"/>
     <use xlink:href="#DejaVuSans-65" x="543.005859"/>
     <use xlink:href="#DejaVuSans-73" x="604.529297"/>
     <use xlink:href="#DejaVuSans-73" x="656.628906"/>
     <use xlink:href="#DejaVuSans-69" x="708.728516"/>
     <use xlink:href="#DejaVuSans-6f" x="736.511719"/>
     <use xlink:href="#DejaVuSans-6e" x="797.693359"/>
     <use xlink:href="#DejaVuSans-3a" x="861.072266"/>
     <use xlink:href="#DejaVuSans-20" x="894.763672"/>
     <use xlink:href="#DejaVuSans-50" x="926.550781"/>
     <use xlink:href="#DejaVuSans-72" x="985.103516"/>
     <use xlink:href="#DejaVuSans-65" x="1023.966797"/>
     <use xlink:href="#DejaVuSans-64" x="1085.490234"/>
     <use xlink:href="#DejaVuSans-69" x="1148.966797"/>
     <use xlink:href="#DejaVuSans-63" x="1176.75"/>
     <use xlink:href="#DejaVuSans-74" x="1231.730469"/>
     <use xlink:href="#DejaVuSans-65" x="1270.939453"/>
     <use xlink:href="#DejaVuSans-64" x="1332.462891"/>
     <use xlink:href="#DejaVuSans-20" x="1395.939453"/>
     <use xlink:href="#DejaVuSans-76" x="1427.726562"/>
     <use xlink:href="#DejaVuSans-73" x="1486.90625"/>
     <use xlink:href="#DejaVuSans-2e" x="1539.005859"/>
     <use xlink:href="#DejaVuSans-20" x="1570.792969"/>
     <use xlink:href="#DejaVuSans-41" x="1602.580078"/>
     <use xlink:href="#DejaVuSans-63" x="1669.238281"/>
     <use xlink:href="#DejaVuSans-74" x="1724.21875"/>
     <use xlink:href="#DejaVuSans-75" x="1763.427734"/>
     <use xlink:href="#DejaVuSans-61" x="1826.806641"/>
     <use xlink:href="#DejaVuSans-6c" x="1888.085938"/>
     <use xlink:href="#DejaVuSans-20" x="1915.869141"/>
     <use xlink:href="#DejaVuSans-4d" x="1947.65625"/>
     <use xlink:href="#DejaVuSans-65" x="2033.935547"/>
     <use xlink:href="#DejaVuSans-64" x="2095.458984"/>
     <use xlink:href="#DejaVuSans-69" x="2158.935547"/>
     <use xlink:href="#DejaVuSans-61" x="2186.71875"/>
     <use xlink:href="#DejaVuSans-6e" x="2247.998047"/>
     <use xlink:href="#DejaVuSans-20" x="2311.376953"/>
     <use xlink:href="#DejaVuSans-53" x="2343.164062"/>
     <use xlink:href="#DejaVuSans-61" x="2406.640625"/>
     <use xlink:href="#DejaVuSans-6c" x="2467.919922"/>
     <use xlink:href="#DejaVuSans-65" x="2495.703125"/>
     <use xlink:href="#DejaVuSans-20" x="2557.226562"/>
     <use xlink:href="#DejaVuSans-50" x="2589.013672"/>
     <use xlink:href="#DejaVuSans-72" x="2647.566406"/>
     <use xlink:href="#DejaVuSans-69" x="2688.679688"/>
     <use xlink:href="#DejaVuSans-63" x="2716.462891"/>
     <use xlink:href="#DejaVuSans-65" x="2771.443359"/>
    </g>
   </g>
  </g>
 </g>
 <defs>
  <clipPath id="p489e9f1230">
   <rect x="66.4375" y="29.3575" width="334.8" height="332.64"/>
  </clipPath>
 </defs>
</svg>
