<?xml version="1.0" encoding="utf-8" standalone="no"?>
<!DOCTYPE svg PUBLIC "-//W3C//DTD SVG 1.1//EN"
  "http://www.w3.org/Graphics/SVG/1.1/DTD/svg11.dtd">
<svg xmlns:xlink="http://www.w3.org/1999/xlink" width="391.747187pt" height="392.514375pt" viewBox="0 0 391.747187 392.514375" xmlns="http://www.w3.org/2000/svg" version="1.1">
 <metadata>
  <rdf:RDF xmlns:dc="http://purl.org/dc/elements/1.1/" xmlns:cc="http://creativecommons.org/ns#" xmlns:rdf="http://www.w3.org/1999/02/22-rdf-syntax-ns#">
   <cc:Work>
    <dc:type rdf:resource="http://purl.org/dc/dcmitype/StillImage"/>
    <dc:date>2023-12-12T20:59:26.215945</dc:date>
    <dc:format>image/svg+xml</dc:format>
    <dc:creator>
     <cc:Agent>
      <dc:title>Matplotlib v3.8.0, https://matplotlib.org/</dc:title>
     </cc:Agent>
    </dc:creator>
   </cc:Work>
  </rdf:RDF>
 </metadata>
 <defs>
  <style type="text/css">*{stroke-linejoin: round; stroke-linecap: butt}</style>
 </defs>
 <g id="figure_1">
  <g id="patch_1">
   <path d="M -0 392.514375 
L 391.747187 392.514375 
L 391.747187 0 
L -0 0 
z
" style="fill: #ffffff"/>
  </g>
  <g id="axes_1">
   <g id="patch_2">
    <path d="M 46.965625 354.958125 
L 381.765625 354.958125 
L 381.765625 22.318125 
L 46.965625 22.318125 
z
" style="fill: #ffffff"/>
   </g>
   <g id="PathCollection_1">
    <defs>
     <path id="m6debbf996b" d="M 0 3 
C 0.795609 3 1.55874 2.683901 2.12132 2.12132 
C 2.683901 1.55874 3 0.795609 3 0 
C 3 -0.795609 2.683901 -1.55874 2.12132 -2.12132 
C 1.55874 -2.683901 0.795609 -3 0 -3 
C -0.795609 -3 -1.55874 -2.683901 -2.12132 -2.12132 
C -2.683901 -1.55874 -3 -0.795609 -3 0 
C -3 0.795609 -2.683901 1.55874 -2.12132 2.12132 
C -1.55874 2.683901 -0.795609 3 0 3 
z
" style="stroke: #1f77b4; stroke-opacity: 0.5"/>
    </defs>
    <g clip-path="url(#p866c74a28f)">
     <use xlink:href="#m6debbf996b" x="136.41884" y="236.137695" style="fill: #1f77b4; fill-opacity: 0.5; stroke: #1f77b4; stroke-opacity: 0.5"/>
     <use xlink:href="#m6debbf996b" x="169.824605" y="198.755422" style="fill: #1f77b4; fill-opacity: 0.5; stroke: #1f77b4; stroke-opacity: 0.5"/>
     <use xlink:href="#m6debbf996b" x="299.717354" y="106.51799" style="fill: #1f77b4; fill-opacity: 0.5; stroke: #1f77b4; stroke-opacity: 0.5"/>
     <use xlink:href="#m6debbf996b" x="251.761523" y="141.389092" style="fill: #1f77b4; fill-opacity: 0.5; stroke: #1f77b4; stroke-opacity: 0.5"/>
     <use xlink:href="#m6debbf996b" x="317.799895" y="76.899111" style="fill: #1f77b4; fill-opacity: 0.5; stroke: #1f77b4; stroke-opacity: 0.5"/>
     <use xlink:href="#m6debbf996b" x="132.707088" y="246.641468" style="fill: #1f77b4; fill-opacity: 0.5; stroke: #1f77b4; stroke-opacity: 0.5"/>
     <use xlink:href="#m6debbf996b" x="167.597554" y="244.400447" style="fill: #1f77b4; fill-opacity: 0.5; stroke: #1f77b4; stroke-opacity: 0.5"/>
     <use xlink:href="#m6debbf996b" x="106.335093" y="246.952356" style="fill: #1f77b4; fill-opacity: 0.5; stroke: #1f77b4; stroke-opacity: 0.5"/>
     <use xlink:href="#m6debbf996b" x="143.842343" y="274.620856" style="fill: #1f77b4; fill-opacity: 0.5; stroke: #1f77b4; stroke-opacity: 0.5"/>
     <use xlink:href="#m6debbf996b" x="106.576357" y="239.748848" style="fill: #1f77b4; fill-opacity: 0.5; stroke: #1f77b4; stroke-opacity: 0.5"/>
     <use xlink:href="#m6debbf996b" x="188.383363" y="219.910207" style="fill: #1f77b4; fill-opacity: 0.5; stroke: #1f77b4; stroke-opacity: 0.5"/>
     <use xlink:href="#m6debbf996b" x="292.31241" y="85.421712" style="fill: #1f77b4; fill-opacity: 0.5; stroke: #1f77b4; stroke-opacity: 0.5"/>
     <use xlink:href="#m6debbf996b" x="255.157776" y="133.468868" style="fill: #1f77b4; fill-opacity: 0.5; stroke: #1f77b4; stroke-opacity: 0.5"/>
     <use xlink:href="#m6debbf996b" x="66.637909" y="339.838125" style="fill: #1f77b4; fill-opacity: 0.5; stroke: #1f77b4; stroke-opacity: 0.5"/>
     <use xlink:href="#m6debbf996b" x="329.392809" y="68.959046" style="fill: #1f77b4; fill-opacity: 0.5; stroke: #1f77b4; stroke-opacity: 0.5"/>
     <use xlink:href="#m6debbf996b" x="149.038796" y="205.780644" style="fill: #1f77b4; fill-opacity: 0.5; stroke: #1f77b4; stroke-opacity: 0.5"/>
     <use xlink:href="#m6debbf996b" x="143.099993" y="237.29804" style="fill: #1f77b4; fill-opacity: 0.5; stroke: #1f77b4; stroke-opacity: 0.5"/>
     <use xlink:href="#m6debbf996b" x="284.888907" y="133.881283" style="fill: #1f77b4; fill-opacity: 0.5; stroke: #1f77b4; stroke-opacity: 0.5"/>
     <use xlink:href="#m6debbf996b" x="329.429927" y="74.099631" style="fill: #1f77b4; fill-opacity: 0.5; stroke: #1f77b4; stroke-opacity: 0.5"/>
     <use xlink:href="#m6debbf996b" x="203.23037" y="172.55458" style="fill: #1f77b4; fill-opacity: 0.5; stroke: #1f77b4; stroke-opacity: 0.5"/>
     <use xlink:href="#m6debbf996b" x="154.04966" y="231.752033" style="fill: #1f77b4; fill-opacity: 0.5; stroke: #1f77b4; stroke-opacity: 0.5"/>
     <use xlink:href="#m6debbf996b" x="136.381723" y="241.135821" style="fill: #1f77b4; fill-opacity: 0.5; stroke: #1f77b4; stroke-opacity: 0.5"/>
     <use xlink:href="#m6debbf996b" x="198.776268" y="189.652476" style="fill: #1f77b4; fill-opacity: 0.5; stroke: #1f77b4; stroke-opacity: 0.5"/>
     <use xlink:href="#m6debbf996b" x="255.176335" y="156.76357" style="fill: #1f77b4; fill-opacity: 0.5; stroke: #1f77b4; stroke-opacity: 0.5"/>
     <use xlink:href="#m6debbf996b" x="296.024162" y="83.520743" style="fill: #1f77b4; fill-opacity: 0.5; stroke: #1f77b4; stroke-opacity: 0.5"/>
     <use xlink:href="#m6debbf996b" x="188.383363" y="194.474358" style="fill: #1f77b4; fill-opacity: 0.5; stroke: #1f77b4; stroke-opacity: 0.5"/>
     <use xlink:href="#m6debbf996b" x="196.058152" y="207.078016" style="fill: #1f77b4; fill-opacity: 0.5; stroke: #1f77b4; stroke-opacity: 0.5"/>
     <use xlink:href="#m6debbf996b" x="303.447665" y="79.005765" style="fill: #1f77b4; fill-opacity: 0.5; stroke: #1f77b4; stroke-opacity: 0.5"/>
     <use xlink:href="#m6debbf996b" x="142.172055" y="208.791642" style="fill: #1f77b4; fill-opacity: 0.5; stroke: #1f77b4; stroke-opacity: 0.5"/>
     <use xlink:href="#m6debbf996b" x="195.788308" y="212.712482" style="fill: #1f77b4; fill-opacity: 0.5; stroke: #1f77b4; stroke-opacity: 0.5"/>
     <use xlink:href="#m6debbf996b" x="270.0419" y="114.599107" style="fill: #1f77b4; fill-opacity: 0.5; stroke: #1f77b4; stroke-opacity: 0.5"/>
     <use xlink:href="#m6debbf996b" x="169.824605" y="219.694549" style="fill: #1f77b4; fill-opacity: 0.5; stroke: #1f77b4; stroke-opacity: 0.5"/>
     <use xlink:href="#m6debbf996b" x="281.177155" y="109.392534" style="fill: #1f77b4; fill-opacity: 0.5; stroke: #1f77b4; stroke-opacity: 0.5"/>
     <use xlink:href="#m6debbf996b" x="344.276933" y="72.716171" style="fill: #1f77b4; fill-opacity: 0.5; stroke: #1f77b4; stroke-opacity: 0.5"/>
     <use xlink:href="#m6debbf996b" x="366.547443" y="53.024935" style="fill: #1f77b4; fill-opacity: 0.5; stroke: #1f77b4; stroke-opacity: 0.5"/>
     <use xlink:href="#m6debbf996b" x="154.977598" y="241.330941" style="fill: #1f77b4; fill-opacity: 0.5; stroke: #1f77b4; stroke-opacity: 0.5"/>
     <use xlink:href="#m6debbf996b" x="363.206867" y="57.830501" style="fill: #1f77b4; fill-opacity: 0.5; stroke: #1f77b4; stroke-opacity: 0.5"/>
     <use xlink:href="#m6debbf996b" x="118.602432" y="211.059789" style="fill: #1f77b4; fill-opacity: 0.5; stroke: #1f77b4; stroke-opacity: 0.5"/>
     <use xlink:href="#m6debbf996b" x="292.223328" y="109.991647" style="fill: #1f77b4; fill-opacity: 0.5; stroke: #1f77b4; stroke-opacity: 0.5"/>
     <use xlink:href="#m6debbf996b" x="284.888907" y="92.917865" style="fill: #1f77b4; fill-opacity: 0.5; stroke: #1f77b4; stroke-opacity: 0.5"/>
     <use xlink:href="#m6debbf996b" x="195.806867" y="195.083849" style="fill: #1f77b4; fill-opacity: 0.5; stroke: #1f77b4; stroke-opacity: 0.5"/>
     <use xlink:href="#m6debbf996b" x="273.753652" y="140.744249" style="fill: #1f77b4; fill-opacity: 0.5; stroke: #1f77b4; stroke-opacity: 0.5"/>
     <use xlink:href="#m6debbf996b" x="329.429927" y="101.372599" style="fill: #1f77b4; fill-opacity: 0.5; stroke: #1f77b4; stroke-opacity: 0.5"/>
     <use xlink:href="#m6debbf996b" x="192.095115" y="186.757986" style="fill: #1f77b4; fill-opacity: 0.5; stroke: #1f77b4; stroke-opacity: 0.5"/>
     <use xlink:href="#m6debbf996b" x="151.265847" y="230.610637" style="fill: #1f77b4; fill-opacity: 0.5; stroke: #1f77b4; stroke-opacity: 0.5"/>
     <use xlink:href="#m6debbf996b" x="149.409971" y="218.276092" style="fill: #1f77b4; fill-opacity: 0.5; stroke: #1f77b4; stroke-opacity: 0.5"/>
     <use xlink:href="#m6debbf996b" x="166.112853" y="217.175903" style="fill: #1f77b4; fill-opacity: 0.5; stroke: #1f77b4; stroke-opacity: 0.5"/>
     <use xlink:href="#m6debbf996b" x="255.380481" y="174.124453" style="fill: #1f77b4; fill-opacity: 0.5; stroke: #1f77b4; stroke-opacity: 0.5"/>
     <use xlink:href="#m6debbf996b" x="162.029927" y="249.930394" style="fill: #1f77b4; fill-opacity: 0.5; stroke: #1f77b4; stroke-opacity: 0.5"/>
     <use xlink:href="#m6debbf996b" x="214.365625" y="192.491185" style="fill: #1f77b4; fill-opacity: 0.5; stroke: #1f77b4; stroke-opacity: 0.5"/>
     <use xlink:href="#m6debbf996b" x="121.571833" y="270.491495" style="fill: #1f77b4; fill-opacity: 0.5; stroke: #1f77b4; stroke-opacity: 0.5"/>
     <use xlink:href="#m6debbf996b" x="166.112853" y="229.520847" style="fill: #1f77b4; fill-opacity: 0.5; stroke: #1f77b4; stroke-opacity: 0.5"/>
     <use xlink:href="#m6debbf996b" x="177.953341" y="192.634304" style="fill: #1f77b4; fill-opacity: 0.5; stroke: #1f77b4; stroke-opacity: 0.5"/>
     <use xlink:href="#m6debbf996b" x="277.428286" y="132.166603" style="fill: #1f77b4; fill-opacity: 0.5; stroke: #1f77b4; stroke-opacity: 0.5"/>
     <use xlink:href="#m6debbf996b" x="262.618397" y="116.704269" style="fill: #1f77b4; fill-opacity: 0.5; stroke: #1f77b4; stroke-opacity: 0.5"/>
     <use xlink:href="#m6debbf996b" x="103.013075" y="257.379061" style="fill: #1f77b4; fill-opacity: 0.5; stroke: #1f77b4; stroke-opacity: 0.5"/>
     <use xlink:href="#m6debbf996b" x="206.942122" y="190.525874" style="fill: #1f77b4; fill-opacity: 0.5; stroke: #1f77b4; stroke-opacity: 0.5"/>
     <use xlink:href="#m6debbf996b" x="276.16629" y="126.312693" style="fill: #1f77b4; fill-opacity: 0.5; stroke: #1f77b4; stroke-opacity: 0.5"/>
     <use xlink:href="#m6debbf996b" x="106.724827" y="245.225858" style="fill: #1f77b4; fill-opacity: 0.5; stroke: #1f77b4; stroke-opacity: 0.5"/>
     <use xlink:href="#m6debbf996b" x="125.283585" y="263.918853" style="fill: #1f77b4; fill-opacity: 0.5; stroke: #1f77b4; stroke-opacity: 0.5"/>
     <use xlink:href="#m6debbf996b" x="251.483142" y="163.163104" style="fill: #1f77b4; fill-opacity: 0.5; stroke: #1f77b4; stroke-opacity: 0.5"/>
     <use xlink:href="#m6debbf996b" x="214.907541" y="165.029516" style="fill: #1f77b4; fill-opacity: 0.5; stroke: #1f77b4; stroke-opacity: 0.5"/>
     <use xlink:href="#m6debbf996b" x="273.753652" y="111.861172" style="fill: #1f77b4; fill-opacity: 0.5; stroke: #1f77b4; stroke-opacity: 0.5"/>
     <use xlink:href="#m6debbf996b" x="258.906645" y="131.888926" style="fill: #1f77b4; fill-opacity: 0.5; stroke: #1f77b4; stroke-opacity: 0.5"/>
     <use xlink:href="#m6debbf996b" x="113.034805" y="274.67425" style="fill: #1f77b4; fill-opacity: 0.5; stroke: #1f77b4; stroke-opacity: 0.5"/>
     <use xlink:href="#m6debbf996b" x="132.707088" y="298.988107" style="fill: #1f77b4; fill-opacity: 0.5; stroke: #1f77b4; stroke-opacity: 0.5"/>
     <use xlink:href="#m6debbf996b" x="331.656978" y="79.137445" style="fill: #1f77b4; fill-opacity: 0.5; stroke: #1f77b4; stroke-opacity: 0.5"/>
     <use xlink:href="#m6debbf996b" x="303.447665" y="88.326853" style="fill: #1f77b4; fill-opacity: 0.5; stroke: #1f77b4; stroke-opacity: 0.5"/>
     <use xlink:href="#m6debbf996b" x="136.511634" y="277.111055" style="fill: #1f77b4; fill-opacity: 0.5; stroke: #1f77b4; stroke-opacity: 0.5"/>
     <use xlink:href="#m6debbf996b" x="206.942122" y="217.641669" style="fill: #1f77b4; fill-opacity: 0.5; stroke: #1f77b4; stroke-opacity: 0.5"/>
     <use xlink:href="#m6debbf996b" x="344.258374" y="45.025154" style="fill: #1f77b4; fill-opacity: 0.5; stroke: #1f77b4; stroke-opacity: 0.5"/>
     <use xlink:href="#m6debbf996b" x="247.77139" y="125.416652" style="fill: #1f77b4; fill-opacity: 0.5; stroke: #1f77b4; stroke-opacity: 0.5"/>
     <use xlink:href="#m6debbf996b" x="162.401102" y="227.354367" style="fill: #1f77b4; fill-opacity: 0.5; stroke: #1f77b4; stroke-opacity: 0.5"/>
     <use xlink:href="#m6debbf996b" x="318.294672" y="91.503848" style="fill: #1f77b4; fill-opacity: 0.5; stroke: #1f77b4; stroke-opacity: 0.5"/>
     <use xlink:href="#m6debbf996b" x="163.143452" y="227.288795" style="fill: #1f77b4; fill-opacity: 0.5; stroke: #1f77b4; stroke-opacity: 0.5"/>
     <use xlink:href="#m6debbf996b" x="270.0419" y="115.819621" style="fill: #1f77b4; fill-opacity: 0.5; stroke: #1f77b4; stroke-opacity: 0.5"/>
     <use xlink:href="#m6debbf996b" x="114.14833" y="276.857558" style="fill: #1f77b4; fill-opacity: 0.5; stroke: #1f77b4; stroke-opacity: 0.5"/>
     <use xlink:href="#m6debbf996b" x="329.429927" y="83.049217" style="fill: #1f77b4; fill-opacity: 0.5; stroke: #1f77b4; stroke-opacity: 0.5"/>
     <use xlink:href="#m6debbf996b" x="149.465647" y="216.614649" style="fill: #1f77b4; fill-opacity: 0.5; stroke: #1f77b4; stroke-opacity: 0.5"/>
     <use xlink:href="#m6debbf996b" x="106.724827" y="303.991243" style="fill: #1f77b4; fill-opacity: 0.5; stroke: #1f77b4; stroke-opacity: 0.5"/>
     <use xlink:href="#m6debbf996b" x="170.529838" y="207.263488" style="fill: #1f77b4; fill-opacity: 0.5; stroke: #1f77b4; stroke-opacity: 0.5"/>
     <use xlink:href="#m6debbf996b" x="307.159417" y="101.10861" style="fill: #1f77b4; fill-opacity: 0.5; stroke: #1f77b4; stroke-opacity: 0.5"/>
     <use xlink:href="#m6debbf996b" x="314.58292" y="93.232571" style="fill: #1f77b4; fill-opacity: 0.5; stroke: #1f77b4; stroke-opacity: 0.5"/>
     <use xlink:href="#m6debbf996b" x="279.247044" y="151.836504" style="fill: #1f77b4; fill-opacity: 0.5; stroke: #1f77b4; stroke-opacity: 0.5"/>
     <use xlink:href="#m6debbf996b" x="203.23037" y="185.731291" style="fill: #1f77b4; fill-opacity: 0.5; stroke: #1f77b4; stroke-opacity: 0.5"/>
     <use xlink:href="#m6debbf996b" x="314.58292" y="91.213466" style="fill: #1f77b4; fill-opacity: 0.5; stroke: #1f77b4; stroke-opacity: 0.5"/>
     <use xlink:href="#m6debbf996b" x="110.436578" y="271.082742" style="fill: #1f77b4; fill-opacity: 0.5; stroke: #1f77b4; stroke-opacity: 0.5"/>
     <use xlink:href="#m6debbf996b" x="151.265847" y="235.942033" style="fill: #1f77b4; fill-opacity: 0.5; stroke: #1f77b4; stroke-opacity: 0.5"/>
     <use xlink:href="#m6debbf996b" x="247.400215" y="160.888955" style="fill: #1f77b4; fill-opacity: 0.5; stroke: #1f77b4; stroke-opacity: 0.5"/>
     <use xlink:href="#m6debbf996b" x="318.294672" y="89.35941" style="fill: #1f77b4; fill-opacity: 0.5; stroke: #1f77b4; stroke-opacity: 0.5"/>
     <use xlink:href="#m6debbf996b" x="62.183807" y="313.889409" style="fill: #1f77b4; fill-opacity: 0.5; stroke: #1f77b4; stroke-opacity: 0.5"/>
     <use xlink:href="#m6debbf996b" x="128.958219" y="276.317868" style="fill: #1f77b4; fill-opacity: 0.5; stroke: #1f77b4; stroke-opacity: 0.5"/>
     <use xlink:href="#m6debbf996b" x="273.753652" y="132.822508" style="fill: #1f77b4; fill-opacity: 0.5; stroke: #1f77b4; stroke-opacity: 0.5"/>
     <use xlink:href="#m6debbf996b" x="329.429927" y="80.337106" style="fill: #1f77b4; fill-opacity: 0.5; stroke: #1f77b4; stroke-opacity: 0.5"/>
     <use xlink:href="#m6debbf996b" x="117.860082" y="266.843701" style="fill: #1f77b4; fill-opacity: 0.5; stroke: #1f77b4; stroke-opacity: 0.5"/>
     <use xlink:href="#m6debbf996b" x="189.125714" y="184.602372" style="fill: #1f77b4; fill-opacity: 0.5; stroke: #1f77b4; stroke-opacity: 0.5"/>
     <use xlink:href="#m6debbf996b" x="279.803807" y="115.408476" style="fill: #1f77b4; fill-opacity: 0.5; stroke: #1f77b4; stroke-opacity: 0.5"/>
     <use xlink:href="#m6debbf996b" x="145.364162" y="230.623671" style="fill: #1f77b4; fill-opacity: 0.5; stroke: #1f77b4; stroke-opacity: 0.5"/>
     <use xlink:href="#m6debbf996b" x="199.518618" y="204.126206" style="fill: #1f77b4; fill-opacity: 0.5; stroke: #1f77b4; stroke-opacity: 0.5"/>
     <use xlink:href="#m6debbf996b" x="125.283585" y="269.207423" style="fill: #1f77b4; fill-opacity: 0.5; stroke: #1f77b4; stroke-opacity: 0.5"/>
     <use xlink:href="#m6debbf996b" x="275.605816" y="101.403797" style="fill: #1f77b4; fill-opacity: 0.5; stroke: #1f77b4; stroke-opacity: 0.5"/>
     <use xlink:href="#m6debbf996b" x="225.50088" y="180.327888" style="fill: #1f77b4; fill-opacity: 0.5; stroke: #1f77b4; stroke-opacity: 0.5"/>
     <use xlink:href="#m6debbf996b" x="99.301323" y="296.603739" style="fill: #1f77b4; fill-opacity: 0.5; stroke: #1f77b4; stroke-opacity: 0.5"/>
     <use xlink:href="#m6debbf996b" x="117.860082" y="244.136747" style="fill: #1f77b4; fill-opacity: 0.5; stroke: #1f77b4; stroke-opacity: 0.5"/>
     <use xlink:href="#m6debbf996b" x="314.58292" y="75.204642" style="fill: #1f77b4; fill-opacity: 0.5; stroke: #1f77b4; stroke-opacity: 0.5"/>
    </g>
   </g>
   <g id="PolyCollection_1">
    <path d="M 62.183807 304.484449 
L 62.183807 321.716037 
L 65.258187 318.873077 
L 68.332567 316.030117 
L 71.406947 313.187157 
L 74.481327 310.344197 
L 77.555708 307.501237 
L 80.630088 304.658277 
L 83.704468 301.815317 
L 86.778848 298.972356 
L 89.853228 296.128076 
L 92.927608 293.283449 
L 96.001989 290.438822 
L 99.076369 287.594195 
L 102.150749 284.749568 
L 105.225129 281.855639 
L 108.299509 278.94929 
L 111.373889 276.095382 
L 114.44827 273.248728 
L 117.52265 270.403375 
L 120.59703 267.558023 
L 123.67141 264.712671 
L 126.74579 261.867318 
L 129.82017 259.021724 
L 132.894551 256.175862 
L 135.968931 253.33 
L 139.043311 250.484051 
L 142.117691 247.636272 
L 145.192071 244.783188 
L 148.266451 242.015539 
L 151.340832 239.253106 
L 154.415212 236.411374 
L 157.489592 233.568255 
L 160.563972 230.763408 
L 163.638352 227.899909 
L 166.712732 225.0643 
L 169.787113 222.226531 
L 172.861493 219.348957 
L 175.935873 216.551914 
L 179.010253 213.751607 
L 182.084633 210.934976 
L 185.159013 208.113284 
L 188.233394 205.302123 
L 191.307774 202.485258 
L 194.382154 199.668314 
L 197.456534 196.895221 
L 200.530914 194.081835 
L 203.605294 191.3139 
L 206.679675 188.519104 
L 209.754055 185.670344 
L 212.828435 182.828871 
L 215.902815 180.080934 
L 218.977195 177.296003 
L 222.051575 174.514336 
L 225.125956 171.738156 
L 228.200336 169.001076 
L 231.274716 166.244776 
L 234.349096 163.486492 
L 237.423476 160.732089 
L 240.497856 158.010631 
L 243.572237 155.243833 
L 246.646617 152.513757 
L 249.720997 149.798194 
L 252.795377 147.13301 
L 255.869757 144.373829 
L 258.944137 141.646762 
L 262.018518 138.958256 
L 265.092898 136.27208 
L 268.167278 133.715788 
L 271.241658 131.123053 
L 274.316038 128.432655 
L 277.390418 125.727873 
L 280.464799 123.105376 
L 283.539179 120.381368 
L 286.613559 117.71862 
L 289.687939 115.104863 
L 292.762319 112.477347 
L 295.836699 109.782961 
L 298.91108 107.112827 
L 301.98546 104.458599 
L 305.05984 101.759359 
L 308.13422 99.054066 
L 311.2086 96.396806 
L 314.28298 93.73444 
L 317.357361 91.115627 
L 320.431741 88.490354 
L 323.506121 85.892412 
L 326.580501 83.369459 
L 329.654881 80.733391 
L 332.729261 78.094695 
L 335.803642 75.455953 
L 338.878022 72.817211 
L 341.952402 70.178468 
L 345.026782 67.540905 
L 348.101162 64.903834 
L 351.175542 62.276219 
L 354.249923 59.641717 
L 357.324303 57.053187 
L 360.398683 54.469936 
L 363.473063 51.895598 
L 366.547443 49.321259 
L 366.547443 37.438125 
L 366.547443 37.438125 
L 363.473063 40.209921 
L 360.398683 43.023938 
L 357.324303 45.87182 
L 354.249923 48.68437 
L 351.175542 51.553342 
L 348.101162 54.394946 
L 345.026782 57.210194 
L 341.952402 60.042566 
L 338.878022 62.834225 
L 335.803642 65.626392 
L 332.729261 68.451537 
L 329.654881 71.285871 
L 326.580501 74.100535 
L 323.506121 76.880977 
L 320.431741 79.714196 
L 317.357361 82.591442 
L 314.28298 85.413308 
L 311.2086 88.211177 
L 308.13422 91.007999 
L 305.05984 93.758624 
L 301.98546 96.52161 
L 298.91108 99.304307 
L 295.836699 102.051746 
L 292.762319 104.815506 
L 289.687939 107.612661 
L 286.613559 110.451238 
L 283.539179 113.321153 
L 280.464799 116.076234 
L 277.390418 118.835214 
L 274.316038 121.615517 
L 271.241658 124.313868 
L 268.167278 127.072299 
L 265.092898 129.901445 
L 262.018518 132.61043 
L 258.944137 135.29551 
L 255.869757 138.101749 
L 252.795377 140.89316 
L 249.720997 143.60722 
L 246.646617 146.312847 
L 243.572237 149.083565 
L 240.497856 151.808869 
L 237.423476 154.572031 
L 234.349096 157.268638 
L 231.274716 160.00752 
L 228.200336 162.711972 
L 225.125956 165.407972 
L 222.051575 168.051299 
L 218.977195 170.730709 
L 215.902815 173.441787 
L 212.828435 176.111105 
L 209.754055 178.77711 
L 206.679675 181.444768 
L 203.605294 184.12545 
L 200.530914 186.794763 
L 197.456534 189.439201 
L 194.382154 192.099979 
L 191.307774 194.730647 
L 188.233394 197.324469 
L 185.159013 199.948874 
L 182.084633 202.576175 
L 179.010253 205.178016 
L 175.935873 207.802355 
L 172.861493 210.401159 
L 169.787113 213.032707 
L 166.712732 215.651145 
L 163.638352 218.269584 
L 160.563972 220.897526 
L 157.489592 223.547267 
L 154.415212 226.167698 
L 151.340832 228.815376 
L 148.266451 231.463519 
L 145.192071 234.11182 
L 142.117691 236.760121 
L 139.043311 239.40782 
L 135.968931 242.055499 
L 132.894551 244.682053 
L 129.82017 247.272086 
L 126.74579 249.879842 
L 123.67141 252.502912 
L 120.59703 255.126078 
L 117.52265 257.741066 
L 114.44827 260.312089 
L 111.373889 262.891884 
L 108.299509 265.514531 
L 105.225129 268.145912 
L 102.150749 270.720499 
L 99.076369 273.283748 
L 96.001989 275.871526 
L 92.927608 278.485216 
L 89.853228 281.107823 
L 86.778848 283.758377 
L 83.704468 286.40893 
L 80.630088 289.001076 
L 77.555708 291.576435 
L 74.481327 294.162994 
L 71.406947 296.743358 
L 68.332567 299.323722 
L 65.258187 301.904086 
L 62.183807 304.484449 
z
" clip-path="url(#p866c74a28f)" style="fill: #d62728; fill-opacity: 0.15"/>
   </g>
   <g id="matplotlib.axis_1">
    <g id="xtick_1">
     <g id="line2d_1">
      <defs>
       <path id="me15f906808" d="M 0 0 
L 0 3.5 
" style="stroke: #000000; stroke-width: 0.8"/>
      </defs>
      <g>
       <use xlink:href="#me15f906808" x="106.724827" y="354.958125" style="stroke: #000000; stroke-width: 0.8"/>
      </g>
     </g>
     <g id="text_1">
      <!-- 500 -->
      <g transform="translate(97.181077 369.556562) scale(0.1 -0.1)">
       <defs>
        <path id="DejaVuSans-35" d="M 691 4666 
L 3169 4666 
L 3169 4134 
L 1269 4134 
L 1269 2991 
Q 1406 3038 1543 3061 
Q 1681 3084 1819 3084 
Q 2600 3084 3056 2656 
Q 3513 2228 3513 1497 
Q 3513 744 3044 326 
Q 2575 -91 1722 -91 
Q 1428 -91 1123 -41 
Q 819 9 494 109 
L 494 744 
Q 775 591 1075 516 
Q 1375 441 1709 441 
Q 2250 441 2565 725 
Q 2881 1009 2881 1497 
Q 2881 1984 2565 2268 
Q 2250 2553 1709 2553 
Q 1456 2553 1204 2497 
Q 953 2441 691 2322 
L 691 4666 
z
" transform="scale(0.015625)"/>
        <path id="DejaVuSans-30" d="M 2034 4250 
Q 1547 4250 1301 3770 
Q 1056 3291 1056 2328 
Q 1056 1369 1301 889 
Q 1547 409 2034 409 
Q 2525 409 2770 889 
Q 3016 1369 3016 2328 
Q 3016 3291 2770 3770 
Q 2525 4250 2034 4250 
z
M 2034 4750 
Q 2819 4750 3233 4129 
Q 3647 3509 3647 2328 
Q 3647 1150 3233 529 
Q 2819 -91 2034 -91 
Q 1250 -91 836 529 
Q 422 1150 422 2328 
Q 422 3509 836 4129 
Q 1250 4750 2034 4750 
z
" transform="scale(0.015625)"/>
       </defs>
       <use xlink:href="#DejaVuSans-35"/>
       <use xlink:href="#DejaVuSans-30" x="63.623047"/>
       <use xlink:href="#DejaVuSans-30" x="127.246094"/>
      </g>
     </g>
    </g>
    <g id="xtick_2">
     <g id="line2d_2">
      <g>
       <use xlink:href="#me15f906808" x="180.95986" y="354.958125" style="stroke: #000000; stroke-width: 0.8"/>
      </g>
     </g>
     <g id="text_2">
      <!-- 600 -->
      <g transform="translate(171.41611 369.556562) scale(0.1 -0.1)">
       <defs>
        <path id="DejaVuSans-36" d="M 2113 2584 
Q 1688 2584 1439 2293 
Q 1191 2003 1191 1497 
Q 1191 994 1439 701 
Q 1688 409 2113 409 
Q 2538 409 2786 701 
Q 3034 994 3034 1497 
Q 3034 2003 2786 2293 
Q 2538 2584 2113 2584 
z
M 3366 4563 
L 3366 3988 
Q 3128 4100 2886 4159 
Q 2644 4219 2406 4219 
Q 1781 4219 1451 3797 
Q 1122 3375 1075 2522 
Q 1259 2794 1537 2939 
Q 1816 3084 2150 3084 
Q 2853 3084 3261 2657 
Q 3669 2231 3669 1497 
Q 3669 778 3244 343 
Q 2819 -91 2113 -91 
Q 1303 -91 875 529 
Q 447 1150 447 2328 
Q 447 3434 972 4092 
Q 1497 4750 2381 4750 
Q 2619 4750 2861 4703 
Q 3103 4656 3366 4563 
z
" transform="scale(0.015625)"/>
       </defs>
       <use xlink:href="#DejaVuSans-36"/>
       <use xlink:href="#DejaVuSans-30" x="63.623047"/>
       <use xlink:href="#DejaVuSans-30" x="127.246094"/>
      </g>
     </g>
    </g>
    <g id="xtick_3">
     <g id="line2d_3">
      <g>
       <use xlink:href="#me15f906808" x="255.194893" y="354.958125" style="stroke: #000000; stroke-width: 0.8"/>
      </g>
     </g>
     <g id="text_3">
      <!-- 700 -->
      <g transform="translate(245.651143 369.556562) scale(0.1 -0.1)">
       <defs>
        <path id="DejaVuSans-37" d="M 525 4666 
L 3525 4666 
L 3525 4397 
L 1831 0 
L 1172 0 
L 2766 4134 
L 525 4134 
L 525 4666 
z
" transform="scale(0.015625)"/>
       </defs>
       <use xlink:href="#DejaVuSans-37"/>
       <use xlink:href="#DejaVuSans-30" x="63.623047"/>
       <use xlink:href="#DejaVuSans-30" x="127.246094"/>
      </g>
     </g>
    </g>
    <g id="xtick_4">
     <g id="line2d_4">
      <g>
       <use xlink:href="#me15f906808" x="329.429927" y="354.958125" style="stroke: #000000; stroke-width: 0.8"/>
      </g>
     </g>
     <g id="text_4">
      <!-- 800 -->
      <g transform="translate(319.886177 369.556562) scale(0.1 -0.1)">
       <defs>
        <path id="DejaVuSans-38" d="M 2034 2216 
Q 1584 2216 1326 1975 
Q 1069 1734 1069 1313 
Q 1069 891 1326 650 
Q 1584 409 2034 409 
Q 2484 409 2743 651 
Q 3003 894 3003 1313 
Q 3003 1734 2745 1975 
Q 2488 2216 2034 2216 
z
M 1403 2484 
Q 997 2584 770 2862 
Q 544 3141 544 3541 
Q 544 4100 942 4425 
Q 1341 4750 2034 4750 
Q 2731 4750 3128 4425 
Q 3525 4100 3525 3541 
Q 3525 3141 3298 2862 
Q 3072 2584 2669 2484 
Q 3125 2378 3379 2068 
Q 3634 1759 3634 1313 
Q 3634 634 3220 271 
Q 2806 -91 2034 -91 
Q 1263 -91 848 271 
Q 434 634 434 1313 
Q 434 1759 690 2068 
Q 947 2378 1403 2484 
z
M 1172 3481 
Q 1172 3119 1398 2916 
Q 1625 2713 2034 2713 
Q 2441 2713 2670 2916 
Q 2900 3119 2900 3481 
Q 2900 3844 2670 4047 
Q 2441 4250 2034 4250 
Q 1625 4250 1398 4047 
Q 1172 3844 1172 3481 
z
" transform="scale(0.015625)"/>
       </defs>
       <use xlink:href="#DejaVuSans-38"/>
       <use xlink:href="#DejaVuSans-30" x="63.623047"/>
       <use xlink:href="#DejaVuSans-30" x="127.246094"/>
      </g>
     </g>
    </g>
    <g id="text_5">
     <!-- Actual Data ($, thousands) -->
     <g transform="translate(147.350781 383.234687) scale(0.1 -0.1)">
      <defs>
       <path id="DejaVuSans-41" d="M 2188 4044 
L 1331 1722 
L 3047 1722 
L 2188 4044 
z
M 1831 4666 
L 2547 4666 
L 4325 0 
L 3669 0 
L 3244 1197 
L 1141 1197 
L 716 0 
L 50 0 
L 1831 4666 
z
" transform="scale(0.015625)"/>
       <path id="DejaVuSans-63" d="M 3122 3366 
L 3122 2828 
Q 2878 2963 2633 3030 
Q 2388 3097 2138 3097 
Q 1578 3097 1268 2742 
Q 959 2388 959 1747 
Q 959 1106 1268 751 
Q 1578 397 2138 397 
Q 2388 397 2633 464 
Q 2878 531 3122 666 
L 3122 134 
Q 2881 22 2623 -34 
Q 2366 -91 2075 -91 
Q 1284 -91 818 406 
Q 353 903 353 1747 
Q 353 2603 823 3093 
Q 1294 3584 2113 3584 
Q 2378 3584 2631 3529 
Q 2884 3475 3122 3366 
z
" transform="scale(0.015625)"/>
       <path id="DejaVuSans-74" d="M 1172 4494 
L 1172 3500 
L 2356 3500 
L 2356 3053 
L 1172 3053 
L 1172 1153 
Q 1172 725 1289 603 
Q 1406 481 1766 481 
L 2356 481 
L 2356 0 
L 1766 0 
Q 1100 0 847 248 
Q 594 497 594 1153 
L 594 3053 
L 172 3053 
L 172 3500 
L 594 3500 
L 594 4494 
L 1172 4494 
z
" transform="scale(0.015625)"/>
       <path id="DejaVuSans-75" d="M 544 1381 
L 544 3500 
L 1119 3500 
L 1119 1403 
Q 1119 906 1312 657 
Q 1506 409 1894 409 
Q 2359 409 2629 706 
Q 2900 1003 2900 1516 
L 2900 3500 
L 3475 3500 
L 3475 0 
L 2900 0 
L 2900 538 
Q 2691 219 2414 64 
Q 2138 -91 1772 -91 
Q 1169 -91 856 284 
Q 544 659 544 1381 
z
M 1991 3584 
L 1991 3584 
z
" transform="scale(0.015625)"/>
       <path id="DejaVuSans-61" d="M 2194 1759 
Q 1497 1759 1228 1600 
Q 959 1441 959 1056 
Q 959 750 1161 570 
Q 1363 391 1709 391 
Q 2188 391 2477 730 
Q 2766 1069 2766 1631 
L 2766 1759 
L 2194 1759 
z
M 3341 1997 
L 3341 0 
L 2766 0 
L 2766 531 
Q 2569 213 2275 61 
Q 1981 -91 1556 -91 
Q 1019 -91 701 211 
Q 384 513 384 1019 
Q 384 1609 779 1909 
Q 1175 2209 1959 2209 
L 2766 2209 
L 2766 2266 
Q 2766 2663 2505 2880 
Q 2244 3097 1772 3097 
Q 1472 3097 1187 3025 
Q 903 2953 641 2809 
L 641 3341 
Q 956 3463 1253 3523 
Q 1550 3584 1831 3584 
Q 2591 3584 2966 3190 
Q 3341 2797 3341 1997 
z
" transform="scale(0.015625)"/>
       <path id="DejaVuSans-6c" d="M 603 4863 
L 1178 4863 
L 1178 0 
L 603 0 
L 603 4863 
z
" transform="scale(0.015625)"/>
       <path id="DejaVuSans-20" transform="scale(0.015625)"/>
       <path id="DejaVuSans-44" d="M 1259 4147 
L 1259 519 
L 2022 519 
Q 2988 519 3436 956 
Q 3884 1394 3884 2338 
Q 3884 3275 3436 3711 
Q 2988 4147 2022 4147 
L 1259 4147 
z
M 628 4666 
L 1925 4666 
Q 3281 4666 3915 4102 
Q 4550 3538 4550 2338 
Q 4550 1131 3912 565 
Q 3275 0 1925 0 
L 628 0 
L 628 4666 
z
" transform="scale(0.015625)"/>
       <path id="DejaVuSans-28" d="M 1984 4856 
Q 1566 4138 1362 3434 
Q 1159 2731 1159 2009 
Q 1159 1288 1364 580 
Q 1569 -128 1984 -844 
L 1484 -844 
Q 1016 -109 783 600 
Q 550 1309 550 2009 
Q 550 2706 781 3412 
Q 1013 4119 1484 4856 
L 1984 4856 
z
" transform="scale(0.015625)"/>
       <path id="DejaVuSans-24" d="M 2163 -941 
L 1850 -941 
L 1847 0 
Q 1519 6 1191 76 
Q 863 147 531 288 
L 531 850 
Q 850 650 1176 548 
Q 1503 447 1850 444 
L 1850 1869 
Q 1159 1981 845 2250 
Q 531 2519 531 2988 
Q 531 3497 872 3790 
Q 1213 4084 1850 4128 
L 1850 4863 
L 2163 4863 
L 2163 4138 
Q 2453 4125 2725 4076 
Q 2997 4028 3256 3944 
L 3256 3397 
Q 2997 3528 2723 3600 
Q 2450 3672 2163 3684 
L 2163 2350 
Q 2872 2241 3206 1959 
Q 3541 1678 3541 1191 
Q 3541 663 3186 358 
Q 2831 53 2163 6 
L 2163 -941 
z
M 1850 2406 
L 1850 3688 
Q 1488 3647 1297 3481 
Q 1106 3316 1106 3041 
Q 1106 2772 1282 2622 
Q 1459 2472 1850 2406 
z
M 2163 1806 
L 2163 453 
Q 2559 506 2761 678 
Q 2963 850 2963 1131 
Q 2963 1406 2770 1568 
Q 2578 1731 2163 1806 
z
" transform="scale(0.015625)"/>
       <path id="DejaVuSans-2c" d="M 750 794 
L 1409 794 
L 1409 256 
L 897 -744 
L 494 -744 
L 750 256 
L 750 794 
z
" transform="scale(0.015625)"/>
       <path id="DejaVuSans-68" d="M 3513 2113 
L 3513 0 
L 2938 0 
L 2938 2094 
Q 2938 2591 2744 2837 
Q 2550 3084 2163 3084 
Q 1697 3084 1428 2787 
Q 1159 2491 1159 1978 
L 1159 0 
L 581 0 
L 581 4863 
L 1159 4863 
L 1159 2956 
Q 1366 3272 1645 3428 
Q 1925 3584 2291 3584 
Q 2894 3584 3203 3211 
Q 3513 2838 3513 2113 
z
" transform="scale(0.015625)"/>
       <path id="DejaVuSans-6f" d="M 1959 3097 
Q 1497 3097 1228 2736 
Q 959 2375 959 1747 
Q 959 1119 1226 758 
Q 1494 397 1959 397 
Q 2419 397 2687 759 
Q 2956 1122 2956 1747 
Q 2956 2369 2687 2733 
Q 2419 3097 1959 3097 
z
M 1959 3584 
Q 2709 3584 3137 3096 
Q 3566 2609 3566 1747 
Q 3566 888 3137 398 
Q 2709 -91 1959 -91 
Q 1206 -91 779 398 
Q 353 888 353 1747 
Q 353 2609 779 3096 
Q 1206 3584 1959 3584 
z
" transform="scale(0.015625)"/>
       <path id="DejaVuSans-73" d="M 2834 3397 
L 2834 2853 
Q 2591 2978 2328 3040 
Q 2066 3103 1784 3103 
Q 1356 3103 1142 2972 
Q 928 2841 928 2578 
Q 928 2378 1081 2264 
Q 1234 2150 1697 2047 
L 1894 2003 
Q 2506 1872 2764 1633 
Q 3022 1394 3022 966 
Q 3022 478 2636 193 
Q 2250 -91 1575 -91 
Q 1294 -91 989 -36 
Q 684 19 347 128 
L 347 722 
Q 666 556 975 473 
Q 1284 391 1588 391 
Q 1994 391 2212 530 
Q 2431 669 2431 922 
Q 2431 1156 2273 1281 
Q 2116 1406 1581 1522 
L 1381 1569 
Q 847 1681 609 1914 
Q 372 2147 372 2553 
Q 372 3047 722 3315 
Q 1072 3584 1716 3584 
Q 2034 3584 2315 3537 
Q 2597 3491 2834 3397 
z
" transform="scale(0.015625)"/>
       <path id="DejaVuSans-6e" d="M 3513 2113 
L 3513 0 
L 2938 0 
L 2938 2094 
Q 2938 2591 2744 2837 
Q 2550 3084 2163 3084 
Q 1697 3084 1428 2787 
Q 1159 2491 1159 1978 
L 1159 0 
L 581 0 
L 581 3500 
L 1159 3500 
L 1159 2956 
Q 1366 3272 1645 3428 
Q 1925 3584 2291 3584 
Q 2894 3584 3203 3211 
Q 3513 2838 3513 2113 
z
" transform="scale(0.015625)"/>
       <path id="DejaVuSans-64" d="M 2906 2969 
L 2906 4863 
L 3481 4863 
L 3481 0 
L 2906 0 
L 2906 525 
Q 2725 213 2448 61 
Q 2172 -91 1784 -91 
Q 1150 -91 751 415 
Q 353 922 353 1747 
Q 353 2572 751 3078 
Q 1150 3584 1784 3584 
Q 2172 3584 2448 3432 
Q 2725 3281 2906 2969 
z
M 947 1747 
Q 947 1113 1208 752 
Q 1469 391 1925 391 
Q 2381 391 2643 752 
Q 2906 1113 2906 1747 
Q 2906 2381 2643 2742 
Q 2381 3103 1925 3103 
Q 1469 3103 1208 2742 
Q 947 2381 947 1747 
z
" transform="scale(0.015625)"/>
       <path id="DejaVuSans-29" d="M 513 4856 
L 1013 4856 
Q 1481 4119 1714 3412 
Q 1947 2706 1947 2009 
Q 1947 1309 1714 600 
Q 1481 -109 1013 -844 
L 513 -844 
Q 928 -128 1133 580 
Q 1338 1288 1338 2009 
Q 1338 2731 1133 3434 
Q 928 4138 513 4856 
z
" transform="scale(0.015625)"/>
      </defs>
      <use xlink:href="#DejaVuSans-41"/>
      <use xlink:href="#DejaVuSans-63" x="66.658203"/>
      <use xlink:href="#DejaVuSans-74" x="121.638672"/>
      <use xlink:href="#DejaVuSans-75" x="160.847656"/>
      <use xlink:href="#DejaVuSans-61" x="224.226562"/>
      <use xlink:href="#DejaVuSans-6c" x="285.505859"/>
      <use xlink:href="#DejaVuSans-20" x="313.289062"/>
      <use xlink:href="#DejaVuSans-44" x="345.076172"/>
      <use xlink:href="#DejaVuSans-61" x="422.078125"/>
      <use xlink:href="#DejaVuSans-74" x="483.357422"/>
      <use xlink:href="#DejaVuSans-61" x="522.566406"/>
      <use xlink:href="#DejaVuSans-20" x="583.845703"/>
      <use xlink:href="#DejaVuSans-28" x="615.632812"/>
      <use xlink:href="#DejaVuSans-24" x="654.646484"/>
      <use xlink:href="#DejaVuSans-2c" x="718.269531"/>
      <use xlink:href="#DejaVuSans-20" x="750.056641"/>
      <use xlink:href="#DejaVuSans-74" x="781.84375"/>
      <use xlink:href="#DejaVuSans-68" x="821.052734"/>
      <use xlink:href="#DejaVuSans-6f" x="884.431641"/>
      <use xlink:href="#DejaVuSans-75" x="945.613281"/>
      <use xlink:href="#DejaVuSans-73" x="1008.992188"/>
      <use xlink:href="#DejaVuSans-61" x="1061.091797"/>
      <use xlink:href="#DejaVuSans-6e" x="1122.371094"/>
      <use xlink:href="#DejaVuSans-64" x="1185.75"/>
      <use xlink:href="#DejaVuSans-73" x="1249.226562"/>
      <use xlink:href="#DejaVuSans-29" x="1301.326172"/>
     </g>
    </g>
   </g>
   <g id="matplotlib.axis_2">
    <g id="ytick_1">
     <g id="line2d_5">
      <defs>
       <path id="m19556b66f0" d="M 0 0 
L -3.5 0 
" style="stroke: #000000; stroke-width: 0.8"/>
      </defs>
      <g>
       <use xlink:href="#m19556b66f0" x="46.965625" y="353.791713" style="stroke: #000000; stroke-width: 0.8"/>
      </g>
     </g>
     <g id="text_6">
      <!-- 400 -->
      <g transform="translate(20.878125 357.590931) scale(0.1 -0.1)">
       <defs>
        <path id="DejaVuSans-34" d="M 2419 4116 
L 825 1625 
L 2419 1625 
L 2419 4116 
z
M 2253 4666 
L 3047 4666 
L 3047 1625 
L 3713 1625 
L 3713 1100 
L 3047 1100 
L 3047 0 
L 2419 0 
L 2419 1100 
L 313 1100 
L 313 1709 
L 2253 4666 
z
" transform="scale(0.015625)"/>
       </defs>
       <use xlink:href="#DejaVuSans-34"/>
       <use xlink:href="#DejaVuSans-30" x="63.623047"/>
       <use xlink:href="#DejaVuSans-30" x="127.246094"/>
      </g>
     </g>
    </g>
    <g id="ytick_2">
     <g id="line2d_6">
      <g>
       <use xlink:href="#m19556b66f0" x="46.965625" y="282.941125" style="stroke: #000000; stroke-width: 0.8"/>
      </g>
     </g>
     <g id="text_7">
      <!-- 500 -->
      <g transform="translate(20.878125 286.740344) scale(0.1 -0.1)">
       <use xlink:href="#DejaVuSans-35"/>
       <use xlink:href="#DejaVuSans-30" x="63.623047"/>
       <use xlink:href="#DejaVuSans-30" x="127.246094"/>
      </g>
     </g>
    </g>
    <g id="ytick_3">
     <g id="line2d_7">
      <g>
       <use xlink:href="#m19556b66f0" x="46.965625" y="212.090538" style="stroke: #000000; stroke-width: 0.8"/>
      </g>
     </g>
     <g id="text_8">
      <!-- 600 -->
      <g transform="translate(20.878125 215.889757) scale(0.1 -0.1)">
       <use xlink:href="#DejaVuSans-36"/>
       <use xlink:href="#DejaVuSans-30" x="63.623047"/>
       <use xlink:href="#DejaVuSans-30" x="127.246094"/>
      </g>
     </g>
    </g>
    <g id="ytick_4">
     <g id="line2d_8">
      <g>
       <use xlink:href="#m19556b66f0" x="46.965625" y="141.23995" style="stroke: #000000; stroke-width: 0.8"/>
      </g>
     </g>
     <g id="text_9">
      <!-- 700 -->
      <g transform="translate(20.878125 145.039169) scale(0.1 -0.1)">
       <use xlink:href="#DejaVuSans-37"/>
       <use xlink:href="#DejaVuSans-30" x="63.623047"/>
       <use xlink:href="#DejaVuSans-30" x="127.246094"/>
      </g>
     </g>
    </g>
    <g id="ytick_5">
     <g id="line2d_9">
      <g>
       <use xlink:href="#m19556b66f0" x="46.965625" y="70.389363" style="stroke: #000000; stroke-width: 0.8"/>
      </g>
     </g>
     <g id="text_10">
      <!-- 800 -->
      <g transform="translate(20.878125 74.188582) scale(0.1 -0.1)">
       <use xlink:href="#DejaVuSans-38"/>
       <use xlink:href="#DejaVuSans-30" x="63.623047"/>
       <use xlink:href="#DejaVuSans-30" x="127.246094"/>
      </g>
     </g>
    </g>
    <g id="text_11">
     <!-- Predicted Data ($, thousands) -->
     <g transform="translate(14.798438 263.459219) rotate(-90) scale(0.1 -0.1)">
      <defs>
       <path id="DejaVuSans-50" d="M 1259 4147 
L 1259 2394 
L 2053 2394 
Q 2494 2394 2734 2622 
Q 2975 2850 2975 3272 
Q 2975 3691 2734 3919 
Q 2494 4147 2053 4147 
L 1259 4147 
z
M 628 4666 
L 2053 4666 
Q 2838 4666 3239 4311 
Q 3641 3956 3641 3272 
Q 3641 2581 3239 2228 
Q 2838 1875 2053 1875 
L 1259 1875 
L 1259 0 
L 628 0 
L 628 4666 
z
" transform="scale(0.015625)"/>
       <path id="DejaVuSans-72" d="M 2631 2963 
Q 2534 3019 2420 3045 
Q 2306 3072 2169 3072 
Q 1681 3072 1420 2755 
Q 1159 2438 1159 1844 
L 1159 0 
L 581 0 
L 581 3500 
L 1159 3500 
L 1159 2956 
Q 1341 3275 1631 3429 
Q 1922 3584 2338 3584 
Q 2397 3584 2469 3576 
Q 2541 3569 2628 3553 
L 2631 2963 
z
" transform="scale(0.015625)"/>
       <path id="DejaVuSans-65" d="M 3597 1894 
L 3597 1613 
L 953 1613 
Q 991 1019 1311 708 
Q 1631 397 2203 397 
Q 2534 397 2845 478 
Q 3156 559 3463 722 
L 3463 178 
Q 3153 47 2828 -22 
Q 2503 -91 2169 -91 
Q 1331 -91 842 396 
Q 353 884 353 1716 
Q 353 2575 817 3079 
Q 1281 3584 2069 3584 
Q 2775 3584 3186 3129 
Q 3597 2675 3597 1894 
z
M 3022 2063 
Q 3016 2534 2758 2815 
Q 2500 3097 2075 3097 
Q 1594 3097 1305 2825 
Q 1016 2553 972 2059 
L 3022 2063 
z
" transform="scale(0.015625)"/>
       <path id="DejaVuSans-69" d="M 603 3500 
L 1178 3500 
L 1178 0 
L 603 0 
L 603 3500 
z
M 603 4863 
L 1178 4863 
L 1178 4134 
L 603 4134 
L 603 4863 
z
" transform="scale(0.015625)"/>
      </defs>
      <use xlink:href="#DejaVuSans-50"/>
      <use xlink:href="#DejaVuSans-72" x="58.552734"/>
      <use xlink:href="#DejaVuSans-65" x="97.416016"/>
      <use xlink:href="#DejaVuSans-64" x="158.939453"/>
      <use xlink:href="#DejaVuSans-69" x="222.416016"/>
      <use xlink:href="#DejaVuSans-63" x="250.199219"/>
      <use xlink:href="#DejaVuSans-74" x="305.179688"/>
      <use xlink:href="#DejaVuSans-65" x="344.388672"/>
      <use xlink:href="#DejaVuSans-64" x="405.912109"/>
      <use xlink:href="#DejaVuSans-20" x="469.388672"/>
      <use xlink:href="#DejaVuSans-44" x="501.175781"/>
      <use xlink:href="#DejaVuSans-61" x="578.177734"/>
      <use xlink:href="#DejaVuSans-74" x="639.457031"/>
      <use xlink:href="#DejaVuSans-61" x="678.666016"/>
      <use xlink:href="#DejaVuSans-20" x="739.945312"/>
      <use xlink:href="#DejaVuSans-28" x="771.732422"/>
      <use xlink:href="#DejaVuSans-24" x="810.746094"/>
      <use xlink:href="#DejaVuSans-2c" x="874.369141"/>
      <use xlink:href="#DejaVuSans-20" x="906.15625"/>
      <use xlink:href="#DejaVuSans-74" x="937.943359"/>
      <use xlink:href="#DejaVuSans-68" x="977.152344"/>
      <use xlink:href="#DejaVuSans-6f" x="1040.53125"/>
      <use xlink:href="#DejaVuSans-75" x="1101.712891"/>
      <use xlink:href="#DejaVuSans-73" x="1165.091797"/>
      <use xlink:href="#DejaVuSans-61" x="1217.191406"/>
      <use xlink:href="#DejaVuSans-6e" x="1278.470703"/>
      <use xlink:href="#DejaVuSans-64" x="1341.849609"/>
      <use xlink:href="#DejaVuSans-73" x="1405.326172"/>
      <use xlink:href="#DejaVuSans-29" x="1457.425781"/>
     </g>
    </g>
   </g>
   <g id="line2d_10">
    <path d="M 62.183807 313.146661 
L 65.258187 310.420756 
L 68.332567 307.694851 
L 71.406947 304.968946 
L 74.481327 302.243041 
L 77.555708 299.517136 
L 80.630088 296.791231 
L 83.704468 294.065326 
L 86.778848 291.339422 
L 89.853228 288.613517 
L 92.927608 285.887612 
L 96.001989 283.161707 
L 99.076369 280.435802 
L 102.150749 277.709897 
L 105.225129 274.983992 
L 108.299509 272.258087 
L 111.373889 269.532183 
L 114.44827 266.806278 
L 117.52265 264.080373 
L 120.59703 261.354468 
L 123.67141 258.628563 
L 126.74579 255.902658 
L 129.82017 253.176753 
L 132.894551 250.450848 
L 135.968931 247.724943 
L 139.043311 244.999039 
L 142.117691 242.273134 
L 145.192071 239.547229 
L 148.266451 236.821324 
L 151.340832 234.095419 
L 154.415212 231.369514 
L 157.489592 228.643609 
L 160.563972 225.917704 
L 163.638352 223.1918 
L 166.712732 220.465895 
L 169.787113 217.73999 
L 172.861493 215.014085 
L 175.935873 212.28818 
L 179.010253 209.562275 
L 182.084633 206.83637 
L 185.159013 204.110465 
L 188.233394 201.384561 
L 191.307774 198.658656 
L 194.382154 195.932751 
L 197.456534 193.206846 
L 200.530914 190.480941 
L 203.605294 187.755036 
L 206.679675 185.029131 
L 209.754055 182.303226 
L 212.828435 179.577321 
L 215.902815 176.851417 
L 218.977195 174.125512 
L 222.051575 171.399607 
L 225.125956 168.673702 
L 228.200336 165.947797 
L 231.274716 163.221892 
L 234.349096 160.495987 
L 237.423476 157.770082 
L 240.497856 155.044178 
L 243.572237 152.318273 
L 246.646617 149.592368 
L 249.720997 146.866463 
L 252.795377 144.140558 
L 255.869757 141.414653 
L 258.944137 138.688748 
L 262.018518 135.962843 
L 265.092898 133.236938 
L 268.167278 130.511034 
L 271.241658 127.785129 
L 274.316038 125.059224 
L 277.390418 122.333319 
L 280.464799 119.607414 
L 283.539179 116.881509 
L 286.613559 114.155604 
L 289.687939 111.429699 
L 292.762319 108.703795 
L 295.836699 105.97789 
L 298.91108 103.251985 
L 301.98546 100.52608 
L 305.05984 97.800175 
L 308.13422 95.07427 
L 311.2086 92.348365 
L 314.28298 89.62246 
L 317.357361 86.896556 
L 320.431741 84.170651 
L 323.506121 81.444746 
L 326.580501 78.718841 
L 329.654881 75.992936 
L 332.729261 73.267031 
L 335.803642 70.541126 
L 338.878022 67.815221 
L 341.952402 65.089316 
L 345.026782 62.363412 
L 348.101162 59.637507 
L 351.175542 56.911602 
L 354.249923 54.185697 
L 357.324303 51.459792 
L 360.398683 48.733887 
L 363.473063 46.007982 
L 366.547443 43.282077 
" clip-path="url(#p866c74a28f)" style="fill: none; stroke: #d62728; stroke-width: 2.25; stroke-linecap: square"/>
   </g>
   <g id="patch_3">
    <path d="M 46.965625 354.958125 
L 46.965625 22.318125 
" style="fill: none; stroke: #000000; stroke-width: 0.8; stroke-linejoin: miter; stroke-linecap: square"/>
   </g>
   <g id="patch_4">
    <path d="M 46.965625 354.958125 
L 381.765625 354.958125 
" style="fill: none; stroke: #000000; stroke-width: 0.8; stroke-linejoin: miter; stroke-linecap: square"/>
   </g>
   <g id="text_12">
    <!-- Ridge Regression: Predicted vs. Actual Median Sale Price -->
    <g transform="translate(44.184063 16.318125) scale(0.12 -0.12)">
     <defs>
      <path id="DejaVuSans-52" d="M 2841 2188 
Q 3044 2119 3236 1894 
Q 3428 1669 3622 1275 
L 4263 0 
L 3584 0 
L 2988 1197 
Q 2756 1666 2539 1819 
Q 2322 1972 1947 1972 
L 1259 1972 
L 1259 0 
L 628 0 
L 628 4666 
L 2053 4666 
Q 2853 4666 3247 4331 
Q 3641 3997 3641 3322 
Q 3641 2881 3436 2590 
Q 3231 2300 2841 2188 
z
M 1259 4147 
L 1259 2491 
L 2053 2491 
Q 2509 2491 2742 2702 
Q 2975 2913 2975 3322 
Q 2975 3731 2742 3939 
Q 2509 4147 2053 4147 
L 1259 4147 
z
" transform="scale(0.015625)"/>
      <path id="DejaVuSans-67" d="M 2906 1791 
Q 2906 2416 2648 2759 
Q 2391 3103 1925 3103 
Q 1463 3103 1205 2759 
Q 947 2416 947 1791 
Q 947 1169 1205 825 
Q 1463 481 1925 481 
Q 2391 481 2648 825 
Q 2906 1169 2906 1791 
z
M 3481 434 
Q 3481 -459 3084 -895 
Q 2688 -1331 1869 -1331 
Q 1566 -1331 1297 -1286 
Q 1028 -1241 775 -1147 
L 775 -588 
Q 1028 -725 1275 -790 
Q 1522 -856 1778 -856 
Q 2344 -856 2625 -561 
Q 2906 -266 2906 331 
L 2906 616 
Q 2728 306 2450 153 
Q 2172 0 1784 0 
Q 1141 0 747 490 
Q 353 981 353 1791 
Q 353 2603 747 3093 
Q 1141 3584 1784 3584 
Q 2172 3584 2450 3431 
Q 2728 3278 2906 2969 
L 2906 3500 
L 3481 3500 
L 3481 434 
z
" transform="scale(0.015625)"/>
      <path id="DejaVuSans-3a" d="M 750 794 
L 1409 794 
L 1409 0 
L 750 0 
L 750 794 
z
M 750 3309 
L 1409 3309 
L 1409 2516 
L 750 2516 
L 750 3309 
z
" transform="scale(0.015625)"/>
      <path id="DejaVuSans-76" d="M 191 3500 
L 800 3500 
L 1894 563 
L 2988 3500 
L 3597 3500 
L 2284 0 
L 1503 0 
L 191 3500 
z
" transform="scale(0.015625)"/>
      <path id="DejaVuSans-2e" d="M 684 794 
L 1344 794 
L 1344 0 
L 684 0 
L 684 794 
z
" transform="scale(0.015625)"/>
      <path id="DejaVuSans-4d" d="M 628 4666 
L 1569 4666 
L 2759 1491 
L 3956 4666 
L 4897 4666 
L 4897 0 
L 4281 0 
L 4281 4097 
L 3078 897 
L 2444 897 
L 1241 4097 
L 1241 0 
L 628 0 
L 628 4666 
z
" transform="scale(0.015625)"/>
      <path id="DejaVuSans-53" d="M 3425 4513 
L 3425 3897 
Q 3066 4069 2747 4153 
Q 2428 4238 2131 4238 
Q 1616 4238 1336 4038 
Q 1056 3838 1056 3469 
Q 1056 3159 1242 3001 
Q 1428 2844 1947 2747 
L 2328 2669 
Q 3034 2534 3370 2195 
Q 3706 1856 3706 1288 
Q 3706 609 3251 259 
Q 2797 -91 1919 -91 
Q 1588 -91 1214 -16 
Q 841 59 441 206 
L 441 856 
Q 825 641 1194 531 
Q 1563 422 1919 422 
Q 2459 422 2753 634 
Q 3047 847 3047 1241 
Q 3047 1584 2836 1778 
Q 2625 1972 2144 2069 
L 1759 2144 
Q 1053 2284 737 2584 
Q 422 2884 422 3419 
Q 422 4038 858 4394 
Q 1294 4750 2059 4750 
Q 2388 4750 2728 4690 
Q 3069 4631 3425 4513 
z
" transform="scale(0.015625)"/>
     </defs>
     <use xlink:href="#DejaVuSans-52"/>
     <use xlink:href="#DejaVuSans-69" x="69.482422"/>
     <use xlink:href="#DejaVuSans-64" x="97.265625"/>
     <use xlink:href="#DejaVuSans-67" x="160.742188"/>
     <use xlink:href="#DejaVuSans-65" x="224.21875"/>
     <use xlink:href="#DejaVuSans-20" x="285.742188"/>
     <use xlink:href="#DejaVuSans-52" x="317.529297"/>
     <use xlink:href="#DejaVuSans-65" x="382.511719"/>
     <use xlink:href="#DejaVuSans-67" x="444.035156"/>
     <use xlink:href="#DejaVuSans-72" x="507.511719"/>
     <use xlink:href="#DejaVuSans-65" x="546.375"/>
     <use xlink:href="#DejaVuSans-73" x="607.898438"/>
     <use xlink:href="#DejaVuSans-73" x="659.998047"/>
     <use xlink:href="#DejaVuSans-69" x="712.097656"/>
     <use xlink:href="#DejaVuSans-6f" x="739.880859"/>
     <use xlink:href="#DejaVuSans-6e" x="801.0625"/>
     <use xlink:href="#DejaVuSans-3a" x="864.441406"/>
     <use xlink:href="#DejaVuSans-20" x="898.132812"/>
     <use xlink:href="#DejaVuSans-50" x="929.919922"/>
     <use xlink:href="#DejaVuSans-72" x="988.472656"/>
     <use xlink:href="#DejaVuSans-65" x="1027.335938"/>
     <use xlink:href="#DejaVuSans-64" x="1088.859375"/>
     <use xlink:href="#DejaVuSans-69" x="1152.335938"/>
     <use xlink:href="#DejaVuSans-63" x="1180.119141"/>
     <use xlink:href="#DejaVuSans-74" x="1235.099609"/>
     <use xlink:href="#DejaVuSans-65" x="1274.308594"/>
     <use xlink:href="#DejaVuSans-64" x="1335.832031"/>
     <use xlink:href="#DejaVuSans-20" x="1399.308594"/>
     <use xlink:href="#DejaVuSans-76" x="1431.095703"/>
     <use xlink:href="#DejaVuSans-73" x="1490.275391"/>
     <use xlink:href="#DejaVuSans-2e" x="1542.375"/>
     <use xlink:href="#DejaVuSans-20" x="1574.162109"/>
     <use xlink:href="#DejaVuSans-41" x="1605.949219"/>
     <use xlink:href="#DejaVuSans-63" x="1672.607422"/>
     <use xlink:href="#DejaVuSans-74" x="1727.587891"/>
     <use xlink:href="#DejaVuSans-75" x="1766.796875"/>
     <use xlink:href="#DejaVuSans-61" x="1830.175781"/>
     <use xlink:href="#DejaVuSans-6c" x="1891.455078"/>
     <use xlink:href="#DejaVuSans-20" x="1919.238281"/>
     <use xlink:href="#DejaVuSans-4d" x="1951.025391"/>
     <use xlink:href="#DejaVuSans-65" x="2037.304688"/>
     <use xlink:href="#DejaVuSans-64" x="2098.828125"/>
     <use xlink:href="#DejaVuSans-69" x="2162.304688"/>
     <use xlink:href="#DejaVuSans-61" x="2190.087891"/>
     <use xlink:href="#DejaVuSans-6e" x="2251.367188"/>
     <use xlink:href="#DejaVuSans-20" x="2314.746094"/>
     <use xlink:href="#DejaVuSans-53" x="2346.533203"/>
     <use xlink:href="#DejaVuSans-61" x="2410.009766"/>
     <use xlink:href="#DejaVuSans-6c" x="2471.289062"/>
     <use xlink:href="#DejaVuSans-65" x="2499.072266"/>
     <use xlink:href="#DejaVuSans-20" x="2560.595703"/>
     <use xlink:href="#DejaVuSans-50" x="2592.382812"/>
     <use xlink:href="#DejaVuSans-72" x="2650.935547"/>
     <use xlink:href="#DejaVuSans-69" x="2692.048828"/>
     <use xlink:href="#DejaVuSans-63" x="2719.832031"/>
     <use xlink:href="#DejaVuSans-65" x="2774.8125"/>
    </g>
   </g>
   <g id="legend_1">
    <g id="patch_5">
     <path d="M 53.965625 44.99625 
L 132.710938 44.99625 
Q 134.710938 44.99625 134.710938 42.99625 
L 134.710938 29.318125 
Q 134.710938 27.318125 132.710938 27.318125 
L 53.965625 27.318125 
Q 51.965625 27.318125 51.965625 29.318125 
L 51.965625 42.99625 
Q 51.965625 44.99625 53.965625 44.99625 
z
" style="fill: #ffffff; opacity: 0.8; stroke: #cccccc; stroke-linejoin: miter"/>
    </g>
    <g id="PathCollection_2">
     <g>
      <use xlink:href="#m6debbf996b" x="65.965625" y="36.291563" style="fill: #1f77b4; fill-opacity: 0.5; stroke: #1f77b4; stroke-opacity: 0.5"/>
     </g>
    </g>
    <g id="text_13">
     <!-- Test Data -->
     <g transform="translate(83.965625 38.916563) scale(0.1 -0.1)">
      <defs>
       <path id="DejaVuSans-54" d="M -19 4666 
L 3928 4666 
L 3928 4134 
L 2272 4134 
L 2272 0 
L 1638 0 
L 1638 4134 
L -19 4134 
L -19 4666 
z
" transform="scale(0.015625)"/>
      </defs>
      <use xlink:href="#DejaVuSans-54"/>
      <use xlink:href="#DejaVuSans-65" x="44.083984"/>
      <use xlink:href="#DejaVuSans-73" x="105.607422"/>
      <use xlink:href="#DejaVuSans-74" x="157.707031"/>
      <use xlink:href="#DejaVuSans-20" x="196.916016"/>
      <use xlink:href="#DejaVuSans-44" x="228.703125"/>
      <use xlink:href="#DejaVuSans-61" x="305.705078"/>
      <use xlink:href="#DejaVuSans-74" x="366.984375"/>
      <use xlink:href="#DejaVuSans-61" x="406.193359"/>
     </g>
    </g>
   </g>
  </g>
 </g>
 <defs>
  <clipPath id="p866c74a28f">
   <rect x="46.965625" y="22.318125" width="334.8" height="332.64"/>
  </clipPath>
 </defs>
</svg>
