<?xml version="1.0" encoding="utf-8" standalone="no"?>
<!DOCTYPE svg PUBLIC "-//W3C//DTD SVG 1.1//EN"
  "http://www.w3.org/Graphics/SVG/1.1/DTD/svg11.dtd">
<svg xmlns:xlink="http://www.w3.org/1999/xlink" width="397.1125pt" height="401.489375pt" viewBox="0 0 397.1125 401.489375" xmlns="http://www.w3.org/2000/svg" version="1.1">
 <metadata>
  <rdf:RDF xmlns:dc="http://purl.org/dc/elements/1.1/" xmlns:cc="http://creativecommons.org/ns#" xmlns:rdf="http://www.w3.org/1999/02/22-rdf-syntax-ns#">
   <cc:Work>
    <dc:type rdf:resource="http://purl.org/dc/dcmitype/StillImage"/>
    <dc:date>2023-12-12T19:52:51.497096</dc:date>
    <dc:format>image/svg+xml</dc:format>
    <dc:creator>
     <cc:Agent>
      <dc:title>Matplotlib v3.8.0, https://matplotlib.org/</dc:title>
     </cc:Agent>
    </dc:creator>
   </cc:Work>
  </rdf:RDF>
 </metadata>
 <defs>
  <style type="text/css">*{stroke-linejoin: round; stroke-linecap: butt}</style>
 </defs>
 <g id="figure_1">
  <g id="patch_1">
   <path d="M 0 401.489375 
L 397.1125 401.489375 
L 397.1125 0 
L 0 0 
z
" style="fill: #ffffff"/>
  </g>
  <g id="axes_1">
   <g id="patch_2">
    <path d="M 48.90125 361.9975 
L 383.70125 361.9975 
L 383.70125 29.3575 
L 48.90125 29.3575 
z
" style="fill: #ffffff"/>
   </g>
   <g id="PathCollection_1">
    <defs>
     <path id="m8070afd5df" d="M 0 5 
C 1.326016 5 2.597899 4.473168 3.535534 3.535534 
C 4.473168 2.597899 5 1.326016 5 0 
C 5 -1.326016 4.473168 -2.597899 3.535534 -3.535534 
C 2.597899 -4.473168 1.326016 -5 0 -5 
C -1.326016 -5 -2.597899 -4.473168 -3.535534 -3.535534 
C -4.473168 -2.597899 -5 -1.326016 -5 0 
C -5 1.326016 -4.473168 2.597899 -3.535534 3.535534 
C -2.597899 4.473168 -1.326016 5 0 5 
z
" style="stroke: #000000; stroke-opacity: 0.5"/>
    </defs>
    <g clip-path="url(#p4dfc87e88b)">
     <use xlink:href="#m8070afd5df" x="368.483068" y="44.4775" style="fill: #1f77b4; fill-opacity: 0.5; stroke: #000000; stroke-opacity: 0.5"/>
     <use xlink:href="#m8070afd5df" x="254.346705" y="113.574234" style="fill: #1f77b4; fill-opacity: 0.5; stroke: #000000; stroke-opacity: 0.5"/>
     <use xlink:href="#m8070afd5df" x="142.112614" y="124.784017" style="fill: #1f77b4; fill-opacity: 0.5; stroke: #000000; stroke-opacity: 0.5"/>
     <use xlink:href="#m8070afd5df" x="197.278523" y="127.052762" style="fill: #1f77b4; fill-opacity: 0.5; stroke: #000000; stroke-opacity: 0.5"/>
     <use xlink:href="#m8070afd5df" x="178.255795" y="307.959927" style="fill: #1f77b4; fill-opacity: 0.5; stroke: #000000; stroke-opacity: 0.5"/>
     <use xlink:href="#m8070afd5df" x="140.210341" y="223.701795" style="fill: #1f77b4; fill-opacity: 0.5; stroke: #000000; stroke-opacity: 0.5"/>
     <use xlink:href="#m8070afd5df" x="273.369432" y="228.021651" style="fill: #1f77b4; fill-opacity: 0.5; stroke: #000000; stroke-opacity: 0.5"/>
     <use xlink:href="#m8070afd5df" x="151.623977" y="239.024997" style="fill: #1f77b4; fill-opacity: 0.5; stroke: #000000; stroke-opacity: 0.5"/>
     <use xlink:href="#m8070afd5df" x="64.119432" y="252.090034" style="fill: #1f77b4; fill-opacity: 0.5; stroke: #000000; stroke-opacity: 0.5"/>
     <use xlink:href="#m8070afd5df" x="242.933068" y="193.815024" style="fill: #1f77b4; fill-opacity: 0.5; stroke: #000000; stroke-opacity: 0.5"/>
     <use xlink:href="#m8070afd5df" x="223.910341" y="153.158778" style="fill: #1f77b4; fill-opacity: 0.5; stroke: #000000; stroke-opacity: 0.5"/>
     <use xlink:href="#m8070afd5df" x="311.414886" y="162.567236" style="fill: #1f77b4; fill-opacity: 0.5; stroke: #000000; stroke-opacity: 0.5"/>
    </g>
   </g>
   <g id="PolyCollection_1">
    <path d="M 64.119432 172.645571 
L 64.119432 346.8775 
L 67.193812 343.878926 
L 70.268192 340.880352 
L 73.342572 337.881779 
L 76.416952 334.879333 
L 79.491333 331.87524 
L 82.565713 328.871147 
L 85.640093 325.867054 
L 88.714473 322.862961 
L 91.788853 319.858868 
L 94.863233 316.854775 
L 97.937614 313.850682 
L 101.011994 310.846589 
L 104.086374 307.842495 
L 107.160754 304.838402 
L 110.235134 301.834309 
L 113.309514 298.830216 
L 116.383895 296.123941 
L 119.458275 293.528093 
L 122.532655 290.981023 
L 125.607035 288.588258 
L 128.681415 286.228849 
L 131.755795 283.868461 
L 134.830176 281.428909 
L 137.904556 279.051303 
L 140.978936 275.668577 
L 144.053316 272.780445 
L 147.127696 269.581447 
L 150.202076 266.941725 
L 153.276457 264.734165 
L 156.350837 262.108909 
L 159.425217 259.839376 
L 162.499597 257.252095 
L 165.573977 254.388101 
L 168.648357 251.829666 
L 171.722738 249.493307 
L 174.797118 247.034153 
L 177.871498 244.643747 
L 180.945878 241.846438 
L 184.020258 239.156005 
L 187.094638 236.565479 
L 190.169019 234.261182 
L 193.243399 232.653503 
L 196.317779 230.280702 
L 199.392159 227.875507 
L 202.466539 225.626504 
L 205.540919 223.749512 
L 208.6153 222.62238 
L 211.68968 219.644189 
L 214.76406 217.655283 
L 217.83844 216.751705 
L 220.91282 215.399687 
L 223.9872 213.294295 
L 227.061581 211.905573 
L 230.135961 210.120084 
L 233.210341 208.626845 
L 236.284721 207.192782 
L 239.359101 205.775063 
L 242.433481 205.574667 
L 245.507862 204.845661 
L 248.582242 203.899725 
L 251.656622 202.842167 
L 254.731002 202.103088 
L 257.805382 201.361351 
L 260.879762 200.343343 
L 263.954143 199.556116 
L 267.028523 199.579917 
L 270.102903 199.221384 
L 273.177283 198.842222 
L 276.251663 198.658924 
L 279.326043 198.089595 
L 282.400424 197.406375 
L 285.474804 197.633323 
L 288.549184 197.33858 
L 291.623564 197.22496 
L 294.697944 197.141507 
L 297.772324 197.369613 
L 300.846705 197.629098 
L 303.921085 197.632937 
L 306.995465 197.230209 
L 310.069845 196.743774 
L 313.144225 196.37839 
L 316.218605 196.072618 
L 319.292986 196.096037 
L 322.367366 196.11578 
L 325.441746 196.135523 
L 328.516126 195.776263 
L 331.590506 195.199262 
L 334.664886 194.622261 
L 337.739267 194.333506 
L 340.813647 193.957364 
L 343.888027 194.226859 
L 346.962407 194.189965 
L 350.036787 194.127068 
L 353.111167 194.063944 
L 356.185548 194.309191 
L 359.259928 194.627925 
L 362.334308 194.426468 
L 365.408688 193.846953 
L 368.483068 193.952105 
L 368.483068 47.740235 
L 368.483068 47.740235 
L 365.408688 50.14107 
L 362.334308 52.474988 
L 359.259928 54.566295 
L 356.185548 56.903702 
L 353.111167 59.060227 
L 350.036787 61.210153 
L 346.962407 63.518912 
L 343.888027 66.322305 
L 340.813647 68.554641 
L 337.739267 70.534551 
L 334.664886 72.514461 
L 331.590506 74.494371 
L 328.516126 76.332074 
L 325.441746 78.376785 
L 322.367366 80.181614 
L 319.292986 82.027646 
L 316.218605 84.092029 
L 313.144225 86.350323 
L 310.069845 88.327758 
L 306.995465 90.875901 
L 303.921085 92.814865 
L 300.846705 94.75823 
L 297.772324 96.778511 
L 294.697944 98.635718 
L 291.623564 100.57974 
L 288.549184 102.732265 
L 285.474804 104.644028 
L 282.400424 106.703179 
L 279.326043 108.757145 
L 276.251663 110.880883 
L 273.177283 112.871361 
L 270.102903 114.922911 
L 267.028523 116.854697 
L 263.954143 119.03641 
L 260.879762 121.093159 
L 257.805382 123.15236 
L 254.731002 125.059921 
L 251.656622 126.598034 
L 248.582242 128.150857 
L 245.507862 129.811735 
L 242.433481 131.78471 
L 239.359101 133.759167 
L 236.284721 135.60279 
L 233.210341 137.358217 
L 230.135961 139.036361 
L 227.061581 140.466606 
L 223.9872 142.053438 
L 220.91282 143.508116 
L 217.83844 145.041515 
L 214.76406 146.580752 
L 211.68968 148.128572 
L 208.6153 149.046769 
L 205.540919 150.550119 
L 202.466539 151.670843 
L 199.392159 152.851089 
L 196.317779 154.2679 
L 193.243399 155.75728 
L 190.169019 157.481678 
L 187.094638 158.017922 
L 184.020258 159.304048 
L 180.945878 159.570225 
L 177.871498 160.69901 
L 174.797118 161.411757 
L 171.722738 162.201533 
L 168.648357 162.8022 
L 165.573977 164.094717 
L 162.499597 164.406884 
L 159.425217 164.906297 
L 156.350837 165.60462 
L 153.276457 166.298139 
L 150.202076 166.991658 
L 147.127696 167.690854 
L 144.053316 168.373103 
L 140.978936 169.090456 
L 137.904556 169.906303 
L 134.830176 170.492404 
L 131.755795 171.165376 
L 128.681415 171.868709 
L 125.607035 171.989565 
L 122.532655 172.731089 
L 119.458275 172.412888 
L 116.383895 173.053363 
L 113.309514 173.503416 
L 110.235134 173.606968 
L 107.160754 174.323613 
L 104.086374 174.797932 
L 101.011994 174.647567 
L 97.937614 174.471912 
L 94.863233 174.166869 
L 91.788853 173.774416 
L 88.714473 173.381963 
L 85.640093 173.238703 
L 82.565713 173.227925 
L 79.491333 173.217146 
L 76.416952 173.206368 
L 73.342572 173.109144 
L 70.268192 172.952804 
L 67.193812 172.717502 
L 64.119432 172.645571 
z
" clip-path="url(#p4dfc87e88b)" style="fill: #ff0000; fill-opacity: 0.15"/>
   </g>
   <g id="matplotlib.axis_1">
    <g id="xtick_1">
     <g id="line2d_1">
      <defs>
       <path id="m554830d2d9" d="M 0 0 
L 0 3.5 
" style="stroke: #000000; stroke-width: 0.8"/>
      </defs>
      <g>
       <use xlink:href="#m554830d2d9" x="64.119432" y="361.9975" style="stroke: #000000; stroke-width: 0.8"/>
      </g>
     </g>
     <g id="text_1">
      <!-- 650 -->
      <g transform="translate(54.575682 376.595937) scale(0.1 -0.1)">
       <defs>
        <path id="DejaVuSans-36" d="M 2113 2584 
Q 1688 2584 1439 2293 
Q 1191 2003 1191 1497 
Q 1191 994 1439 701 
Q 1688 409 2113 409 
Q 2538 409 2786 701 
Q 3034 994 3034 1497 
Q 3034 2003 2786 2293 
Q 2538 2584 2113 2584 
z
M 3366 4563 
L 3366 3988 
Q 3128 4100 2886 4159 
Q 2644 4219 2406 4219 
Q 1781 4219 1451 3797 
Q 1122 3375 1075 2522 
Q 1259 2794 1537 2939 
Q 1816 3084 2150 3084 
Q 2853 3084 3261 2657 
Q 3669 2231 3669 1497 
Q 3669 778 3244 343 
Q 2819 -91 2113 -91 
Q 1303 -91 875 529 
Q 447 1150 447 2328 
Q 447 3434 972 4092 
Q 1497 4750 2381 4750 
Q 2619 4750 2861 4703 
Q 3103 4656 3366 4563 
z
" transform="scale(0.015625)"/>
        <path id="DejaVuSans-35" d="M 691 4666 
L 3169 4666 
L 3169 4134 
L 1269 4134 
L 1269 2991 
Q 1406 3038 1543 3061 
Q 1681 3084 1819 3084 
Q 2600 3084 3056 2656 
Q 3513 2228 3513 1497 
Q 3513 744 3044 326 
Q 2575 -91 1722 -91 
Q 1428 -91 1123 -41 
Q 819 9 494 109 
L 494 744 
Q 775 591 1075 516 
Q 1375 441 1709 441 
Q 2250 441 2565 725 
Q 2881 1009 2881 1497 
Q 2881 1984 2565 2268 
Q 2250 2553 1709 2553 
Q 1456 2553 1204 2497 
Q 953 2441 691 2322 
L 691 4666 
z
" transform="scale(0.015625)"/>
        <path id="DejaVuSans-30" d="M 2034 4250 
Q 1547 4250 1301 3770 
Q 1056 3291 1056 2328 
Q 1056 1369 1301 889 
Q 1547 409 2034 409 
Q 2525 409 2770 889 
Q 3016 1369 3016 2328 
Q 3016 3291 2770 3770 
Q 2525 4250 2034 4250 
z
M 2034 4750 
Q 2819 4750 3233 4129 
Q 3647 3509 3647 2328 
Q 3647 1150 3233 529 
Q 2819 -91 2034 -91 
Q 1250 -91 836 529 
Q 422 1150 422 2328 
Q 422 3509 836 4129 
Q 1250 4750 2034 4750 
z
" transform="scale(0.015625)"/>
       </defs>
       <use xlink:href="#DejaVuSans-36"/>
       <use xlink:href="#DejaVuSans-35" x="63.623047"/>
       <use xlink:href="#DejaVuSans-30" x="127.246094"/>
      </g>
     </g>
    </g>
    <g id="xtick_2">
     <g id="line2d_2">
      <g>
       <use xlink:href="#m554830d2d9" x="102.164886" y="361.9975" style="stroke: #000000; stroke-width: 0.8"/>
      </g>
     </g>
     <g id="text_2">
      <!-- 660 -->
      <g transform="translate(92.621136 376.595937) scale(0.1 -0.1)">
       <use xlink:href="#DejaVuSans-36"/>
       <use xlink:href="#DejaVuSans-36" x="63.623047"/>
       <use xlink:href="#DejaVuSans-30" x="127.246094"/>
      </g>
     </g>
    </g>
    <g id="xtick_3">
     <g id="line2d_3">
      <g>
       <use xlink:href="#m554830d2d9" x="140.210341" y="361.9975" style="stroke: #000000; stroke-width: 0.8"/>
      </g>
     </g>
     <g id="text_3">
      <!-- 670 -->
      <g transform="translate(130.666591 376.595937) scale(0.1 -0.1)">
       <defs>
        <path id="DejaVuSans-37" d="M 525 4666 
L 3525 4666 
L 3525 4397 
L 1831 0 
L 1172 0 
L 2766 4134 
L 525 4134 
L 525 4666 
z
" transform="scale(0.015625)"/>
       </defs>
       <use xlink:href="#DejaVuSans-36"/>
       <use xlink:href="#DejaVuSans-37" x="63.623047"/>
       <use xlink:href="#DejaVuSans-30" x="127.246094"/>
      </g>
     </g>
    </g>
    <g id="xtick_4">
     <g id="line2d_4">
      <g>
       <use xlink:href="#m554830d2d9" x="178.255795" y="361.9975" style="stroke: #000000; stroke-width: 0.8"/>
      </g>
     </g>
     <g id="text_4">
      <!-- 680 -->
      <g transform="translate(168.712045 376.595937) scale(0.1 -0.1)">
       <defs>
        <path id="DejaVuSans-38" d="M 2034 2216 
Q 1584 2216 1326 1975 
Q 1069 1734 1069 1313 
Q 1069 891 1326 650 
Q 1584 409 2034 409 
Q 2484 409 2743 651 
Q 3003 894 3003 1313 
Q 3003 1734 2745 1975 
Q 2488 2216 2034 2216 
z
M 1403 2484 
Q 997 2584 770 2862 
Q 544 3141 544 3541 
Q 544 4100 942 4425 
Q 1341 4750 2034 4750 
Q 2731 4750 3128 4425 
Q 3525 4100 3525 3541 
Q 3525 3141 3298 2862 
Q 3072 2584 2669 2484 
Q 3125 2378 3379 2068 
Q 3634 1759 3634 1313 
Q 3634 634 3220 271 
Q 2806 -91 2034 -91 
Q 1263 -91 848 271 
Q 434 634 434 1313 
Q 434 1759 690 2068 
Q 947 2378 1403 2484 
z
M 1172 3481 
Q 1172 3119 1398 2916 
Q 1625 2713 2034 2713 
Q 2441 2713 2670 2916 
Q 2900 3119 2900 3481 
Q 2900 3844 2670 4047 
Q 2441 4250 2034 4250 
Q 1625 4250 1398 4047 
Q 1172 3844 1172 3481 
z
" transform="scale(0.015625)"/>
       </defs>
       <use xlink:href="#DejaVuSans-36"/>
       <use xlink:href="#DejaVuSans-38" x="63.623047"/>
       <use xlink:href="#DejaVuSans-30" x="127.246094"/>
      </g>
     </g>
    </g>
    <g id="xtick_5">
     <g id="line2d_5">
      <g>
       <use xlink:href="#m554830d2d9" x="216.30125" y="361.9975" style="stroke: #000000; stroke-width: 0.8"/>
      </g>
     </g>
     <g id="text_5">
      <!-- 690 -->
      <g transform="translate(206.7575 376.595937) scale(0.1 -0.1)">
       <defs>
        <path id="DejaVuSans-39" d="M 703 97 
L 703 672 
Q 941 559 1184 500 
Q 1428 441 1663 441 
Q 2288 441 2617 861 
Q 2947 1281 2994 2138 
Q 2813 1869 2534 1725 
Q 2256 1581 1919 1581 
Q 1219 1581 811 2004 
Q 403 2428 403 3163 
Q 403 3881 828 4315 
Q 1253 4750 1959 4750 
Q 2769 4750 3195 4129 
Q 3622 3509 3622 2328 
Q 3622 1225 3098 567 
Q 2575 -91 1691 -91 
Q 1453 -91 1209 -44 
Q 966 3 703 97 
z
M 1959 2075 
Q 2384 2075 2632 2365 
Q 2881 2656 2881 3163 
Q 2881 3666 2632 3958 
Q 2384 4250 1959 4250 
Q 1534 4250 1286 3958 
Q 1038 3666 1038 3163 
Q 1038 2656 1286 2365 
Q 1534 2075 1959 2075 
z
" transform="scale(0.015625)"/>
       </defs>
       <use xlink:href="#DejaVuSans-36"/>
       <use xlink:href="#DejaVuSans-39" x="63.623047"/>
       <use xlink:href="#DejaVuSans-30" x="127.246094"/>
      </g>
     </g>
    </g>
    <g id="xtick_6">
     <g id="line2d_6">
      <g>
       <use xlink:href="#m554830d2d9" x="254.346705" y="361.9975" style="stroke: #000000; stroke-width: 0.8"/>
      </g>
     </g>
     <g id="text_6">
      <!-- 700 -->
      <g transform="translate(244.802955 376.595937) scale(0.1 -0.1)">
       <use xlink:href="#DejaVuSans-37"/>
       <use xlink:href="#DejaVuSans-30" x="63.623047"/>
       <use xlink:href="#DejaVuSans-30" x="127.246094"/>
      </g>
     </g>
    </g>
    <g id="xtick_7">
     <g id="line2d_7">
      <g>
       <use xlink:href="#m554830d2d9" x="292.392159" y="361.9975" style="stroke: #000000; stroke-width: 0.8"/>
      </g>
     </g>
     <g id="text_7">
      <!-- 710 -->
      <g transform="translate(282.848409 376.595937) scale(0.1 -0.1)">
       <defs>
        <path id="DejaVuSans-31" d="M 794 531 
L 1825 531 
L 1825 4091 
L 703 3866 
L 703 4441 
L 1819 4666 
L 2450 4666 
L 2450 531 
L 3481 531 
L 3481 0 
L 794 0 
L 794 531 
z
" transform="scale(0.015625)"/>
       </defs>
       <use xlink:href="#DejaVuSans-37"/>
       <use xlink:href="#DejaVuSans-31" x="63.623047"/>
       <use xlink:href="#DejaVuSans-30" x="127.246094"/>
      </g>
     </g>
    </g>
    <g id="xtick_8">
     <g id="line2d_8">
      <g>
       <use xlink:href="#m554830d2d9" x="330.437614" y="361.9975" style="stroke: #000000; stroke-width: 0.8"/>
      </g>
     </g>
     <g id="text_8">
      <!-- 720 -->
      <g transform="translate(320.893864 376.595937) scale(0.1 -0.1)">
       <defs>
        <path id="DejaVuSans-32" d="M 1228 531 
L 3431 531 
L 3431 0 
L 469 0 
L 469 531 
Q 828 903 1448 1529 
Q 2069 2156 2228 2338 
Q 2531 2678 2651 2914 
Q 2772 3150 2772 3378 
Q 2772 3750 2511 3984 
Q 2250 4219 1831 4219 
Q 1534 4219 1204 4116 
Q 875 4013 500 3803 
L 500 4441 
Q 881 4594 1212 4672 
Q 1544 4750 1819 4750 
Q 2544 4750 2975 4387 
Q 3406 4025 3406 3419 
Q 3406 3131 3298 2873 
Q 3191 2616 2906 2266 
Q 2828 2175 2409 1742 
Q 1991 1309 1228 531 
z
" transform="scale(0.015625)"/>
       </defs>
       <use xlink:href="#DejaVuSans-37"/>
       <use xlink:href="#DejaVuSans-32" x="63.623047"/>
       <use xlink:href="#DejaVuSans-30" x="127.246094"/>
      </g>
     </g>
    </g>
    <g id="xtick_9">
     <g id="line2d_9">
      <g>
       <use xlink:href="#m554830d2d9" x="368.483068" y="361.9975" style="stroke: #000000; stroke-width: 0.8"/>
      </g>
     </g>
     <g id="text_9">
      <!-- 730 -->
      <g transform="translate(358.939318 376.595937) scale(0.1 -0.1)">
       <defs>
        <path id="DejaVuSans-33" d="M 2597 2516 
Q 3050 2419 3304 2112 
Q 3559 1806 3559 1356 
Q 3559 666 3084 287 
Q 2609 -91 1734 -91 
Q 1441 -91 1130 -33 
Q 819 25 488 141 
L 488 750 
Q 750 597 1062 519 
Q 1375 441 1716 441 
Q 2309 441 2620 675 
Q 2931 909 2931 1356 
Q 2931 1769 2642 2001 
Q 2353 2234 1838 2234 
L 1294 2234 
L 1294 2753 
L 1863 2753 
Q 2328 2753 2575 2939 
Q 2822 3125 2822 3475 
Q 2822 3834 2567 4026 
Q 2313 4219 1838 4219 
Q 1578 4219 1281 4162 
Q 984 4106 628 3988 
L 628 4550 
Q 988 4650 1302 4700 
Q 1616 4750 1894 4750 
Q 2613 4750 3031 4423 
Q 3450 4097 3450 3541 
Q 3450 3153 3228 2886 
Q 3006 2619 2597 2516 
z
" transform="scale(0.015625)"/>
       </defs>
       <use xlink:href="#DejaVuSans-37"/>
       <use xlink:href="#DejaVuSans-33" x="63.623047"/>
       <use xlink:href="#DejaVuSans-30" x="127.246094"/>
      </g>
     </g>
    </g>
    <g id="text_10">
     <!-- Actual Median Sale Price ($, thousands) -->
     <g transform="translate(97.089688 391.79375) scale(0.12 -0.12)">
      <defs>
       <path id="DejaVuSans-41" d="M 2188 4044 
L 1331 1722 
L 3047 1722 
L 2188 4044 
z
M 1831 4666 
L 2547 4666 
L 4325 0 
L 3669 0 
L 3244 1197 
L 1141 1197 
L 716 0 
L 50 0 
L 1831 4666 
z
" transform="scale(0.015625)"/>
       <path id="DejaVuSans-63" d="M 3122 3366 
L 3122 2828 
Q 2878 2963 2633 3030 
Q 2388 3097 2138 3097 
Q 1578 3097 1268 2742 
Q 959 2388 959 1747 
Q 959 1106 1268 751 
Q 1578 397 2138 397 
Q 2388 397 2633 464 
Q 2878 531 3122 666 
L 3122 134 
Q 2881 22 2623 -34 
Q 2366 -91 2075 -91 
Q 1284 -91 818 406 
Q 353 903 353 1747 
Q 353 2603 823 3093 
Q 1294 3584 2113 3584 
Q 2378 3584 2631 3529 
Q 2884 3475 3122 3366 
z
" transform="scale(0.015625)"/>
       <path id="DejaVuSans-74" d="M 1172 4494 
L 1172 3500 
L 2356 3500 
L 2356 3053 
L 1172 3053 
L 1172 1153 
Q 1172 725 1289 603 
Q 1406 481 1766 481 
L 2356 481 
L 2356 0 
L 1766 0 
Q 1100 0 847 248 
Q 594 497 594 1153 
L 594 3053 
L 172 3053 
L 172 3500 
L 594 3500 
L 594 4494 
L 1172 4494 
z
" transform="scale(0.015625)"/>
       <path id="DejaVuSans-75" d="M 544 1381 
L 544 3500 
L 1119 3500 
L 1119 1403 
Q 1119 906 1312 657 
Q 1506 409 1894 409 
Q 2359 409 2629 706 
Q 2900 1003 2900 1516 
L 2900 3500 
L 3475 3500 
L 3475 0 
L 2900 0 
L 2900 538 
Q 2691 219 2414 64 
Q 2138 -91 1772 -91 
Q 1169 -91 856 284 
Q 544 659 544 1381 
z
M 1991 3584 
L 1991 3584 
z
" transform="scale(0.015625)"/>
       <path id="DejaVuSans-61" d="M 2194 1759 
Q 1497 1759 1228 1600 
Q 959 1441 959 1056 
Q 959 750 1161 570 
Q 1363 391 1709 391 
Q 2188 391 2477 730 
Q 2766 1069 2766 1631 
L 2766 1759 
L 2194 1759 
z
M 3341 1997 
L 3341 0 
L 2766 0 
L 2766 531 
Q 2569 213 2275 61 
Q 1981 -91 1556 -91 
Q 1019 -91 701 211 
Q 384 513 384 1019 
Q 384 1609 779 1909 
Q 1175 2209 1959 2209 
L 2766 2209 
L 2766 2266 
Q 2766 2663 2505 2880 
Q 2244 3097 1772 3097 
Q 1472 3097 1187 3025 
Q 903 2953 641 2809 
L 641 3341 
Q 956 3463 1253 3523 
Q 1550 3584 1831 3584 
Q 2591 3584 2966 3190 
Q 3341 2797 3341 1997 
z
" transform="scale(0.015625)"/>
       <path id="DejaVuSans-6c" d="M 603 4863 
L 1178 4863 
L 1178 0 
L 603 0 
L 603 4863 
z
" transform="scale(0.015625)"/>
       <path id="DejaVuSans-20" transform="scale(0.015625)"/>
       <path id="DejaVuSans-4d" d="M 628 4666 
L 1569 4666 
L 2759 1491 
L 3956 4666 
L 4897 4666 
L 4897 0 
L 4281 0 
L 4281 4097 
L 3078 897 
L 2444 897 
L 1241 4097 
L 1241 0 
L 628 0 
L 628 4666 
z
" transform="scale(0.015625)"/>
       <path id="DejaVuSans-65" d="M 3597 1894 
L 3597 1613 
L 953 1613 
Q 991 1019 1311 708 
Q 1631 397 2203 397 
Q 2534 397 2845 478 
Q 3156 559 3463 722 
L 3463 178 
Q 3153 47 2828 -22 
Q 2503 -91 2169 -91 
Q 1331 -91 842 396 
Q 353 884 353 1716 
Q 353 2575 817 3079 
Q 1281 3584 2069 3584 
Q 2775 3584 3186 3129 
Q 3597 2675 3597 1894 
z
M 3022 2063 
Q 3016 2534 2758 2815 
Q 2500 3097 2075 3097 
Q 1594 3097 1305 2825 
Q 1016 2553 972 2059 
L 3022 2063 
z
" transform="scale(0.015625)"/>
       <path id="DejaVuSans-64" d="M 2906 2969 
L 2906 4863 
L 3481 4863 
L 3481 0 
L 2906 0 
L 2906 525 
Q 2725 213 2448 61 
Q 2172 -91 1784 -91 
Q 1150 -91 751 415 
Q 353 922 353 1747 
Q 353 2572 751 3078 
Q 1150 3584 1784 3584 
Q 2172 3584 2448 3432 
Q 2725 3281 2906 2969 
z
M 947 1747 
Q 947 1113 1208 752 
Q 1469 391 1925 391 
Q 2381 391 2643 752 
Q 2906 1113 2906 1747 
Q 2906 2381 2643 2742 
Q 2381 3103 1925 3103 
Q 1469 3103 1208 2742 
Q 947 2381 947 1747 
z
" transform="scale(0.015625)"/>
       <path id="DejaVuSans-69" d="M 603 3500 
L 1178 3500 
L 1178 0 
L 603 0 
L 603 3500 
z
M 603 4863 
L 1178 4863 
L 1178 4134 
L 603 4134 
L 603 4863 
z
" transform="scale(0.015625)"/>
       <path id="DejaVuSans-6e" d="M 3513 2113 
L 3513 0 
L 2938 0 
L 2938 2094 
Q 2938 2591 2744 2837 
Q 2550 3084 2163 3084 
Q 1697 3084 1428 2787 
Q 1159 2491 1159 1978 
L 1159 0 
L 581 0 
L 581 3500 
L 1159 3500 
L 1159 2956 
Q 1366 3272 1645 3428 
Q 1925 3584 2291 3584 
Q 2894 3584 3203 3211 
Q 3513 2838 3513 2113 
z
" transform="scale(0.015625)"/>
       <path id="DejaVuSans-53" d="M 3425 4513 
L 3425 3897 
Q 3066 4069 2747 4153 
Q 2428 4238 2131 4238 
Q 1616 4238 1336 4038 
Q 1056 3838 1056 3469 
Q 1056 3159 1242 3001 
Q 1428 2844 1947 2747 
L 2328 2669 
Q 3034 2534 3370 2195 
Q 3706 1856 3706 1288 
Q 3706 609 3251 259 
Q 2797 -91 1919 -91 
Q 1588 -91 1214 -16 
Q 841 59 441 206 
L 441 856 
Q 825 641 1194 531 
Q 1563 422 1919 422 
Q 2459 422 2753 634 
Q 3047 847 3047 1241 
Q 3047 1584 2836 1778 
Q 2625 1972 2144 2069 
L 1759 2144 
Q 1053 2284 737 2584 
Q 422 2884 422 3419 
Q 422 4038 858 4394 
Q 1294 4750 2059 4750 
Q 2388 4750 2728 4690 
Q 3069 4631 3425 4513 
z
" transform="scale(0.015625)"/>
       <path id="DejaVuSans-50" d="M 1259 4147 
L 1259 2394 
L 2053 2394 
Q 2494 2394 2734 2622 
Q 2975 2850 2975 3272 
Q 2975 3691 2734 3919 
Q 2494 4147 2053 4147 
L 1259 4147 
z
M 628 4666 
L 2053 4666 
Q 2838 4666 3239 4311 
Q 3641 3956 3641 3272 
Q 3641 2581 3239 2228 
Q 2838 1875 2053 1875 
L 1259 1875 
L 1259 0 
L 628 0 
L 628 4666 
z
" transform="scale(0.015625)"/>
       <path id="DejaVuSans-72" d="M 2631 2963 
Q 2534 3019 2420 3045 
Q 2306 3072 2169 3072 
Q 1681 3072 1420 2755 
Q 1159 2438 1159 1844 
L 1159 0 
L 581 0 
L 581 3500 
L 1159 3500 
L 1159 2956 
Q 1341 3275 1631 3429 
Q 1922 3584 2338 3584 
Q 2397 3584 2469 3576 
Q 2541 3569 2628 3553 
L 2631 2963 
z
" transform="scale(0.015625)"/>
       <path id="DejaVuSans-28" d="M 1984 4856 
Q 1566 4138 1362 3434 
Q 1159 2731 1159 2009 
Q 1159 1288 1364 580 
Q 1569 -128 1984 -844 
L 1484 -844 
Q 1016 -109 783 600 
Q 550 1309 550 2009 
Q 550 2706 781 3412 
Q 1013 4119 1484 4856 
L 1984 4856 
z
" transform="scale(0.015625)"/>
       <path id="DejaVuSans-24" d="M 2163 -941 
L 1850 -941 
L 1847 0 
Q 1519 6 1191 76 
Q 863 147 531 288 
L 531 850 
Q 850 650 1176 548 
Q 1503 447 1850 444 
L 1850 1869 
Q 1159 1981 845 2250 
Q 531 2519 531 2988 
Q 531 3497 872 3790 
Q 1213 4084 1850 4128 
L 1850 4863 
L 2163 4863 
L 2163 4138 
Q 2453 4125 2725 4076 
Q 2997 4028 3256 3944 
L 3256 3397 
Q 2997 3528 2723 3600 
Q 2450 3672 2163 3684 
L 2163 2350 
Q 2872 2241 3206 1959 
Q 3541 1678 3541 1191 
Q 3541 663 3186 358 
Q 2831 53 2163 6 
L 2163 -941 
z
M 1850 2406 
L 1850 3688 
Q 1488 3647 1297 3481 
Q 1106 3316 1106 3041 
Q 1106 2772 1282 2622 
Q 1459 2472 1850 2406 
z
M 2163 1806 
L 2163 453 
Q 2559 506 2761 678 
Q 2963 850 2963 1131 
Q 2963 1406 2770 1568 
Q 2578 1731 2163 1806 
z
" transform="scale(0.015625)"/>
       <path id="DejaVuSans-2c" d="M 750 794 
L 1409 794 
L 1409 256 
L 897 -744 
L 494 -744 
L 750 256 
L 750 794 
z
" transform="scale(0.015625)"/>
       <path id="DejaVuSans-68" d="M 3513 2113 
L 3513 0 
L 2938 0 
L 2938 2094 
Q 2938 2591 2744 2837 
Q 2550 3084 2163 3084 
Q 1697 3084 1428 2787 
Q 1159 2491 1159 1978 
L 1159 0 
L 581 0 
L 581 4863 
L 1159 4863 
L 1159 2956 
Q 1366 3272 1645 3428 
Q 1925 3584 2291 3584 
Q 2894 3584 3203 3211 
Q 3513 2838 3513 2113 
z
" transform="scale(0.015625)"/>
       <path id="DejaVuSans-6f" d="M 1959 3097 
Q 1497 3097 1228 2736 
Q 959 2375 959 1747 
Q 959 1119 1226 758 
Q 1494 397 1959 397 
Q 2419 397 2687 759 
Q 2956 1122 2956 1747 
Q 2956 2369 2687 2733 
Q 2419 3097 1959 3097 
z
M 1959 3584 
Q 2709 3584 3137 3096 
Q 3566 2609 3566 1747 
Q 3566 888 3137 398 
Q 2709 -91 1959 -91 
Q 1206 -91 779 398 
Q 353 888 353 1747 
Q 353 2609 779 3096 
Q 1206 3584 1959 3584 
z
" transform="scale(0.015625)"/>
       <path id="DejaVuSans-73" d="M 2834 3397 
L 2834 2853 
Q 2591 2978 2328 3040 
Q 2066 3103 1784 3103 
Q 1356 3103 1142 2972 
Q 928 2841 928 2578 
Q 928 2378 1081 2264 
Q 1234 2150 1697 2047 
L 1894 2003 
Q 2506 1872 2764 1633 
Q 3022 1394 3022 966 
Q 3022 478 2636 193 
Q 2250 -91 1575 -91 
Q 1294 -91 989 -36 
Q 684 19 347 128 
L 347 722 
Q 666 556 975 473 
Q 1284 391 1588 391 
Q 1994 391 2212 530 
Q 2431 669 2431 922 
Q 2431 1156 2273 1281 
Q 2116 1406 1581 1522 
L 1381 1569 
Q 847 1681 609 1914 
Q 372 2147 372 2553 
Q 372 3047 722 3315 
Q 1072 3584 1716 3584 
Q 2034 3584 2315 3537 
Q 2597 3491 2834 3397 
z
" transform="scale(0.015625)"/>
       <path id="DejaVuSans-29" d="M 513 4856 
L 1013 4856 
Q 1481 4119 1714 3412 
Q 1947 2706 1947 2009 
Q 1947 1309 1714 600 
Q 1481 -109 1013 -844 
L 513 -844 
Q 928 -128 1133 580 
Q 1338 1288 1338 2009 
Q 1338 2731 1133 3434 
Q 928 4138 513 4856 
z
" transform="scale(0.015625)"/>
      </defs>
      <use xlink:href="#DejaVuSans-41"/>
      <use xlink:href="#DejaVuSans-63" x="66.658203"/>
      <use xlink:href="#DejaVuSans-74" x="121.638672"/>
      <use xlink:href="#DejaVuSans-75" x="160.847656"/>
      <use xlink:href="#DejaVuSans-61" x="224.226562"/>
      <use xlink:href="#DejaVuSans-6c" x="285.505859"/>
      <use xlink:href="#DejaVuSans-20" x="313.289062"/>
      <use xlink:href="#DejaVuSans-4d" x="345.076172"/>
      <use xlink:href="#DejaVuSans-65" x="431.355469"/>
      <use xlink:href="#DejaVuSans-64" x="492.878906"/>
      <use xlink:href="#DejaVuSans-69" x="556.355469"/>
      <use xlink:href="#DejaVuSans-61" x="584.138672"/>
      <use xlink:href="#DejaVuSans-6e" x="645.417969"/>
      <use xlink:href="#DejaVuSans-20" x="708.796875"/>
      <use xlink:href="#DejaVuSans-53" x="740.583984"/>
      <use xlink:href="#DejaVuSans-61" x="804.060547"/>
      <use xlink:href="#DejaVuSans-6c" x="865.339844"/>
      <use xlink:href="#DejaVuSans-65" x="893.123047"/>
      <use xlink:href="#DejaVuSans-20" x="954.646484"/>
      <use xlink:href="#DejaVuSans-50" x="986.433594"/>
      <use xlink:href="#DejaVuSans-72" x="1044.986328"/>
      <use xlink:href="#DejaVuSans-69" x="1086.099609"/>
      <use xlink:href="#DejaVuSans-63" x="1113.882812"/>
      <use xlink:href="#DejaVuSans-65" x="1168.863281"/>
      <use xlink:href="#DejaVuSans-20" x="1230.386719"/>
      <use xlink:href="#DejaVuSans-28" x="1262.173828"/>
      <use xlink:href="#DejaVuSans-24" x="1301.1875"/>
      <use xlink:href="#DejaVuSans-2c" x="1364.810547"/>
      <use xlink:href="#DejaVuSans-20" x="1396.597656"/>
      <use xlink:href="#DejaVuSans-74" x="1428.384766"/>
      <use xlink:href="#DejaVuSans-68" x="1467.59375"/>
      <use xlink:href="#DejaVuSans-6f" x="1530.972656"/>
      <use xlink:href="#DejaVuSans-75" x="1592.154297"/>
      <use xlink:href="#DejaVuSans-73" x="1655.533203"/>
      <use xlink:href="#DejaVuSans-61" x="1707.632812"/>
      <use xlink:href="#DejaVuSans-6e" x="1768.912109"/>
      <use xlink:href="#DejaVuSans-64" x="1832.291016"/>
      <use xlink:href="#DejaVuSans-73" x="1895.767578"/>
      <use xlink:href="#DejaVuSans-29" x="1947.867188"/>
     </g>
    </g>
   </g>
   <g id="matplotlib.axis_2">
    <g id="ytick_1">
     <g id="line2d_10">
      <defs>
       <path id="md1e3692415" d="M 0 0 
L -3.5 0 
" style="stroke: #000000; stroke-width: 0.8"/>
      </defs>
      <g>
       <use xlink:href="#md1e3692415" x="48.90125" y="354.966746" style="stroke: #000000; stroke-width: 0.8"/>
      </g>
     </g>
     <g id="text_11">
      <!-- 665 -->
      <g transform="translate(22.81375 358.765965) scale(0.1 -0.1)">
       <use xlink:href="#DejaVuSans-36"/>
       <use xlink:href="#DejaVuSans-36" x="63.623047"/>
       <use xlink:href="#DejaVuSans-35" x="127.246094"/>
      </g>
     </g>
    </g>
    <g id="ytick_2">
     <g id="line2d_11">
      <g>
       <use xlink:href="#md1e3692415" x="48.90125" y="317.107252" style="stroke: #000000; stroke-width: 0.8"/>
      </g>
     </g>
     <g id="text_12">
      <!-- 670 -->
      <g transform="translate(22.81375 320.906471) scale(0.1 -0.1)">
       <use xlink:href="#DejaVuSans-36"/>
       <use xlink:href="#DejaVuSans-37" x="63.623047"/>
       <use xlink:href="#DejaVuSans-30" x="127.246094"/>
      </g>
     </g>
    </g>
    <g id="ytick_3">
     <g id="line2d_12">
      <g>
       <use xlink:href="#md1e3692415" x="48.90125" y="279.247758" style="stroke: #000000; stroke-width: 0.8"/>
      </g>
     </g>
     <g id="text_13">
      <!-- 675 -->
      <g transform="translate(22.81375 283.046977) scale(0.1 -0.1)">
       <use xlink:href="#DejaVuSans-36"/>
       <use xlink:href="#DejaVuSans-37" x="63.623047"/>
       <use xlink:href="#DejaVuSans-35" x="127.246094"/>
      </g>
     </g>
    </g>
    <g id="ytick_4">
     <g id="line2d_13">
      <g>
       <use xlink:href="#md1e3692415" x="48.90125" y="241.388264" style="stroke: #000000; stroke-width: 0.8"/>
      </g>
     </g>
     <g id="text_14">
      <!-- 680 -->
      <g transform="translate(22.81375 245.187483) scale(0.1 -0.1)">
       <use xlink:href="#DejaVuSans-36"/>
       <use xlink:href="#DejaVuSans-38" x="63.623047"/>
       <use xlink:href="#DejaVuSans-30" x="127.246094"/>
      </g>
     </g>
    </g>
    <g id="ytick_5">
     <g id="line2d_14">
      <g>
       <use xlink:href="#md1e3692415" x="48.90125" y="203.52877" style="stroke: #000000; stroke-width: 0.8"/>
      </g>
     </g>
     <g id="text_15">
      <!-- 685 -->
      <g transform="translate(22.81375 207.327989) scale(0.1 -0.1)">
       <use xlink:href="#DejaVuSans-36"/>
       <use xlink:href="#DejaVuSans-38" x="63.623047"/>
       <use xlink:href="#DejaVuSans-35" x="127.246094"/>
      </g>
     </g>
    </g>
    <g id="ytick_6">
     <g id="line2d_15">
      <g>
       <use xlink:href="#md1e3692415" x="48.90125" y="165.669276" style="stroke: #000000; stroke-width: 0.8"/>
      </g>
     </g>
     <g id="text_16">
      <!-- 690 -->
      <g transform="translate(22.81375 169.468494) scale(0.1 -0.1)">
       <use xlink:href="#DejaVuSans-36"/>
       <use xlink:href="#DejaVuSans-39" x="63.623047"/>
       <use xlink:href="#DejaVuSans-30" x="127.246094"/>
      </g>
     </g>
    </g>
    <g id="ytick_7">
     <g id="line2d_16">
      <g>
       <use xlink:href="#md1e3692415" x="48.90125" y="127.809782" style="stroke: #000000; stroke-width: 0.8"/>
      </g>
     </g>
     <g id="text_17">
      <!-- 695 -->
      <g transform="translate(22.81375 131.609) scale(0.1 -0.1)">
       <use xlink:href="#DejaVuSans-36"/>
       <use xlink:href="#DejaVuSans-39" x="63.623047"/>
       <use xlink:href="#DejaVuSans-35" x="127.246094"/>
      </g>
     </g>
    </g>
    <g id="ytick_8">
     <g id="line2d_17">
      <g>
       <use xlink:href="#md1e3692415" x="48.90125" y="89.950287" style="stroke: #000000; stroke-width: 0.8"/>
      </g>
     </g>
     <g id="text_18">
      <!-- 700 -->
      <g transform="translate(22.81375 93.749506) scale(0.1 -0.1)">
       <use xlink:href="#DejaVuSans-37"/>
       <use xlink:href="#DejaVuSans-30" x="63.623047"/>
       <use xlink:href="#DejaVuSans-30" x="127.246094"/>
      </g>
     </g>
    </g>
    <g id="ytick_9">
     <g id="line2d_18">
      <g>
       <use xlink:href="#md1e3692415" x="48.90125" y="52.090793" style="stroke: #000000; stroke-width: 0.8"/>
      </g>
     </g>
     <g id="text_19">
      <!-- 705 -->
      <g transform="translate(22.81375 55.890012) scale(0.1 -0.1)">
       <use xlink:href="#DejaVuSans-37"/>
       <use xlink:href="#DejaVuSans-30" x="63.623047"/>
       <use xlink:href="#DejaVuSans-35" x="127.246094"/>
      </g>
     </g>
    </g>
    <g id="text_20">
     <!-- Predicted Median Sale Price ($, thousands) -->
     <g transform="translate(16.318125 324.256562) rotate(-90) scale(0.12 -0.12)">
      <use xlink:href="#DejaVuSans-50"/>
      <use xlink:href="#DejaVuSans-72" x="58.552734"/>
      <use xlink:href="#DejaVuSans-65" x="97.416016"/>
      <use xlink:href="#DejaVuSans-64" x="158.939453"/>
      <use xlink:href="#DejaVuSans-69" x="222.416016"/>
      <use xlink:href="#DejaVuSans-63" x="250.199219"/>
      <use xlink:href="#DejaVuSans-74" x="305.179688"/>
      <use xlink:href="#DejaVuSans-65" x="344.388672"/>
      <use xlink:href="#DejaVuSans-64" x="405.912109"/>
      <use xlink:href="#DejaVuSans-20" x="469.388672"/>
      <use xlink:href="#DejaVuSans-4d" x="501.175781"/>
      <use xlink:href="#DejaVuSans-65" x="587.455078"/>
      <use xlink:href="#DejaVuSans-64" x="648.978516"/>
      <use xlink:href="#DejaVuSans-69" x="712.455078"/>
      <use xlink:href="#DejaVuSans-61" x="740.238281"/>
      <use xlink:href="#DejaVuSans-6e" x="801.517578"/>
      <use xlink:href="#DejaVuSans-20" x="864.896484"/>
      <use xlink:href="#DejaVuSans-53" x="896.683594"/>
      <use xlink:href="#DejaVuSans-61" x="960.160156"/>
      <use xlink:href="#DejaVuSans-6c" x="1021.439453"/>
      <use xlink:href="#DejaVuSans-65" x="1049.222656"/>
      <use xlink:href="#DejaVuSans-20" x="1110.746094"/>
      <use xlink:href="#DejaVuSans-50" x="1142.533203"/>
      <use xlink:href="#DejaVuSans-72" x="1201.085938"/>
      <use xlink:href="#DejaVuSans-69" x="1242.199219"/>
      <use xlink:href="#DejaVuSans-63" x="1269.982422"/>
      <use xlink:href="#DejaVuSans-65" x="1324.962891"/>
      <use xlink:href="#DejaVuSans-20" x="1386.486328"/>
      <use xlink:href="#DejaVuSans-28" x="1418.273438"/>
      <use xlink:href="#DejaVuSans-24" x="1457.287109"/>
      <use xlink:href="#DejaVuSans-2c" x="1520.910156"/>
      <use xlink:href="#DejaVuSans-20" x="1552.697266"/>
      <use xlink:href="#DejaVuSans-74" x="1584.484375"/>
      <use xlink:href="#DejaVuSans-68" x="1623.693359"/>
      <use xlink:href="#DejaVuSans-6f" x="1687.072266"/>
      <use xlink:href="#DejaVuSans-75" x="1748.253906"/>
      <use xlink:href="#DejaVuSans-73" x="1811.632812"/>
      <use xlink:href="#DejaVuSans-61" x="1863.732422"/>
      <use xlink:href="#DejaVuSans-6e" x="1925.011719"/>
      <use xlink:href="#DejaVuSans-64" x="1988.390625"/>
      <use xlink:href="#DejaVuSans-73" x="2051.867188"/>
      <use xlink:href="#DejaVuSans-29" x="2103.966797"/>
     </g>
    </g>
   </g>
   <g id="line2d_19">
    <path d="M 64.119432 256.43717 
L 67.193812 254.869376 
L 70.268192 253.301581 
L 73.342572 251.733787 
L 76.416952 250.165993 
L 79.491333 248.598198 
L 82.565713 247.030404 
L 85.640093 245.462609 
L 88.714473 243.894815 
L 91.788853 242.32702 
L 94.863233 240.759226 
L 97.937614 239.191431 
L 101.011994 237.623637 
L 104.086374 236.055842 
L 107.160754 234.488048 
L 110.235134 232.920253 
L 113.309514 231.352459 
L 116.383895 229.784665 
L 119.458275 228.21687 
L 122.532655 226.649076 
L 125.607035 225.081281 
L 128.681415 223.513487 
L 131.755795 221.945692 
L 134.830176 220.377898 
L 137.904556 218.810103 
L 140.978936 217.242309 
L 144.053316 215.674514 
L 147.127696 214.10672 
L 150.202076 212.538925 
L 153.276457 210.971131 
L 156.350837 209.403337 
L 159.425217 207.835542 
L 162.499597 206.267748 
L 165.573977 204.699953 
L 168.648357 203.132159 
L 171.722738 201.564364 
L 174.797118 199.99657 
L 177.871498 198.428775 
L 180.945878 196.860981 
L 184.020258 195.293186 
L 187.094638 193.725392 
L 190.169019 192.157597 
L 193.243399 190.589803 
L 196.317779 189.022009 
L 199.392159 187.454214 
L 202.466539 185.88642 
L 205.540919 184.318625 
L 208.6153 182.750831 
L 211.68968 181.183036 
L 214.76406 179.615242 
L 217.83844 178.047447 
L 220.91282 176.479653 
L 223.9872 174.911858 
L 227.061581 173.344064 
L 230.135961 171.77627 
L 233.210341 170.208475 
L 236.284721 168.640681 
L 239.359101 167.072886 
L 242.433481 165.505092 
L 245.507862 163.937297 
L 248.582242 162.369503 
L 251.656622 160.801708 
L 254.731002 159.233914 
L 257.805382 157.666119 
L 260.879762 156.098325 
L 263.954143 154.53053 
L 267.028523 152.962736 
L 270.102903 151.394942 
L 273.177283 149.827147 
L 276.251663 148.259353 
L 279.326043 146.691558 
L 282.400424 145.123764 
L 285.474804 143.555969 
L 288.549184 141.988175 
L 291.623564 140.42038 
L 294.697944 138.852586 
L 297.772324 137.284791 
L 300.846705 135.716997 
L 303.921085 134.149202 
L 306.995465 132.581408 
L 310.069845 131.013614 
L 313.144225 129.445819 
L 316.218605 127.878025 
L 319.292986 126.31023 
L 322.367366 124.742436 
L 325.441746 123.174641 
L 328.516126 121.606847 
L 331.590506 120.039052 
L 334.664886 118.471258 
L 337.739267 116.903463 
L 340.813647 115.335669 
L 343.888027 113.767874 
L 346.962407 112.20008 
L 350.036787 110.632286 
L 353.111167 109.064491 
L 356.185548 107.496697 
L 359.259928 105.928902 
L 362.334308 104.361108 
L 365.408688 102.793313 
L 368.483068 101.225519 
" clip-path="url(#p4dfc87e88b)" style="fill: none; stroke: #ff0000; stroke-width: 2.25; stroke-linecap: square"/>
   </g>
   <g id="patch_3">
    <path d="M 48.90125 361.9975 
L 48.90125 29.3575 
" style="fill: none; stroke: #000000; stroke-width: 0.8; stroke-linejoin: miter; stroke-linecap: square"/>
   </g>
   <g id="patch_4">
    <path d="M 48.90125 361.9975 
L 383.70125 361.9975 
" style="fill: none; stroke: #000000; stroke-width: 0.8; stroke-linejoin: miter; stroke-linecap: square"/>
   </g>
   <g id="text_21">
    <!-- $R^{2} = $0.586 -->
    <g transform="translate(58.94525 55.836925) scale(0.12 -0.12)">
     <defs>
      <path id="DejaVuSans-Oblique-52" d="M 1613 4147 
L 1294 2491 
L 2106 2491 
Q 2584 2491 2879 2755 
Q 3175 3019 3175 3444 
Q 3175 3784 2976 3965 
Q 2778 4147 2406 4147 
L 1613 4147 
z
M 2772 2241 
Q 2972 2194 3105 2009 
Q 3238 1825 3413 1275 
L 3809 0 
L 3144 0 
L 2778 1197 
Q 2638 1659 2453 1815 
Q 2269 1972 1888 1972 
L 1191 1972 
L 806 0 
L 172 0 
L 1081 4666 
L 2503 4666 
Q 3150 4666 3495 4373 
Q 3841 4081 3841 3531 
Q 3841 3044 3547 2687 
Q 3253 2331 2772 2241 
z
" transform="scale(0.015625)"/>
      <path id="DejaVuSans-3d" d="M 678 2906 
L 4684 2906 
L 4684 2381 
L 678 2381 
L 678 2906 
z
M 678 1631 
L 4684 1631 
L 4684 1100 
L 678 1100 
L 678 1631 
z
" transform="scale(0.015625)"/>
      <path id="DejaVuSans-2e" d="M 684 794 
L 1344 794 
L 1344 0 
L 684 0 
L 684 794 
z
" transform="scale(0.015625)"/>
     </defs>
     <use xlink:href="#DejaVuSans-Oblique-52" transform="translate(0 0.765625)"/>
     <use xlink:href="#DejaVuSans-32" transform="translate(76.499193 39.046875) scale(0.7)"/>
     <use xlink:href="#DejaVuSans-3d" transform="translate(143.252122 0.765625)"/>
     <use xlink:href="#DejaVuSans-30" transform="translate(246.523607 0.765625)"/>
     <use xlink:href="#DejaVuSans-2e" transform="translate(310.146654 0.765625)"/>
     <use xlink:href="#DejaVuSans-35" transform="translate(341.933763 0.765625)"/>
     <use xlink:href="#DejaVuSans-38" transform="translate(405.55681 0.765625)"/>
     <use xlink:href="#DejaVuSans-36" transform="translate(469.179857 0.765625)"/>
    </g>
    <!-- $p = $0.05 -->
    <g transform="translate(58.94525 69.2743) scale(0.12 -0.12)">
     <defs>
      <path id="DejaVuSans-Oblique-70" d="M 3175 2156 
Q 3175 2616 2975 2859 
Q 2775 3103 2400 3103 
Q 2144 3103 1911 2972 
Q 1678 2841 1497 2591 
Q 1319 2344 1212 1994 
Q 1106 1644 1106 1300 
Q 1106 863 1306 627 
Q 1506 391 1875 391 
Q 2147 391 2380 519 
Q 2613 647 2778 891 
Q 2956 1147 3065 1494 
Q 3175 1841 3175 2156 
z
M 1394 2969 
Q 1625 3272 1939 3428 
Q 2253 3584 2638 3584 
Q 3175 3584 3472 3232 
Q 3769 2881 3769 2247 
Q 3769 1728 3584 1258 
Q 3400 788 3053 416 
Q 2822 169 2531 39 
Q 2241 -91 1919 -91 
Q 1547 -91 1294 64 
Q 1041 219 916 525 
L 556 -1331 
L -19 -1331 
L 922 3500 
L 1497 3500 
L 1394 2969 
z
" transform="scale(0.015625)"/>
     </defs>
     <use xlink:href="#DejaVuSans-Oblique-70" transform="translate(0 0.78125)"/>
     <use xlink:href="#DejaVuSans-3d" transform="translate(82.958984 0.78125)"/>
     <use xlink:href="#DejaVuSans-30" transform="translate(186.230469 0.78125)"/>
     <use xlink:href="#DejaVuSans-2e" transform="translate(249.853516 0.78125)"/>
     <use xlink:href="#DejaVuSans-30" transform="translate(281.640625 0.78125)"/>
     <use xlink:href="#DejaVuSans-35" transform="translate(345.263672 0.78125)"/>
    </g>
   </g>
   <g id="text_22">
    <!-- SVR: Actual vs. Predicted Median Sale Price -->
    <g transform="translate(42.69 19.3575) scale(0.16 -0.16)">
     <defs>
      <path id="DejaVuSans-56" d="M 1831 0 
L 50 4666 
L 709 4666 
L 2188 738 
L 3669 4666 
L 4325 4666 
L 2547 0 
L 1831 0 
z
" transform="scale(0.015625)"/>
      <path id="DejaVuSans-52" d="M 2841 2188 
Q 3044 2119 3236 1894 
Q 3428 1669 3622 1275 
L 4263 0 
L 3584 0 
L 2988 1197 
Q 2756 1666 2539 1819 
Q 2322 1972 1947 1972 
L 1259 1972 
L 1259 0 
L 628 0 
L 628 4666 
L 2053 4666 
Q 2853 4666 3247 4331 
Q 3641 3997 3641 3322 
Q 3641 2881 3436 2590 
Q 3231 2300 2841 2188 
z
M 1259 4147 
L 1259 2491 
L 2053 2491 
Q 2509 2491 2742 2702 
Q 2975 2913 2975 3322 
Q 2975 3731 2742 3939 
Q 2509 4147 2053 4147 
L 1259 4147 
z
" transform="scale(0.015625)"/>
      <path id="DejaVuSans-3a" d="M 750 794 
L 1409 794 
L 1409 0 
L 750 0 
L 750 794 
z
M 750 3309 
L 1409 3309 
L 1409 2516 
L 750 2516 
L 750 3309 
z
" transform="scale(0.015625)"/>
      <path id="DejaVuSans-76" d="M 191 3500 
L 800 3500 
L 1894 563 
L 2988 3500 
L 3597 3500 
L 2284 0 
L 1503 0 
L 191 3500 
z
" transform="scale(0.015625)"/>
     </defs>
     <use xlink:href="#DejaVuSans-53"/>
     <use xlink:href="#DejaVuSans-56" x="63.476562"/>
     <use xlink:href="#DejaVuSans-52" x="131.884766"/>
     <use xlink:href="#DejaVuSans-3a" x="198.242188"/>
     <use xlink:href="#DejaVuSans-20" x="231.933594"/>
     <use xlink:href="#DejaVuSans-41" x="263.720703"/>
     <use xlink:href="#DejaVuSans-63" x="330.378906"/>
     <use xlink:href="#DejaVuSans-74" x="385.359375"/>
     <use xlink:href="#DejaVuSans-75" x="424.568359"/>
     <use xlink:href="#DejaVuSans-61" x="487.947266"/>
     <use xlink:href="#DejaVuSans-6c" x="549.226562"/>
     <use xlink:href="#DejaVuSans-20" x="577.009766"/>
     <use xlink:href="#DejaVuSans-76" x="608.796875"/>
     <use xlink:href="#DejaVuSans-73" x="667.976562"/>
     <use xlink:href="#DejaVuSans-2e" x="720.076172"/>
     <use xlink:href="#DejaVuSans-20" x="751.863281"/>
     <use xlink:href="#DejaVuSans-50" x="783.650391"/>
     <use xlink:href="#DejaVuSans-72" x="842.203125"/>
     <use xlink:href="#DejaVuSans-65" x="881.066406"/>
     <use xlink:href="#DejaVuSans-64" x="942.589844"/>
     <use xlink:href="#DejaVuSans-69" x="1006.066406"/>
     <use xlink:href="#DejaVuSans-63" x="1033.849609"/>
     <use xlink:href="#DejaVuSans-74" x="1088.830078"/>
     <use xlink:href="#DejaVuSans-65" x="1128.039062"/>
     <use xlink:href="#DejaVuSans-64" x="1189.5625"/>
     <use xlink:href="#DejaVuSans-20" x="1253.039062"/>
     <use xlink:href="#DejaVuSans-4d" x="1284.826172"/>
     <use xlink:href="#DejaVuSans-65" x="1371.105469"/>
     <use xlink:href="#DejaVuSans-64" x="1432.628906"/>
     <use xlink:href="#DejaVuSans-69" x="1496.105469"/>
     <use xlink:href="#DejaVuSans-61" x="1523.888672"/>
     <use xlink:href="#DejaVuSans-6e" x="1585.167969"/>
     <use xlink:href="#DejaVuSans-20" x="1648.546875"/>
     <use xlink:href="#DejaVuSans-53" x="1680.333984"/>
     <use xlink:href="#DejaVuSans-61" x="1743.810547"/>
     <use xlink:href="#DejaVuSans-6c" x="1805.089844"/>
     <use xlink:href="#DejaVuSans-65" x="1832.873047"/>
     <use xlink:href="#DejaVuSans-20" x="1894.396484"/>
     <use xlink:href="#DejaVuSans-50" x="1926.183594"/>
     <use xlink:href="#DejaVuSans-72" x="1984.736328"/>
     <use xlink:href="#DejaVuSans-69" x="2025.849609"/>
     <use xlink:href="#DejaVuSans-63" x="2053.632812"/>
     <use xlink:href="#DejaVuSans-65" x="2108.613281"/>
    </g>
   </g>
  </g>
 </g>
 <defs>
  <clipPath id="p4dfc87e88b">
   <rect x="48.90125" y="29.3575" width="334.8" height="332.64"/>
  </clipPath>
 </defs>
</svg>
