<?xml version="1.0" encoding="utf-8" standalone="no"?>
<!DOCTYPE svg PUBLIC "-//W3C//DTD SVG 1.1//EN"
  "http://www.w3.org/Graphics/SVG/1.1/DTD/svg11.dtd">
<svg xmlns:xlink="http://www.w3.org/1999/xlink" width="397.1125pt" height="401.489375pt" viewBox="0 0 397.1125 401.489375" xmlns="http://www.w3.org/2000/svg" version="1.1">
 <metadata>
  <rdf:RDF xmlns:dc="http://purl.org/dc/elements/1.1/" xmlns:cc="http://creativecommons.org/ns#" xmlns:rdf="http://www.w3.org/1999/02/22-rdf-syntax-ns#">
   <cc:Work>
    <dc:type rdf:resource="http://purl.org/dc/dcmitype/StillImage"/>
    <dc:date>2023-12-12T20:59:25.751803</dc:date>
    <dc:format>image/svg+xml</dc:format>
    <dc:creator>
     <cc:Agent>
      <dc:title>Matplotlib v3.8.0, https://matplotlib.org/</dc:title>
     </cc:Agent>
    </dc:creator>
   </cc:Work>
  </rdf:RDF>
 </metadata>
 <defs>
  <style type="text/css">*{stroke-linejoin: round; stroke-linecap: butt}</style>
 </defs>
 <g id="figure_1">
  <g id="patch_1">
   <path d="M 0 401.489375 
L 397.1125 401.489375 
L 397.1125 0 
L 0 0 
z
" style="fill: #ffffff"/>
  </g>
  <g id="axes_1">
   <g id="patch_2">
    <path d="M 48.90125 361.9975 
L 383.70125 361.9975 
L 383.70125 29.3575 
L 48.90125 29.3575 
z
" style="fill: #ffffff"/>
   </g>
   <g id="PathCollection_1">
    <defs>
     <path id="m6c9e45ce6a" d="M 0 5 
C 1.326016 5 2.597899 4.473168 3.535534 3.535534 
C 4.473168 2.597899 5 1.326016 5 0 
C 5 -1.326016 4.473168 -2.597899 3.535534 -3.535534 
C 2.597899 -4.473168 1.326016 -5 0 -5 
C -1.326016 -5 -2.597899 -4.473168 -3.535534 -3.535534 
C -4.473168 -2.597899 -5 -1.326016 -5 0 
C -5 1.326016 -4.473168 2.597899 -3.535534 3.535534 
C -2.597899 4.473168 -1.326016 5 0 5 
z
" style="stroke: #000000; stroke-opacity: 0.5"/>
    </defs>
    <g clip-path="url(#p7c23415fd4)">
     <use xlink:href="#m6c9e45ce6a" x="368.483068" y="44.4775" style="fill: #1f77b4; fill-opacity: 0.5; stroke: #000000; stroke-opacity: 0.5"/>
     <use xlink:href="#m6c9e45ce6a" x="254.346705" y="111.696706" style="fill: #1f77b4; fill-opacity: 0.5; stroke: #000000; stroke-opacity: 0.5"/>
     <use xlink:href="#m6c9e45ce6a" x="142.112614" y="131.732351" style="fill: #1f77b4; fill-opacity: 0.5; stroke: #000000; stroke-opacity: 0.5"/>
     <use xlink:href="#m6c9e45ce6a" x="197.278523" y="138.225245" style="fill: #1f77b4; fill-opacity: 0.5; stroke: #000000; stroke-opacity: 0.5"/>
     <use xlink:href="#m6c9e45ce6a" x="178.255795" y="319.846494" style="fill: #1f77b4; fill-opacity: 0.5; stroke: #000000; stroke-opacity: 0.5"/>
     <use xlink:href="#m6c9e45ce6a" x="140.210341" y="225.50515" style="fill: #1f77b4; fill-opacity: 0.5; stroke: #000000; stroke-opacity: 0.5"/>
     <use xlink:href="#m6c9e45ce6a" x="273.369432" y="248.182366" style="fill: #1f77b4; fill-opacity: 0.5; stroke: #000000; stroke-opacity: 0.5"/>
     <use xlink:href="#m6c9e45ce6a" x="151.623977" y="226.765504" style="fill: #1f77b4; fill-opacity: 0.5; stroke: #000000; stroke-opacity: 0.5"/>
     <use xlink:href="#m6c9e45ce6a" x="64.119432" y="249.170717" style="fill: #1f77b4; fill-opacity: 0.5; stroke: #000000; stroke-opacity: 0.5"/>
     <use xlink:href="#m6c9e45ce6a" x="242.933068" y="184.408192" style="fill: #1f77b4; fill-opacity: 0.5; stroke: #000000; stroke-opacity: 0.5"/>
     <use xlink:href="#m6c9e45ce6a" x="223.910341" y="166.023523" style="fill: #1f77b4; fill-opacity: 0.5; stroke: #000000; stroke-opacity: 0.5"/>
     <use xlink:href="#m6c9e45ce6a" x="311.414886" y="175.077835" style="fill: #1f77b4; fill-opacity: 0.5; stroke: #000000; stroke-opacity: 0.5"/>
    </g>
   </g>
   <g id="PolyCollection_1">
    <path d="M 64.119432 178.343672 
L 64.119432 346.8775 
L 67.193812 344.200336 
L 70.268192 341.523172 
L 73.342572 338.846007 
L 76.416952 336.168843 
L 79.491333 333.491679 
L 82.565713 330.814515 
L 85.640093 328.13735 
L 88.714473 325.460186 
L 91.788853 322.783022 
L 94.863233 320.105858 
L 97.937614 317.394951 
L 101.011994 314.766683 
L 104.086374 312.173218 
L 107.160754 309.422051 
L 110.235134 306.757444 
L 113.309514 304.092837 
L 116.383895 301.414417 
L 119.458275 298.735844 
L 122.532655 296.05727 
L 125.607035 293.378697 
L 128.681415 290.700124 
L 131.755795 288.02155 
L 134.830176 285.348983 
L 137.904556 282.686397 
L 140.978936 280.023811 
L 144.053316 277.355382 
L 147.127696 274.67347 
L 150.202076 271.991557 
L 153.276457 269.309645 
L 156.350837 266.639051 
L 159.425217 263.982796 
L 162.499597 261.711526 
L 165.573977 259.874244 
L 168.648357 257.468973 
L 171.722738 254.619467 
L 174.797118 252.430321 
L 177.871498 249.919474 
L 180.945878 247.371484 
L 184.020258 244.628319 
L 187.094638 243.694396 
L 190.169019 242.843864 
L 193.243399 239.908191 
L 196.317779 236.952076 
L 199.392159 233.995962 
L 202.466539 231.594469 
L 205.540919 229.871128 
L 208.6153 227.665104 
L 211.68968 226.729527 
L 214.76406 225.961041 
L 217.83844 225.32152 
L 220.91282 223.270449 
L 223.9872 221.880149 
L 227.061581 220.296079 
L 230.135961 219.463031 
L 233.210341 217.652004 
L 236.284721 217.138423 
L 239.359101 216.324584 
L 242.433481 215.436194 
L 245.507862 214.657441 
L 248.582242 214.272313 
L 251.656622 214.081225 
L 254.731002 213.495024 
L 257.805382 213.193097 
L 260.879762 213.504815 
L 263.954143 212.95734 
L 267.028523 212.737195 
L 270.102903 212.430636 
L 273.177283 212.235091 
L 276.251663 212.046894 
L 279.326043 211.863835 
L 282.400424 211.667902 
L 285.474804 211.335786 
L 288.549184 211.301305 
L 291.623564 211.140615 
L 294.697944 210.973585 
L 297.772324 210.794055 
L 300.846705 210.675551 
L 303.921085 210.749366 
L 306.995465 210.823181 
L 310.069845 210.896996 
L 313.144225 210.970811 
L 316.218605 210.886785 
L 319.292986 211.076045 
L 322.367366 211.229094 
L 325.441746 211.323299 
L 328.516126 211.417504 
L 331.590506 211.561121 
L 334.664886 211.800527 
L 337.739267 211.672087 
L 340.813647 211.754153 
L 343.888027 211.575791 
L 346.962407 211.23447 
L 350.036787 210.89315 
L 353.111167 210.630479 
L 356.185548 210.279853 
L 359.259928 209.957605 
L 362.334308 209.826424 
L 365.408688 209.227976 
L 368.483068 208.87735 
L 368.483068 54.406413 
L 368.483068 54.406413 
L 365.408688 56.882758 
L 362.334308 59.443206 
L 359.259928 62.003654 
L 356.185548 64.175381 
L 353.111167 66.071993 
L 350.036787 68.41319 
L 346.962407 70.425437 
L 343.888027 72.318859 
L 340.813647 74.558723 
L 337.739267 76.784967 
L 334.664886 78.982414 
L 331.590506 81.271995 
L 328.516126 83.50447 
L 325.441746 85.749009 
L 322.367366 87.993547 
L 319.292986 90.166055 
L 316.218605 92.323527 
L 313.144225 94.341281 
L 310.069845 96.137787 
L 306.995465 97.826628 
L 303.921085 99.515792 
L 300.846705 101.594186 
L 297.772324 103.998005 
L 294.697944 106.345694 
L 291.623564 108.174933 
L 288.549184 110.004171 
L 285.474804 111.816534 
L 282.400424 113.631877 
L 279.326043 114.948604 
L 276.251663 116.255311 
L 273.177283 118.341681 
L 270.102903 120.534444 
L 267.028523 122.416481 
L 263.954143 123.866653 
L 260.879762 125.329749 
L 257.805382 126.743361 
L 254.731002 128.170861 
L 251.656622 130.04342 
L 248.582242 132.119622 
L 245.507862 134.212065 
L 242.433481 136.006665 
L 239.359101 138.304797 
L 236.284721 140.109448 
L 233.210341 141.769368 
L 230.135961 143.561306 
L 227.061581 145.320753 
L 223.9872 147.173891 
L 220.91282 148.357352 
L 217.83844 149.629402 
L 214.76406 151.657905 
L 211.68968 153.293607 
L 208.6153 154.948333 
L 205.540919 156.221751 
L 202.466539 156.162501 
L 199.392159 157.362471 
L 196.317779 158.316611 
L 193.243399 159.794802 
L 190.169019 161.293338 
L 187.094638 162.14779 
L 184.020258 163.769624 
L 180.945878 164.638263 
L 177.871498 165.947081 
L 174.797118 166.612451 
L 171.722738 167.831714 
L 168.648357 168.848904 
L 165.573977 170.200712 
L 162.499597 171.345663 
L 159.425217 172.396869 
L 156.350837 172.344984 
L 153.276457 173.201378 
L 150.202076 173.247571 
L 147.127696 172.888867 
L 144.053316 173.859826 
L 140.978936 173.743507 
L 137.904556 173.642469 
L 134.830176 173.659063 
L 131.755795 174.185401 
L 128.681415 174.500038 
L 125.607035 174.57082 
L 122.532655 174.39226 
L 119.458275 174.055903 
L 116.383895 174.221366 
L 113.309514 174.949848 
L 110.235134 175.025361 
L 107.160754 175.123965 
L 104.086374 175.222719 
L 101.011994 175.442146 
L 97.937614 175.918034 
L 94.863233 176.393921 
L 91.788853 176.869808 
L 88.714473 177.345695 
L 85.640093 177.554082 
L 82.565713 177.340001 
L 79.491333 177.136216 
L 76.416952 176.933725 
L 73.342572 177.438143 
L 70.268192 177.971201 
L 67.193812 178.489074 
L 64.119432 178.343672 
z
" clip-path="url(#p7c23415fd4)" style="fill: #ff0000; fill-opacity: 0.15"/>
   </g>
   <g id="matplotlib.axis_1">
    <g id="xtick_1">
     <g id="line2d_1">
      <defs>
       <path id="m6003a6c4be" d="M 0 0 
L 0 3.5 
" style="stroke: #000000; stroke-width: 0.8"/>
      </defs>
      <g>
       <use xlink:href="#m6003a6c4be" x="64.119432" y="361.9975" style="stroke: #000000; stroke-width: 0.8"/>
      </g>
     </g>
     <g id="text_1">
      <!-- 650 -->
      <g transform="translate(54.575682 376.595937) scale(0.1 -0.1)">
       <defs>
        <path id="DejaVuSans-36" d="M 2113 2584 
Q 1688 2584 1439 2293 
Q 1191 2003 1191 1497 
Q 1191 994 1439 701 
Q 1688 409 2113 409 
Q 2538 409 2786 701 
Q 3034 994 3034 1497 
Q 3034 2003 2786 2293 
Q 2538 2584 2113 2584 
z
M 3366 4563 
L 3366 3988 
Q 3128 4100 2886 4159 
Q 2644 4219 2406 4219 
Q 1781 4219 1451 3797 
Q 1122 3375 1075 2522 
Q 1259 2794 1537 2939 
Q 1816 3084 2150 3084 
Q 2853 3084 3261 2657 
Q 3669 2231 3669 1497 
Q 3669 778 3244 343 
Q 2819 -91 2113 -91 
Q 1303 -91 875 529 
Q 447 1150 447 2328 
Q 447 3434 972 4092 
Q 1497 4750 2381 4750 
Q 2619 4750 2861 4703 
Q 3103 4656 3366 4563 
z
" transform="scale(0.015625)"/>
        <path id="DejaVuSans-35" d="M 691 4666 
L 3169 4666 
L 3169 4134 
L 1269 4134 
L 1269 2991 
Q 1406 3038 1543 3061 
Q 1681 3084 1819 3084 
Q 2600 3084 3056 2656 
Q 3513 2228 3513 1497 
Q 3513 744 3044 326 
Q 2575 -91 1722 -91 
Q 1428 -91 1123 -41 
Q 819 9 494 109 
L 494 744 
Q 775 591 1075 516 
Q 1375 441 1709 441 
Q 2250 441 2565 725 
Q 2881 1009 2881 1497 
Q 2881 1984 2565 2268 
Q 2250 2553 1709 2553 
Q 1456 2553 1204 2497 
Q 953 2441 691 2322 
L 691 4666 
z
" transform="scale(0.015625)"/>
        <path id="DejaVuSans-30" d="M 2034 4250 
Q 1547 4250 1301 3770 
Q 1056 3291 1056 2328 
Q 1056 1369 1301 889 
Q 1547 409 2034 409 
Q 2525 409 2770 889 
Q 3016 1369 3016 2328 
Q 3016 3291 2770 3770 
Q 2525 4250 2034 4250 
z
M 2034 4750 
Q 2819 4750 3233 4129 
Q 3647 3509 3647 2328 
Q 3647 1150 3233 529 
Q 2819 -91 2034 -91 
Q 1250 -91 836 529 
Q 422 1150 422 2328 
Q 422 3509 836 4129 
Q 1250 4750 2034 4750 
z
" transform="scale(0.015625)"/>
       </defs>
       <use xlink:href="#DejaVuSans-36"/>
       <use xlink:href="#DejaVuSans-35" x="63.623047"/>
       <use xlink:href="#DejaVuSans-30" x="127.246094"/>
      </g>
     </g>
    </g>
    <g id="xtick_2">
     <g id="line2d_2">
      <g>
       <use xlink:href="#m6003a6c4be" x="102.164886" y="361.9975" style="stroke: #000000; stroke-width: 0.8"/>
      </g>
     </g>
     <g id="text_2">
      <!-- 660 -->
      <g transform="translate(92.621136 376.595937) scale(0.1 -0.1)">
       <use xlink:href="#DejaVuSans-36"/>
       <use xlink:href="#DejaVuSans-36" x="63.623047"/>
       <use xlink:href="#DejaVuSans-30" x="127.246094"/>
      </g>
     </g>
    </g>
    <g id="xtick_3">
     <g id="line2d_3">
      <g>
       <use xlink:href="#m6003a6c4be" x="140.210341" y="361.9975" style="stroke: #000000; stroke-width: 0.8"/>
      </g>
     </g>
     <g id="text_3">
      <!-- 670 -->
      <g transform="translate(130.666591 376.595937) scale(0.1 -0.1)">
       <defs>
        <path id="DejaVuSans-37" d="M 525 4666 
L 3525 4666 
L 3525 4397 
L 1831 0 
L 1172 0 
L 2766 4134 
L 525 4134 
L 525 4666 
z
" transform="scale(0.015625)"/>
       </defs>
       <use xlink:href="#DejaVuSans-36"/>
       <use xlink:href="#DejaVuSans-37" x="63.623047"/>
       <use xlink:href="#DejaVuSans-30" x="127.246094"/>
      </g>
     </g>
    </g>
    <g id="xtick_4">
     <g id="line2d_4">
      <g>
       <use xlink:href="#m6003a6c4be" x="178.255795" y="361.9975" style="stroke: #000000; stroke-width: 0.8"/>
      </g>
     </g>
     <g id="text_4">
      <!-- 680 -->
      <g transform="translate(168.712045 376.595937) scale(0.1 -0.1)">
       <defs>
        <path id="DejaVuSans-38" d="M 2034 2216 
Q 1584 2216 1326 1975 
Q 1069 1734 1069 1313 
Q 1069 891 1326 650 
Q 1584 409 2034 409 
Q 2484 409 2743 651 
Q 3003 894 3003 1313 
Q 3003 1734 2745 1975 
Q 2488 2216 2034 2216 
z
M 1403 2484 
Q 997 2584 770 2862 
Q 544 3141 544 3541 
Q 544 4100 942 4425 
Q 1341 4750 2034 4750 
Q 2731 4750 3128 4425 
Q 3525 4100 3525 3541 
Q 3525 3141 3298 2862 
Q 3072 2584 2669 2484 
Q 3125 2378 3379 2068 
Q 3634 1759 3634 1313 
Q 3634 634 3220 271 
Q 2806 -91 2034 -91 
Q 1263 -91 848 271 
Q 434 634 434 1313 
Q 434 1759 690 2068 
Q 947 2378 1403 2484 
z
M 1172 3481 
Q 1172 3119 1398 2916 
Q 1625 2713 2034 2713 
Q 2441 2713 2670 2916 
Q 2900 3119 2900 3481 
Q 2900 3844 2670 4047 
Q 2441 4250 2034 4250 
Q 1625 4250 1398 4047 
Q 1172 3844 1172 3481 
z
" transform="scale(0.015625)"/>
       </defs>
       <use xlink:href="#DejaVuSans-36"/>
       <use xlink:href="#DejaVuSans-38" x="63.623047"/>
       <use xlink:href="#DejaVuSans-30" x="127.246094"/>
      </g>
     </g>
    </g>
    <g id="xtick_5">
     <g id="line2d_5">
      <g>
       <use xlink:href="#m6003a6c4be" x="216.30125" y="361.9975" style="stroke: #000000; stroke-width: 0.8"/>
      </g>
     </g>
     <g id="text_5">
      <!-- 690 -->
      <g transform="translate(206.7575 376.595937) scale(0.1 -0.1)">
       <defs>
        <path id="DejaVuSans-39" d="M 703 97 
L 703 672 
Q 941 559 1184 500 
Q 1428 441 1663 441 
Q 2288 441 2617 861 
Q 2947 1281 2994 2138 
Q 2813 1869 2534 1725 
Q 2256 1581 1919 1581 
Q 1219 1581 811 2004 
Q 403 2428 403 3163 
Q 403 3881 828 4315 
Q 1253 4750 1959 4750 
Q 2769 4750 3195 4129 
Q 3622 3509 3622 2328 
Q 3622 1225 3098 567 
Q 2575 -91 1691 -91 
Q 1453 -91 1209 -44 
Q 966 3 703 97 
z
M 1959 2075 
Q 2384 2075 2632 2365 
Q 2881 2656 2881 3163 
Q 2881 3666 2632 3958 
Q 2384 4250 1959 4250 
Q 1534 4250 1286 3958 
Q 1038 3666 1038 3163 
Q 1038 2656 1286 2365 
Q 1534 2075 1959 2075 
z
" transform="scale(0.015625)"/>
       </defs>
       <use xlink:href="#DejaVuSans-36"/>
       <use xlink:href="#DejaVuSans-39" x="63.623047"/>
       <use xlink:href="#DejaVuSans-30" x="127.246094"/>
      </g>
     </g>
    </g>
    <g id="xtick_6">
     <g id="line2d_6">
      <g>
       <use xlink:href="#m6003a6c4be" x="254.346705" y="361.9975" style="stroke: #000000; stroke-width: 0.8"/>
      </g>
     </g>
     <g id="text_6">
      <!-- 700 -->
      <g transform="translate(244.802955 376.595937) scale(0.1 -0.1)">
       <use xlink:href="#DejaVuSans-37"/>
       <use xlink:href="#DejaVuSans-30" x="63.623047"/>
       <use xlink:href="#DejaVuSans-30" x="127.246094"/>
      </g>
     </g>
    </g>
    <g id="xtick_7">
     <g id="line2d_7">
      <g>
       <use xlink:href="#m6003a6c4be" x="292.392159" y="361.9975" style="stroke: #000000; stroke-width: 0.8"/>
      </g>
     </g>
     <g id="text_7">
      <!-- 710 -->
      <g transform="translate(282.848409 376.595937) scale(0.1 -0.1)">
       <defs>
        <path id="DejaVuSans-31" d="M 794 531 
L 1825 531 
L 1825 4091 
L 703 3866 
L 703 4441 
L 1819 4666 
L 2450 4666 
L 2450 531 
L 3481 531 
L 3481 0 
L 794 0 
L 794 531 
z
" transform="scale(0.015625)"/>
       </defs>
       <use xlink:href="#DejaVuSans-37"/>
       <use xlink:href="#DejaVuSans-31" x="63.623047"/>
       <use xlink:href="#DejaVuSans-30" x="127.246094"/>
      </g>
     </g>
    </g>
    <g id="xtick_8">
     <g id="line2d_8">
      <g>
       <use xlink:href="#m6003a6c4be" x="330.437614" y="361.9975" style="stroke: #000000; stroke-width: 0.8"/>
      </g>
     </g>
     <g id="text_8">
      <!-- 720 -->
      <g transform="translate(320.893864 376.595937) scale(0.1 -0.1)">
       <defs>
        <path id="DejaVuSans-32" d="M 1228 531 
L 3431 531 
L 3431 0 
L 469 0 
L 469 531 
Q 828 903 1448 1529 
Q 2069 2156 2228 2338 
Q 2531 2678 2651 2914 
Q 2772 3150 2772 3378 
Q 2772 3750 2511 3984 
Q 2250 4219 1831 4219 
Q 1534 4219 1204 4116 
Q 875 4013 500 3803 
L 500 4441 
Q 881 4594 1212 4672 
Q 1544 4750 1819 4750 
Q 2544 4750 2975 4387 
Q 3406 4025 3406 3419 
Q 3406 3131 3298 2873 
Q 3191 2616 2906 2266 
Q 2828 2175 2409 1742 
Q 1991 1309 1228 531 
z
" transform="scale(0.015625)"/>
       </defs>
       <use xlink:href="#DejaVuSans-37"/>
       <use xlink:href="#DejaVuSans-32" x="63.623047"/>
       <use xlink:href="#DejaVuSans-30" x="127.246094"/>
      </g>
     </g>
    </g>
    <g id="xtick_9">
     <g id="line2d_9">
      <g>
       <use xlink:href="#m6003a6c4be" x="368.483068" y="361.9975" style="stroke: #000000; stroke-width: 0.8"/>
      </g>
     </g>
     <g id="text_9">
      <!-- 730 -->
      <g transform="translate(358.939318 376.595937) scale(0.1 -0.1)">
       <defs>
        <path id="DejaVuSans-33" d="M 2597 2516 
Q 3050 2419 3304 2112 
Q 3559 1806 3559 1356 
Q 3559 666 3084 287 
Q 2609 -91 1734 -91 
Q 1441 -91 1130 -33 
Q 819 25 488 141 
L 488 750 
Q 750 597 1062 519 
Q 1375 441 1716 441 
Q 2309 441 2620 675 
Q 2931 909 2931 1356 
Q 2931 1769 2642 2001 
Q 2353 2234 1838 2234 
L 1294 2234 
L 1294 2753 
L 1863 2753 
Q 2328 2753 2575 2939 
Q 2822 3125 2822 3475 
Q 2822 3834 2567 4026 
Q 2313 4219 1838 4219 
Q 1578 4219 1281 4162 
Q 984 4106 628 3988 
L 628 4550 
Q 988 4650 1302 4700 
Q 1616 4750 1894 4750 
Q 2613 4750 3031 4423 
Q 3450 4097 3450 3541 
Q 3450 3153 3228 2886 
Q 3006 2619 2597 2516 
z
" transform="scale(0.015625)"/>
       </defs>
       <use xlink:href="#DejaVuSans-37"/>
       <use xlink:href="#DejaVuSans-33" x="63.623047"/>
       <use xlink:href="#DejaVuSans-30" x="127.246094"/>
      </g>
     </g>
    </g>
    <g id="text_10">
     <!-- Actual Median Sale Price ($, thousands) -->
     <g transform="translate(97.089688 391.79375) scale(0.12 -0.12)">
      <defs>
       <path id="DejaVuSans-41" d="M 2188 4044 
L 1331 1722 
L 3047 1722 
L 2188 4044 
z
M 1831 4666 
L 2547 4666 
L 4325 0 
L 3669 0 
L 3244 1197 
L 1141 1197 
L 716 0 
L 50 0 
L 1831 4666 
z
" transform="scale(0.015625)"/>
       <path id="DejaVuSans-63" d="M 3122 3366 
L 3122 2828 
Q 2878 2963 2633 3030 
Q 2388 3097 2138 3097 
Q 1578 3097 1268 2742 
Q 959 2388 959 1747 
Q 959 1106 1268 751 
Q 1578 397 2138 397 
Q 2388 397 2633 464 
Q 2878 531 3122 666 
L 3122 134 
Q 2881 22 2623 -34 
Q 2366 -91 2075 -91 
Q 1284 -91 818 406 
Q 353 903 353 1747 
Q 353 2603 823 3093 
Q 1294 3584 2113 3584 
Q 2378 3584 2631 3529 
Q 2884 3475 3122 3366 
z
" transform="scale(0.015625)"/>
       <path id="DejaVuSans-74" d="M 1172 4494 
L 1172 3500 
L 2356 3500 
L 2356 3053 
L 1172 3053 
L 1172 1153 
Q 1172 725 1289 603 
Q 1406 481 1766 481 
L 2356 481 
L 2356 0 
L 1766 0 
Q 1100 0 847 248 
Q 594 497 594 1153 
L 594 3053 
L 172 3053 
L 172 3500 
L 594 3500 
L 594 4494 
L 1172 4494 
z
" transform="scale(0.015625)"/>
       <path id="DejaVuSans-75" d="M 544 1381 
L 544 3500 
L 1119 3500 
L 1119 1403 
Q 1119 906 1312 657 
Q 1506 409 1894 409 
Q 2359 409 2629 706 
Q 2900 1003 2900 1516 
L 2900 3500 
L 3475 3500 
L 3475 0 
L 2900 0 
L 2900 538 
Q 2691 219 2414 64 
Q 2138 -91 1772 -91 
Q 1169 -91 856 284 
Q 544 659 544 1381 
z
M 1991 3584 
L 1991 3584 
z
" transform="scale(0.015625)"/>
       <path id="DejaVuSans-61" d="M 2194 1759 
Q 1497 1759 1228 1600 
Q 959 1441 959 1056 
Q 959 750 1161 570 
Q 1363 391 1709 391 
Q 2188 391 2477 730 
Q 2766 1069 2766 1631 
L 2766 1759 
L 2194 1759 
z
M 3341 1997 
L 3341 0 
L 2766 0 
L 2766 531 
Q 2569 213 2275 61 
Q 1981 -91 1556 -91 
Q 1019 -91 701 211 
Q 384 513 384 1019 
Q 384 1609 779 1909 
Q 1175 2209 1959 2209 
L 2766 2209 
L 2766 2266 
Q 2766 2663 2505 2880 
Q 2244 3097 1772 3097 
Q 1472 3097 1187 3025 
Q 903 2953 641 2809 
L 641 3341 
Q 956 3463 1253 3523 
Q 1550 3584 1831 3584 
Q 2591 3584 2966 3190 
Q 3341 2797 3341 1997 
z
" transform="scale(0.015625)"/>
       <path id="DejaVuSans-6c" d="M 603 4863 
L 1178 4863 
L 1178 0 
L 603 0 
L 603 4863 
z
" transform="scale(0.015625)"/>
       <path id="DejaVuSans-20" transform="scale(0.015625)"/>
       <path id="DejaVuSans-4d" d="M 628 4666 
L 1569 4666 
L 2759 1491 
L 3956 4666 
L 4897 4666 
L 4897 0 
L 4281 0 
L 4281 4097 
L 3078 897 
L 2444 897 
L 1241 4097 
L 1241 0 
L 628 0 
L 628 4666 
z
" transform="scale(0.015625)"/>
       <path id="DejaVuSans-65" d="M 3597 1894 
L 3597 1613 
L 953 1613 
Q 991 1019 1311 708 
Q 1631 397 2203 397 
Q 2534 397 2845 478 
Q 3156 559 3463 722 
L 3463 178 
Q 3153 47 2828 -22 
Q 2503 -91 2169 -91 
Q 1331 -91 842 396 
Q 353 884 353 1716 
Q 353 2575 817 3079 
Q 1281 3584 2069 3584 
Q 2775 3584 3186 3129 
Q 3597 2675 3597 1894 
z
M 3022 2063 
Q 3016 2534 2758 2815 
Q 2500 3097 2075 3097 
Q 1594 3097 1305 2825 
Q 1016 2553 972 2059 
L 3022 2063 
z
" transform="scale(0.015625)"/>
       <path id="DejaVuSans-64" d="M 2906 2969 
L 2906 4863 
L 3481 4863 
L 3481 0 
L 2906 0 
L 2906 525 
Q 2725 213 2448 61 
Q 2172 -91 1784 -91 
Q 1150 -91 751 415 
Q 353 922 353 1747 
Q 353 2572 751 3078 
Q 1150 3584 1784 3584 
Q 2172 3584 2448 3432 
Q 2725 3281 2906 2969 
z
M 947 1747 
Q 947 1113 1208 752 
Q 1469 391 1925 391 
Q 2381 391 2643 752 
Q 2906 1113 2906 1747 
Q 2906 2381 2643 2742 
Q 2381 3103 1925 3103 
Q 1469 3103 1208 2742 
Q 947 2381 947 1747 
z
" transform="scale(0.015625)"/>
       <path id="DejaVuSans-69" d="M 603 3500 
L 1178 3500 
L 1178 0 
L 603 0 
L 603 3500 
z
M 603 4863 
L 1178 4863 
L 1178 4134 
L 603 4134 
L 603 4863 
z
" transform="scale(0.015625)"/>
       <path id="DejaVuSans-6e" d="M 3513 2113 
L 3513 0 
L 2938 0 
L 2938 2094 
Q 2938 2591 2744 2837 
Q 2550 3084 2163 3084 
Q 1697 3084 1428 2787 
Q 1159 2491 1159 1978 
L 1159 0 
L 581 0 
L 581 3500 
L 1159 3500 
L 1159 2956 
Q 1366 3272 1645 3428 
Q 1925 3584 2291 3584 
Q 2894 3584 3203 3211 
Q 3513 2838 3513 2113 
z
" transform="scale(0.015625)"/>
       <path id="DejaVuSans-53" d="M 3425 4513 
L 3425 3897 
Q 3066 4069 2747 4153 
Q 2428 4238 2131 4238 
Q 1616 4238 1336 4038 
Q 1056 3838 1056 3469 
Q 1056 3159 1242 3001 
Q 1428 2844 1947 2747 
L 2328 2669 
Q 3034 2534 3370 2195 
Q 3706 1856 3706 1288 
Q 3706 609 3251 259 
Q 2797 -91 1919 -91 
Q 1588 -91 1214 -16 
Q 841 59 441 206 
L 441 856 
Q 825 641 1194 531 
Q 1563 422 1919 422 
Q 2459 422 2753 634 
Q 3047 847 3047 1241 
Q 3047 1584 2836 1778 
Q 2625 1972 2144 2069 
L 1759 2144 
Q 1053 2284 737 2584 
Q 422 2884 422 3419 
Q 422 4038 858 4394 
Q 1294 4750 2059 4750 
Q 2388 4750 2728 4690 
Q 3069 4631 3425 4513 
z
" transform="scale(0.015625)"/>
       <path id="DejaVuSans-50" d="M 1259 4147 
L 1259 2394 
L 2053 2394 
Q 2494 2394 2734 2622 
Q 2975 2850 2975 3272 
Q 2975 3691 2734 3919 
Q 2494 4147 2053 4147 
L 1259 4147 
z
M 628 4666 
L 2053 4666 
Q 2838 4666 3239 4311 
Q 3641 3956 3641 3272 
Q 3641 2581 3239 2228 
Q 2838 1875 2053 1875 
L 1259 1875 
L 1259 0 
L 628 0 
L 628 4666 
z
" transform="scale(0.015625)"/>
       <path id="DejaVuSans-72" d="M 2631 2963 
Q 2534 3019 2420 3045 
Q 2306 3072 2169 3072 
Q 1681 3072 1420 2755 
Q 1159 2438 1159 1844 
L 1159 0 
L 581 0 
L 581 3500 
L 1159 3500 
L 1159 2956 
Q 1341 3275 1631 3429 
Q 1922 3584 2338 3584 
Q 2397 3584 2469 3576 
Q 2541 3569 2628 3553 
L 2631 2963 
z
" transform="scale(0.015625)"/>
       <path id="DejaVuSans-28" d="M 1984 4856 
Q 1566 4138 1362 3434 
Q 1159 2731 1159 2009 
Q 1159 1288 1364 580 
Q 1569 -128 1984 -844 
L 1484 -844 
Q 1016 -109 783 600 
Q 550 1309 550 2009 
Q 550 2706 781 3412 
Q 1013 4119 1484 4856 
L 1984 4856 
z
" transform="scale(0.015625)"/>
       <path id="DejaVuSans-24" d="M 2163 -941 
L 1850 -941 
L 1847 0 
Q 1519 6 1191 76 
Q 863 147 531 288 
L 531 850 
Q 850 650 1176 548 
Q 1503 447 1850 444 
L 1850 1869 
Q 1159 1981 845 2250 
Q 531 2519 531 2988 
Q 531 3497 872 3790 
Q 1213 4084 1850 4128 
L 1850 4863 
L 2163 4863 
L 2163 4138 
Q 2453 4125 2725 4076 
Q 2997 4028 3256 3944 
L 3256 3397 
Q 2997 3528 2723 3600 
Q 2450 3672 2163 3684 
L 2163 2350 
Q 2872 2241 3206 1959 
Q 3541 1678 3541 1191 
Q 3541 663 3186 358 
Q 2831 53 2163 6 
L 2163 -941 
z
M 1850 2406 
L 1850 3688 
Q 1488 3647 1297 3481 
Q 1106 3316 1106 3041 
Q 1106 2772 1282 2622 
Q 1459 2472 1850 2406 
z
M 2163 1806 
L 2163 453 
Q 2559 506 2761 678 
Q 2963 850 2963 1131 
Q 2963 1406 2770 1568 
Q 2578 1731 2163 1806 
z
" transform="scale(0.015625)"/>
       <path id="DejaVuSans-2c" d="M 750 794 
L 1409 794 
L 1409 256 
L 897 -744 
L 494 -744 
L 750 256 
L 750 794 
z
" transform="scale(0.015625)"/>
       <path id="DejaVuSans-68" d="M 3513 2113 
L 3513 0 
L 2938 0 
L 2938 2094 
Q 2938 2591 2744 2837 
Q 2550 3084 2163 3084 
Q 1697 3084 1428 2787 
Q 1159 2491 1159 1978 
L 1159 0 
L 581 0 
L 581 4863 
L 1159 4863 
L 1159 2956 
Q 1366 3272 1645 3428 
Q 1925 3584 2291 3584 
Q 2894 3584 3203 3211 
Q 3513 2838 3513 2113 
z
" transform="scale(0.015625)"/>
       <path id="DejaVuSans-6f" d="M 1959 3097 
Q 1497 3097 1228 2736 
Q 959 2375 959 1747 
Q 959 1119 1226 758 
Q 1494 397 1959 397 
Q 2419 397 2687 759 
Q 2956 1122 2956 1747 
Q 2956 2369 2687 2733 
Q 2419 3097 1959 3097 
z
M 1959 3584 
Q 2709 3584 3137 3096 
Q 3566 2609 3566 1747 
Q 3566 888 3137 398 
Q 2709 -91 1959 -91 
Q 1206 -91 779 398 
Q 353 888 353 1747 
Q 353 2609 779 3096 
Q 1206 3584 1959 3584 
z
" transform="scale(0.015625)"/>
       <path id="DejaVuSans-73" d="M 2834 3397 
L 2834 2853 
Q 2591 2978 2328 3040 
Q 2066 3103 1784 3103 
Q 1356 3103 1142 2972 
Q 928 2841 928 2578 
Q 928 2378 1081 2264 
Q 1234 2150 1697 2047 
L 1894 2003 
Q 2506 1872 2764 1633 
Q 3022 1394 3022 966 
Q 3022 478 2636 193 
Q 2250 -91 1575 -91 
Q 1294 -91 989 -36 
Q 684 19 347 128 
L 347 722 
Q 666 556 975 473 
Q 1284 391 1588 391 
Q 1994 391 2212 530 
Q 2431 669 2431 922 
Q 2431 1156 2273 1281 
Q 2116 1406 1581 1522 
L 1381 1569 
Q 847 1681 609 1914 
Q 372 2147 372 2553 
Q 372 3047 722 3315 
Q 1072 3584 1716 3584 
Q 2034 3584 2315 3537 
Q 2597 3491 2834 3397 
z
" transform="scale(0.015625)"/>
       <path id="DejaVuSans-29" d="M 513 4856 
L 1013 4856 
Q 1481 4119 1714 3412 
Q 1947 2706 1947 2009 
Q 1947 1309 1714 600 
Q 1481 -109 1013 -844 
L 513 -844 
Q 928 -128 1133 580 
Q 1338 1288 1338 2009 
Q 1338 2731 1133 3434 
Q 928 4138 513 4856 
z
" transform="scale(0.015625)"/>
      </defs>
      <use xlink:href="#DejaVuSans-41"/>
      <use xlink:href="#DejaVuSans-63" x="66.658203"/>
      <use xlink:href="#DejaVuSans-74" x="121.638672"/>
      <use xlink:href="#DejaVuSans-75" x="160.847656"/>
      <use xlink:href="#DejaVuSans-61" x="224.226562"/>
      <use xlink:href="#DejaVuSans-6c" x="285.505859"/>
      <use xlink:href="#DejaVuSans-20" x="313.289062"/>
      <use xlink:href="#DejaVuSans-4d" x="345.076172"/>
      <use xlink:href="#DejaVuSans-65" x="431.355469"/>
      <use xlink:href="#DejaVuSans-64" x="492.878906"/>
      <use xlink:href="#DejaVuSans-69" x="556.355469"/>
      <use xlink:href="#DejaVuSans-61" x="584.138672"/>
      <use xlink:href="#DejaVuSans-6e" x="645.417969"/>
      <use xlink:href="#DejaVuSans-20" x="708.796875"/>
      <use xlink:href="#DejaVuSans-53" x="740.583984"/>
      <use xlink:href="#DejaVuSans-61" x="804.060547"/>
      <use xlink:href="#DejaVuSans-6c" x="865.339844"/>
      <use xlink:href="#DejaVuSans-65" x="893.123047"/>
      <use xlink:href="#DejaVuSans-20" x="954.646484"/>
      <use xlink:href="#DejaVuSans-50" x="986.433594"/>
      <use xlink:href="#DejaVuSans-72" x="1044.986328"/>
      <use xlink:href="#DejaVuSans-69" x="1086.099609"/>
      <use xlink:href="#DejaVuSans-63" x="1113.882812"/>
      <use xlink:href="#DejaVuSans-65" x="1168.863281"/>
      <use xlink:href="#DejaVuSans-20" x="1230.386719"/>
      <use xlink:href="#DejaVuSans-28" x="1262.173828"/>
      <use xlink:href="#DejaVuSans-24" x="1301.1875"/>
      <use xlink:href="#DejaVuSans-2c" x="1364.810547"/>
      <use xlink:href="#DejaVuSans-20" x="1396.597656"/>
      <use xlink:href="#DejaVuSans-74" x="1428.384766"/>
      <use xlink:href="#DejaVuSans-68" x="1467.59375"/>
      <use xlink:href="#DejaVuSans-6f" x="1530.972656"/>
      <use xlink:href="#DejaVuSans-75" x="1592.154297"/>
      <use xlink:href="#DejaVuSans-73" x="1655.533203"/>
      <use xlink:href="#DejaVuSans-61" x="1707.632812"/>
      <use xlink:href="#DejaVuSans-6e" x="1768.912109"/>
      <use xlink:href="#DejaVuSans-64" x="1832.291016"/>
      <use xlink:href="#DejaVuSans-73" x="1895.767578"/>
      <use xlink:href="#DejaVuSans-29" x="1947.867188"/>
     </g>
    </g>
   </g>
   <g id="matplotlib.axis_2">
    <g id="ytick_1">
     <g id="line2d_10">
      <defs>
       <path id="mb1647d1ccc" d="M 0 0 
L -3.5 0 
" style="stroke: #000000; stroke-width: 0.8"/>
      </defs>
      <g>
       <use xlink:href="#mb1647d1ccc" x="48.90125" y="326.319746" style="stroke: #000000; stroke-width: 0.8"/>
      </g>
     </g>
     <g id="text_11">
      <!-- 670 -->
      <g transform="translate(22.81375 330.118965) scale(0.1 -0.1)">
       <use xlink:href="#DejaVuSans-36"/>
       <use xlink:href="#DejaVuSans-37" x="63.623047"/>
       <use xlink:href="#DejaVuSans-30" x="127.246094"/>
      </g>
     </g>
    </g>
    <g id="ytick_2">
     <g id="line2d_11">
      <g>
       <use xlink:href="#mb1647d1ccc" x="48.90125" y="284.734413" style="stroke: #000000; stroke-width: 0.8"/>
      </g>
     </g>
     <g id="text_12">
      <!-- 675 -->
      <g transform="translate(22.81375 288.533632) scale(0.1 -0.1)">
       <use xlink:href="#DejaVuSans-36"/>
       <use xlink:href="#DejaVuSans-37" x="63.623047"/>
       <use xlink:href="#DejaVuSans-35" x="127.246094"/>
      </g>
     </g>
    </g>
    <g id="ytick_3">
     <g id="line2d_12">
      <g>
       <use xlink:href="#mb1647d1ccc" x="48.90125" y="243.149081" style="stroke: #000000; stroke-width: 0.8"/>
      </g>
     </g>
     <g id="text_13">
      <!-- 680 -->
      <g transform="translate(22.81375 246.948299) scale(0.1 -0.1)">
       <use xlink:href="#DejaVuSans-36"/>
       <use xlink:href="#DejaVuSans-38" x="63.623047"/>
       <use xlink:href="#DejaVuSans-30" x="127.246094"/>
      </g>
     </g>
    </g>
    <g id="ytick_4">
     <g id="line2d_13">
      <g>
       <use xlink:href="#mb1647d1ccc" x="48.90125" y="201.563748" style="stroke: #000000; stroke-width: 0.8"/>
      </g>
     </g>
     <g id="text_14">
      <!-- 685 -->
      <g transform="translate(22.81375 205.362967) scale(0.1 -0.1)">
       <use xlink:href="#DejaVuSans-36"/>
       <use xlink:href="#DejaVuSans-38" x="63.623047"/>
       <use xlink:href="#DejaVuSans-35" x="127.246094"/>
      </g>
     </g>
    </g>
    <g id="ytick_5">
     <g id="line2d_14">
      <g>
       <use xlink:href="#mb1647d1ccc" x="48.90125" y="159.978415" style="stroke: #000000; stroke-width: 0.8"/>
      </g>
     </g>
     <g id="text_15">
      <!-- 690 -->
      <g transform="translate(22.81375 163.777634) scale(0.1 -0.1)">
       <use xlink:href="#DejaVuSans-36"/>
       <use xlink:href="#DejaVuSans-39" x="63.623047"/>
       <use xlink:href="#DejaVuSans-30" x="127.246094"/>
      </g>
     </g>
    </g>
    <g id="ytick_6">
     <g id="line2d_15">
      <g>
       <use xlink:href="#mb1647d1ccc" x="48.90125" y="118.393083" style="stroke: #000000; stroke-width: 0.8"/>
      </g>
     </g>
     <g id="text_16">
      <!-- 695 -->
      <g transform="translate(22.81375 122.192301) scale(0.1 -0.1)">
       <use xlink:href="#DejaVuSans-36"/>
       <use xlink:href="#DejaVuSans-39" x="63.623047"/>
       <use xlink:href="#DejaVuSans-35" x="127.246094"/>
      </g>
     </g>
    </g>
    <g id="ytick_7">
     <g id="line2d_16">
      <g>
       <use xlink:href="#mb1647d1ccc" x="48.90125" y="76.80775" style="stroke: #000000; stroke-width: 0.8"/>
      </g>
     </g>
     <g id="text_17">
      <!-- 700 -->
      <g transform="translate(22.81375 80.606969) scale(0.1 -0.1)">
       <use xlink:href="#DejaVuSans-37"/>
       <use xlink:href="#DejaVuSans-30" x="63.623047"/>
       <use xlink:href="#DejaVuSans-30" x="127.246094"/>
      </g>
     </g>
    </g>
    <g id="ytick_8">
     <g id="line2d_17">
      <g>
       <use xlink:href="#mb1647d1ccc" x="48.90125" y="35.222417" style="stroke: #000000; stroke-width: 0.8"/>
      </g>
     </g>
     <g id="text_18">
      <!-- 705 -->
      <g transform="translate(22.81375 39.021636) scale(0.1 -0.1)">
       <use xlink:href="#DejaVuSans-37"/>
       <use xlink:href="#DejaVuSans-30" x="63.623047"/>
       <use xlink:href="#DejaVuSans-35" x="127.246094"/>
      </g>
     </g>
    </g>
    <g id="text_19">
     <!-- Predicted Median Sale Price ($, thousands) -->
     <g transform="translate(16.318125 324.256562) rotate(-90) scale(0.12 -0.12)">
      <use xlink:href="#DejaVuSans-50"/>
      <use xlink:href="#DejaVuSans-72" x="58.552734"/>
      <use xlink:href="#DejaVuSans-65" x="97.416016"/>
      <use xlink:href="#DejaVuSans-64" x="158.939453"/>
      <use xlink:href="#DejaVuSans-69" x="222.416016"/>
      <use xlink:href="#DejaVuSans-63" x="250.199219"/>
      <use xlink:href="#DejaVuSans-74" x="305.179688"/>
      <use xlink:href="#DejaVuSans-65" x="344.388672"/>
      <use xlink:href="#DejaVuSans-64" x="405.912109"/>
      <use xlink:href="#DejaVuSans-20" x="469.388672"/>
      <use xlink:href="#DejaVuSans-4d" x="501.175781"/>
      <use xlink:href="#DejaVuSans-65" x="587.455078"/>
      <use xlink:href="#DejaVuSans-64" x="648.978516"/>
      <use xlink:href="#DejaVuSans-69" x="712.455078"/>
      <use xlink:href="#DejaVuSans-61" x="740.238281"/>
      <use xlink:href="#DejaVuSans-6e" x="801.517578"/>
      <use xlink:href="#DejaVuSans-20" x="864.896484"/>
      <use xlink:href="#DejaVuSans-53" x="896.683594"/>
      <use xlink:href="#DejaVuSans-61" x="960.160156"/>
      <use xlink:href="#DejaVuSans-6c" x="1021.439453"/>
      <use xlink:href="#DejaVuSans-65" x="1049.222656"/>
      <use xlink:href="#DejaVuSans-20" x="1110.746094"/>
      <use xlink:href="#DejaVuSans-50" x="1142.533203"/>
      <use xlink:href="#DejaVuSans-72" x="1201.085938"/>
      <use xlink:href="#DejaVuSans-69" x="1242.199219"/>
      <use xlink:href="#DejaVuSans-63" x="1269.982422"/>
      <use xlink:href="#DejaVuSans-65" x="1324.962891"/>
      <use xlink:href="#DejaVuSans-20" x="1386.486328"/>
      <use xlink:href="#DejaVuSans-28" x="1418.273438"/>
      <use xlink:href="#DejaVuSans-24" x="1457.287109"/>
      <use xlink:href="#DejaVuSans-2c" x="1520.910156"/>
      <use xlink:href="#DejaVuSans-20" x="1552.697266"/>
      <use xlink:href="#DejaVuSans-74" x="1584.484375"/>
      <use xlink:href="#DejaVuSans-68" x="1623.693359"/>
      <use xlink:href="#DejaVuSans-6f" x="1687.072266"/>
      <use xlink:href="#DejaVuSans-75" x="1748.253906"/>
      <use xlink:href="#DejaVuSans-73" x="1811.632812"/>
      <use xlink:href="#DejaVuSans-61" x="1863.732422"/>
      <use xlink:href="#DejaVuSans-6e" x="1925.011719"/>
      <use xlink:href="#DejaVuSans-64" x="1988.390625"/>
      <use xlink:href="#DejaVuSans-73" x="2051.867188"/>
      <use xlink:href="#DejaVuSans-29" x="2103.966797"/>
     </g>
    </g>
   </g>
   <g id="line2d_18">
    <path d="M 64.119432 256.421599 
L 67.193812 254.942081 
L 70.268192 253.462562 
L 73.342572 251.983044 
L 76.416952 250.503526 
L 79.491333 249.024007 
L 82.565713 247.544489 
L 85.640093 246.06497 
L 88.714473 244.585452 
L 91.788853 243.105934 
L 94.863233 241.626415 
L 97.937614 240.146897 
L 101.011994 238.667379 
L 104.086374 237.18786 
L 107.160754 235.708342 
L 110.235134 234.228824 
L 113.309514 232.749305 
L 116.383895 231.269787 
L 119.458275 229.790269 
L 122.532655 228.31075 
L 125.607035 226.831232 
L 128.681415 225.351713 
L 131.755795 223.872195 
L 134.830176 222.392677 
L 137.904556 220.913158 
L 140.978936 219.43364 
L 144.053316 217.954122 
L 147.127696 216.474603 
L 150.202076 214.995085 
L 153.276457 213.515567 
L 156.350837 212.036048 
L 159.425217 210.55653 
L 162.499597 209.077011 
L 165.573977 207.597493 
L 168.648357 206.117975 
L 171.722738 204.638456 
L 174.797118 203.158938 
L 177.871498 201.67942 
L 180.945878 200.199901 
L 184.020258 198.720383 
L 187.094638 197.240865 
L 190.169019 195.761346 
L 193.243399 194.281828 
L 196.317779 192.80231 
L 199.392159 191.322791 
L 202.466539 189.843273 
L 205.540919 188.363754 
L 208.6153 186.884236 
L 211.68968 185.404718 
L 214.76406 183.925199 
L 217.83844 182.445681 
L 220.91282 180.966163 
L 223.9872 179.486644 
L 227.061581 178.007126 
L 230.135961 176.527608 
L 233.210341 175.048089 
L 236.284721 173.568571 
L 239.359101 172.089053 
L 242.433481 170.609534 
L 245.507862 169.130016 
L 248.582242 167.650497 
L 251.656622 166.170979 
L 254.731002 164.691461 
L 257.805382 163.211942 
L 260.879762 161.732424 
L 263.954143 160.252906 
L 267.028523 158.773387 
L 270.102903 157.293869 
L 273.177283 155.814351 
L 276.251663 154.334832 
L 279.326043 152.855314 
L 282.400424 151.375796 
L 285.474804 149.896277 
L 288.549184 148.416759 
L 291.623564 146.93724 
L 294.697944 145.457722 
L 297.772324 143.978204 
L 300.846705 142.498685 
L 303.921085 141.019167 
L 306.995465 139.539649 
L 310.069845 138.06013 
L 313.144225 136.580612 
L 316.218605 135.101094 
L 319.292986 133.621575 
L 322.367366 132.142057 
L 325.441746 130.662538 
L 328.516126 129.18302 
L 331.590506 127.703502 
L 334.664886 126.223983 
L 337.739267 124.744465 
L 340.813647 123.264947 
L 343.888027 121.785428 
L 346.962407 120.30591 
L 350.036787 118.826392 
L 353.111167 117.346873 
L 356.185548 115.867355 
L 359.259928 114.387837 
L 362.334308 112.908318 
L 365.408688 111.4288 
L 368.483068 109.949281 
" clip-path="url(#p7c23415fd4)" style="fill: none; stroke: #ff0000; stroke-width: 2.25; stroke-linecap: square"/>
   </g>
   <g id="patch_3">
    <path d="M 48.90125 361.9975 
L 48.90125 29.3575 
" style="fill: none; stroke: #000000; stroke-width: 0.8; stroke-linejoin: miter; stroke-linecap: square"/>
   </g>
   <g id="patch_4">
    <path d="M 48.90125 361.9975 
L 383.70125 361.9975 
" style="fill: none; stroke: #000000; stroke-width: 0.8; stroke-linejoin: miter; stroke-linecap: square"/>
   </g>
   <g id="text_20">
    <!-- $R^{2} = $0.547 -->
    <g transform="translate(58.94525 55.836925) scale(0.12 -0.12)">
     <defs>
      <path id="DejaVuSans-Oblique-52" d="M 1613 4147 
L 1294 2491 
L 2106 2491 
Q 2584 2491 2879 2755 
Q 3175 3019 3175 3444 
Q 3175 3784 2976 3965 
Q 2778 4147 2406 4147 
L 1613 4147 
z
M 2772 2241 
Q 2972 2194 3105 2009 
Q 3238 1825 3413 1275 
L 3809 0 
L 3144 0 
L 2778 1197 
Q 2638 1659 2453 1815 
Q 2269 1972 1888 1972 
L 1191 1972 
L 806 0 
L 172 0 
L 1081 4666 
L 2503 4666 
Q 3150 4666 3495 4373 
Q 3841 4081 3841 3531 
Q 3841 3044 3547 2687 
Q 3253 2331 2772 2241 
z
" transform="scale(0.015625)"/>
      <path id="DejaVuSans-3d" d="M 678 2906 
L 4684 2906 
L 4684 2381 
L 678 2381 
L 678 2906 
z
M 678 1631 
L 4684 1631 
L 4684 1100 
L 678 1100 
L 678 1631 
z
" transform="scale(0.015625)"/>
      <path id="DejaVuSans-2e" d="M 684 794 
L 1344 794 
L 1344 0 
L 684 0 
L 684 794 
z
" transform="scale(0.015625)"/>
      <path id="DejaVuSans-34" d="M 2419 4116 
L 825 1625 
L 2419 1625 
L 2419 4116 
z
M 2253 4666 
L 3047 4666 
L 3047 1625 
L 3713 1625 
L 3713 1100 
L 3047 1100 
L 3047 0 
L 2419 0 
L 2419 1100 
L 313 1100 
L 313 1709 
L 2253 4666 
z
" transform="scale(0.015625)"/>
     </defs>
     <use xlink:href="#DejaVuSans-Oblique-52" transform="translate(0 0.765625)"/>
     <use xlink:href="#DejaVuSans-32" transform="translate(76.499193 39.046875) scale(0.7)"/>
     <use xlink:href="#DejaVuSans-3d" transform="translate(143.252122 0.765625)"/>
     <use xlink:href="#DejaVuSans-30" transform="translate(246.523607 0.765625)"/>
     <use xlink:href="#DejaVuSans-2e" transform="translate(310.146654 0.765625)"/>
     <use xlink:href="#DejaVuSans-35" transform="translate(341.933763 0.765625)"/>
     <use xlink:href="#DejaVuSans-34" transform="translate(405.55681 0.765625)"/>
     <use xlink:href="#DejaVuSans-37" transform="translate(469.179857 0.765625)"/>
    </g>
    <!-- $p = $0.07 -->
    <g transform="translate(58.94525 69.2743) scale(0.12 -0.12)">
     <defs>
      <path id="DejaVuSans-Oblique-70" d="M 3175 2156 
Q 3175 2616 2975 2859 
Q 2775 3103 2400 3103 
Q 2144 3103 1911 2972 
Q 1678 2841 1497 2591 
Q 1319 2344 1212 1994 
Q 1106 1644 1106 1300 
Q 1106 863 1306 627 
Q 1506 391 1875 391 
Q 2147 391 2380 519 
Q 2613 647 2778 891 
Q 2956 1147 3065 1494 
Q 3175 1841 3175 2156 
z
M 1394 2969 
Q 1625 3272 1939 3428 
Q 2253 3584 2638 3584 
Q 3175 3584 3472 3232 
Q 3769 2881 3769 2247 
Q 3769 1728 3584 1258 
Q 3400 788 3053 416 
Q 2822 169 2531 39 
Q 2241 -91 1919 -91 
Q 1547 -91 1294 64 
Q 1041 219 916 525 
L 556 -1331 
L -19 -1331 
L 922 3500 
L 1497 3500 
L 1394 2969 
z
" transform="scale(0.015625)"/>
     </defs>
     <use xlink:href="#DejaVuSans-Oblique-70" transform="translate(0 0.78125)"/>
     <use xlink:href="#DejaVuSans-3d" transform="translate(82.958984 0.78125)"/>
     <use xlink:href="#DejaVuSans-30" transform="translate(186.230469 0.78125)"/>
     <use xlink:href="#DejaVuSans-2e" transform="translate(249.853516 0.78125)"/>
     <use xlink:href="#DejaVuSans-30" transform="translate(281.640625 0.78125)"/>
     <use xlink:href="#DejaVuSans-37" transform="translate(345.263672 0.78125)"/>
    </g>
   </g>
   <g id="text_21">
    <!-- SVR: Actual vs. Predicted Median Sale Price -->
    <g transform="translate(42.69 19.3575) scale(0.16 -0.16)">
     <defs>
      <path id="DejaVuSans-56" d="M 1831 0 
L 50 4666 
L 709 4666 
L 2188 738 
L 3669 4666 
L 4325 4666 
L 2547 0 
L 1831 0 
z
" transform="scale(0.015625)"/>
      <path id="DejaVuSans-52" d="M 2841 2188 
Q 3044 2119 3236 1894 
Q 3428 1669 3622 1275 
L 4263 0 
L 3584 0 
L 2988 1197 
Q 2756 1666 2539 1819 
Q 2322 1972 1947 1972 
L 1259 1972 
L 1259 0 
L 628 0 
L 628 4666 
L 2053 4666 
Q 2853 4666 3247 4331 
Q 3641 3997 3641 3322 
Q 3641 2881 3436 2590 
Q 3231 2300 2841 2188 
z
M 1259 4147 
L 1259 2491 
L 2053 2491 
Q 2509 2491 2742 2702 
Q 2975 2913 2975 3322 
Q 2975 3731 2742 3939 
Q 2509 4147 2053 4147 
L 1259 4147 
z
" transform="scale(0.015625)"/>
      <path id="DejaVuSans-3a" d="M 750 794 
L 1409 794 
L 1409 0 
L 750 0 
L 750 794 
z
M 750 3309 
L 1409 3309 
L 1409 2516 
L 750 2516 
L 750 3309 
z
" transform="scale(0.015625)"/>
      <path id="DejaVuSans-76" d="M 191 3500 
L 800 3500 
L 1894 563 
L 2988 3500 
L 3597 3500 
L 2284 0 
L 1503 0 
L 191 3500 
z
" transform="scale(0.015625)"/>
     </defs>
     <use xlink:href="#DejaVuSans-53"/>
     <use xlink:href="#DejaVuSans-56" x="63.476562"/>
     <use xlink:href="#DejaVuSans-52" x="131.884766"/>
     <use xlink:href="#DejaVuSans-3a" x="198.242188"/>
     <use xlink:href="#DejaVuSans-20" x="231.933594"/>
     <use xlink:href="#DejaVuSans-41" x="263.720703"/>
     <use xlink:href="#DejaVuSans-63" x="330.378906"/>
     <use xlink:href="#DejaVuSans-74" x="385.359375"/>
     <use xlink:href="#DejaVuSans-75" x="424.568359"/>
     <use xlink:href="#DejaVuSans-61" x="487.947266"/>
     <use xlink:href="#DejaVuSans-6c" x="549.226562"/>
     <use xlink:href="#DejaVuSans-20" x="577.009766"/>
     <use xlink:href="#DejaVuSans-76" x="608.796875"/>
     <use xlink:href="#DejaVuSans-73" x="667.976562"/>
     <use xlink:href="#DejaVuSans-2e" x="720.076172"/>
     <use xlink:href="#DejaVuSans-20" x="751.863281"/>
     <use xlink:href="#DejaVuSans-50" x="783.650391"/>
     <use xlink:href="#DejaVuSans-72" x="842.203125"/>
     <use xlink:href="#DejaVuSans-65" x="881.066406"/>
     <use xlink:href="#DejaVuSans-64" x="942.589844"/>
     <use xlink:href="#DejaVuSans-69" x="1006.066406"/>
     <use xlink:href="#DejaVuSans-63" x="1033.849609"/>
     <use xlink:href="#DejaVuSans-74" x="1088.830078"/>
     <use xlink:href="#DejaVuSans-65" x="1128.039062"/>
     <use xlink:href="#DejaVuSans-64" x="1189.5625"/>
     <use xlink:href="#DejaVuSans-20" x="1253.039062"/>
     <use xlink:href="#DejaVuSans-4d" x="1284.826172"/>
     <use xlink:href="#DejaVuSans-65" x="1371.105469"/>
     <use xlink:href="#DejaVuSans-64" x="1432.628906"/>
     <use xlink:href="#DejaVuSans-69" x="1496.105469"/>
     <use xlink:href="#DejaVuSans-61" x="1523.888672"/>
     <use xlink:href="#DejaVuSans-6e" x="1585.167969"/>
     <use xlink:href="#DejaVuSans-20" x="1648.546875"/>
     <use xlink:href="#DejaVuSans-53" x="1680.333984"/>
     <use xlink:href="#DejaVuSans-61" x="1743.810547"/>
     <use xlink:href="#DejaVuSans-6c" x="1805.089844"/>
     <use xlink:href="#DejaVuSans-65" x="1832.873047"/>
     <use xlink:href="#DejaVuSans-20" x="1894.396484"/>
     <use xlink:href="#DejaVuSans-50" x="1926.183594"/>
     <use xlink:href="#DejaVuSans-72" x="1984.736328"/>
     <use xlink:href="#DejaVuSans-69" x="2025.849609"/>
     <use xlink:href="#DejaVuSans-63" x="2053.632812"/>
     <use xlink:href="#DejaVuSans-65" x="2108.613281"/>
    </g>
   </g>
  </g>
 </g>
 <defs>
  <clipPath id="p7c23415fd4">
   <rect x="48.90125" y="29.3575" width="334.8" height="332.64"/>
  </clipPath>
 </defs>
</svg>
