<?xml version="1.0" encoding="utf-8" standalone="no"?>
<!DOCTYPE svg PUBLIC "-//W3C//DTD SVG 1.1//EN"
  "http://www.w3.org/Graphics/SVG/1.1/DTD/svg11.dtd">
<svg xmlns:xlink="http://www.w3.org/1999/xlink" width="425.172702pt" height="401.489375pt" viewBox="0 0 425.172702 401.489375" xmlns="http://www.w3.org/2000/svg" version="1.1">
 <metadata>
  <rdf:RDF xmlns:dc="http://purl.org/dc/elements/1.1/" xmlns:cc="http://creativecommons.org/ns#" xmlns:rdf="http://www.w3.org/1999/02/22-rdf-syntax-ns#">
   <cc:Work>
    <dc:type rdf:resource="http://purl.org/dc/dcmitype/StillImage"/>
    <dc:date>2023-12-12T20:59:24.450408</dc:date>
    <dc:format>image/svg+xml</dc:format>
    <dc:creator>
     <cc:Agent>
      <dc:title>Matplotlib v3.8.0, https://matplotlib.org/</dc:title>
     </cc:Agent>
    </dc:creator>
   </cc:Work>
  </rdf:RDF>
 </metadata>
 <defs>
  <style type="text/css">*{stroke-linejoin: round; stroke-linecap: butt}</style>
 </defs>
 <g id="figure_1">
  <g id="patch_1">
   <path d="M -0 401.489375 
L 425.172702 401.489375 
L 425.172702 0 
L -0 0 
z
" style="fill: #ffffff"/>
  </g>
  <g id="axes_1">
   <g id="patch_2">
    <path d="M 67.98875 361.9975 
L 402.78875 361.9975 
L 402.78875 29.3575 
L 67.98875 29.3575 
z
" style="fill: #ffffff"/>
   </g>
   <g id="PathCollection_1">
    <defs>
     <path id="mbb2d6bdb54" d="M 0 5 
C 1.326016 5 2.597899 4.473168 3.535534 3.535534 
C 4.473168 2.597899 5 1.326016 5 0 
C 5 -1.326016 4.473168 -2.597899 3.535534 -3.535534 
C 2.597899 -4.473168 1.326016 -5 0 -5 
C -1.326016 -5 -2.597899 -4.473168 -3.535534 -3.535534 
C -4.473168 -2.597899 -5 -1.326016 -5 0 
C -5 1.326016 -4.473168 2.597899 -3.535534 3.535534 
C -2.597899 4.473168 -1.326016 5 0 5 
z
" style="stroke: #000000; stroke-opacity: 0.5"/>
    </defs>
    <g clip-path="url(#paada98751c)">
     <use xlink:href="#mbb2d6bdb54" x="285.738868" y="156.643032" style="fill: #1f77b4; fill-opacity: 0.5; stroke: #000000; stroke-opacity: 0.5"/>
     <use xlink:href="#mbb2d6bdb54" x="274.424235" y="140.5812" style="fill: #1f77b4; fill-opacity: 0.5; stroke: #000000; stroke-opacity: 0.5"/>
     <use xlink:href="#mbb2d6bdb54" x="297.053502" y="159.177949" style="fill: #1f77b4; fill-opacity: 0.5; stroke: #000000; stroke-opacity: 0.5"/>
     <use xlink:href="#mbb2d6bdb54" x="195.221236" y="284.572753" style="fill: #1f77b4; fill-opacity: 0.5; stroke: #000000; stroke-opacity: 0.5"/>
     <use xlink:href="#mbb2d6bdb54" x="155.620585" y="260.054741" style="fill: #1f77b4; fill-opacity: 0.5; stroke: #000000; stroke-opacity: 0.5"/>
     <use xlink:href="#mbb2d6bdb54" x="172.592535" y="263.317758" style="fill: #1f77b4; fill-opacity: 0.5; stroke: #000000; stroke-opacity: 0.5"/>
     <use xlink:href="#mbb2d6bdb54" x="288.567527" y="140.77989" style="fill: #1f77b4; fill-opacity: 0.5; stroke: #000000; stroke-opacity: 0.5"/>
     <use xlink:href="#mbb2d6bdb54" x="296.48777" y="115.917268" style="fill: #1f77b4; fill-opacity: 0.5; stroke: #000000; stroke-opacity: 0.5"/>
     <use xlink:href="#mbb2d6bdb54" x="179.381315" y="231.095766" style="fill: #1f77b4; fill-opacity: 0.5; stroke: #000000; stroke-opacity: 0.5"/>
     <use xlink:href="#mbb2d6bdb54" x="217.398483" y="235.061683" style="fill: #1f77b4; fill-opacity: 0.5; stroke: #000000; stroke-opacity: 0.5"/>
     <use xlink:href="#mbb2d6bdb54" x="172.592535" y="284.536527" style="fill: #1f77b4; fill-opacity: 0.5; stroke: #000000; stroke-opacity: 0.5"/>
     <use xlink:href="#mbb2d6bdb54" x="285.625722" y="146.915497" style="fill: #1f77b4; fill-opacity: 0.5; stroke: #000000; stroke-opacity: 0.5"/>
     <use xlink:href="#mbb2d6bdb54" x="336.654718" y="109.767596" style="fill: #1f77b4; fill-opacity: 0.5; stroke: #000000; stroke-opacity: 0.5"/>
     <use xlink:href="#mbb2d6bdb54" x="195.787533" y="223.959299" style="fill: #1f77b4; fill-opacity: 0.5; stroke: #000000; stroke-opacity: 0.5"/>
     <use xlink:href="#mbb2d6bdb54" x="171.630791" y="275.962149" style="fill: #1f77b4; fill-opacity: 0.5; stroke: #000000; stroke-opacity: 0.5"/>
     <use xlink:href="#mbb2d6bdb54" x="222.659788" y="214.726857" style="fill: #1f77b4; fill-opacity: 0.5; stroke: #000000; stroke-opacity: 0.5"/>
     <use xlink:href="#mbb2d6bdb54" x="336.654718" y="113.023175" style="fill: #1f77b4; fill-opacity: 0.5; stroke: #000000; stroke-opacity: 0.5"/>
     <use xlink:href="#mbb2d6bdb54" x="285.738868" y="142.645526" style="fill: #1f77b4; fill-opacity: 0.5; stroke: #000000; stroke-opacity: 0.5"/>
     <use xlink:href="#mbb2d6bdb54" x="83.206932" y="267.014558" style="fill: #1f77b4; fill-opacity: 0.5; stroke: #000000; stroke-opacity: 0.5"/>
     <use xlink:href="#mbb2d6bdb54" x="172.592535" y="264.20925" style="fill: #1f77b4; fill-opacity: 0.5; stroke: #000000; stroke-opacity: 0.5"/>
     <use xlink:href="#mbb2d6bdb54" x="179.947047" y="238.500906" style="fill: #1f77b4; fill-opacity: 0.5; stroke: #000000; stroke-opacity: 0.5"/>
     <use xlink:href="#mbb2d6bdb54" x="212.193752" y="244.105453" style="fill: #1f77b4; fill-opacity: 0.5; stroke: #000000; stroke-opacity: 0.5"/>
     <use xlink:href="#mbb2d6bdb54" x="302.710818" y="108.484356" style="fill: #1f77b4; fill-opacity: 0.5; stroke: #000000; stroke-opacity: 0.5"/>
     <use xlink:href="#mbb2d6bdb54" x="186.735827" y="255.152935" style="fill: #1f77b4; fill-opacity: 0.5; stroke: #000000; stroke-opacity: 0.5"/>
     <use xlink:href="#mbb2d6bdb54" x="165.747182" y="270.405209" style="fill: #1f77b4; fill-opacity: 0.5; stroke: #000000; stroke-opacity: 0.5"/>
     <use xlink:href="#mbb2d6bdb54" x="342.312035" y="74.03457" style="fill: #1f77b4; fill-opacity: 0.5; stroke: #000000; stroke-opacity: 0.5"/>
     <use xlink:href="#mbb2d6bdb54" x="149.963268" y="284.150881" style="fill: #1f77b4; fill-opacity: 0.5; stroke: #000000; stroke-opacity: 0.5"/>
     <use xlink:href="#mbb2d6bdb54" x="195.221802" y="228.482919" style="fill: #1f77b4; fill-opacity: 0.5; stroke: #000000; stroke-opacity: 0.5"/>
     <use xlink:href="#mbb2d6bdb54" x="228.034238" y="222.193783" style="fill: #1f77b4; fill-opacity: 0.5; stroke: #000000; stroke-opacity: 0.5"/>
     <use xlink:href="#mbb2d6bdb54" x="157.883512" y="245.261923" style="fill: #1f77b4; fill-opacity: 0.5; stroke: #000000; stroke-opacity: 0.5"/>
     <use xlink:href="#mbb2d6bdb54" x="166.935218" y="243.230666" style="fill: #1f77b4; fill-opacity: 0.5; stroke: #000000; stroke-opacity: 0.5"/>
     <use xlink:href="#mbb2d6bdb54" x="183.907168" y="256.524384" style="fill: #1f77b4; fill-opacity: 0.5; stroke: #000000; stroke-opacity: 0.5"/>
     <use xlink:href="#mbb2d6bdb54" x="138.648635" y="284.198348" style="fill: #1f77b4; fill-opacity: 0.5; stroke: #000000; stroke-opacity: 0.5"/>
     <use xlink:href="#mbb2d6bdb54" x="127.334002" y="277.958097" style="fill: #1f77b4; fill-opacity: 0.5; stroke: #000000; stroke-opacity: 0.5"/>
     <use xlink:href="#mbb2d6bdb54" x="166.935218" y="249.334723" style="fill: #1f77b4; fill-opacity: 0.5; stroke: #000000; stroke-opacity: 0.5"/>
     <use xlink:href="#mbb2d6bdb54" x="171.461072" y="246.882853" style="fill: #1f77b4; fill-opacity: 0.5; stroke: #000000; stroke-opacity: 0.5"/>
     <use xlink:href="#mbb2d6bdb54" x="149.963268" y="258.584207" style="fill: #1f77b4; fill-opacity: 0.5; stroke: #000000; stroke-opacity: 0.5"/>
     <use xlink:href="#mbb2d6bdb54" x="274.424235" y="139.544637" style="fill: #1f77b4; fill-opacity: 0.5; stroke: #000000; stroke-opacity: 0.5"/>
     <use xlink:href="#mbb2d6bdb54" x="189.564485" y="239.980383" style="fill: #1f77b4; fill-opacity: 0.5; stroke: #000000; stroke-opacity: 0.5"/>
     <use xlink:href="#mbb2d6bdb54" x="299.88216" y="131.046507" style="fill: #1f77b4; fill-opacity: 0.5; stroke: #000000; stroke-opacity: 0.5"/>
     <use xlink:href="#mbb2d6bdb54" x="182.209973" y="252.319794" style="fill: #1f77b4; fill-opacity: 0.5; stroke: #000000; stroke-opacity: 0.5"/>
     <use xlink:href="#mbb2d6bdb54" x="319.682768" y="84.561737" style="fill: #1f77b4; fill-opacity: 0.5; stroke: #000000; stroke-opacity: 0.5"/>
     <use xlink:href="#mbb2d6bdb54" x="188.150156" y="263.125393" style="fill: #1f77b4; fill-opacity: 0.5; stroke: #000000; stroke-opacity: 0.5"/>
     <use xlink:href="#mbb2d6bdb54" x="314.025452" y="138.793508" style="fill: #1f77b4; fill-opacity: 0.5; stroke: #000000; stroke-opacity: 0.5"/>
     <use xlink:href="#mbb2d6bdb54" x="198.616192" y="232.561629" style="fill: #1f77b4; fill-opacity: 0.5; stroke: #000000; stroke-opacity: 0.5"/>
     <use xlink:href="#mbb2d6bdb54" x="246.137652" y="198.57423" style="fill: #1f77b4; fill-opacity: 0.5; stroke: #000000; stroke-opacity: 0.5"/>
     <use xlink:href="#mbb2d6bdb54" x="189.041183" y="243.79096" style="fill: #1f77b4; fill-opacity: 0.5; stroke: #000000; stroke-opacity: 0.5"/>
     <use xlink:href="#mbb2d6bdb54" x="273.292772" y="150.037605" style="fill: #1f77b4; fill-opacity: 0.5; stroke: #000000; stroke-opacity: 0.5"/>
     <use xlink:href="#mbb2d6bdb54" x="155.620585" y="245.61289" style="fill: #1f77b4; fill-opacity: 0.5; stroke: #000000; stroke-opacity: 0.5"/>
     <use xlink:href="#mbb2d6bdb54" x="161.277902" y="251.679139" style="fill: #1f77b4; fill-opacity: 0.5; stroke: #000000; stroke-opacity: 0.5"/>
     <use xlink:href="#mbb2d6bdb54" x="220.679727" y="221.868582" style="fill: #1f77b4; fill-opacity: 0.5; stroke: #000000; stroke-opacity: 0.5"/>
     <use xlink:href="#mbb2d6bdb54" x="222.376922" y="235.102468" style="fill: #1f77b4; fill-opacity: 0.5; stroke: #000000; stroke-opacity: 0.5"/>
     <use xlink:href="#mbb2d6bdb54" x="161.277902" y="262.162567" style="fill: #1f77b4; fill-opacity: 0.5; stroke: #000000; stroke-opacity: 0.5"/>
     <use xlink:href="#mbb2d6bdb54" x="285.738868" y="150.176174" style="fill: #1f77b4; fill-opacity: 0.5; stroke: #000000; stroke-opacity: 0.5"/>
     <use xlink:href="#mbb2d6bdb54" x="387.570568" y="69.428411" style="fill: #1f77b4; fill-opacity: 0.5; stroke: #000000; stroke-opacity: 0.5"/>
     <use xlink:href="#mbb2d6bdb54" x="148.831805" y="283.497818" style="fill: #1f77b4; fill-opacity: 0.5; stroke: #000000; stroke-opacity: 0.5"/>
     <use xlink:href="#mbb2d6bdb54" x="284.607405" y="145.010389" style="fill: #1f77b4; fill-opacity: 0.5; stroke: #000000; stroke-opacity: 0.5"/>
     <use xlink:href="#mbb2d6bdb54" x="172.026803" y="251.706935" style="fill: #1f77b4; fill-opacity: 0.5; stroke: #000000; stroke-opacity: 0.5"/>
     <use xlink:href="#mbb2d6bdb54" x="338.917645" y="123.683211" style="fill: #1f77b4; fill-opacity: 0.5; stroke: #000000; stroke-opacity: 0.5"/>
     <use xlink:href="#mbb2d6bdb54" x="207.102167" y="248.611342" style="fill: #1f77b4; fill-opacity: 0.5; stroke: #000000; stroke-opacity: 0.5"/>
     <use xlink:href="#mbb2d6bdb54" x="319.117037" y="105.709587" style="fill: #1f77b4; fill-opacity: 0.5; stroke: #000000; stroke-opacity: 0.5"/>
     <use xlink:href="#mbb2d6bdb54" x="297.053502" y="131.810738" style="fill: #1f77b4; fill-opacity: 0.5; stroke: #000000; stroke-opacity: 0.5"/>
     <use xlink:href="#mbb2d6bdb54" x="189.564485" y="231.055138" style="fill: #1f77b4; fill-opacity: 0.5; stroke: #000000; stroke-opacity: 0.5"/>
     <use xlink:href="#mbb2d6bdb54" x="315.722647" y="109.079566" style="fill: #1f77b4; fill-opacity: 0.5; stroke: #000000; stroke-opacity: 0.5"/>
     <use xlink:href="#mbb2d6bdb54" x="110.362052" y="309.579583" style="fill: #1f77b4; fill-opacity: 0.5; stroke: #000000; stroke-opacity: 0.5"/>
     <use xlink:href="#mbb2d6bdb54" x="206.536435" y="251.58317" style="fill: #1f77b4; fill-opacity: 0.5; stroke: #000000; stroke-opacity: 0.5"/>
     <use xlink:href="#mbb2d6bdb54" x="161.277902" y="264.923959" style="fill: #1f77b4; fill-opacity: 0.5; stroke: #000000; stroke-opacity: 0.5"/>
     <use xlink:href="#mbb2d6bdb54" x="172.592535" y="251.097392" style="fill: #1f77b4; fill-opacity: 0.5; stroke: #000000; stroke-opacity: 0.5"/>
     <use xlink:href="#mbb2d6bdb54" x="288.567527" y="118.906257" style="fill: #1f77b4; fill-opacity: 0.5; stroke: #000000; stroke-opacity: 0.5"/>
     <use xlink:href="#mbb2d6bdb54" x="204.273508" y="213.332048" style="fill: #1f77b4; fill-opacity: 0.5; stroke: #000000; stroke-opacity: 0.5"/>
    </g>
   </g>
   <g id="PolyCollection_1">
    <path d="M 83.206932 321.684111 
L 83.206932 346.8775 
L 86.281312 343.913058 
L 89.355692 340.948615 
L 92.430072 337.913245 
L 95.504452 334.866927 
L 98.578833 331.820379 
L 101.653213 328.864656 
L 104.727593 325.806935 
L 107.801973 322.747784 
L 110.876353 319.688075 
L 113.950733 316.628893 
L 117.025114 313.609422 
L 120.099494 310.600098 
L 123.173874 307.584741 
L 126.248254 304.582333 
L 129.322634 301.573077 
L 132.397014 298.543095 
L 135.471395 295.534249 
L 138.545775 292.517429 
L 141.620155 289.493379 
L 144.694535 286.518814 
L 147.768915 283.54527 
L 150.843295 280.57231 
L 153.917676 277.590304 
L 156.992056 274.567696 
L 160.066436 271.59447 
L 163.140816 268.677319 
L 166.215196 265.703466 
L 169.289576 262.735727 
L 172.363957 259.755761 
L 175.438337 256.781807 
L 178.512717 253.766915 
L 181.587097 250.751812 
L 184.661477 247.844611 
L 187.735857 244.889613 
L 190.810238 241.951381 
L 193.884618 239.080231 
L 196.958998 236.123788 
L 200.033378 233.208187 
L 203.107758 230.254542 
L 206.182138 227.361447 
L 209.256519 224.466653 
L 212.330899 221.56271 
L 215.405279 218.637839 
L 218.479659 215.689836 
L 221.554039 212.836824 
L 224.628419 210.018544 
L 227.7028 207.181158 
L 230.77718 204.35559 
L 233.85156 201.531459 
L 236.92594 198.756622 
L 240.00032 195.966607 
L 243.0747 193.249969 
L 246.149081 190.500036 
L 249.223461 187.68885 
L 252.297841 184.987592 
L 255.372221 182.283955 
L 258.446601 179.579606 
L 261.520981 176.710089 
L 264.595362 174.026212 
L 267.669742 171.408191 
L 270.744122 168.710457 
L 273.818502 166.028757 
L 276.892882 163.361272 
L 279.967262 160.695717 
L 283.041643 158.027684 
L 286.116023 155.326476 
L 289.190403 152.729583 
L 292.264783 150.064304 
L 295.339163 147.43618 
L 298.413543 144.814629 
L 301.487924 142.211985 
L 304.562304 139.57566 
L 307.636684 136.929977 
L 310.711064 134.352583 
L 313.785444 131.716406 
L 316.859824 129.196045 
L 319.934205 126.628448 
L 323.008585 123.965088 
L 326.082965 121.349064 
L 329.157345 118.757561 
L 332.231725 116.177446 
L 335.306105 113.628125 
L 338.380486 111.032734 
L 341.454866 108.416359 
L 344.529246 105.800051 
L 347.603626 103.208549 
L 350.678006 100.616165 
L 353.752386 98.020159 
L 356.826767 95.434042 
L 359.901147 92.84254 
L 362.975527 90.251038 
L 366.049907 87.679821 
L 369.124287 85.110059 
L 372.198667 82.511716 
L 375.273048 79.892705 
L 378.347428 77.342218 
L 381.421808 74.79173 
L 384.496188 72.241243 
L 387.570568 69.690454 
L 387.570568 44.4775 
L 387.570568 44.4775 
L 384.496188 47.46802 
L 381.421808 50.553209 
L 378.347428 53.554088 
L 375.273048 56.588432 
L 372.198667 59.64754 
L 369.124287 62.706649 
L 366.049907 65.746164 
L 362.975527 68.793511 
L 359.901147 71.83649 
L 356.826767 74.819701 
L 353.752386 77.801478 
L 350.678006 80.784528 
L 347.603626 83.767215 
L 344.529246 86.782771 
L 341.454866 89.820042 
L 338.380486 92.857313 
L 335.306105 95.881404 
L 332.231725 98.895469 
L 329.157345 101.893669 
L 326.082965 104.875374 
L 323.008585 107.879229 
L 319.934205 110.864798 
L 316.859824 113.875087 
L 313.785444 116.881529 
L 310.711064 119.868321 
L 307.636684 122.851226 
L 304.562304 125.789755 
L 301.487924 128.774709 
L 298.413543 131.69504 
L 295.339163 134.676707 
L 292.264783 137.658048 
L 289.190403 140.637447 
L 286.116023 143.680918 
L 283.041643 146.595978 
L 279.967262 149.575111 
L 276.892882 152.541313 
L 273.818502 155.454011 
L 270.744122 158.325051 
L 267.669742 161.30693 
L 264.595362 164.183178 
L 261.520981 167.015125 
L 258.446601 169.823736 
L 255.372221 172.631983 
L 252.297841 175.575736 
L 249.223461 178.365613 
L 246.149081 181.108171 
L 243.0747 184.126102 
L 240.00032 187.003388 
L 236.92594 189.785468 
L 233.85156 192.482662 
L 230.77718 195.357433 
L 227.7028 198.033064 
L 224.628419 200.929795 
L 221.554039 203.7247 
L 218.479659 206.54562 
L 215.405279 209.216459 
L 212.330899 211.947734 
L 209.256519 214.635002 
L 206.182138 217.22256 
L 203.107758 219.987373 
L 200.033378 222.646495 
L 196.958998 225.302201 
L 193.884618 227.960802 
L 190.810238 230.619854 
L 187.735857 233.327798 
L 184.661477 235.916792 
L 181.587097 238.561643 
L 178.512717 241.258769 
L 175.438337 244.000086 
L 172.363957 246.804623 
L 169.289576 249.465727 
L 166.215196 252.071845 
L 163.140816 254.688033 
L 160.066436 257.27796 
L 156.992056 259.873408 
L 153.917676 262.51309 
L 150.843295 265.117428 
L 147.768915 267.670066 
L 144.694535 270.225456 
L 141.620155 272.742849 
L 138.545775 275.284072 
L 135.471395 277.863274 
L 132.397014 280.443397 
L 129.322634 283.025166 
L 126.248254 285.568407 
L 123.173874 288.167769 
L 120.099494 290.70138 
L 117.025114 293.334839 
L 113.950733 295.925362 
L 110.876353 298.504385 
L 107.801973 301.083409 
L 104.727593 303.665422 
L 101.653213 306.235733 
L 98.578833 308.793907 
L 95.504452 311.35208 
L 92.430072 313.907413 
L 89.355692 316.461543 
L 86.281312 319.019682 
L 83.206932 321.684111 
z
" clip-path="url(#paada98751c)" style="fill: #ff0000; fill-opacity: 0.15"/>
   </g>
   <g id="matplotlib.axis_1">
    <g id="xtick_1">
     <g id="line2d_1">
      <defs>
       <path id="m423519aca9" d="M 0 0 
L 0 3.5 
" style="stroke: #000000; stroke-width: 0.8"/>
      </defs>
      <g>
       <use xlink:href="#m423519aca9" x="116.019368" y="361.9975" style="stroke: #000000; stroke-width: 0.8"/>
      </g>
     </g>
     <g id="text_1">
      <!-- 500000 -->
      <g transform="translate(96.931868 376.595937) scale(0.1 -0.1)">
       <defs>
        <path id="DejaVuSans-35" d="M 691 4666 
L 3169 4666 
L 3169 4134 
L 1269 4134 
L 1269 2991 
Q 1406 3038 1543 3061 
Q 1681 3084 1819 3084 
Q 2600 3084 3056 2656 
Q 3513 2228 3513 1497 
Q 3513 744 3044 326 
Q 2575 -91 1722 -91 
Q 1428 -91 1123 -41 
Q 819 9 494 109 
L 494 744 
Q 775 591 1075 516 
Q 1375 441 1709 441 
Q 2250 441 2565 725 
Q 2881 1009 2881 1497 
Q 2881 1984 2565 2268 
Q 2250 2553 1709 2553 
Q 1456 2553 1204 2497 
Q 953 2441 691 2322 
L 691 4666 
z
" transform="scale(0.015625)"/>
        <path id="DejaVuSans-30" d="M 2034 4250 
Q 1547 4250 1301 3770 
Q 1056 3291 1056 2328 
Q 1056 1369 1301 889 
Q 1547 409 2034 409 
Q 2525 409 2770 889 
Q 3016 1369 3016 2328 
Q 3016 3291 2770 3770 
Q 2525 4250 2034 4250 
z
M 2034 4750 
Q 2819 4750 3233 4129 
Q 3647 3509 3647 2328 
Q 3647 1150 3233 529 
Q 2819 -91 2034 -91 
Q 1250 -91 836 529 
Q 422 1150 422 2328 
Q 422 3509 836 4129 
Q 1250 4750 2034 4750 
z
" transform="scale(0.015625)"/>
       </defs>
       <use xlink:href="#DejaVuSans-35"/>
       <use xlink:href="#DejaVuSans-30" x="63.623047"/>
       <use xlink:href="#DejaVuSans-30" x="127.246094"/>
       <use xlink:href="#DejaVuSans-30" x="190.869141"/>
       <use xlink:href="#DejaVuSans-30" x="254.492188"/>
       <use xlink:href="#DejaVuSans-30" x="318.115234"/>
      </g>
     </g>
    </g>
    <g id="xtick_2">
     <g id="line2d_2">
      <g>
       <use xlink:href="#m423519aca9" x="172.592535" y="361.9975" style="stroke: #000000; stroke-width: 0.8"/>
      </g>
     </g>
     <g id="text_2">
      <!-- 550000 -->
      <g transform="translate(153.505035 376.595937) scale(0.1 -0.1)">
       <use xlink:href="#DejaVuSans-35"/>
       <use xlink:href="#DejaVuSans-35" x="63.623047"/>
       <use xlink:href="#DejaVuSans-30" x="127.246094"/>
       <use xlink:href="#DejaVuSans-30" x="190.869141"/>
       <use xlink:href="#DejaVuSans-30" x="254.492188"/>
       <use xlink:href="#DejaVuSans-30" x="318.115234"/>
      </g>
     </g>
    </g>
    <g id="xtick_3">
     <g id="line2d_3">
      <g>
       <use xlink:href="#m423519aca9" x="229.165702" y="361.9975" style="stroke: #000000; stroke-width: 0.8"/>
      </g>
     </g>
     <g id="text_3">
      <!-- 600000 -->
      <g transform="translate(210.078202 376.595937) scale(0.1 -0.1)">
       <defs>
        <path id="DejaVuSans-36" d="M 2113 2584 
Q 1688 2584 1439 2293 
Q 1191 2003 1191 1497 
Q 1191 994 1439 701 
Q 1688 409 2113 409 
Q 2538 409 2786 701 
Q 3034 994 3034 1497 
Q 3034 2003 2786 2293 
Q 2538 2584 2113 2584 
z
M 3366 4563 
L 3366 3988 
Q 3128 4100 2886 4159 
Q 2644 4219 2406 4219 
Q 1781 4219 1451 3797 
Q 1122 3375 1075 2522 
Q 1259 2794 1537 2939 
Q 1816 3084 2150 3084 
Q 2853 3084 3261 2657 
Q 3669 2231 3669 1497 
Q 3669 778 3244 343 
Q 2819 -91 2113 -91 
Q 1303 -91 875 529 
Q 447 1150 447 2328 
Q 447 3434 972 4092 
Q 1497 4750 2381 4750 
Q 2619 4750 2861 4703 
Q 3103 4656 3366 4563 
z
" transform="scale(0.015625)"/>
       </defs>
       <use xlink:href="#DejaVuSans-36"/>
       <use xlink:href="#DejaVuSans-30" x="63.623047"/>
       <use xlink:href="#DejaVuSans-30" x="127.246094"/>
       <use xlink:href="#DejaVuSans-30" x="190.869141"/>
       <use xlink:href="#DejaVuSans-30" x="254.492188"/>
       <use xlink:href="#DejaVuSans-30" x="318.115234"/>
      </g>
     </g>
    </g>
    <g id="xtick_4">
     <g id="line2d_4">
      <g>
       <use xlink:href="#m423519aca9" x="285.738868" y="361.9975" style="stroke: #000000; stroke-width: 0.8"/>
      </g>
     </g>
     <g id="text_4">
      <!-- 650000 -->
      <g transform="translate(266.651368 376.595937) scale(0.1 -0.1)">
       <use xlink:href="#DejaVuSans-36"/>
       <use xlink:href="#DejaVuSans-35" x="63.623047"/>
       <use xlink:href="#DejaVuSans-30" x="127.246094"/>
       <use xlink:href="#DejaVuSans-30" x="190.869141"/>
       <use xlink:href="#DejaVuSans-30" x="254.492188"/>
       <use xlink:href="#DejaVuSans-30" x="318.115234"/>
      </g>
     </g>
    </g>
    <g id="xtick_5">
     <g id="line2d_5">
      <g>
       <use xlink:href="#m423519aca9" x="342.312035" y="361.9975" style="stroke: #000000; stroke-width: 0.8"/>
      </g>
     </g>
     <g id="text_5">
      <!-- 700000 -->
      <g transform="translate(323.224535 376.595937) scale(0.1 -0.1)">
       <defs>
        <path id="DejaVuSans-37" d="M 525 4666 
L 3525 4666 
L 3525 4397 
L 1831 0 
L 1172 0 
L 2766 4134 
L 525 4134 
L 525 4666 
z
" transform="scale(0.015625)"/>
       </defs>
       <use xlink:href="#DejaVuSans-37"/>
       <use xlink:href="#DejaVuSans-30" x="63.623047"/>
       <use xlink:href="#DejaVuSans-30" x="127.246094"/>
       <use xlink:href="#DejaVuSans-30" x="190.869141"/>
       <use xlink:href="#DejaVuSans-30" x="254.492188"/>
       <use xlink:href="#DejaVuSans-30" x="318.115234"/>
      </g>
     </g>
    </g>
    <g id="xtick_6">
     <g id="line2d_6">
      <g>
       <use xlink:href="#m423519aca9" x="398.885202" y="361.9975" style="stroke: #000000; stroke-width: 0.8"/>
      </g>
     </g>
     <g id="text_6">
      <!-- 750000 -->
      <g transform="translate(379.797702 376.595937) scale(0.1 -0.1)">
       <use xlink:href="#DejaVuSans-37"/>
       <use xlink:href="#DejaVuSans-35" x="63.623047"/>
       <use xlink:href="#DejaVuSans-30" x="127.246094"/>
       <use xlink:href="#DejaVuSans-30" x="190.869141"/>
       <use xlink:href="#DejaVuSans-30" x="254.492188"/>
       <use xlink:href="#DejaVuSans-30" x="318.115234"/>
      </g>
     </g>
    </g>
    <g id="text_7">
     <!-- Actual Median Sale Price ($) -->
     <g transform="translate(151.159063 391.79375) scale(0.12 -0.12)">
      <defs>
       <path id="DejaVuSans-41" d="M 2188 4044 
L 1331 1722 
L 3047 1722 
L 2188 4044 
z
M 1831 4666 
L 2547 4666 
L 4325 0 
L 3669 0 
L 3244 1197 
L 1141 1197 
L 716 0 
L 50 0 
L 1831 4666 
z
" transform="scale(0.015625)"/>
       <path id="DejaVuSans-63" d="M 3122 3366 
L 3122 2828 
Q 2878 2963 2633 3030 
Q 2388 3097 2138 3097 
Q 1578 3097 1268 2742 
Q 959 2388 959 1747 
Q 959 1106 1268 751 
Q 1578 397 2138 397 
Q 2388 397 2633 464 
Q 2878 531 3122 666 
L 3122 134 
Q 2881 22 2623 -34 
Q 2366 -91 2075 -91 
Q 1284 -91 818 406 
Q 353 903 353 1747 
Q 353 2603 823 3093 
Q 1294 3584 2113 3584 
Q 2378 3584 2631 3529 
Q 2884 3475 3122 3366 
z
" transform="scale(0.015625)"/>
       <path id="DejaVuSans-74" d="M 1172 4494 
L 1172 3500 
L 2356 3500 
L 2356 3053 
L 1172 3053 
L 1172 1153 
Q 1172 725 1289 603 
Q 1406 481 1766 481 
L 2356 481 
L 2356 0 
L 1766 0 
Q 1100 0 847 248 
Q 594 497 594 1153 
L 594 3053 
L 172 3053 
L 172 3500 
L 594 3500 
L 594 4494 
L 1172 4494 
z
" transform="scale(0.015625)"/>
       <path id="DejaVuSans-75" d="M 544 1381 
L 544 3500 
L 1119 3500 
L 1119 1403 
Q 1119 906 1312 657 
Q 1506 409 1894 409 
Q 2359 409 2629 706 
Q 2900 1003 2900 1516 
L 2900 3500 
L 3475 3500 
L 3475 0 
L 2900 0 
L 2900 538 
Q 2691 219 2414 64 
Q 2138 -91 1772 -91 
Q 1169 -91 856 284 
Q 544 659 544 1381 
z
M 1991 3584 
L 1991 3584 
z
" transform="scale(0.015625)"/>
       <path id="DejaVuSans-61" d="M 2194 1759 
Q 1497 1759 1228 1600 
Q 959 1441 959 1056 
Q 959 750 1161 570 
Q 1363 391 1709 391 
Q 2188 391 2477 730 
Q 2766 1069 2766 1631 
L 2766 1759 
L 2194 1759 
z
M 3341 1997 
L 3341 0 
L 2766 0 
L 2766 531 
Q 2569 213 2275 61 
Q 1981 -91 1556 -91 
Q 1019 -91 701 211 
Q 384 513 384 1019 
Q 384 1609 779 1909 
Q 1175 2209 1959 2209 
L 2766 2209 
L 2766 2266 
Q 2766 2663 2505 2880 
Q 2244 3097 1772 3097 
Q 1472 3097 1187 3025 
Q 903 2953 641 2809 
L 641 3341 
Q 956 3463 1253 3523 
Q 1550 3584 1831 3584 
Q 2591 3584 2966 3190 
Q 3341 2797 3341 1997 
z
" transform="scale(0.015625)"/>
       <path id="DejaVuSans-6c" d="M 603 4863 
L 1178 4863 
L 1178 0 
L 603 0 
L 603 4863 
z
" transform="scale(0.015625)"/>
       <path id="DejaVuSans-20" transform="scale(0.015625)"/>
       <path id="DejaVuSans-4d" d="M 628 4666 
L 1569 4666 
L 2759 1491 
L 3956 4666 
L 4897 4666 
L 4897 0 
L 4281 0 
L 4281 4097 
L 3078 897 
L 2444 897 
L 1241 4097 
L 1241 0 
L 628 0 
L 628 4666 
z
" transform="scale(0.015625)"/>
       <path id="DejaVuSans-65" d="M 3597 1894 
L 3597 1613 
L 953 1613 
Q 991 1019 1311 708 
Q 1631 397 2203 397 
Q 2534 397 2845 478 
Q 3156 559 3463 722 
L 3463 178 
Q 3153 47 2828 -22 
Q 2503 -91 2169 -91 
Q 1331 -91 842 396 
Q 353 884 353 1716 
Q 353 2575 817 3079 
Q 1281 3584 2069 3584 
Q 2775 3584 3186 3129 
Q 3597 2675 3597 1894 
z
M 3022 2063 
Q 3016 2534 2758 2815 
Q 2500 3097 2075 3097 
Q 1594 3097 1305 2825 
Q 1016 2553 972 2059 
L 3022 2063 
z
" transform="scale(0.015625)"/>
       <path id="DejaVuSans-64" d="M 2906 2969 
L 2906 4863 
L 3481 4863 
L 3481 0 
L 2906 0 
L 2906 525 
Q 2725 213 2448 61 
Q 2172 -91 1784 -91 
Q 1150 -91 751 415 
Q 353 922 353 1747 
Q 353 2572 751 3078 
Q 1150 3584 1784 3584 
Q 2172 3584 2448 3432 
Q 2725 3281 2906 2969 
z
M 947 1747 
Q 947 1113 1208 752 
Q 1469 391 1925 391 
Q 2381 391 2643 752 
Q 2906 1113 2906 1747 
Q 2906 2381 2643 2742 
Q 2381 3103 1925 3103 
Q 1469 3103 1208 2742 
Q 947 2381 947 1747 
z
" transform="scale(0.015625)"/>
       <path id="DejaVuSans-69" d="M 603 3500 
L 1178 3500 
L 1178 0 
L 603 0 
L 603 3500 
z
M 603 4863 
L 1178 4863 
L 1178 4134 
L 603 4134 
L 603 4863 
z
" transform="scale(0.015625)"/>
       <path id="DejaVuSans-6e" d="M 3513 2113 
L 3513 0 
L 2938 0 
L 2938 2094 
Q 2938 2591 2744 2837 
Q 2550 3084 2163 3084 
Q 1697 3084 1428 2787 
Q 1159 2491 1159 1978 
L 1159 0 
L 581 0 
L 581 3500 
L 1159 3500 
L 1159 2956 
Q 1366 3272 1645 3428 
Q 1925 3584 2291 3584 
Q 2894 3584 3203 3211 
Q 3513 2838 3513 2113 
z
" transform="scale(0.015625)"/>
       <path id="DejaVuSans-53" d="M 3425 4513 
L 3425 3897 
Q 3066 4069 2747 4153 
Q 2428 4238 2131 4238 
Q 1616 4238 1336 4038 
Q 1056 3838 1056 3469 
Q 1056 3159 1242 3001 
Q 1428 2844 1947 2747 
L 2328 2669 
Q 3034 2534 3370 2195 
Q 3706 1856 3706 1288 
Q 3706 609 3251 259 
Q 2797 -91 1919 -91 
Q 1588 -91 1214 -16 
Q 841 59 441 206 
L 441 856 
Q 825 641 1194 531 
Q 1563 422 1919 422 
Q 2459 422 2753 634 
Q 3047 847 3047 1241 
Q 3047 1584 2836 1778 
Q 2625 1972 2144 2069 
L 1759 2144 
Q 1053 2284 737 2584 
Q 422 2884 422 3419 
Q 422 4038 858 4394 
Q 1294 4750 2059 4750 
Q 2388 4750 2728 4690 
Q 3069 4631 3425 4513 
z
" transform="scale(0.015625)"/>
       <path id="DejaVuSans-50" d="M 1259 4147 
L 1259 2394 
L 2053 2394 
Q 2494 2394 2734 2622 
Q 2975 2850 2975 3272 
Q 2975 3691 2734 3919 
Q 2494 4147 2053 4147 
L 1259 4147 
z
M 628 4666 
L 2053 4666 
Q 2838 4666 3239 4311 
Q 3641 3956 3641 3272 
Q 3641 2581 3239 2228 
Q 2838 1875 2053 1875 
L 1259 1875 
L 1259 0 
L 628 0 
L 628 4666 
z
" transform="scale(0.015625)"/>
       <path id="DejaVuSans-72" d="M 2631 2963 
Q 2534 3019 2420 3045 
Q 2306 3072 2169 3072 
Q 1681 3072 1420 2755 
Q 1159 2438 1159 1844 
L 1159 0 
L 581 0 
L 581 3500 
L 1159 3500 
L 1159 2956 
Q 1341 3275 1631 3429 
Q 1922 3584 2338 3584 
Q 2397 3584 2469 3576 
Q 2541 3569 2628 3553 
L 2631 2963 
z
" transform="scale(0.015625)"/>
       <path id="DejaVuSans-28" d="M 1984 4856 
Q 1566 4138 1362 3434 
Q 1159 2731 1159 2009 
Q 1159 1288 1364 580 
Q 1569 -128 1984 -844 
L 1484 -844 
Q 1016 -109 783 600 
Q 550 1309 550 2009 
Q 550 2706 781 3412 
Q 1013 4119 1484 4856 
L 1984 4856 
z
" transform="scale(0.015625)"/>
       <path id="DejaVuSans-24" d="M 2163 -941 
L 1850 -941 
L 1847 0 
Q 1519 6 1191 76 
Q 863 147 531 288 
L 531 850 
Q 850 650 1176 548 
Q 1503 447 1850 444 
L 1850 1869 
Q 1159 1981 845 2250 
Q 531 2519 531 2988 
Q 531 3497 872 3790 
Q 1213 4084 1850 4128 
L 1850 4863 
L 2163 4863 
L 2163 4138 
Q 2453 4125 2725 4076 
Q 2997 4028 3256 3944 
L 3256 3397 
Q 2997 3528 2723 3600 
Q 2450 3672 2163 3684 
L 2163 2350 
Q 2872 2241 3206 1959 
Q 3541 1678 3541 1191 
Q 3541 663 3186 358 
Q 2831 53 2163 6 
L 2163 -941 
z
M 1850 2406 
L 1850 3688 
Q 1488 3647 1297 3481 
Q 1106 3316 1106 3041 
Q 1106 2772 1282 2622 
Q 1459 2472 1850 2406 
z
M 2163 1806 
L 2163 453 
Q 2559 506 2761 678 
Q 2963 850 2963 1131 
Q 2963 1406 2770 1568 
Q 2578 1731 2163 1806 
z
" transform="scale(0.015625)"/>
       <path id="DejaVuSans-29" d="M 513 4856 
L 1013 4856 
Q 1481 4119 1714 3412 
Q 1947 2706 1947 2009 
Q 1947 1309 1714 600 
Q 1481 -109 1013 -844 
L 513 -844 
Q 928 -128 1133 580 
Q 1338 1288 1338 2009 
Q 1338 2731 1133 3434 
Q 928 4138 513 4856 
z
" transform="scale(0.015625)"/>
      </defs>
      <use xlink:href="#DejaVuSans-41"/>
      <use xlink:href="#DejaVuSans-63" x="66.658203"/>
      <use xlink:href="#DejaVuSans-74" x="121.638672"/>
      <use xlink:href="#DejaVuSans-75" x="160.847656"/>
      <use xlink:href="#DejaVuSans-61" x="224.226562"/>
      <use xlink:href="#DejaVuSans-6c" x="285.505859"/>
      <use xlink:href="#DejaVuSans-20" x="313.289062"/>
      <use xlink:href="#DejaVuSans-4d" x="345.076172"/>
      <use xlink:href="#DejaVuSans-65" x="431.355469"/>
      <use xlink:href="#DejaVuSans-64" x="492.878906"/>
      <use xlink:href="#DejaVuSans-69" x="556.355469"/>
      <use xlink:href="#DejaVuSans-61" x="584.138672"/>
      <use xlink:href="#DejaVuSans-6e" x="645.417969"/>
      <use xlink:href="#DejaVuSans-20" x="708.796875"/>
      <use xlink:href="#DejaVuSans-53" x="740.583984"/>
      <use xlink:href="#DejaVuSans-61" x="804.060547"/>
      <use xlink:href="#DejaVuSans-6c" x="865.339844"/>
      <use xlink:href="#DejaVuSans-65" x="893.123047"/>
      <use xlink:href="#DejaVuSans-20" x="954.646484"/>
      <use xlink:href="#DejaVuSans-50" x="986.433594"/>
      <use xlink:href="#DejaVuSans-72" x="1044.986328"/>
      <use xlink:href="#DejaVuSans-69" x="1086.099609"/>
      <use xlink:href="#DejaVuSans-63" x="1113.882812"/>
      <use xlink:href="#DejaVuSans-65" x="1168.863281"/>
      <use xlink:href="#DejaVuSans-20" x="1230.386719"/>
      <use xlink:href="#DejaVuSans-28" x="1262.173828"/>
      <use xlink:href="#DejaVuSans-24" x="1301.1875"/>
      <use xlink:href="#DejaVuSans-29" x="1364.810547"/>
     </g>
    </g>
   </g>
   <g id="matplotlib.axis_2">
    <g id="ytick_1">
     <g id="line2d_7">
      <defs>
       <path id="md14a29e27f" d="M 0 0 
L -3.5 0 
" style="stroke: #000000; stroke-width: 0.8"/>
      </defs>
      <g>
       <use xlink:href="#md14a29e27f" x="67.98875" y="312.938301" style="stroke: #000000; stroke-width: 0.8"/>
      </g>
     </g>
     <g id="text_8">
      <!-- 500000 -->
      <g transform="translate(22.81375 316.73752) scale(0.1 -0.1)">
       <use xlink:href="#DejaVuSans-35"/>
       <use xlink:href="#DejaVuSans-30" x="63.623047"/>
       <use xlink:href="#DejaVuSans-30" x="127.246094"/>
       <use xlink:href="#DejaVuSans-30" x="190.869141"/>
       <use xlink:href="#DejaVuSans-30" x="254.492188"/>
       <use xlink:href="#DejaVuSans-30" x="318.115234"/>
      </g>
     </g>
    </g>
    <g id="ytick_2">
     <g id="line2d_8">
      <g>
       <use xlink:href="#md14a29e27f" x="67.98875" y="257.357705" style="stroke: #000000; stroke-width: 0.8"/>
      </g>
     </g>
     <g id="text_9">
      <!-- 550000 -->
      <g transform="translate(22.81375 261.156923) scale(0.1 -0.1)">
       <use xlink:href="#DejaVuSans-35"/>
       <use xlink:href="#DejaVuSans-35" x="63.623047"/>
       <use xlink:href="#DejaVuSans-30" x="127.246094"/>
       <use xlink:href="#DejaVuSans-30" x="190.869141"/>
       <use xlink:href="#DejaVuSans-30" x="254.492188"/>
       <use xlink:href="#DejaVuSans-30" x="318.115234"/>
      </g>
     </g>
    </g>
    <g id="ytick_3">
     <g id="line2d_9">
      <g>
       <use xlink:href="#md14a29e27f" x="67.98875" y="201.777108" style="stroke: #000000; stroke-width: 0.8"/>
      </g>
     </g>
     <g id="text_10">
      <!-- 600000 -->
      <g transform="translate(22.81375 205.576327) scale(0.1 -0.1)">
       <use xlink:href="#DejaVuSans-36"/>
       <use xlink:href="#DejaVuSans-30" x="63.623047"/>
       <use xlink:href="#DejaVuSans-30" x="127.246094"/>
       <use xlink:href="#DejaVuSans-30" x="190.869141"/>
       <use xlink:href="#DejaVuSans-30" x="254.492188"/>
       <use xlink:href="#DejaVuSans-30" x="318.115234"/>
      </g>
     </g>
    </g>
    <g id="ytick_4">
     <g id="line2d_10">
      <g>
       <use xlink:href="#md14a29e27f" x="67.98875" y="146.196512" style="stroke: #000000; stroke-width: 0.8"/>
      </g>
     </g>
     <g id="text_11">
      <!-- 650000 -->
      <g transform="translate(22.81375 149.99573) scale(0.1 -0.1)">
       <use xlink:href="#DejaVuSans-36"/>
       <use xlink:href="#DejaVuSans-35" x="63.623047"/>
       <use xlink:href="#DejaVuSans-30" x="127.246094"/>
       <use xlink:href="#DejaVuSans-30" x="190.869141"/>
       <use xlink:href="#DejaVuSans-30" x="254.492188"/>
       <use xlink:href="#DejaVuSans-30" x="318.115234"/>
      </g>
     </g>
    </g>
    <g id="ytick_5">
     <g id="line2d_11">
      <g>
       <use xlink:href="#md14a29e27f" x="67.98875" y="90.615915" style="stroke: #000000; stroke-width: 0.8"/>
      </g>
     </g>
     <g id="text_12">
      <!-- 700000 -->
      <g transform="translate(22.81375 94.415134) scale(0.1 -0.1)">
       <use xlink:href="#DejaVuSans-37"/>
       <use xlink:href="#DejaVuSans-30" x="63.623047"/>
       <use xlink:href="#DejaVuSans-30" x="127.246094"/>
       <use xlink:href="#DejaVuSans-30" x="190.869141"/>
       <use xlink:href="#DejaVuSans-30" x="254.492188"/>
       <use xlink:href="#DejaVuSans-30" x="318.115234"/>
      </g>
     </g>
    </g>
    <g id="ytick_6">
     <g id="line2d_12">
      <g>
       <use xlink:href="#md14a29e27f" x="67.98875" y="35.035318" style="stroke: #000000; stroke-width: 0.8"/>
      </g>
     </g>
     <g id="text_13">
      <!-- 750000 -->
      <g transform="translate(22.81375 38.834537) scale(0.1 -0.1)">
       <use xlink:href="#DejaVuSans-37"/>
       <use xlink:href="#DejaVuSans-35" x="63.623047"/>
       <use xlink:href="#DejaVuSans-30" x="127.246094"/>
       <use xlink:href="#DejaVuSans-30" x="190.869141"/>
       <use xlink:href="#DejaVuSans-30" x="254.492188"/>
       <use xlink:href="#DejaVuSans-30" x="318.115234"/>
      </g>
     </g>
    </g>
    <g id="text_14">
     <!-- Predicted Median Sale Price ($) -->
     <g transform="translate(16.318125 289.274687) rotate(-90) scale(0.12 -0.12)">
      <use xlink:href="#DejaVuSans-50"/>
      <use xlink:href="#DejaVuSans-72" x="58.552734"/>
      <use xlink:href="#DejaVuSans-65" x="97.416016"/>
      <use xlink:href="#DejaVuSans-64" x="158.939453"/>
      <use xlink:href="#DejaVuSans-69" x="222.416016"/>
      <use xlink:href="#DejaVuSans-63" x="250.199219"/>
      <use xlink:href="#DejaVuSans-74" x="305.179688"/>
      <use xlink:href="#DejaVuSans-65" x="344.388672"/>
      <use xlink:href="#DejaVuSans-64" x="405.912109"/>
      <use xlink:href="#DejaVuSans-20" x="469.388672"/>
      <use xlink:href="#DejaVuSans-4d" x="501.175781"/>
      <use xlink:href="#DejaVuSans-65" x="587.455078"/>
      <use xlink:href="#DejaVuSans-64" x="648.978516"/>
      <use xlink:href="#DejaVuSans-69" x="712.455078"/>
      <use xlink:href="#DejaVuSans-61" x="740.238281"/>
      <use xlink:href="#DejaVuSans-6e" x="801.517578"/>
      <use xlink:href="#DejaVuSans-20" x="864.896484"/>
      <use xlink:href="#DejaVuSans-53" x="896.683594"/>
      <use xlink:href="#DejaVuSans-61" x="960.160156"/>
      <use xlink:href="#DejaVuSans-6c" x="1021.439453"/>
      <use xlink:href="#DejaVuSans-65" x="1049.222656"/>
      <use xlink:href="#DejaVuSans-20" x="1110.746094"/>
      <use xlink:href="#DejaVuSans-50" x="1142.533203"/>
      <use xlink:href="#DejaVuSans-72" x="1201.085938"/>
      <use xlink:href="#DejaVuSans-69" x="1242.199219"/>
      <use xlink:href="#DejaVuSans-63" x="1269.982422"/>
      <use xlink:href="#DejaVuSans-65" x="1324.962891"/>
      <use xlink:href="#DejaVuSans-20" x="1386.486328"/>
      <use xlink:href="#DejaVuSans-28" x="1418.273438"/>
      <use xlink:href="#DejaVuSans-24" x="1457.287109"/>
      <use xlink:href="#DejaVuSans-29" x="1520.910156"/>
     </g>
    </g>
   </g>
   <g id="line2d_13">
    <path d="M 83.206932 335.002089 
L 86.281312 332.190562 
L 89.355692 329.379034 
L 92.430072 326.567507 
L 95.504452 323.75598 
L 98.578833 320.944453 
L 101.653213 318.132926 
L 104.727593 315.321399 
L 107.801973 312.509871 
L 110.876353 309.698344 
L 113.950733 306.886817 
L 117.025114 304.07529 
L 120.099494 301.263763 
L 123.173874 298.452236 
L 126.248254 295.640708 
L 129.322634 292.829181 
L 132.397014 290.017654 
L 135.471395 287.206127 
L 138.545775 284.3946 
L 141.620155 281.583073 
L 144.694535 278.771545 
L 147.768915 275.960018 
L 150.843295 273.148491 
L 153.917676 270.336964 
L 156.992056 267.525437 
L 160.066436 264.71391 
L 163.140816 261.902382 
L 166.215196 259.090855 
L 169.289576 256.279328 
L 172.363957 253.467801 
L 175.438337 250.656274 
L 178.512717 247.844747 
L 181.587097 245.033219 
L 184.661477 242.221692 
L 187.735857 239.410165 
L 190.810238 236.598638 
L 193.884618 233.787111 
L 196.958998 230.975584 
L 200.033378 228.164056 
L 203.107758 225.352529 
L 206.182138 222.541002 
L 209.256519 219.729475 
L 212.330899 216.917948 
L 215.405279 214.106421 
L 218.479659 211.294893 
L 221.554039 208.483366 
L 224.628419 205.671839 
L 227.7028 202.860312 
L 230.77718 200.048785 
L 233.85156 197.237257 
L 236.92594 194.42573 
L 240.00032 191.614203 
L 243.0747 188.802676 
L 246.149081 185.991149 
L 249.223461 183.179622 
L 252.297841 180.368094 
L 255.372221 177.556567 
L 258.446601 174.74504 
L 261.520981 171.933513 
L 264.595362 169.121986 
L 267.669742 166.310459 
L 270.744122 163.498931 
L 273.818502 160.687404 
L 276.892882 157.875877 
L 279.967262 155.06435 
L 283.041643 152.252823 
L 286.116023 149.441296 
L 289.190403 146.629768 
L 292.264783 143.818241 
L 295.339163 141.006714 
L 298.413543 138.195187 
L 301.487924 135.38366 
L 304.562304 132.572133 
L 307.636684 129.760605 
L 310.711064 126.949078 
L 313.785444 124.137551 
L 316.859824 121.326024 
L 319.934205 118.514497 
L 323.008585 115.70297 
L 326.082965 112.891442 
L 329.157345 110.079915 
L 332.231725 107.268388 
L 335.306105 104.456861 
L 338.380486 101.645334 
L 341.454866 98.833807 
L 344.529246 96.022279 
L 347.603626 93.210752 
L 350.678006 90.399225 
L 353.752386 87.587698 
L 356.826767 84.776171 
L 359.901147 81.964644 
L 362.975527 79.153116 
L 366.049907 76.341589 
L 369.124287 73.530062 
L 372.198667 70.718535 
L 375.273048 67.907008 
L 378.347428 65.09548 
L 381.421808 62.283953 
L 384.496188 59.472426 
L 387.570568 56.660899 
" clip-path="url(#paada98751c)" style="fill: none; stroke: #ff0000; stroke-width: 2.25; stroke-linecap: square"/>
   </g>
   <g id="patch_3">
    <path d="M 67.98875 361.9975 
L 67.98875 29.3575 
" style="fill: none; stroke: #000000; stroke-width: 0.8; stroke-linejoin: miter; stroke-linecap: square"/>
   </g>
   <g id="patch_4">
    <path d="M 67.98875 361.9975 
L 402.78875 361.9975 
" style="fill: none; stroke: #000000; stroke-width: 0.8; stroke-linejoin: miter; stroke-linecap: square"/>
   </g>
   <g id="text_15">
    <!-- $R^{2} = $0.916 -->
    <g transform="translate(78.03275 42.39955) scale(0.12 -0.12)">
     <defs>
      <path id="DejaVuSans-Oblique-52" d="M 1613 4147 
L 1294 2491 
L 2106 2491 
Q 2584 2491 2879 2755 
Q 3175 3019 3175 3444 
Q 3175 3784 2976 3965 
Q 2778 4147 2406 4147 
L 1613 4147 
z
M 2772 2241 
Q 2972 2194 3105 2009 
Q 3238 1825 3413 1275 
L 3809 0 
L 3144 0 
L 2778 1197 
Q 2638 1659 2453 1815 
Q 2269 1972 1888 1972 
L 1191 1972 
L 806 0 
L 172 0 
L 1081 4666 
L 2503 4666 
Q 3150 4666 3495 4373 
Q 3841 4081 3841 3531 
Q 3841 3044 3547 2687 
Q 3253 2331 2772 2241 
z
" transform="scale(0.015625)"/>
      <path id="DejaVuSans-32" d="M 1228 531 
L 3431 531 
L 3431 0 
L 469 0 
L 469 531 
Q 828 903 1448 1529 
Q 2069 2156 2228 2338 
Q 2531 2678 2651 2914 
Q 2772 3150 2772 3378 
Q 2772 3750 2511 3984 
Q 2250 4219 1831 4219 
Q 1534 4219 1204 4116 
Q 875 4013 500 3803 
L 500 4441 
Q 881 4594 1212 4672 
Q 1544 4750 1819 4750 
Q 2544 4750 2975 4387 
Q 3406 4025 3406 3419 
Q 3406 3131 3298 2873 
Q 3191 2616 2906 2266 
Q 2828 2175 2409 1742 
Q 1991 1309 1228 531 
z
" transform="scale(0.015625)"/>
      <path id="DejaVuSans-3d" d="M 678 2906 
L 4684 2906 
L 4684 2381 
L 678 2381 
L 678 2906 
z
M 678 1631 
L 4684 1631 
L 4684 1100 
L 678 1100 
L 678 1631 
z
" transform="scale(0.015625)"/>
      <path id="DejaVuSans-2e" d="M 684 794 
L 1344 794 
L 1344 0 
L 684 0 
L 684 794 
z
" transform="scale(0.015625)"/>
      <path id="DejaVuSans-39" d="M 703 97 
L 703 672 
Q 941 559 1184 500 
Q 1428 441 1663 441 
Q 2288 441 2617 861 
Q 2947 1281 2994 2138 
Q 2813 1869 2534 1725 
Q 2256 1581 1919 1581 
Q 1219 1581 811 2004 
Q 403 2428 403 3163 
Q 403 3881 828 4315 
Q 1253 4750 1959 4750 
Q 2769 4750 3195 4129 
Q 3622 3509 3622 2328 
Q 3622 1225 3098 567 
Q 2575 -91 1691 -91 
Q 1453 -91 1209 -44 
Q 966 3 703 97 
z
M 1959 2075 
Q 2384 2075 2632 2365 
Q 2881 2656 2881 3163 
Q 2881 3666 2632 3958 
Q 2384 4250 1959 4250 
Q 1534 4250 1286 3958 
Q 1038 3666 1038 3163 
Q 1038 2656 1286 2365 
Q 1534 2075 1959 2075 
z
" transform="scale(0.015625)"/>
      <path id="DejaVuSans-31" d="M 794 531 
L 1825 531 
L 1825 4091 
L 703 3866 
L 703 4441 
L 1819 4666 
L 2450 4666 
L 2450 531 
L 3481 531 
L 3481 0 
L 794 0 
L 794 531 
z
" transform="scale(0.015625)"/>
     </defs>
     <use xlink:href="#DejaVuSans-Oblique-52" transform="translate(0 0.765625)"/>
     <use xlink:href="#DejaVuSans-32" transform="translate(76.499193 39.046875) scale(0.7)"/>
     <use xlink:href="#DejaVuSans-3d" transform="translate(143.252122 0.765625)"/>
     <use xlink:href="#DejaVuSans-30" transform="translate(246.523607 0.765625)"/>
     <use xlink:href="#DejaVuSans-2e" transform="translate(310.146654 0.765625)"/>
     <use xlink:href="#DejaVuSans-39" transform="translate(341.933763 0.765625)"/>
     <use xlink:href="#DejaVuSans-31" transform="translate(405.55681 0.765625)"/>
     <use xlink:href="#DejaVuSans-36" transform="translate(469.179857 0.765625)"/>
    </g>
    <!-- $r = $0.957 -->
    <g transform="translate(78.03275 55.836925) scale(0.12 -0.12)">
     <defs>
      <path id="DejaVuSans-Oblique-72" d="M 2853 2969 
Q 2766 3016 2653 3041 
Q 2541 3066 2413 3066 
Q 1953 3066 1609 2717 
Q 1266 2369 1153 1784 
L 800 0 
L 225 0 
L 909 3500 
L 1484 3500 
L 1375 2956 
Q 1603 3259 1920 3421 
Q 2238 3584 2597 3584 
Q 2691 3584 2781 3573 
Q 2872 3563 2963 3538 
L 2853 2969 
z
" transform="scale(0.015625)"/>
     </defs>
     <use xlink:href="#DejaVuSans-Oblique-72" transform="translate(0 0.78125)"/>
     <use xlink:href="#DejaVuSans-3d" transform="translate(60.595703 0.78125)"/>
     <use xlink:href="#DejaVuSans-30" transform="translate(163.867188 0.78125)"/>
     <use xlink:href="#DejaVuSans-2e" transform="translate(227.490234 0.78125)"/>
     <use xlink:href="#DejaVuSans-39" transform="translate(259.277344 0.78125)"/>
     <use xlink:href="#DejaVuSans-35" transform="translate(322.900391 0.78125)"/>
     <use xlink:href="#DejaVuSans-37" transform="translate(379.273438 0.78125)"/>
    </g>
    <!-- $p$ &lt; 0.001 -->
    <g transform="translate(78.03275 69.2743) scale(0.12 -0.12)">
     <defs>
      <path id="DejaVuSans-Oblique-70" d="M 3175 2156 
Q 3175 2616 2975 2859 
Q 2775 3103 2400 3103 
Q 2144 3103 1911 2972 
Q 1678 2841 1497 2591 
Q 1319 2344 1212 1994 
Q 1106 1644 1106 1300 
Q 1106 863 1306 627 
Q 1506 391 1875 391 
Q 2147 391 2380 519 
Q 2613 647 2778 891 
Q 2956 1147 3065 1494 
Q 3175 1841 3175 2156 
z
M 1394 2969 
Q 1625 3272 1939 3428 
Q 2253 3584 2638 3584 
Q 3175 3584 3472 3232 
Q 3769 2881 3769 2247 
Q 3769 1728 3584 1258 
Q 3400 788 3053 416 
Q 2822 169 2531 39 
Q 2241 -91 1919 -91 
Q 1547 -91 1294 64 
Q 1041 219 916 525 
L 556 -1331 
L -19 -1331 
L 922 3500 
L 1497 3500 
L 1394 2969 
z
" transform="scale(0.015625)"/>
      <path id="DejaVuSans-3c" d="M 4684 3150 
L 1459 2003 
L 4684 863 
L 4684 294 
L 678 1747 
L 678 2266 
L 4684 3719 
L 4684 3150 
z
" transform="scale(0.015625)"/>
     </defs>
     <use xlink:href="#DejaVuSans-Oblique-70" transform="translate(0 0.78125)"/>
     <use xlink:href="#DejaVuSans-20" transform="translate(63.476562 0.78125)"/>
     <use xlink:href="#DejaVuSans-3c" transform="translate(95.263672 0.78125)"/>
     <use xlink:href="#DejaVuSans-20" transform="translate(179.052734 0.78125)"/>
     <use xlink:href="#DejaVuSans-30" transform="translate(210.839844 0.78125)"/>
     <use xlink:href="#DejaVuSans-2e" transform="translate(274.462891 0.78125)"/>
     <use xlink:href="#DejaVuSans-30" transform="translate(306.25 0.78125)"/>
     <use xlink:href="#DejaVuSans-30" transform="translate(369.873047 0.78125)"/>
     <use xlink:href="#DejaVuSans-31" transform="translate(433.496094 0.78125)"/>
    </g>
   </g>
   <g id="text_16">
    <!-- SVR: Actual vs. Predicted Median Sale Price -->
    <g transform="translate(61.7775 19.3575) scale(0.16 -0.16)">
     <defs>
      <path id="DejaVuSans-56" d="M 1831 0 
L 50 4666 
L 709 4666 
L 2188 738 
L 3669 4666 
L 4325 4666 
L 2547 0 
L 1831 0 
z
" transform="scale(0.015625)"/>
      <path id="DejaVuSans-52" d="M 2841 2188 
Q 3044 2119 3236 1894 
Q 3428 1669 3622 1275 
L 4263 0 
L 3584 0 
L 2988 1197 
Q 2756 1666 2539 1819 
Q 2322 1972 1947 1972 
L 1259 1972 
L 1259 0 
L 628 0 
L 628 4666 
L 2053 4666 
Q 2853 4666 3247 4331 
Q 3641 3997 3641 3322 
Q 3641 2881 3436 2590 
Q 3231 2300 2841 2188 
z
M 1259 4147 
L 1259 2491 
L 2053 2491 
Q 2509 2491 2742 2702 
Q 2975 2913 2975 3322 
Q 2975 3731 2742 3939 
Q 2509 4147 2053 4147 
L 1259 4147 
z
" transform="scale(0.015625)"/>
      <path id="DejaVuSans-3a" d="M 750 794 
L 1409 794 
L 1409 0 
L 750 0 
L 750 794 
z
M 750 3309 
L 1409 3309 
L 1409 2516 
L 750 2516 
L 750 3309 
z
" transform="scale(0.015625)"/>
      <path id="DejaVuSans-76" d="M 191 3500 
L 800 3500 
L 1894 563 
L 2988 3500 
L 3597 3500 
L 2284 0 
L 1503 0 
L 191 3500 
z
" transform="scale(0.015625)"/>
      <path id="DejaVuSans-73" d="M 2834 3397 
L 2834 2853 
Q 2591 2978 2328 3040 
Q 2066 3103 1784 3103 
Q 1356 3103 1142 2972 
Q 928 2841 928 2578 
Q 928 2378 1081 2264 
Q 1234 2150 1697 2047 
L 1894 2003 
Q 2506 1872 2764 1633 
Q 3022 1394 3022 966 
Q 3022 478 2636 193 
Q 2250 -91 1575 -91 
Q 1294 -91 989 -36 
Q 684 19 347 128 
L 347 722 
Q 666 556 975 473 
Q 1284 391 1588 391 
Q 1994 391 2212 530 
Q 2431 669 2431 922 
Q 2431 1156 2273 1281 
Q 2116 1406 1581 1522 
L 1381 1569 
Q 847 1681 609 1914 
Q 372 2147 372 2553 
Q 372 3047 722 3315 
Q 1072 3584 1716 3584 
Q 2034 3584 2315 3537 
Q 2597 3491 2834 3397 
z
" transform="scale(0.015625)"/>
     </defs>
     <use xlink:href="#DejaVuSans-53"/>
     <use xlink:href="#DejaVuSans-56" x="63.476562"/>
     <use xlink:href="#DejaVuSans-52" x="131.884766"/>
     <use xlink:href="#DejaVuSans-3a" x="198.242188"/>
     <use xlink:href="#DejaVuSans-20" x="231.933594"/>
     <use xlink:href="#DejaVuSans-41" x="263.720703"/>
     <use xlink:href="#DejaVuSans-63" x="330.378906"/>
     <use xlink:href="#DejaVuSans-74" x="385.359375"/>
     <use xlink:href="#DejaVuSans-75" x="424.568359"/>
     <use xlink:href="#DejaVuSans-61" x="487.947266"/>
     <use xlink:href="#DejaVuSans-6c" x="549.226562"/>
     <use xlink:href="#DejaVuSans-20" x="577.009766"/>
     <use xlink:href="#DejaVuSans-76" x="608.796875"/>
     <use xlink:href="#DejaVuSans-73" x="667.976562"/>
     <use xlink:href="#DejaVuSans-2e" x="720.076172"/>
     <use xlink:href="#DejaVuSans-20" x="751.863281"/>
     <use xlink:href="#DejaVuSans-50" x="783.650391"/>
     <use xlink:href="#DejaVuSans-72" x="842.203125"/>
     <use xlink:href="#DejaVuSans-65" x="881.066406"/>
     <use xlink:href="#DejaVuSans-64" x="942.589844"/>
     <use xlink:href="#DejaVuSans-69" x="1006.066406"/>
     <use xlink:href="#DejaVuSans-63" x="1033.849609"/>
     <use xlink:href="#DejaVuSans-74" x="1088.830078"/>
     <use xlink:href="#DejaVuSans-65" x="1128.039062"/>
     <use xlink:href="#DejaVuSans-64" x="1189.5625"/>
     <use xlink:href="#DejaVuSans-20" x="1253.039062"/>
     <use xlink:href="#DejaVuSans-4d" x="1284.826172"/>
     <use xlink:href="#DejaVuSans-65" x="1371.105469"/>
     <use xlink:href="#DejaVuSans-64" x="1432.628906"/>
     <use xlink:href="#DejaVuSans-69" x="1496.105469"/>
     <use xlink:href="#DejaVuSans-61" x="1523.888672"/>
     <use xlink:href="#DejaVuSans-6e" x="1585.167969"/>
     <use xlink:href="#DejaVuSans-20" x="1648.546875"/>
     <use xlink:href="#DejaVuSans-53" x="1680.333984"/>
     <use xlink:href="#DejaVuSans-61" x="1743.810547"/>
     <use xlink:href="#DejaVuSans-6c" x="1805.089844"/>
     <use xlink:href="#DejaVuSans-65" x="1832.873047"/>
     <use xlink:href="#DejaVuSans-20" x="1894.396484"/>
     <use xlink:href="#DejaVuSans-50" x="1926.183594"/>
     <use xlink:href="#DejaVuSans-72" x="1984.736328"/>
     <use xlink:href="#DejaVuSans-69" x="2025.849609"/>
     <use xlink:href="#DejaVuSans-63" x="2053.632812"/>
     <use xlink:href="#DejaVuSans-65" x="2108.613281"/>
    </g>
   </g>
  </g>
 </g>
 <defs>
  <clipPath id="paada98751c">
   <rect x="67.98875" y="29.3575" width="334.8" height="332.64"/>
  </clipPath>
 </defs>
</svg>
